<?xml version="1.0" encoding="UTF-8" standalone="no"?>
<!-- Created with Inkscape (http://www.inkscape.org/) -->

<svg
   xmlns:dc="http://purl.org/dc/elements/1.1/"
   xmlns:cc="http://creativecommons.org/ns#"
   xmlns:rdf="http://www.w3.org/1999/02/22-rdf-syntax-ns#"
   xmlns:svg="http://www.w3.org/2000/svg"
   xmlns="http://www.w3.org/2000/svg"
   xmlns:sodipodi="http://sodipodi.sourceforge.net/DTD/sodipodi-0.dtd"
   xmlns:inkscape="http://www.inkscape.org/namespaces/inkscape"
   width="62.441643mm"
   height="75.14167mm"
   viewBox="0 0 62.441643 75.14167"
   version="1.1"
   id="svg8"
   inkscape:version="0.92.3 (2405546, 2018-03-11)"
   sodipodi:docname="bokeh.svg">
  <defs
     id="defs2" />
  <sodipodi:namedview
     id="base"
     pagecolor="#ffffff"
     bordercolor="#666666"
     borderopacity="1.0"
     inkscape:pageopacity="0.0"
     inkscape:pageshadow="2"
     inkscape:zoom="0.7"
     inkscape:cx="-74.694508"
     inkscape:cy="243.49307"
     inkscape:document-units="mm"
     inkscape:current-layer="g866"
     showgrid="false"
     fit-margin-top="0"
     fit-margin-left="0"
     fit-margin-right="0"
     fit-margin-bottom="0"
     inkscape:window-width="1500"
     inkscape:window-height="937"
     inkscape:window-x="-8"
     inkscape:window-y="32"
     inkscape:window-maximized="1" />
  <metadata
     id="metadata5">
    <rdf:RDF>
      <cc:Work
         rdf:about="">
        <dc:format>image/svg+xml</dc:format>
        <dc:type
           rdf:resource="http://purl.org/dc/dcmitype/StillImage" />
        <dc:title></dc:title>
      </cc:Work>
    </rdf:RDF>
  </metadata>
  <g
     inkscape:label="Layer 1"
     inkscape:groupmode="layer"
     id="layer1"
     transform="translate(-1.977844,-55.296823)">
    <g
       id="g866"
       transform="translate(-57.502995,2.4694469)">
      <path
         style="fill:#f8aa05;stroke-width:0.35277778"
         d="m 60.27459,127.60528 c -0.787917,-0.31671 -0.793751,-0.37364 -0.793751,-7.74749 v -7.42843 l 0.970139,-0.37638 c 1.452166,-0.56339 6.710521,-0.21396 8.305819,0.55195 2.292974,1.10086 2.948571,3.29122 1.63165,5.45137 l -0.731422,1.19976 0.90504,0.8392 c 1.080262,1.00168 1.425104,2.17054 1.146629,3.88658 -0.433491,2.67129 -3.049153,4.0021 -7.792781,3.96485 -1.566165,-0.0123 -3.204761,-0.16594 -3.641323,-0.34141 z m 6.967361,-2.91267 c 1.15336,-0.5804 1.376544,-2.32345 0.409551,-3.19857 -0.522923,-0.47324 -1.167772,-0.59305 -2.751146,-0.51114 l -2.068128,0.10698 -0.11045,1.53966 c -0.06075,0.84682 -0.02604,1.75964 0.07712,2.02848 0.240248,0.62607 3.221538,0.64928 4.443051,0.0346 z m -0.07056,-7.02467 c 0.579739,-0.57974 0.533286,-2.22125 -0.0772,-2.7279 -0.288334,-0.2393 -1.297847,-0.36978 -2.38125,-0.30778 -1.850049,0.10586 -1.882564,0.12687 -1.993771,1.28773 -0.183861,1.91928 0.06544,2.17128 2.14809,2.17128 1.034437,0 2.071294,-0.1905 2.304127,-0.42333 z m 9.771945,9.80633 c -2.991936,-1.32067 -4.207506,-5.44138 -2.557639,-8.67024 1.063971,-2.08223 2.292546,-2.91116 4.598108,-3.10235 3.78355,-0.31376 6.350602,2.16616 6.350602,6.13505 0,2.29985 -1.210741,4.57395 -2.917511,5.47987 -1.430328,0.75919 -3.946626,0.83168 -5.47356,0.15767 z m 4.384117,-3.25696 c 1.143791,-1.4541 0.875651,-4.60598 -0.468179,-5.50328 -0.845716,-0.5647 -2.63694,-0.27608 -3.190379,0.51407 -0.720254,1.0283 -0.720254,4.10637 0,5.13467 0.803624,1.14734 2.700982,1.0719 3.658558,-0.14546 z m 6.446161,3.3284 c -0.304923,-0.30492 -0.423334,-2.71192 -0.423334,-8.60531 0,-8.96321 -0.08795,-8.61024 2.14552,-8.61024 h 1.02948 v 4.52731 c 0,2.49003 0.109836,4.63715 0.24408,4.7714 0.134244,0.13424 1.131943,-0.71242 2.21711,-1.88148 1.718705,-1.85158 2.13929,-2.12557 3.262877,-2.12557 0.709418,0 1.394146,0.16876 1.521622,0.37502 0.127477,0.20626 -0.742738,1.38987 -1.933808,2.63024 l -2.165582,2.25523 2.307406,3.02413 c 1.269076,1.66327 2.307407,3.17539 2.307407,3.36026 0,0.51206 -1.626087,0.80894 -2.586412,0.47221 -0.469039,-0.16447 -1.626789,-1.32803 -2.572776,-2.5857 -0.945989,-1.25767 -1.878729,-2.25168 -2.072757,-2.20892 -0.194028,0.0428 -0.401408,0.9869 -0.460844,2.09808 -0.05944,1.11118 -0.277313,2.22426 -0.484168,2.4735 -0.473505,0.57054 -1.778453,0.58721 -2.335821,0.0298 z m 13.531056,-0.35749 c -1.924847,-1.11644 -2.832756,-2.79533 -2.819382,-5.21354 0.02102,-3.80399 1.948232,-6.03527 5.422482,-6.27808 1.6208,-0.11328 2.17878,0.008 3.19807,0.69479 1.59034,1.07163 2.51343,2.88666 2.38954,4.69849 l -0.0965,1.41111 -3.52394,0.10199 c -1.93816,0.0561 -3.65943,0.23749 -3.82504,0.4031 -0.54375,0.54375 0.45251,1.75003 1.73863,2.10514 0.69328,0.19143 2.03246,0.25662 2.97596,0.14488 1.63975,-0.19421 1.726,-0.16105 1.95505,0.75155 0.35497,1.41431 -0.26727,1.76907 -3.30515,1.88442 -2.30785,0.0876 -2.9284,-0.0187 -4.10974,-0.70385 z m 5.09561,-7.15667 c 0,-0.75164 -1.28464,-1.94028 -2.09699,-1.94028 -0.91964,0 -2.67162,1.53597 -2.34844,2.05888 0.1469,0.23769 1.13625,0.41056 2.34959,0.41056 1.62779,0 2.09584,-0.11817 2.09584,-0.52916 z m 5.72611,7.64265 c -0.34554,-0.21932 -0.42592,-2.20759 -0.35278,-8.72584 l 0.0947,-8.44181 h 1.41111 1.41111 l 0.10284,2.51747 0.10284,2.51748 2.25844,0.1438 c 3.84989,0.24515 4.76783,1.71139 4.76783,7.61575 0,4.01481 -0.22214,4.668 -1.5875,4.668 -1.35061,0 -1.5875,-0.66272 -1.5875,-4.4412 0,-4.50964 -0.45443,-5.26422 -3.08681,-5.1256 -0.77786,0.041 -0.79375,0.12866 -0.79375,4.38096 0,2.90454 -0.13996,4.47914 -0.42333,4.7625 -0.48313,0.48313 -1.65604,0.54816 -2.31723,0.12849 z M 86.46834,99.549448 c -0.582083,-0.300192 -2.025181,-1.499827 -3.206883,-2.66585 l -2.148549,-2.120046 -3.182545,-0.298538 c -3.915012,-0.367246 -5.932767,-1.281829 -6.658153,-3.017923 -0.301561,-0.721737 -0.502481,-2.406149 -0.502481,-4.212548 0,-2.887754 0.03222,-3.009735 0.79375,-3.004821 1.177764,0.0076 16.20074,2.407889 16.415655,2.622802 0.101493,0.101494 -1.129454,1.622213 -2.735437,3.379378 -1.605983,1.757165 -2.825858,3.288958 -2.710834,3.403981 0.115024,0.115024 3.097657,-1.869362 6.628072,-4.40975 3.530416,-2.540389 6.551654,-4.536864 6.713865,-4.436613 0.162211,0.100252 0.294929,2.451754 0.294929,5.225561 v 5.043287 l -1.93481,1.829859 c -3.087796,2.920312 -5.597037,3.780103 -7.766579,2.661221 z m 10.985281,-4.661951 c -0.198402,-0.321021 2.00684,-16.893444 2.28497,-17.171573 0.10396,-0.103961 1.961789,1.516399 4.128509,3.600801 l 3.93949,3.78982 -0.21253,2.645834 c -0.29071,3.61889 -1.45529,6.200472 -3.10878,6.891341 -1.30181,0.543934 -6.729847,0.732113 -7.031659,0.243777 z m 9.561469,-11.809424 c -0.28857,-0.436563 -2.60614,-3.472116 -5.15016,-6.745675 -2.544017,-3.273558 -4.539303,-6.091371 -4.433967,-6.261806 0.105335,-0.170434 1.650587,-0.31903 3.433897,-0.330212 3.48761,-0.02187 6.284,-0.388616 5.7112,-0.749027 -0.19436,-0.122295 -3.84561,-0.738308 -8.113886,-1.368917 -4.268276,-0.630609 -7.906671,-1.275956 -8.085324,-1.434105 -0.185346,-0.164075 1.003595,-1.665567 2.768896,-3.496787 1.701546,-1.765085 3.007794,-3.29517 2.902776,-3.400191 -0.216772,-0.216768 -0.635448,0.06636 -7.504098,5.074667 -2.73871,1.996941 -5.159647,3.630802 -5.379861,3.630802 -0.280617,0 -0.40039,-1.560537 -0.40039,-5.216734 v -5.216735 l 1.675695,-1.628712 c 2.104649,-2.04564 4.099527,-3.107265 5.838801,-3.107265 1.804615,0 2.498555,0.400309 5.098203,2.940964 l 2.205753,2.155699 2.974765,0.23131 c 6.03761,0.469467 7.74809,2.290875 7.56557,8.056227 l -0.0981,3.099621 1.69486,1.900452 c 0.93217,1.045248 2.09457,2.7517 2.5831,3.792115 0.77606,1.652777 0.83887,2.053729 0.49742,3.175 -0.4238,1.391677 -4.05046,5.693059 -4.80004,5.693059 -0.25323,0 -0.69652,-0.357188 -0.98509,-0.79375 z m -37.902091,-1.5875 C 66.986515,79.183488 65.682555,76.455599 65.942,74.856831 c 0.23437,-1.444255 1.784956,-3.524415 3.841015,-5.152844 l 1.449647,-1.148141 0.562283,0.846873 c 0.309256,0.465781 2.57313,3.630919 5.030832,7.033639 2.457702,3.402721 4.393021,6.308972 4.300708,6.458337 -0.09231,0.149365 -2.485594,0.271572 -5.318404,0.271572 h -5.150563 z m 5.920422,-10.111899 -3.664345,-3.676859 0.196289,-2.586525 c 0.238708,-3.1455 1.051533,-5.295649 2.445261,-6.468394 0.962054,-0.809515 1.329269,-0.88063 4.547281,-0.88063 3.401691,0 3.500089,0.02245 3.47874,0.79375 -0.053,1.91484 -2.673271,16.273646 -2.9889,16.378856 -0.19249,0.06416 -1.998936,-1.537926 -4.014326,-3.560198 z"
         id="path884"
         inkscape:connector-curvature="0" />
      <path
         style="fill:#29a8c7;stroke-width:0.35277778"
         d="m 60.27459,127.60528 c -0.787917,-0.31671 -0.793751,-0.37364 -0.793751,-7.74749 v -7.42843 l 0.970139,-0.37638 c 1.452166,-0.56339 6.710521,-0.21396 8.305819,0.55195 2.292974,1.10086 2.948571,3.29122 1.63165,5.45137 l -0.731422,1.19976 0.90504,0.8392 c 1.080262,1.00168 1.425104,2.17054 1.146629,3.88658 -0.433491,2.67129 -3.049153,4.0021 -7.792781,3.96485 -1.566165,-0.0123 -3.204761,-0.16594 -3.641323,-0.34141 z m 6.967361,-2.91267 c 1.15336,-0.5804 1.376544,-2.32345 0.409551,-3.19857 -0.522923,-0.47324 -1.167772,-0.59305 -2.751146,-0.51114 l -2.068128,0.10698 -0.11045,1.53966 c -0.06075,0.84682 -0.02604,1.75964 0.07712,2.02848 0.240248,0.62607 3.221538,0.64928 4.443051,0.0346 z m -0.07056,-7.02467 c 0.579739,-0.57974 0.533286,-2.22125 -0.0772,-2.7279 -0.288334,-0.2393 -1.297847,-0.36978 -2.38125,-0.30778 -1.850049,0.10586 -1.882564,0.12687 -1.993771,1.28773 -0.183861,1.91928 0.06544,2.17128 2.14809,2.17128 1.034437,0 2.071294,-0.1905 2.304127,-0.42333 z m 9.771945,9.80633 c -2.991936,-1.32067 -4.207506,-5.44138 -2.557639,-8.67024 1.063971,-2.08223 2.292546,-2.91116 4.598108,-3.10235 3.78355,-0.31376 6.350602,2.16616 6.350602,6.13505 0,2.29985 -1.210741,4.57395 -2.917511,5.47987 -1.430328,0.75919 -3.946626,0.83168 -5.47356,0.15767 z m 4.384117,-3.25696 c 1.143791,-1.4541 0.875651,-4.60598 -0.468179,-5.50328 -0.845716,-0.5647 -2.63694,-0.27608 -3.190379,0.51407 -0.720254,1.0283 -0.720254,4.10637 0,5.13467 0.803624,1.14734 2.700982,1.0719 3.658558,-0.14546 z m 6.446161,3.3284 c -0.304923,-0.30492 -0.423334,-2.71192 -0.423334,-8.60531 0,-8.96321 -0.08795,-8.61024 2.14552,-8.61024 h 1.02948 v 4.52731 c 0,2.49003 0.109836,4.63715 0.24408,4.7714 0.134244,0.13424 1.131943,-0.71242 2.21711,-1.88148 1.718705,-1.85158 2.13929,-2.12557 3.262877,-2.12557 0.709418,0 1.394146,0.16876 1.521622,0.37502 0.127477,0.20626 -0.742738,1.38987 -1.933808,2.63024 l -2.165582,2.25523 2.307406,3.02413 c 1.269076,1.66327 2.307407,3.17539 2.307407,3.36026 0,0.51206 -1.626087,0.80894 -2.586412,0.47221 -0.469039,-0.16447 -1.626789,-1.32803 -2.572776,-2.5857 -0.945989,-1.25767 -1.878729,-2.25168 -2.072757,-2.20892 -0.194028,0.0428 -0.401408,0.9869 -0.460844,2.09808 -0.05944,1.11118 -0.277313,2.22426 -0.484168,2.4735 -0.473505,0.57054 -1.778453,0.58721 -2.335821,0.0298 z m 13.531056,-0.35749 c -1.924847,-1.11644 -2.832756,-2.79533 -2.819382,-5.21354 0.02102,-3.80399 1.948232,-6.03527 5.422482,-6.27808 1.6208,-0.11328 2.17878,0.008 3.19807,0.69479 1.59034,1.07163 2.51343,2.88666 2.38954,4.69849 l -0.0965,1.41111 -3.52394,0.10199 c -1.93816,0.0561 -3.65943,0.23749 -3.82504,0.4031 -0.54375,0.54375 0.45251,1.75003 1.73863,2.10514 0.69328,0.19143 2.03246,0.25662 2.97596,0.14488 1.63975,-0.19421 1.726,-0.16105 1.95505,0.75155 0.35497,1.41431 -0.26727,1.76907 -3.30515,1.88442 -2.30785,0.0876 -2.9284,-0.0187 -4.10974,-0.70385 z m 5.09561,-7.15667 c 0,-0.75164 -1.28464,-1.94028 -2.09699,-1.94028 -0.91964,0 -2.67162,1.53597 -2.34844,2.05888 0.1469,0.23769 1.13625,0.41056 2.34959,0.41056 1.62779,0 2.09584,-0.11817 2.09584,-0.52916 z m 5.72611,7.64265 c -0.34554,-0.21932 -0.42592,-2.20759 -0.35278,-8.72584 l 0.0947,-8.44181 h 1.41111 1.41111 l 0.10284,2.51747 0.10284,2.51748 2.25844,0.1438 c 3.84989,0.24515 4.76783,1.71139 4.76783,7.61575 0,4.01481 -0.22214,4.668 -1.5875,4.668 -1.35061,0 -1.5875,-0.66272 -1.5875,-4.4412 0,-4.50964 -0.45443,-5.26422 -3.08681,-5.1256 -0.77786,0.041 -0.79375,0.12866 -0.79375,4.38096 0,2.90454 -0.13996,4.47914 -0.42333,4.7625 -0.48313,0.48313 -1.65604,0.54816 -2.31723,0.12849 z M 86.46834,99.549448 c -0.582083,-0.300192 -2.025181,-1.499827 -3.206883,-2.66585 l -2.148549,-2.120046 -3.182545,-0.298538 c -3.915012,-0.367246 -5.932767,-1.281829 -6.658153,-3.017923 -0.301561,-0.721737 -0.502481,-2.406149 -0.502481,-4.212548 0,-2.887754 0.03222,-3.009735 0.79375,-3.004821 1.177764,0.0076 16.20074,2.407889 16.415655,2.622802 0.101493,0.101494 -1.129454,1.622213 -2.735437,3.379378 -1.605983,1.757165 -2.825858,3.288958 -2.710834,3.403981 0.115024,0.115024 3.097657,-1.869362 6.628072,-4.40975 3.530416,-2.540389 6.551654,-4.536864 6.713865,-4.436613 0.162211,0.100252 0.294929,2.451754 0.294929,5.225561 v 5.043287 l -1.93481,1.829859 c -3.087796,2.920312 -5.597037,3.780103 -7.766579,2.661221 z m 10.985281,-4.661951 c -0.198402,-0.321021 2.00684,-16.893444 2.28497,-17.171573 0.10396,-0.103961 1.961789,1.516399 4.128509,3.600801 l 3.93949,3.78982 -0.21253,2.645834 c -0.29071,3.61889 -1.45529,6.200472 -3.10878,6.891341 -1.30181,0.543934 -6.729847,0.732113 -7.031659,0.243777 z m 9.561469,-11.809424 c -0.28857,-0.436563 -2.60614,-3.472116 -5.15016,-6.745675 -2.544017,-3.273558 -4.539303,-6.091371 -4.433967,-6.261806 0.105335,-0.170434 1.650587,-0.31903 3.433897,-0.330212 3.48761,-0.02187 6.284,-0.388616 5.7112,-0.749027 -0.19436,-0.122295 -3.84561,-0.738308 -8.113886,-1.368917 -4.268276,-0.630609 -7.906671,-1.275956 -8.085324,-1.434105 -0.185346,-0.164075 1.003595,-1.665567 2.768896,-3.496787 1.701546,-1.765085 3.007794,-3.29517 2.902776,-3.400191 -0.216772,-0.216768 -0.635448,0.06636 -7.504098,5.074667 -2.73871,1.996941 -5.159647,3.630802 -5.379861,3.630802 -0.280617,0 -0.40039,-1.560537 -0.40039,-5.216734 v -5.216735 l 1.675695,-1.628712 c 2.104649,-2.04564 4.099527,-3.107265 5.838801,-3.107265 1.804615,0 2.498555,0.400309 5.098203,2.940964 l 2.205753,2.155699 2.974765,0.23131 c 6.03761,0.469467 7.74809,2.290875 7.56557,8.056227 l -0.0981,3.099621 1.69486,1.900452 c 0.93217,1.045248 2.09457,2.7517 2.5831,3.792115 0.77606,1.652777 0.83887,2.053729 0.49742,3.175 -0.4238,1.391677 -4.05046,5.693059 -4.80004,5.693059 -0.25323,0 -0.69652,-0.357188 -0.98509,-0.79375 z M 75.033421,71.378674 71.369076,67.701815 71.565365,65.11529 c 0.238708,-3.1455 1.051533,-5.295649 2.445261,-6.468394 0.962054,-0.809515 1.329269,-0.88063 4.547281,-0.88063 3.401691,0 3.500089,0.02245 3.47874,0.79375 -0.053,1.91484 -2.673271,16.273646 -2.9889,16.378856 -0.19249,0.06416 -1.998936,-1.537926 -4.014326,-3.560198 z"
         id="path882"
         inkscape:connector-curvature="0" />
      <path
         style="fill:#a3e805;stroke-width:0.35277778"
         d="m 60.27459,127.60528 c -0.787917,-0.31671 -0.793751,-0.37364 -0.793751,-7.74749 v -7.42843 l 0.970139,-0.37638 c 1.452166,-0.56339 6.710521,-0.21396 8.305819,0.55195 2.292974,1.10086 2.948571,3.29122 1.63165,5.45137 l -0.731422,1.19976 0.90504,0.8392 c 1.080262,1.00168 1.425104,2.17054 1.146629,3.88658 -0.433491,2.67129 -3.049153,4.0021 -7.792781,3.96485 -1.566165,-0.0123 -3.204761,-0.16594 -3.641323,-0.34141 z m 6.967361,-2.91267 c 1.15336,-0.5804 1.376544,-2.32345 0.409551,-3.19857 -0.522923,-0.47324 -1.167772,-0.59305 -2.751146,-0.51114 l -2.068128,0.10698 -0.11045,1.53966 c -0.06075,0.84682 -0.02604,1.75964 0.07712,2.02848 0.240248,0.62607 3.221538,0.64928 4.443051,0.0346 z m -0.07056,-7.02467 c 0.579739,-0.57974 0.533286,-2.22125 -0.0772,-2.7279 -0.288334,-0.2393 -1.297847,-0.36978 -2.38125,-0.30778 -1.850049,0.10586 -1.882564,0.12687 -1.993771,1.28773 -0.183861,1.91928 0.06544,2.17128 2.14809,2.17128 1.034437,0 2.071294,-0.1905 2.304127,-0.42333 z m 9.771945,9.80633 c -2.991936,-1.32067 -4.207506,-5.44138 -2.557639,-8.67024 1.063971,-2.08223 2.292546,-2.91116 4.598108,-3.10235 3.78355,-0.31376 6.350602,2.16616 6.350602,6.13505 0,2.29985 -1.210741,4.57395 -2.917511,5.47987 -1.430328,0.75919 -3.946626,0.83168 -5.47356,0.15767 z m 4.384117,-3.25696 c 1.143791,-1.4541 0.875651,-4.60598 -0.468179,-5.50328 -0.845716,-0.5647 -2.63694,-0.27608 -3.190379,0.51407 -0.720254,1.0283 -0.720254,4.10637 0,5.13467 0.803624,1.14734 2.700982,1.0719 3.658558,-0.14546 z m 6.446161,3.3284 c -0.304923,-0.30492 -0.423334,-2.71192 -0.423334,-8.60531 0,-8.96321 -0.08795,-8.61024 2.14552,-8.61024 h 1.02948 v 4.52731 c 0,2.49003 0.109836,4.63715 0.24408,4.7714 0.134244,0.13424 1.131943,-0.71242 2.21711,-1.88148 1.718705,-1.85158 2.13929,-2.12557 3.262877,-2.12557 0.709418,0 1.394146,0.16876 1.521622,0.37502 0.127477,0.20626 -0.742738,1.38987 -1.933808,2.63024 l -2.165582,2.25523 2.307406,3.02413 c 1.269076,1.66327 2.307407,3.17539 2.307407,3.36026 0,0.51206 -1.626087,0.80894 -2.586412,0.47221 -0.469039,-0.16447 -1.626789,-1.32803 -2.572776,-2.5857 -0.945989,-1.25767 -1.878729,-2.25168 -2.072757,-2.20892 -0.194028,0.0428 -0.401408,0.9869 -0.460844,2.09808 -0.05944,1.11118 -0.277313,2.22426 -0.484168,2.4735 -0.473505,0.57054 -1.778453,0.58721 -2.335821,0.0298 z m 13.531056,-0.35749 c -1.924847,-1.11644 -2.832756,-2.79533 -2.819382,-5.21354 0.02102,-3.80399 1.948232,-6.03527 5.422482,-6.27808 1.6208,-0.11328 2.17878,0.008 3.19807,0.69479 1.59034,1.07163 2.51343,2.88666 2.38954,4.69849 l -0.0965,1.41111 -3.52394,0.10199 c -1.93816,0.0561 -3.65943,0.23749 -3.82504,0.4031 -0.54375,0.54375 0.45251,1.75003 1.73863,2.10514 0.69328,0.19143 2.03246,0.25662 2.97596,0.14488 1.63975,-0.19421 1.726,-0.16105 1.95505,0.75155 0.35497,1.41431 -0.26727,1.76907 -3.30515,1.88442 -2.30785,0.0876 -2.9284,-0.0187 -4.10974,-0.70385 z m 5.09561,-7.15667 c 0,-0.75164 -1.28464,-1.94028 -2.09699,-1.94028 -0.91964,0 -2.67162,1.53597 -2.34844,2.05888 0.1469,0.23769 1.13625,0.41056 2.34959,0.41056 1.62779,0 2.09584,-0.11817 2.09584,-0.52916 z m 5.72611,7.64265 c -0.34554,-0.21932 -0.42592,-2.20759 -0.35278,-8.72584 l 0.0947,-8.44181 h 1.41111 1.41111 l 0.10284,2.51747 0.10284,2.51748 2.25844,0.1438 c 3.84989,0.24515 4.76783,1.71139 4.76783,7.61575 0,4.01481 -0.22214,4.668 -1.5875,4.668 -1.35061,0 -1.5875,-0.66272 -1.5875,-4.4412 0,-4.50964 -0.45443,-5.26422 -3.08681,-5.1256 -0.77786,0.041 -0.79375,0.12866 -0.79375,4.38096 0,2.90454 -0.13996,4.47914 -0.42333,4.7625 -0.48313,0.48313 -1.65604,0.54816 -2.31723,0.12849 z M 86.46834,99.549448 c -0.582083,-0.300192 -2.025181,-1.499827 -3.206883,-2.66585 l -2.148549,-2.120046 -3.182545,-0.298538 c -3.915012,-0.367246 -5.932767,-1.281829 -6.658153,-3.017923 -0.301561,-0.721737 -0.502481,-2.406149 -0.502481,-4.212548 0,-2.887754 0.03222,-3.009735 0.79375,-3.004821 1.177764,0.0076 16.20074,2.407889 16.415655,2.622802 0.101493,0.101494 -1.129454,1.622213 -2.735437,3.379378 -1.605983,1.757165 -2.825858,3.288958 -2.710834,3.403981 0.115024,0.115024 3.097657,-1.869362 6.628072,-4.40975 3.530416,-2.540389 6.551654,-4.536864 6.713865,-4.436613 0.162211,0.100252 0.294929,2.451754 0.294929,5.225561 v 5.043287 l -1.93481,1.829859 c -3.087796,2.920312 -5.597037,3.780103 -7.766579,2.661221 z m 10.985281,-4.661951 c -0.198402,-0.321021 2.00684,-16.893444 2.28497,-17.171573 0.10396,-0.103961 1.961789,1.516399 4.128509,3.600801 l 3.93949,3.78982 -0.21253,2.645834 c -0.29071,3.61889 -1.45529,6.200472 -3.10878,6.891341 -1.30181,0.543934 -6.729847,0.732113 -7.031659,0.243777 z m -22.4202,-23.508823 -3.664345,-3.676859 0.196289,-2.586525 c 0.238708,-3.1455 1.051533,-5.295649 2.445261,-6.468394 0.962054,-0.809515 1.329269,-0.88063 4.547281,-0.88063 3.401691,0 3.500089,0.02245 3.47874,0.79375 -0.053,1.91484 -2.673271,16.273646 -2.9889,16.378856 -0.19249,0.06416 -1.998936,-1.537926 -4.014326,-3.560198 z m 8.014427,-8.585325 -0.107286,-4.850694 1.234722,-1.367642 c 2.072645,-2.295768 4.089543,-3.394859 6.229772,-3.394859 1.788533,0 1.944883,0.08099 4.164265,2.157115 1.268282,1.186413 2.305964,2.277979 2.305964,2.425702 0,0.261434 -13.182128,9.881073 -13.540379,9.881073 -0.09888,0 -0.228052,-2.182813 -0.287058,-4.850695 z"
         id="path880"
         inkscape:connector-curvature="0" />
      <path
         style="fill:#b35e62;stroke-width:0.35277778"
         d="m 60.27459,127.60528 c -0.787917,-0.31671 -0.793751,-0.37364 -0.793751,-7.74749 v -7.42843 l 0.970139,-0.37638 c 1.452166,-0.56339 6.710521,-0.21396 8.305819,0.55195 2.292974,1.10086 2.948571,3.29122 1.63165,5.45137 l -0.731422,1.19976 0.90504,0.8392 c 1.080262,1.00168 1.425104,2.17054 1.146629,3.88658 -0.433491,2.67129 -3.049153,4.0021 -7.792781,3.96485 -1.566165,-0.0123 -3.204761,-0.16594 -3.641323,-0.34141 z m 6.967361,-2.91267 c 1.15336,-0.5804 1.376544,-2.32345 0.409551,-3.19857 -0.522923,-0.47324 -1.167772,-0.59305 -2.751146,-0.51114 l -2.068128,0.10698 -0.11045,1.53966 c -0.06075,0.84682 -0.02604,1.75964 0.07712,2.02848 0.240248,0.62607 3.221538,0.64928 4.443051,0.0346 z m -0.07056,-7.02467 c 0.579739,-0.57974 0.533286,-2.22125 -0.0772,-2.7279 -0.288334,-0.2393 -1.297847,-0.36978 -2.38125,-0.30778 -1.850049,0.10586 -1.882564,0.12687 -1.993771,1.28773 -0.183861,1.91928 0.06544,2.17128 2.14809,2.17128 1.034437,0 2.071294,-0.1905 2.304127,-0.42333 z m 9.771945,9.80633 c -2.991936,-1.32067 -4.207506,-5.44138 -2.557639,-8.67024 1.063971,-2.08223 2.292546,-2.91116 4.598108,-3.10235 3.78355,-0.31376 6.350602,2.16616 6.350602,6.13505 0,2.29985 -1.210741,4.57395 -2.917511,5.47987 -1.430328,0.75919 -3.946626,0.83168 -5.47356,0.15767 z m 4.384117,-3.25696 c 1.143791,-1.4541 0.875651,-4.60598 -0.468179,-5.50328 -0.845716,-0.5647 -2.63694,-0.27608 -3.190379,0.51407 -0.720254,1.0283 -0.720254,4.10637 0,5.13467 0.803624,1.14734 2.700982,1.0719 3.658558,-0.14546 z m 6.446161,3.3284 c -0.304923,-0.30492 -0.423334,-2.71192 -0.423334,-8.60531 0,-8.96321 -0.08795,-8.61024 2.14552,-8.61024 h 1.02948 v 4.52731 c 0,2.49003 0.109836,4.63715 0.24408,4.7714 0.134244,0.13424 1.131943,-0.71242 2.21711,-1.88148 1.718705,-1.85158 2.13929,-2.12557 3.262877,-2.12557 0.709418,0 1.394146,0.16876 1.521622,0.37502 0.127477,0.20626 -0.742738,1.38987 -1.933808,2.63024 l -2.165582,2.25523 2.307406,3.02413 c 1.269076,1.66327 2.307407,3.17539 2.307407,3.36026 0,0.51206 -1.626087,0.80894 -2.586412,0.47221 -0.469039,-0.16447 -1.626789,-1.32803 -2.572776,-2.5857 -0.945989,-1.25767 -1.878729,-2.25168 -2.072757,-2.20892 -0.194028,0.0428 -0.401408,0.9869 -0.460844,2.09808 -0.05944,1.11118 -0.277313,2.22426 -0.484168,2.4735 -0.473505,0.57054 -1.778453,0.58721 -2.335821,0.0298 z m 13.531056,-0.35749 c -1.924847,-1.11644 -2.832756,-2.79533 -2.819382,-5.21354 0.02102,-3.80399 1.948232,-6.03527 5.422482,-6.27808 1.6208,-0.11328 2.17878,0.008 3.19807,0.69479 1.59034,1.07163 2.51343,2.88666 2.38954,4.69849 l -0.0965,1.41111 -3.52394,0.10199 c -1.93816,0.0561 -3.65943,0.23749 -3.82504,0.4031 -0.54375,0.54375 0.45251,1.75003 1.73863,2.10514 0.69328,0.19143 2.03246,0.25662 2.97596,0.14488 1.63975,-0.19421 1.726,-0.16105 1.95505,0.75155 0.35497,1.41431 -0.26727,1.76907 -3.30515,1.88442 -2.30785,0.0876 -2.9284,-0.0187 -4.10974,-0.70385 z m 5.09561,-7.15667 c 0,-0.75164 -1.28464,-1.94028 -2.09699,-1.94028 -0.91964,0 -2.67162,1.53597 -2.34844,2.05888 0.1469,0.23769 1.13625,0.41056 2.34959,0.41056 1.62779,0 2.09584,-0.11817 2.09584,-0.52916 z m 5.72611,7.64265 c -0.34554,-0.21932 -0.42592,-2.20759 -0.35278,-8.72584 l 0.0947,-8.44181 h 1.41111 1.41111 l 0.10284,2.51747 0.10284,2.51748 2.25844,0.1438 c 3.84989,0.24515 4.76783,1.71139 4.76783,7.61575 0,4.01481 -0.22214,4.668 -1.5875,4.668 -1.35061,0 -1.5875,-0.66272 -1.5875,-4.4412 0,-4.50964 -0.45443,-5.26422 -3.08681,-5.1256 -0.77786,0.041 -0.79375,0.12866 -0.79375,4.38096 0,2.90454 -0.13996,4.47914 -0.42333,4.7625 -0.48313,0.48313 -1.65604,0.54816 -2.31723,0.12849 z M 86.46834,99.549448 c -0.582083,-0.300192 -2.025181,-1.499827 -3.206883,-2.66585 l -2.148549,-2.120046 -3.182545,-0.298538 c -3.915012,-0.367246 -5.932767,-1.281829 -6.658153,-3.017923 -0.301561,-0.721737 -0.502481,-2.406149 -0.502481,-4.212548 0,-2.887754 0.03222,-3.009735 0.79375,-3.004821 1.177764,0.0076 16.20074,2.407889 16.415655,2.622802 0.101493,0.101494 -1.129454,1.622213 -2.735437,3.379378 -1.605983,1.757165 -2.825858,3.288958 -2.710834,3.403981 0.115024,0.115024 3.097657,-1.869362 6.628072,-4.40975 3.530416,-2.540389 6.551654,-4.536864 6.713865,-4.436613 0.162211,0.100252 0.294929,2.451754 0.294929,5.225561 v 5.043287 l -1.93481,1.829859 c -3.087796,2.920312 -5.597037,3.780103 -7.766579,2.661221 z m 10.985281,-4.661951 c -0.198402,-0.321021 2.00684,-16.893444 2.28497,-17.171573 0.10396,-0.103961 1.961789,1.516399 4.128509,3.600801 l 3.93949,3.78982 -0.21253,2.645834 c -0.29071,3.61889 -1.45529,6.200472 -3.10878,6.891341 -1.30181,0.543934 -6.729847,0.732113 -7.031659,0.243777 z M 83.047848,62.793349 82.940562,57.942655 84.175284,56.575013 c 2.072645,-2.295768 4.089543,-3.394859 6.229772,-3.394859 1.788533,0 1.944883,0.08099 4.164265,2.157115 1.268282,1.186413 2.305964,2.277979 2.305964,2.425702 0,0.261434 -13.182128,9.881073 -13.540379,9.881073 -0.09888,0 -0.228052,-2.182813 -0.287058,-4.850695 z"
         id="path878"
         inkscape:connector-curvature="0" />
      <path
         style="fill:#f30557;stroke-width:0.35277778"
         d="m 60.627367,127.27279 c -0.785485,-0.33581 -0.79375,-0.41301 -0.79375,-7.415 v -7.07565 l 0.904911,-0.34405 c 1.299123,-0.49392 5.389374,-0.39585 6.967747,0.16706 1.830584,0.65287 2.654104,1.47443 2.924907,2.91794 0.174935,0.93248 0.05333,1.4518 -0.522267,2.23033 -0.983826,1.3307 -0.950838,1.63133 0.308036,2.80729 1.899663,1.77455 1.224219,4.97462 -1.307377,6.19399 -1.526662,0.73533 -7.168071,1.07991 -8.482207,0.51809 z m 6.72597,-2.17878 c 1.045992,-0.55056 1.287983,-0.98438 1.294323,-2.3203 0.0079,-1.66595 -1.110351,-2.27583 -3.928498,-2.14254 l -2.239711,0.10593 -0.108231,1.89823 c -0.05953,1.04402 -0.02482,2.11559 0.07712,2.38125 0.232736,0.6065 3.793073,0.6627 4.904995,0.0774 z m 0.05637,-7.12919 c 0.886827,-0.64847 0.874795,-2.63521 -0.01992,-3.28944 -0.446906,-0.32679 -1.391497,-0.45904 -2.792824,-0.39104 l -2.117513,0.10276 -0.110451,1.53967 c -0.06075,0.84681 -0.02604,1.75963 0.07712,2.02847 0.251736,0.65601 4.069457,0.66338 4.963587,0.01 z m 9.86712,9.31317 c -1.345092,-0.54476 -2.918457,-2.71912 -3.167041,-4.3768 -0.307601,-2.05123 0.03989,-3.52177 1.141569,-4.83104 2.608393,-3.0999 7.276454,-2.71983 9.011573,0.73371 0.791651,1.57568 0.791651,4.40747 0,5.98316 -1.188549,2.36566 -4.436233,3.52365 -6.986101,2.49097 z m 4.221859,-2.49985 c 0.958707,-0.92025 1.20721,-4.24458 0.408425,-5.46368 -0.777818,-1.1871 -2.020952,-1.64279 -3.28215,-1.20314 -1.898877,0.66195 -2.708407,3.48778 -1.609845,5.61949 1.083042,2.10159 2.934653,2.53412 4.48357,1.04733 z m 20.668264,2.44276 c -2.488849,-0.98952 -3.946996,-4.14599 -3.198821,-6.92451 0.741507,-2.75374 2.697601,-4.32281 5.386161,-4.32047 2.8691,0.002 4.86822,2.09298 4.86822,5.0907 v 1.23411 l -3.79236,0.10013 c -3.5076,0.0926 -3.80009,0.15408 -3.89523,0.81861 -0.0599,0.41807 0.28407,1.08182 0.82258,1.5875 0.80982,0.76044 1.22791,0.86385 3.34629,0.82766 1.91384,-0.0327 2.46594,0.0762 2.6362,0.51986 0.12556,0.3272 -0.0414,0.74898 -0.40043,1.0115 -0.72391,0.52933 -4.48925,0.56515 -5.77261,0.0549 z m 4.47694,-6.88452 c 0.48515,-1.26429 -1.57878,-2.87052 -3.174,-2.47014 -1.08625,0.27263 -2.18107,1.73592 -1.88197,2.51536 0.3066,0.79896 4.74727,0.75924 5.05597,-0.0452 z m -18.859138,-1.27497 0.0947,-8.20209 1.146528,-0.11054 1.146528,-0.11055 v 4.61954 c 0,5.70837 0.26078,5.98584 2.87214,3.05596 1.52073,-1.70622 1.946631,-1.98635 3.019993,-1.98635 h 1.249585 l -1.983359,2.25908 c -1.090849,1.24249 -1.983359,2.36811 -1.983359,2.50137 0,0.13326 0.686689,1.06137 1.525972,2.06245 0.839283,1.00109 1.881971,2.33609 2.317076,2.96668 l 0.791108,1.14653 h -1.386629 c -1.307694,0 -1.491946,-0.14163 -3.236753,-2.48804 -2.377769,-3.19762 -2.969484,-3.17663 -3.113698,0.11044 l -0.104313,2.3776 h -1.225106 -1.225106 z m 24.341668,0 0.0947,-8.20209 1.13064,-0.10936 1.13065,-0.10936 0.10408,2.57881 0.10407,2.5788 2.13354,0.17639 c 3.9935,0.33016 4.74032,1.53816 4.74366,7.67292 l 0.002,3.61597 h -1.23472 -1.23472 l -0.005,-3.61597 c -0.003,-2.16333 -0.18026,-3.95908 -0.44097,-4.47006 -0.5536,-1.08501 -1.97249,-1.57494 -3.20456,-1.10651 l -0.9354,0.35563 v 4.41846 4.41845 h -1.24122 -1.24122 z M 86.997507,99.693657 c -0.48507,-0.182958 -1.993195,-1.420608 -3.351389,-2.750334 l -2.469445,-2.417685 -3.006416,-0.144169 c -5.485022,-0.263028 -7.080637,-1.670862 -7.332505,-6.469582 -0.09107,-1.735176 -0.01155,-3.179312 0.185942,-3.376807 0.303305,-0.303305 15.089376,1.785434 16.646282,2.351518 0.334445,0.121607 -0.585109,1.286338 -2.822222,3.574709 -5.329775,5.451895 -3.75512,4.752678 7.265031,-3.225991 1.74625,-1.264299 3.294062,-2.300173 3.439583,-2.301942 0.145521,-0.0018 0.264583,2.364542 0.264583,5.258467 v 5.261688 l -1.675694,1.477292 c -2.747592,2.422275 -5.363939,3.434149 -7.14375,2.762836 z m 10.456114,-4.80616 c -0.198402,-0.321021 2.00684,-16.893444 2.28497,-17.171573 0.10396,-0.103961 1.961789,1.516399 4.128509,3.600801 l 3.93949,3.78982 -0.21253,2.645834 c -0.29071,3.61889 -1.45529,6.200472 -3.10878,6.891341 -1.30181,0.543934 -6.729847,0.732113 -7.031659,0.243777 z M 83.047848,62.793349 82.940562,57.942655 84.175284,56.575013 c 2.072645,-2.295768 4.089543,-3.394859 6.229772,-3.394859 1.788533,0 1.944883,0.08099 4.164265,2.157115 1.268282,1.186413 2.305964,2.277979 2.305964,2.425702 0,0.261434 -13.182128,9.881073 -13.540379,9.881073 -0.09888,0 -0.228052,-2.182813 -0.287058,-4.850695 z"
         id="path876"
         inkscape:connector-curvature="0" />
      <path
         style="fill:#9e1c92;stroke-width:0.35277778"
         d="m 60.627367,127.27279 c -0.785485,-0.33581 -0.79375,-0.41301 -0.79375,-7.415 v -7.07565 l 0.904911,-0.34405 c 1.299123,-0.49392 5.389374,-0.39585 6.967747,0.16706 1.830584,0.65287 2.654104,1.47443 2.924907,2.91794 0.174935,0.93248 0.05333,1.4518 -0.522267,2.23033 -0.983826,1.3307 -0.950838,1.63133 0.308036,2.80729 1.899663,1.77455 1.224219,4.97462 -1.307377,6.19399 -1.526662,0.73533 -7.168071,1.07991 -8.482207,0.51809 z m 6.72597,-2.17878 c 1.045992,-0.55056 1.287983,-0.98438 1.294323,-2.3203 0.0079,-1.66595 -1.110351,-2.27583 -3.928498,-2.14254 l -2.239711,0.10593 -0.108231,1.89823 c -0.05953,1.04402 -0.02482,2.11559 0.07712,2.38125 0.232736,0.6065 3.793073,0.6627 4.904995,0.0774 z m 0.05637,-7.12919 c 0.886827,-0.64847 0.874795,-2.63521 -0.01992,-3.28944 -0.446906,-0.32679 -1.391497,-0.45904 -2.792824,-0.39104 l -2.117513,0.10276 -0.110451,1.53967 c -0.06075,0.84681 -0.02604,1.75963 0.07712,2.02847 0.251736,0.65601 4.069457,0.66338 4.963587,0.01 z m 9.86712,9.31317 c -1.345092,-0.54476 -2.918457,-2.71912 -3.167041,-4.3768 -0.307601,-2.05123 0.03989,-3.52177 1.141569,-4.83104 2.608393,-3.0999 7.276454,-2.71983 9.011573,0.73371 0.791651,1.57568 0.791651,4.40747 0,5.98316 -1.188549,2.36566 -4.436233,3.52365 -6.986101,2.49097 z m 4.221859,-2.49985 c 0.958707,-0.92025 1.20721,-4.24458 0.408425,-5.46368 -0.777818,-1.1871 -2.020952,-1.64279 -3.28215,-1.20314 -1.898877,0.66195 -2.708407,3.48778 -1.609845,5.61949 1.083042,2.10159 2.934653,2.53412 4.48357,1.04733 z m 20.668264,2.44276 c -2.488849,-0.98952 -3.946996,-4.14599 -3.198821,-6.92451 0.741507,-2.75374 2.697601,-4.32281 5.386161,-4.32047 2.8691,0.002 4.86822,2.09298 4.86822,5.0907 v 1.23411 l -3.79236,0.10013 c -3.5076,0.0926 -3.80009,0.15408 -3.89523,0.81861 -0.0599,0.41807 0.28407,1.08182 0.82258,1.5875 0.80982,0.76044 1.22791,0.86385 3.34629,0.82766 1.91384,-0.0327 2.46594,0.0762 2.6362,0.51986 0.12556,0.3272 -0.0414,0.74898 -0.40043,1.0115 -0.72391,0.52933 -4.48925,0.56515 -5.77261,0.0549 z m 4.47694,-6.88452 c 0.48515,-1.26429 -1.57878,-2.87052 -3.174,-2.47014 -1.08625,0.27263 -2.18107,1.73592 -1.88197,2.51536 0.3066,0.79896 4.74727,0.75924 5.05597,-0.0452 z m -18.859138,-1.27497 0.0947,-8.20209 1.146528,-0.11054 1.146528,-0.11055 v 4.61954 c 0,5.70837 0.26078,5.98584 2.87214,3.05596 1.52073,-1.70622 1.946631,-1.98635 3.019993,-1.98635 h 1.249585 l -1.983359,2.25908 c -1.090849,1.24249 -1.983359,2.36811 -1.983359,2.50137 0,0.13326 0.686689,1.06137 1.525972,2.06245 0.839283,1.00109 1.881971,2.33609 2.317076,2.96668 l 0.791108,1.14653 h -1.386629 c -1.307694,0 -1.491946,-0.14163 -3.236753,-2.48804 -2.377769,-3.19762 -2.969484,-3.17663 -3.113698,0.11044 l -0.104313,2.3776 h -1.225106 -1.225106 z m 24.341668,0 0.0947,-8.20209 1.13064,-0.10936 1.13065,-0.10936 0.10408,2.57881 0.10407,2.5788 2.13354,0.17639 c 3.9935,0.33016 4.74032,1.53816 4.74366,7.67292 l 0.002,3.61597 h -1.23472 -1.23472 l -0.005,-3.61597 c -0.003,-2.16333 -0.18026,-3.95908 -0.44097,-4.47006 -0.5536,-1.08501 -1.97249,-1.57494 -3.20456,-1.10651 l -0.9354,0.35563 v 4.41846 4.41845 h -1.24122 -1.24122 z M 97.453621,94.887497 c -0.198402,-0.321021 2.00684,-16.893444 2.28497,-17.171573 0.10396,-0.103961 1.961789,1.516399 4.128509,3.600801 l 3.93949,3.78982 -0.21253,2.645834 c -0.29071,3.61889 -1.45529,6.200472 -3.10878,6.891341 -1.30181,0.543934 -6.729847,0.732113 -7.031659,0.243777 z M 74.700794,93.928481 c -1.937021,-0.604266 -3.128148,-1.712419 -3.576857,-3.327683 -0.447637,-1.611411 -0.459413,-5.916759 -0.01693,-6.190228 0.311603,-0.192582 15.445931,2.069879 16.562971,2.476028 0.334674,0.121688 -0.554879,1.252055 -2.734028,3.47417 -1.776558,1.811585 -3.230107,3.473927 -3.230107,3.694092 0,0.566977 -5.076009,0.4754 -7.005046,-0.126379 z m 8.347054,-31.135132 -0.107286,-4.850694 1.234722,-1.367642 c 2.072645,-2.295768 4.089543,-3.394859 6.229772,-3.394859 1.788533,0 1.944883,0.08099 4.164265,2.157115 1.268282,1.186413 2.305964,2.277979 2.305964,2.425702 0,0.261434 -13.182128,9.881073 -13.540379,9.881073 -0.09888,0 -0.228052,-2.182813 -0.287058,-4.850695 z"
         id="path874"
         inkscape:connector-curvature="0" />
      <path
         style="fill:#f25005;stroke-width:0.35277778"
         d="m 60.627367,127.27279 c -0.785485,-0.33581 -0.79375,-0.41301 -0.79375,-7.415 v -7.07565 l 0.904911,-0.34405 c 1.299123,-0.49392 5.389374,-0.39585 6.967747,0.16706 1.830584,0.65287 2.654104,1.47443 2.924907,2.91794 0.174935,0.93248 0.05333,1.4518 -0.522267,2.23033 -0.983826,1.3307 -0.950838,1.63133 0.308036,2.80729 1.899663,1.77455 1.224219,4.97462 -1.307377,6.19399 -1.526662,0.73533 -7.168071,1.07991 -8.482207,0.51809 z m 6.72597,-2.17878 c 1.045992,-0.55056 1.287983,-0.98438 1.294323,-2.3203 0.0079,-1.66595 -1.110351,-2.27583 -3.928498,-2.14254 l -2.239711,0.10593 -0.108231,1.89823 c -0.05953,1.04402 -0.02482,2.11559 0.07712,2.38125 0.232736,0.6065 3.793073,0.6627 4.904995,0.0774 z m 0.05637,-7.12919 c 0.886827,-0.64847 0.874795,-2.63521 -0.01992,-3.28944 -0.446906,-0.32679 -1.391497,-0.45904 -2.792824,-0.39104 l -2.117513,0.10276 -0.110451,1.53967 c -0.06075,0.84681 -0.02604,1.75963 0.07712,2.02847 0.251736,0.65601 4.069457,0.66338 4.963587,0.01 z m 9.86712,9.31317 c -1.345092,-0.54476 -2.918457,-2.71912 -3.167041,-4.3768 -0.307601,-2.05123 0.03989,-3.52177 1.141569,-4.83104 2.608393,-3.0999 7.276454,-2.71983 9.011573,0.73371 0.791651,1.57568 0.791651,4.40747 0,5.98316 -1.188549,2.36566 -4.436233,3.52365 -6.986101,2.49097 z m 4.221859,-2.49985 c 0.958707,-0.92025 1.20721,-4.24458 0.408425,-5.46368 -0.777818,-1.1871 -2.020952,-1.64279 -3.28215,-1.20314 -1.898877,0.66195 -2.708407,3.48778 -1.609845,5.61949 1.083042,2.10159 2.934653,2.53412 4.48357,1.04733 z m 20.668264,2.44276 c -2.488849,-0.98952 -3.946996,-4.14599 -3.198821,-6.92451 0.741507,-2.75374 2.697601,-4.32281 5.386161,-4.32047 2.8691,0.002 4.86822,2.09298 4.86822,5.0907 v 1.23411 l -3.79236,0.10013 c -3.5076,0.0926 -3.80009,0.15408 -3.89523,0.81861 -0.0599,0.41807 0.28407,1.08182 0.82258,1.5875 0.80982,0.76044 1.22791,0.86385 3.34629,0.82766 1.91384,-0.0327 2.46594,0.0762 2.6362,0.51986 0.12556,0.3272 -0.0414,0.74898 -0.40043,1.0115 -0.72391,0.52933 -4.48925,0.56515 -5.77261,0.0549 z m 4.47694,-6.88452 c 0.48515,-1.26429 -1.57878,-2.87052 -3.174,-2.47014 -1.08625,0.27263 -2.18107,1.73592 -1.88197,2.51536 0.3066,0.79896 4.74727,0.75924 5.05597,-0.0452 z m -18.859138,-1.27497 0.0947,-8.20209 1.146528,-0.11054 1.146528,-0.11055 v 4.61954 c 0,5.70837 0.26078,5.98584 2.87214,3.05596 1.52073,-1.70622 1.946631,-1.98635 3.019993,-1.98635 h 1.249585 l -1.983359,2.25908 c -1.090849,1.24249 -1.983359,2.36811 -1.983359,2.50137 0,0.13326 0.686689,1.06137 1.525972,2.06245 0.839283,1.00109 1.881971,2.33609 2.317076,2.96668 l 0.791108,1.14653 h -1.386629 c -1.307694,0 -1.491946,-0.14163 -3.236753,-2.48804 -2.377769,-3.19762 -2.969484,-3.17663 -3.113698,0.11044 l -0.104313,2.3776 h -1.225106 -1.225106 z m 24.341668,0 0.0947,-8.20209 1.13064,-0.10936 1.13065,-0.10936 0.10408,2.57881 0.10407,2.5788 2.13354,0.17639 c 3.9935,0.33016 4.74032,1.53816 4.74366,7.67292 l 0.002,3.61597 h -1.23472 -1.23472 l -0.005,-3.61597 c -0.003,-2.16333 -0.18026,-3.95908 -0.44097,-4.47006 -0.5536,-1.08501 -1.97249,-1.57494 -3.20456,-1.10651 l -0.9354,0.35563 v 4.41846 4.41845 h -1.24122 -1.24122 z M 74.700794,93.928481 c -1.937021,-0.604266 -3.128148,-1.712419 -3.576857,-3.327683 -0.447637,-1.611411 -0.459413,-5.916759 -0.01693,-6.190228 0.311603,-0.192582 15.445931,2.069879 16.562971,2.476028 0.334674,0.121688 -0.554879,1.252055 -2.734028,3.47417 -1.776558,1.811585 -3.230107,3.473927 -3.230107,3.694092 0,0.566977 -5.076009,0.4754 -7.005046,-0.126379 z m 8.347054,-31.135132 -0.107286,-4.850694 1.234722,-1.367642 c 2.072645,-2.295768 4.089543,-3.394859 6.229772,-3.394859 1.788533,0 1.944883,0.08099 4.164265,2.157115 1.268282,1.186413 2.305964,2.277979 2.305964,2.425702 0,0.261434 -13.182128,9.881073 -13.540379,9.881073 -0.09888,0 -0.228052,-2.182813 -0.287058,-4.850695 z"
         id="path872"
         inkscape:connector-curvature="0" />
      <path
         style="fill:#05b856;stroke-width:0.35277778"
         d="m 60.627367,127.27279 c -0.785485,-0.33581 -0.79375,-0.41301 -0.79375,-7.415 v -7.07565 l 0.904911,-0.34405 c 1.299123,-0.49392 5.389374,-0.39585 6.967747,0.16706 1.830584,0.65287 2.654104,1.47443 2.924907,2.91794 0.174935,0.93248 0.05333,1.4518 -0.522267,2.23033 -0.983826,1.3307 -0.950838,1.63133 0.308036,2.80729 1.899663,1.77455 1.224219,4.97462 -1.307377,6.19399 -1.526662,0.73533 -7.168071,1.07991 -8.482207,0.51809 z m 6.72597,-2.17878 c 1.045992,-0.55056 1.287983,-0.98438 1.294323,-2.3203 0.0079,-1.66595 -1.110351,-2.27583 -3.928498,-2.14254 l -2.239711,0.10593 -0.108231,1.89823 c -0.05953,1.04402 -0.02482,2.11559 0.07712,2.38125 0.232736,0.6065 3.793073,0.6627 4.904995,0.0774 z m 0.05637,-7.12919 c 0.886827,-0.64847 0.874795,-2.63521 -0.01992,-3.28944 -0.446906,-0.32679 -1.391497,-0.45904 -2.792824,-0.39104 l -2.117513,0.10276 -0.110451,1.53967 c -0.06075,0.84681 -0.02604,1.75963 0.07712,2.02847 0.251736,0.65601 4.069457,0.66338 4.963587,0.01 z m 9.86712,9.31317 c -1.345092,-0.54476 -2.918457,-2.71912 -3.167041,-4.3768 -0.307601,-2.05123 0.03989,-3.52177 1.141569,-4.83104 2.608393,-3.0999 7.276454,-2.71983 9.011573,0.73371 0.791651,1.57568 0.791651,4.40747 0,5.98316 -1.188549,2.36566 -4.436233,3.52365 -6.986101,2.49097 z m 4.221859,-2.49985 c 0.958707,-0.92025 1.20721,-4.24458 0.408425,-5.46368 -0.777818,-1.1871 -2.020952,-1.64279 -3.28215,-1.20314 -1.898877,0.66195 -2.708407,3.48778 -1.609845,5.61949 1.083042,2.10159 2.934653,2.53412 4.48357,1.04733 z m 20.668264,2.44276 c -2.488849,-0.98952 -3.946996,-4.14599 -3.198821,-6.92451 0.741507,-2.75374 2.697601,-4.32281 5.386161,-4.32047 2.8691,0.002 4.86822,2.09298 4.86822,5.0907 v 1.23411 l -3.79236,0.10013 c -3.5076,0.0926 -3.80009,0.15408 -3.89523,0.81861 -0.0599,0.41807 0.28407,1.08182 0.82258,1.5875 0.80982,0.76044 1.22791,0.86385 3.34629,0.82766 1.91384,-0.0327 2.46594,0.0762 2.6362,0.51986 0.12556,0.3272 -0.0414,0.74898 -0.40043,1.0115 -0.72391,0.52933 -4.48925,0.56515 -5.77261,0.0549 z m 4.47694,-6.88452 c 0.48515,-1.26429 -1.57878,-2.87052 -3.174,-2.47014 -1.08625,0.27263 -2.18107,1.73592 -1.88197,2.51536 0.3066,0.79896 4.74727,0.75924 5.05597,-0.0452 z m -18.859138,-1.27497 0.0947,-8.20209 1.146528,-0.11054 1.146528,-0.11055 v 4.61954 c 0,5.70837 0.26078,5.98584 2.87214,3.05596 1.52073,-1.70622 1.946631,-1.98635 3.019993,-1.98635 h 1.249585 l -1.983359,2.25908 c -1.090849,1.24249 -1.983359,2.36811 -1.983359,2.50137 0,0.13326 0.686689,1.06137 1.525972,2.06245 0.839283,1.00109 1.881971,2.33609 2.317076,2.96668 l 0.791108,1.14653 h -1.386629 c -1.307694,0 -1.491946,-0.14163 -3.236753,-2.48804 -2.377769,-3.19762 -2.969484,-3.17663 -3.113698,0.11044 l -0.104313,2.3776 h -1.225106 -1.225106 z m 24.341668,0 0.0947,-8.20209 1.13064,-0.10936 1.13065,-0.10936 0.10408,2.57881 0.10407,2.5788 2.13354,0.17639 c 3.9935,0.33016 4.74032,1.53816 4.74366,7.67292 l 0.002,3.61597 h -1.23472 -1.23472 l -0.005,-3.61597 c -0.003,-2.16333 -0.18026,-3.95908 -0.44097,-4.47006 -0.5536,-1.08501 -1.97249,-1.57494 -3.20456,-1.10651 l -0.9354,0.35563 v 4.41846 4.41845 h -1.24122 -1.24122 z M 83.047848,62.793349 82.940562,57.942655 84.175284,56.575013 c 2.072645,-2.295768 4.089543,-3.394859 6.229772,-3.394859 1.788533,0 1.944883,0.08099 4.164265,2.157115 1.268282,1.186413 2.305964,2.277979 2.305964,2.425702 0,0.261434 -13.182128,9.881073 -13.540379,9.881073 -0.09888,0 -0.228052,-2.182813 -0.287058,-4.850695 z"
         id="path870"
         inkscape:connector-curvature="0" />
      <path
         style="fill:#99272d;stroke-width:0.35277778"
         d="m 60.627367,127.27279 c -0.785485,-0.33581 -0.79375,-0.41301 -0.79375,-7.415 v -7.07565 l 0.904911,-0.34405 c 1.299123,-0.49392 5.389374,-0.39585 6.967747,0.16706 1.830584,0.65287 2.654104,1.47443 2.924907,2.91794 0.174935,0.93248 0.05333,1.4518 -0.522267,2.23033 -0.983826,1.3307 -0.950838,1.63133 0.308036,2.80729 1.899663,1.77455 1.224219,4.97462 -1.307377,6.19399 -1.526662,0.73533 -7.168071,1.07991 -8.482207,0.51809 z m 6.72597,-2.17878 c 1.045992,-0.55056 1.287983,-0.98438 1.294323,-2.3203 0.0079,-1.66595 -1.110351,-2.27583 -3.928498,-2.14254 l -2.239711,0.10593 -0.108231,1.89823 c -0.05953,1.04402 -0.02482,2.11559 0.07712,2.38125 0.232736,0.6065 3.793073,0.6627 4.904995,0.0774 z m 0.05637,-7.12919 c 0.886827,-0.64847 0.874795,-2.63521 -0.01992,-3.28944 -0.446906,-0.32679 -1.391497,-0.45904 -2.792824,-0.39104 l -2.117513,0.10276 -0.110451,1.53967 c -0.06075,0.84681 -0.02604,1.75963 0.07712,2.02847 0.251736,0.65601 4.069457,0.66338 4.963587,0.01 z m 9.86712,9.31317 c -1.345092,-0.54476 -2.918457,-2.71912 -3.167041,-4.3768 -0.307601,-2.05123 0.03989,-3.52177 1.141569,-4.83104 2.608393,-3.0999 7.276454,-2.71983 9.011573,0.73371 0.791651,1.57568 0.791651,4.40747 0,5.98316 -1.188549,2.36566 -4.436233,3.52365 -6.986101,2.49097 z m 4.221859,-2.49985 c 0.958707,-0.92025 1.20721,-4.24458 0.408425,-5.46368 -0.777818,-1.1871 -2.020952,-1.64279 -3.28215,-1.20314 -1.898877,0.66195 -2.708407,3.48778 -1.609845,5.61949 1.083042,2.10159 2.934653,2.53412 4.48357,1.04733 z m 20.668264,2.44276 c -2.488849,-0.98952 -3.946996,-4.14599 -3.198821,-6.92451 0.741507,-2.75374 2.697601,-4.32281 5.386161,-4.32047 2.8691,0.002 4.86822,2.09298 4.86822,5.0907 v 1.23411 l -3.79236,0.10013 c -3.5076,0.0926 -3.80009,0.15408 -3.89523,0.81861 -0.0599,0.41807 0.28407,1.08182 0.82258,1.5875 0.80982,0.76044 1.22791,0.86385 3.34629,0.82766 1.91384,-0.0327 2.46594,0.0762 2.6362,0.51986 0.12556,0.3272 -0.0414,0.74898 -0.40043,1.0115 -0.72391,0.52933 -4.48925,0.56515 -5.77261,0.0549 z m 4.47694,-6.88452 c 0.48515,-1.26429 -1.57878,-2.87052 -3.174,-2.47014 -1.08625,0.27263 -2.18107,1.73592 -1.88197,2.51536 0.3066,0.79896 4.74727,0.75924 5.05597,-0.0452 z m -18.859138,-1.27497 0.0947,-8.20209 1.146528,-0.11054 1.146528,-0.11055 v 4.61954 c 0,5.70837 0.26078,5.98584 2.87214,3.05596 1.52073,-1.70622 1.946631,-1.98635 3.019993,-1.98635 h 1.249585 l -1.983359,2.25908 c -1.090849,1.24249 -1.983359,2.36811 -1.983359,2.50137 0,0.13326 0.686689,1.06137 1.525972,2.06245 0.839283,1.00109 1.881971,2.33609 2.317076,2.96668 l 0.791108,1.14653 h -1.386629 c -1.307694,0 -1.491946,-0.14163 -3.236753,-2.48804 -2.377769,-3.19762 -2.969484,-3.17663 -3.113698,0.11044 l -0.104313,2.3776 h -1.225106 -1.225106 z m 24.341668,0 0.0947,-8.20209 1.13064,-0.10936 1.13065,-0.10936 0.10408,2.57881 0.10407,2.5788 2.13354,0.17639 c 3.9935,0.33016 4.74032,1.53816 4.74366,7.67292 l 0.002,3.61597 h -1.23472 -1.23472 l -0.005,-3.61597 c -0.003,-2.16333 -0.18026,-3.95908 -0.44097,-4.47006 -0.5536,-1.08501 -1.97249,-1.57494 -3.20456,-1.10651 l -0.9354,0.35563 v 4.41846 4.41845 h -1.24122 -1.24122 z"
         id="path868"
         inkscape:connector-curvature="0" />
    </g>
  </g>
</svg>
