<?xml version="1.0" encoding="UTF-8" standalone="no"?>
<!-- Created with Inkscape (http://www.inkscape.org/) -->

<svg
   xmlns:dc="http://purl.org/dc/elements/1.1/"
   xmlns:cc="http://creativecommons.org/ns#"
   xmlns:rdf="http://www.w3.org/1999/02/22-rdf-syntax-ns#"
   xmlns:svg="http://www.w3.org/2000/svg"
   xmlns="http://www.w3.org/2000/svg"
   xmlns:sodipodi="http://sodipodi.sourceforge.net/DTD/sodipodi-0.dtd"
   xmlns:inkscape="http://www.inkscape.org/namespaces/inkscape"
   width="99.695129mm"
   height="30.43572mm"
   viewBox="0 0 99.695129 30.43572"
   version="1.1"
   id="svg896"
   inkscape:version="0.92.3 (2405546, 2018-03-11)"
   sodipodi:docname="keras.svg">
  <defs
     id="defs890" />
  <sodipodi:namedview
     id="base"
     pagecolor="#ffffff"
     bordercolor="#666666"
     borderopacity="1.0"
     inkscape:pageopacity="0.0"
     inkscape:pageshadow="2"
     inkscape:zoom="1.979899"
     inkscape:cx="241.27415"
     inkscape:cy="6.4928358"
     inkscape:document-units="mm"
     inkscape:current-layer="layer1"
     showgrid="false"
     fit-margin-top="0"
     fit-margin-left="0"
     fit-margin-right="0"
     fit-margin-bottom="0"
     inkscape:window-width="1500"
     inkscape:window-height="937"
     inkscape:window-x="-8"
     inkscape:window-y="32"
     inkscape:window-maximized="1" />
  <metadata
     id="metadata893">
    <rdf:RDF>
      <cc:Work
         rdf:about="">
        <dc:format>image/svg+xml</dc:format>
        <dc:type
           rdf:resource="http://purl.org/dc/dcmitype/StillImage" />
        <dc:title></dc:title>
      </cc:Work>
    </rdf:RDF>
  </metadata>
  <g
     inkscape:label="Layer 1"
     inkscape:groupmode="layer"
     id="layer1"
     transform="translate(-39.923968,-33.976412)">
    <g
       id="g1452"
       transform="translate(-4.6772167,-43.698568)">
      <path
         style="fill:#d00606;stroke-width:0.26458332"
         d="M 44.601185,92.892856 V 77.67498 l 15.147395,0.06831 15.147395,0.06831 v 15.08125 15.08125 l -15.147395,0.0683 -15.147395,0.0683 z m 10.961309,8.447764 c 0.325398,-0.32539 0.415774,-1.02216 0.415774,-3.205457 v -2.789688 l 0.981599,-0.89911 c 0.539879,-0.49451 1.098352,-0.860192 1.241051,-0.812625 0.142699,0.04757 1.495306,1.894623 3.005793,4.104571 l 2.746341,4.018089 h 1.119066 c 1.136214,0 1.754066,-0.34837 1.754066,-0.98901 0,-0.19471 -1.42875,-2.418855 -3.175,-4.942552 -1.74625,-2.523697 -3.175,-4.68058 -3.175,-4.793075 0,-0.112494 1.320778,-1.543218 2.935061,-3.179387 3.373734,-3.419473 3.547517,-3.909933 1.428086,-4.030417 l -1.320439,-0.07506 -3.568198,3.580793 c -1.96251,1.969436 -3.65915,3.580793 -3.770313,3.580793 -0.111162,0 -0.202113,-1.420246 -0.202113,-3.156101 0,-3.558179 -0.186255,-3.987649 -1.729382,-3.987649 -0.616872,0 -0.983543,0.16015 -1.171726,0.511773 -0.171625,0.320683 -0.273892,3.524359 -0.273892,8.580059 0,8.859303 0.0072,8.899833 1.5875,8.899833 0.415774,0 0.94305,-0.1871 1.171726,-0.41578 z m 47.147746,0.30786 c -3.852957,-1.43425 -5.285281,-6.928366 -2.819772,-10.81607 1.941432,-3.061314 6.237852,-3.583512 8.605972,-1.045992 1.17424,1.258233 1.90032,4.80607 1.13932,5.567063 -0.21933,0.219332 -1.5717,0.3175 -4.37392,0.3175 -3.3604,0 -4.08255,0.06805 -4.20862,0.396601 -0.21662,0.564498 0.96321,2.787671 1.80273,3.396906 1.02092,0.740882 3.16522,0.887562 4.45732,0.304901 0.84783,-0.382317 1.1149,-0.407243 1.44329,-0.134703 0.22163,0.183932 0.40295,0.535914 0.40295,0.782184 0,1.16286 -4.38461,2.00017 -6.44927,1.23161 z m 5.07268,-8.499561 c 0.0967,-0.987245 -0.85792,-2.493638 -1.89693,-2.993266 -1.01872,-0.489866 -2.36172,-0.187705 -3.46285,0.779103 -0.91796,0.805976 -1.64443,2.380904 -1.33168,2.886948 0.10885,0.176133 1.34981,0.250618 3.39225,0.20361 l 3.2206,-0.07412 z m 15.39951,8.402741 c -1.27572,-0.691 -1.91015,-1.975085 -1.77139,-3.585284 0.20028,-2.324189 1.74813,-3.507411 5.60126,-4.281788 1.16054,-0.233238 2.18946,-0.552504 2.28647,-0.70948 0.278,-0.449805 -0.2322,-1.888199 -0.85034,-2.397356 -0.77191,-0.635826 -2.61744,-0.592725 -4.22462,0.09866 -1.05871,0.455447 -1.38076,0.499363 -1.70269,0.232187 -1.33554,-1.108396 1.2373,-2.68853 4.40991,-2.708391 2.19676,-0.01375 3.24824,0.54118 4.10877,2.16846 0.59671,1.128397 0.61763,1.365317 0.54868,6.214278 l -0.0717,5.041164 -0.72748,0.0837 c -0.5765,0.0663 -0.78105,-0.0572 -0.98564,-0.59531 -0.14199,-0.37346 -0.32319,-0.67902 -0.40268,-0.67902 -0.0795,0 -0.62897,0.3206 -1.2211,0.71245 -1.42912,0.94575 -3.66534,1.1273 -4.99748,0.40573 z m 4.39898,-1.813199 c 1.36038,-0.645543 1.95171,-1.550219 1.94697,-2.978682 -0.006,-1.702289 -0.22726,-1.961708 -1.47866,-1.73089 -2.95273,0.544625 -4.34048,1.506277 -4.33407,3.003317 0.005,1.07105 0.16747,1.392665 0.92199,1.820529 0.75538,0.428355 1.89336,0.384175 2.94377,-0.114274 z m 10.1531,2.113059 c -1.19216,-0.38355 -2.90111,-1.27674 -3.01609,-1.57637 -0.0728,-0.18974 0.0737,-0.599447 0.32553,-0.910465 l 0.4579,-0.565489 1.28803,0.684851 c 2.43237,1.293303 5.17797,0.664193 5.17797,-1.186436 0,-1.04148 -0.60969,-1.585855 -2.7925,-2.493358 -2.31975,-0.964435 -3.19851,-1.564487 -3.69379,-2.522242 -0.83004,-1.605122 -0.12867,-3.522606 1.67347,-4.575111 1.24016,-0.724294 3.81032,-0.696482 5.2877,0.05722 1.18488,0.604484 1.36763,1.057802 0.69684,1.728588 -0.51396,0.51396 -0.51124,0.514018 -1.33918,-0.02847 -0.96291,-0.630925 -3.0646,-0.618543 -3.77313,0.02223 -0.66039,0.59723 -0.72381,1.651598 -0.13827,2.298613 0.23049,0.254683 1.36866,0.84584 2.52927,1.313684 2.3931,0.964662 3.56943,1.977663 3.8147,3.285058 0.474,2.526669 -1.76826,4.666917 -4.8363,4.616267 -0.6959,-0.0115 -1.44387,-0.0783 -1.66215,-0.14857 z m -53.32559,-0.428 c -0.07025,-0.18308 -0.09628,-4.201443 -0.05784,-8.929688 l 0.0699,-8.59681 0.898298,-0.08577 c 0.540239,-0.05159 0.986835,0.05388 1.120425,0.264583 0.122174,0.192697 0.223957,2.116451 0.226185,4.27501 0.0021,2.174909 0.108818,3.885333 0.239043,3.836458 0.129244,-0.04851 1.768589,-1.933663 3.642987,-4.189236 3.330286,-4.007528 3.433524,-4.102897 4.52751,-4.1824 0.739796,-0.05376 1.11951,0.02638 1.11951,0.236282 0,0.174703 -1.139108,1.722213 -2.531351,3.438912 -2.337897,2.882731 -2.506625,3.167981 -2.207781,3.732468 0.177964,0.336158 1.560571,2.727232 3.072458,5.313497 1.511888,2.586265 2.676956,4.818684 2.589041,4.960934 -0.268666,0.43471 -1.868768,0.29279 -2.304333,-0.20438 -0.223105,-0.25466 -1.441831,-2.278724 -2.708283,-4.497917 -1.266449,-2.219193 -2.407708,-4.034896 -2.536132,-4.034896 -0.12842,0 -0.833146,0.720557 -1.566055,1.601236 l -1.332563,1.601237 v 2.57918 c 0,1.65325 -0.113983,2.69316 -0.3175,2.89668 -0.418786,0.41878 -1.781046,0.408 -1.943513,-0.0154 z m 28.84448,0.0128 c -0.0743,-0.19376 -0.10316,-3.147804 -0.064,-6.564533 l 0.0712,-6.212234 0.86311,-0.08315 c 0.77666,-0.07482 0.87934,-0.002 1.02526,0.727604 0.20142,1.007094 0.33652,1.008701 1.28823,0.01533 0.84454,-0.881507 2.27762,-1.390135 3.23778,-1.14915 0.51508,0.129279 0.61154,0.30243 0.54528,0.978817 -0.0725,0.740411 -0.19059,0.840402 -1.19266,1.010148 -1.47257,0.249445 -2.03557,0.576174 -2.77204,1.608717 -0.5686,0.797186 -0.62344,1.191056 -0.74601,5.358349 l -0.13229,4.497922 -0.99431,0.0822 c -0.64658,0.0535 -1.0416,-0.041 -1.12951,-0.27006 z"
         id="path1456"
         inkscape:connector-curvature="0" />
      <path
         style="fill:#212121;stroke-width:0.26458332"
         d="m 102.71024,101.64848 c -3.852957,-1.43425 -5.285281,-6.928366 -2.819772,-10.81607 1.941432,-3.061314 6.237852,-3.583512 8.605972,-1.045992 1.17424,1.258233 1.90032,4.80607 1.13932,5.567063 -0.21933,0.219332 -1.5717,0.3175 -4.37392,0.3175 -3.3604,0 -4.08255,0.06805 -4.20862,0.396601 -0.21662,0.564498 0.96321,2.787671 1.80273,3.396906 1.02092,0.740882 3.16522,0.887562 4.45732,0.304901 0.84783,-0.382317 1.1149,-0.407243 1.44329,-0.134703 0.22163,0.183932 0.40295,0.535914 0.40295,0.782184 0,1.16286 -4.38461,2.00017 -6.44927,1.23161 z m 5.07268,-8.499561 c 0.0967,-0.987245 -0.85792,-2.493638 -1.89693,-2.993266 -1.01872,-0.489866 -2.36172,-0.187705 -3.46285,0.779103 -0.91796,0.805976 -1.64443,2.380904 -1.33168,2.886948 0.10885,0.176133 1.34981,0.250618 3.39225,0.20361 l 3.2206,-0.07412 z m 15.39951,8.402741 c -1.27572,-0.691 -1.91015,-1.975085 -1.77139,-3.585284 0.20028,-2.324189 1.74813,-3.507411 5.60126,-4.281788 1.16054,-0.233238 2.18946,-0.552504 2.28647,-0.70948 0.278,-0.449805 -0.2322,-1.888199 -0.85034,-2.397356 -0.77191,-0.635826 -2.61744,-0.592725 -4.22462,0.09866 -1.05871,0.455447 -1.38076,0.499363 -1.70269,0.232187 -1.33554,-1.108396 1.2373,-2.68853 4.40991,-2.708391 2.19676,-0.01375 3.24824,0.54118 4.10877,2.16846 0.59671,1.128397 0.61763,1.365317 0.54868,6.214278 l -0.0717,5.041164 -0.72748,0.0837 c -0.5765,0.0663 -0.78105,-0.0572 -0.98564,-0.59531 -0.14199,-0.37346 -0.32319,-0.67902 -0.40268,-0.67902 -0.0795,0 -0.62897,0.3206 -1.2211,0.71245 -1.42912,0.94575 -3.66534,1.1273 -4.99748,0.40573 z m 4.39898,-1.813199 c 1.36038,-0.645543 1.95171,-1.550219 1.94697,-2.978682 -0.006,-1.702289 -0.22726,-1.961708 -1.47866,-1.73089 -2.95273,0.544625 -4.34048,1.506277 -4.33407,3.003317 0.005,1.07105 0.16747,1.392665 0.92199,1.820529 0.75538,0.428355 1.89336,0.384175 2.94377,-0.114274 z m 10.1531,2.113059 c -1.19216,-0.38355 -2.90111,-1.27674 -3.01609,-1.57637 -0.0728,-0.18974 0.0737,-0.599447 0.32553,-0.910465 l 0.4579,-0.565489 1.28803,0.684851 c 2.43237,1.293303 5.17797,0.664193 5.17797,-1.186436 0,-1.04148 -0.60969,-1.585855 -2.7925,-2.493358 -2.31975,-0.964435 -3.19851,-1.564487 -3.69379,-2.522242 -0.83004,-1.605122 -0.12867,-3.522606 1.67347,-4.575111 1.24016,-0.724294 3.81032,-0.696482 5.2877,0.05722 1.18488,0.604484 1.36763,1.057802 0.69684,1.728588 -0.51396,0.51396 -0.51124,0.514018 -1.33918,-0.02847 -0.96291,-0.630925 -3.0646,-0.618543 -3.77313,0.02223 -0.66039,0.59723 -0.72381,1.651598 -0.13827,2.298613 0.23049,0.254683 1.36866,0.84584 2.52927,1.313684 2.3931,0.964662 3.56943,1.977663 3.8147,3.285058 0.474,2.526669 -1.76826,4.666917 -4.8363,4.616267 -0.6959,-0.0115 -1.44387,-0.0783 -1.66215,-0.14857 z m -53.32559,-0.428 c -0.07025,-0.18308 -0.09628,-4.201443 -0.05784,-8.929688 l 0.0699,-8.59681 0.898298,-0.08577 c 0.540239,-0.05159 0.986835,0.05388 1.120425,0.264583 0.122174,0.192697 0.223957,2.116451 0.226185,4.27501 0.0021,2.174909 0.108818,3.885333 0.239043,3.836458 0.129244,-0.04851 1.768589,-1.933663 3.642987,-4.189236 3.330286,-4.007528 3.433524,-4.102897 4.52751,-4.1824 0.739796,-0.05376 1.11951,0.02638 1.11951,0.236282 0,0.174703 -1.139108,1.722213 -2.531351,3.438912 -2.337897,2.882731 -2.506625,3.167981 -2.207781,3.732468 0.177964,0.336158 1.560571,2.727232 3.072458,5.313497 1.511888,2.586265 2.676956,4.818684 2.589041,4.960934 -0.268666,0.43471 -1.868768,0.29279 -2.304333,-0.20438 -0.223105,-0.25466 -1.441831,-2.278724 -2.708283,-4.497917 -1.266449,-2.219193 -2.407708,-4.034896 -2.536132,-4.034896 -0.12842,0 -0.833146,0.720557 -1.566055,1.601236 l -1.332563,1.601237 v 2.57918 c 0,1.65325 -0.113983,2.69316 -0.3175,2.89668 -0.418786,0.41878 -1.781046,0.408 -1.943513,-0.0154 z m 28.84448,0.0128 c -0.0743,-0.19376 -0.10316,-3.147804 -0.064,-6.564533 l 0.0712,-6.212234 0.86311,-0.08315 c 0.77666,-0.07482 0.87934,-0.002 1.02526,0.727604 0.20142,1.007094 0.33652,1.008701 1.28823,0.01533 0.84454,-0.881507 2.27762,-1.390135 3.23778,-1.14915 0.51508,0.129279 0.61154,0.30243 0.54528,0.978817 -0.0725,0.740411 -0.19059,0.840402 -1.19266,1.010148 -1.47257,0.249445 -2.03557,0.576174 -2.77204,1.608717 -0.5686,0.797186 -0.62344,1.191056 -0.74601,5.358349 l -0.13229,4.497922 -0.99431,0.0822 c -0.64658,0.0535 -1.0416,-0.041 -1.12951,-0.27006 z"
         id="path1454"
         inkscape:connector-curvature="0" />
    </g>
  </g>
</svg>
