<?xml version="1.0" encoding="UTF-8" standalone="no"?>
<!-- Created with Inkscape (http://www.inkscape.org/) -->

<svg
   xmlns:dc="http://purl.org/dc/elements/1.1/"
   xmlns:cc="http://creativecommons.org/ns#"
   xmlns:rdf="http://www.w3.org/1999/02/22-rdf-syntax-ns#"
   xmlns:svg="http://www.w3.org/2000/svg"
   xmlns="http://www.w3.org/2000/svg"
   xmlns:sodipodi="http://sodipodi.sourceforge.net/DTD/sodipodi-0.dtd"
   xmlns:inkscape="http://www.inkscape.org/namespaces/inkscape"
   width="77.056046mm"
   height="48.294773mm"
   viewBox="0 0 77.056046 48.294773"
   version="1.1"
   id="svg8"
   inkscape:version="0.92.3 (2405546, 2018-03-11)"
   sodipodi:docname="sandbox.svg">
  <defs
     id="defs2" />
  <sodipodi:namedview
     id="base"
     pagecolor="#ffffff"
     bordercolor="#666666"
     borderopacity="1.0"
     inkscape:pageopacity="0.0"
     inkscape:pageshadow="2"
     inkscape:zoom="3.7186407"
     inkscape:cx="145.61772"
     inkscape:cy="189.34491"
     inkscape:document-units="mm"
     inkscape:current-layer="g834"
     showgrid="false"
     fit-margin-top="0"
     fit-margin-left="0"
     fit-margin-right="0"
     fit-margin-bottom="0"
     inkscape:window-width="1500"
     inkscape:window-height="937"
     inkscape:window-x="-8"
     inkscape:window-y="32"
     inkscape:window-maximized="1" />
  <metadata
     id="metadata5">
    <rdf:RDF>
      <cc:Work
         rdf:about="">
        <dc:format>image/svg+xml</dc:format>
        <dc:type
           rdf:resource="http://purl.org/dc/dcmitype/StillImage" />
        <dc:title></dc:title>
      </cc:Work>
    </rdf:RDF>
  </metadata>
  <g
     inkscape:label="Layer 1"
     inkscape:groupmode="layer"
     id="layer1"
     transform="translate(-48.390532,-19.28248)">
    <g
       id="g834"
       transform="translate(-31.537804,5.4790253)">
      <path
         style="fill:#e76328;stroke-width:0.26458335"
         d="m 109.55692,40.541679 -8.79222,-5.079617 -0.005,-4.259493 -0.005,-4.25949 8.91978,-5.133218 c 4.90589,-2.823268 8.99742,-5.108827 9.09229,-5.079016 0.22927,0.07203 8.01602,4.590902 8.16698,4.739521 0.0647,0.06367 -0.12484,0.358206 -0.42115,0.654516 l -0.53875,0.538747 -3.21121,-1.869011 c -1.76616,-1.02796 -3.27328,-1.869014 -3.34915,-1.869014 -0.0759,0 -0.13796,1.185957 -0.13796,2.635461 v 2.635462 l 1.58436,0.870268 c 0.8714,0.478647 1.58578,0.937289 1.5875,1.019204 0.002,0.08191 -0.33718,0.474985 -0.75313,0.873487 -0.74949,0.718061 -0.76465,0.720556 -1.69187,0.278395 -1.33381,-0.636051 -2.12193,-0.338955 -4.07445,1.535951 l -1.68386,1.61693 1.01034,0.602498 c 0.62959,0.375441 1.28526,1.107591 1.73982,1.942767 0.4012,0.737148 1.05921,1.510789 1.46225,1.719204 0.72016,0.372412 0.76132,0.350142 2.38987,-1.293013 1.39916,-1.411706 1.65709,-1.816137 1.65709,-2.59828 0,-0.509482 -0.14368,-1.1948 -0.31929,-1.522929 -0.29937,-0.559368 -0.002,-0.914135 4.76429,-5.685197 4.58941,-4.593942 5.05511,-5.141788 4.79075,-5.63576 -0.57735,-1.078775 -0.34925,-2.006971 0.75919,-3.089325 l 1.05202,-1.027272 1.79225,1.244233 c 0.98573,0.684326 2.06854,1.456711 2.40624,1.716407 l 0.614,0.472176 -1.22874,1.132609 c -1.17675,1.084692 -1.28979,1.128824 -2.67178,1.043104 l -1.44303,-0.0895 -1.77868,1.816904 c -0.97827,0.999299 -1.65962,1.864685 -1.5141,1.923082 0.14553,0.0584 1.75287,0.968676 3.57188,2.02284 l 3.30729,1.916663 v 4.190912 4.190913 l -8.86354,5.127541 c -4.87495,2.820146 -8.9826,5.123585 -9.12813,5.118751 -0.14552,-0.0048 -4.22108,-2.294615 -9.0568,-5.088406 z m 8.39096,0.145904 -0.004,-2.844271 -7.58141,-4.365625 c -4.16977,-2.401094 -7.70991,-4.39842 -7.86697,-4.438504 -0.35908,-0.09164 -0.30746,5.183902 0.0543,5.545627 0.20755,0.207552 15.13925,8.909026 15.33673,8.937506 0.0364,0.0052 0.0642,-1.270384 0.0618,-2.834733 z m 9.5538,-1.827202 7.6485,-4.406892 v -2.736858 c 0,-1.505273 -0.093,-2.736861 -0.20665,-2.736861 -0.11366,0 -3.65577,1.995258 -7.87136,4.433904 l -7.6647,4.433903 -0.0754,2.709847 c -0.0523,1.878722 0.0161,2.709847 0.22286,2.709847 0.16404,0 3.74008,-1.9831 7.94675,-4.40689 z m -14.65833,-11.698557 4.97662,-2.876281 0.0754,-2.67997 c 0.0415,-1.473983 0.0257,-2.679969 -0.0351,-2.679969 -0.17535,0 -14.25566,8.156437 -14.4971,8.39788 -0.21257,0.212564 3.56664,2.638923 4.18854,2.689167 0.17327,0.014 2.55452,-1.268873 5.29167,-2.850827 z m 19.09722,1.657442 c 1.1832,-0.670361 2.14813,-1.295439 2.14427,-1.389062 -0.004,-0.09362 -1.30248,-0.898967 -2.88583,-1.78965 l -2.87882,-1.619425 -1.67823,1.699885 c -1.35026,1.367681 -1.60068,1.746374 -1.28136,1.937769 0.21828,0.130833 1.17078,0.708331 2.11667,1.283329 0.94588,0.574995 1.85304,1.05682 2.0159,1.070719 0.16286,0.01389 1.26419,-0.523203 2.4474,-1.193565 z m 4.02461,-11.109894 c 0.2929,-0.35292 0.28734,-0.45888 -0.0337,-0.643559 -0.2114,-0.121592 -0.79295,-0.525674 -1.29232,-0.897959 -0.8484,-0.632494 -0.93949,-0.64833 -1.38906,-0.241477 -0.54636,0.494453 -0.60268,0.954783 -0.20723,1.693704 0.35421,0.661842 2.39543,0.724212 2.92236,0.08929 z"
         id="path838"
         inkscape:connector-curvature="0"
         sodipodi:nodetypes="ccccccccccssccccscccccsscccccccccccccscccscccccscccccscsssccsscccsccccccscsccccccccccc" />
      <path
         style="fill:#072a45;stroke-width:0.26458335"
         d="m 81.04289,61.637652 c -1.074428,-0.557385 -1.235374,-0.74799 -1.046718,-1.239618 0.142796,-0.372118 0.266523,-0.358116 1.08081,0.122325 1.198946,0.707398 2.792648,0.751459 3.515598,0.0972 0.303244,-0.274431 0.551352,-0.654468 0.551352,-0.844526 0,-0.563073 -0.993926,-1.321988 -2.190088,-1.672249 -1.498137,-0.438684 -2.281079,-0.970372 -2.577672,-1.750473 -0.562943,-1.48065 0.758397,-2.808385 2.794857,-2.808385 1.399855,0 2.836368,0.503277 2.683701,0.940223 -0.108148,0.309536 -0.421346,0.312145 -2.19401,0.01828 -1.452316,-0.240766 -2.280904,0.19971 -2.170665,1.153917 0.08282,0.716867 0.423465,0.950375 2.913322,1.997043 2.914711,1.225264 1.921362,4.400463 -1.376112,4.398688 -0.654843,-2.65e-4 -1.547812,-0.185939 -1.984375,-0.412417 z m 8.347729,0.216598 c 0.0074,-0.10914 0.81584,-1.984375 1.796656,-4.167187 2.412847,-5.369806 2.418517,-5.369693 4.848929,0.09833 0.994251,2.236896 1.807728,4.11213 1.807728,4.167187 0,0.05506 -0.220043,0.100108 -0.488984,0.100108 -0.31455,0 -0.659225,-0.377534 -0.966224,-1.058333 L 95.911482,59.936021 H 93.549131 91.18678 l -0.415726,1.058334 c -0.276162,0.703045 -0.579896,1.058333 -0.904756,1.058333 -0.268968,0 -0.483024,-0.0893 -0.475679,-0.198438 z m 5.37812,-4.497916 c -0.378,-0.836745 -0.747573,-1.729714 -0.821272,-1.984375 -0.0737,-0.254662 -0.223616,-0.463021 -0.333143,-0.463021 -0.160885,0 -1.032615,1.782331 -1.779338,3.638021 -0.09899,0.246009 0.347736,0.330729 1.743969,0.330729 h 1.877055 z m 7.043941,0.463021 c 0,-5.477878 0.085,-5.49959 3.48625,-0.890099 l 2.46688,3.343238 0.074,-3.343238 c 0.0692,-3.124888 0.10809,-3.343235 0.59531,-3.343235 0.49691,0 0.52126,0.197789 0.52126,4.233334 0,4.216029 -0.002,4.233301 -0.59531,4.225586 -0.45435,-0.0059 -1.15917,-0.787662 -2.97656,-3.301426 -1.30969,-1.811525 -2.47055,-3.296322 -2.57969,-3.299547 -0.10914,-0.0032 -0.19844,1.482418 -0.19844,3.301428 0,2.763425 -0.0653,3.307292 -0.39687,3.307292 -0.33624,0 -0.39688,-0.646758 -0.39688,-4.233333 z m 12.17084,0 v -4.233334 l 2.3151,5.29e-4 c 2.69591,5.29e-4 3.82891,0.435049 4.75723,1.824654 0.81587,1.221283 0.83014,3.429585 0.0305,4.723387 -0.83291,1.347671 -2.26763,1.905344 -4.92005,1.912406 l -2.18281,0.0057 z m 4.91895,2.898722 c 1.81248,-0.877412 2.41895,-2.71308 1.47675,-4.469908 -0.7068,-1.317908 -1.95232,-1.898407 -3.88216,-1.809359 l -1.5875,0.07325 -0.0753,3.026532 c -0.0414,1.664591 -0.0154,3.182638 0.0578,3.373437 0.21285,0.554665 2.71376,0.43371 4.01035,-0.193955 z m 6.72271,-2.875955 v -4.256101 h 2.65898 c 3.53721,0 4.48477,0.477562 4.48477,2.260291 0,0.346231 -0.23821,0.851439 -0.52936,1.122685 -0.52813,0.492032 -0.52782,0.494609 0.1323,1.114761 0.91899,0.863351 0.90971,2.32047 -0.0204,3.195206 -0.62527,0.588063 -0.93346,0.64883 -3.70417,0.730346 l -3.02217,0.08892 z m 5.02709,1.961608 c 0.5613,-0.676328 -0.13842,-1.190625 -1.6199,-1.190625 -1.25752,0 -1.29052,0.02029 -1.29052,0.79375 0,0.773453 0.033,0.79375 1.29052,0.79375 0.82435,0 1.4095,-0.143362 1.6199,-0.396875 z m -0.8782,-2.940103 c 1.44173,-0.386665 0.67608,-1.690106 -0.99279,-1.690106 -0.96495,0 -1.03943,0.05372 -1.03943,0.749652 0,0.412311 0.0794,0.82903 0.17639,0.926042 0.21585,0.215857 1.07971,0.222565 1.85583,0.01442 z m 8.91601,4.808966 c -1.11107,-0.483569 -2.15407,-1.911414 -2.36646,-3.239651 -0.49234,-3.078893 2.50442,-5.647309 5.66157,-4.852329 2.31311,0.582448 3.48374,2.029291 3.48374,4.305747 0,1.380649 -0.75142,2.658647 -2.09594,3.564718 -1.04267,0.702654 -3.32894,0.810803 -4.68291,0.221515 z m 3.54049,-1.880719 c 0.72717,-0.509334 1.12251,-1.879757 0.79788,-2.765785 -0.41871,-1.142778 -1.01057,-1.587985 -2.11107,-1.587985 -2.10371,0 -3.05035,2.275475 -1.64264,3.948449 0.7799,0.926851 1.9769,1.090991 2.95583,0.405321 z m 6.31784,1.930085 c 0.11015,-0.181901 0.77202,-1.134833 1.47082,-2.117625 0.69879,-0.982792 1.27054,-1.83647 1.27054,-1.897062 0,-0.06059 -0.60206,-0.982896 -1.33792,-2.049563 l -1.33792,-1.939396 1.27178,-0.08343 c 1.07874,-0.07076 1.332,0.0074 1.66864,0.514805 1.16566,1.757048 1.17811,1.760469 1.98287,0.544396 0.69607,-1.051838 0.79942,-1.108067 2.03665,-1.108067 0.97497,0 1.25204,0.08333 1.09965,0.330729 -0.11205,0.181901 -0.72645,1.078945 -1.36532,1.993429 l -1.16159,1.662703 1.30606,1.909172 c 0.71834,1.050047 1.39226,2.058004 1.49761,2.239905 0.14252,0.246065 -0.14784,0.330729 -1.13427,0.330729 -1.2736,0 -1.35809,-0.0469 -2.14499,-1.190625 -0.45055,-0.654844 -0.90275,-1.190413 -1.0049,-1.190152 -0.10215,2.6e-4 -0.52408,0.536041 -0.93763,1.190626 -0.72642,1.149828 -0.79642,1.190151 -2.06613,1.190151 -0.98182,0 -1.26358,-0.08365 -1.11395,-0.330729 z"
         id="path836"
         inkscape:connector-curvature="0" />
    </g>
  </g>
</svg>
