<?xml version="1.0" encoding="UTF-8" standalone="no"?>
<!DOCTYPE svg PUBLIC "-//W3C//DTD SVG 1.1//EN"
 "http://www.w3.org/Graphics/SVG/1.1/DTD/svg11.dtd">
<!-- Generated by graphviz version 2.38.0 (20140413.2041)
 -->
<!-- Title: finite_state_machine Pages: 1 -->
<svg width="164pt" height="173pt"
 viewBox="0.00 0.00 164.40 172.57" xmlns="http://www.w3.org/2000/svg" xmlns:xlink="http://www.w3.org/1999/xlink">
<g id="graph0" class="graph" transform="scale(1 1) rotate(0) translate(4 168.569)">
<title>finite_state_machine</title>
<polygon fill="white" stroke="none" points="-4,4 -4,-168.569 160.397,-168.569 160.397,4 -4,4"/>
<g id="node1" class="node"><title></title>
</g>
<!-- state
y -->
<g id="node2" class="node"><title>state
y</title>
<ellipse fill="none" stroke="black" cx="29.6985" cy="-29.6985" rx="29.8983" ry="29.8983"/>
<text text-anchor="middle" x="29.6985" y="-33.4985" font-family="Times New Roman,serif" font-size="14.00">state</text>
<text text-anchor="middle" x="29.6985" y="-18.4985" font-family="Times New Roman,serif" font-size="14.00">y</text>
</g>
<!-- state
y&#45;&gt; -->
<g id="edge1" class="edge"><title>state
y&#45;&gt;</title>
<path fill="none" stroke="black" d="M59.4828,-29.6985C69.6144,-29.6985 81.1397,-29.6985 91.8266,-29.6985"/>
<polygon fill="black" stroke="black" points="92.1514,-33.1986 102.151,-29.6985 92.1513,-26.1986 92.1514,-33.1986"/>
<text text-anchor="middle" x="80.897" y="-33.4985" font-family="Times New Roman,serif" font-size="14.00">y</text>
</g>
<!-- low
0 -->
<g id="node3" class="node"><title>low
0</title>
<ellipse fill="none" stroke="black" cx="29.6985" cy="-104.698" rx="26.7407" ry="26.7407"/>
<text text-anchor="middle" x="29.6985" y="-108.498" font-family="Times New Roman,serif" font-size="14.00">low</text>
<text text-anchor="middle" x="29.6985" y="-93.4985" font-family="Times New Roman,serif" font-size="14.00">0</text>
</g>
<!-- low
0&#45;&gt;low
0 -->
<g id="edge2" class="edge"><title>low
0&#45;&gt;low
0</title>
<path fill="none" stroke="black" d="M20.4059,-130.068C19.765,-140.622 22.8625,-149.569 29.6985,-149.569 34.1846,-149.569 37.0607,-145.716 38.3267,-140.084"/>
<polygon fill="black" stroke="black" points="41.8215,-140.278 38.9911,-130.068 34.8368,-139.815 41.8215,-140.278"/>
<text text-anchor="middle" x="29.6985" y="-153.369" font-family="Times New Roman,serif" font-size="14.00">0</text>
</g>
<!-- up1
0 -->
<g id="node4" class="node"><title>up1
0</title>
<ellipse fill="none" stroke="black" cx="129.397" cy="-104.698" rx="26.7407" ry="26.7407"/>
<text text-anchor="middle" x="129.397" y="-108.498" font-family="Times New Roman,serif" font-size="14.00">up1</text>
<text text-anchor="middle" x="129.397" y="-93.4985" font-family="Times New Roman,serif" font-size="14.00">0</text>
</g>
<!-- low
0&#45;&gt;up1
0 -->
<g id="edge3" class="edge"><title>low
0&#45;&gt;up1
0</title>
<path fill="none" stroke="black" d="M56.6234,-104.698C67.5541,-104.698 80.4653,-104.698 92.3022,-104.698"/>
<polygon fill="black" stroke="black" points="92.351,-108.199 102.351,-104.698 92.3509,-101.199 92.351,-108.199"/>
<text text-anchor="middle" x="80.897" y="-108.498" font-family="Times New Roman,serif" font-size="14.00">1</text>
</g>
</g>
</svg>
