<?xml version="1.0" encoding="UTF-8" standalone="no"?>
<!DOCTYPE svg PUBLIC "-//W3C//DTD SVG 1.1//EN"
 "http://www.w3.org/Graphics/SVG/1.1/DTD/svg11.dtd">
<!-- Generated by graphviz version 2.38.0 (20140413.2041)
 -->
<!-- Title: finite_state_machine Pages: 1 -->
<svg width="602pt" height="220pt"
 viewBox="0.00 0.00 602.27 219.98" xmlns="http://www.w3.org/2000/svg" xmlns:xlink="http://www.w3.org/1999/xlink">
<g id="graph0" class="graph" transform="scale(1 1) rotate(0) translate(4 215.983)">
<title>finite_state_machine</title>
<polygon fill="white" stroke="none" points="-4,4 -4,-215.983 598.269,-215.983 598.269,4 -4,4"/>
<g id="node1" class="node"><title></title>
</g>
<!-- state
y -->
<g id="node2" class="node"><title>state
y</title>
<ellipse fill="none" stroke="black" cx="29.6985" cy="-29.6985" rx="29.8983" ry="29.8983"/>
<text text-anchor="middle" x="29.6985" y="-33.4985" font-family="Times New Roman,serif" font-size="14.00">state</text>
<text text-anchor="middle" x="29.6985" y="-18.4985" font-family="Times New Roman,serif" font-size="14.00">y</text>
</g>
<!-- state
y&#45;&gt; -->
<g id="edge1" class="edge"><title>state
y&#45;&gt;</title>
<path fill="none" stroke="black" d="M59.4828,-29.6985C69.6144,-29.6985 81.1397,-29.6985 91.8266,-29.6985"/>
<polygon fill="black" stroke="black" points="92.1514,-33.1986 102.151,-29.6985 92.1513,-26.1986 92.1514,-33.1986"/>
<text text-anchor="middle" x="80.897" y="-33.4985" font-family="Times New Roman,serif" font-size="14.00">y</text>
</g>
<!-- low
0 -->
<g id="node3" class="node"><title>low
0</title>
<ellipse fill="none" stroke="black" cx="29.6985" cy="-118.698" rx="26.7407" ry="26.7407"/>
<text text-anchor="middle" x="29.6985" y="-122.498" font-family="Times New Roman,serif" font-size="14.00">low</text>
<text text-anchor="middle" x="29.6985" y="-107.498" font-family="Times New Roman,serif" font-size="14.00">0</text>
</g>
<!-- low
0&#45;&gt;low
0 -->
<g id="edge2" class="edge"><title>low
0&#45;&gt;low
0</title>
<path fill="none" stroke="black" d="M20.4059,-144.068C19.765,-154.622 22.8625,-163.569 29.6985,-163.569 34.1846,-163.569 37.0607,-159.716 38.3267,-154.084"/>
<polygon fill="black" stroke="black" points="41.8215,-154.278 38.9911,-144.068 34.8368,-153.815 41.8215,-154.278"/>
<text text-anchor="middle" x="29.6985" y="-167.369" font-family="Times New Roman,serif" font-size="14.00">0</text>
</g>
<!-- up1
0 -->
<g id="node4" class="node"><title>up1
0</title>
<ellipse fill="none" stroke="black" cx="129.397" cy="-144.698" rx="26.7407" ry="26.7407"/>
<text text-anchor="middle" x="129.397" y="-148.498" font-family="Times New Roman,serif" font-size="14.00">up1</text>
<text text-anchor="middle" x="129.397" y="-133.498" font-family="Times New Roman,serif" font-size="14.00">0</text>
</g>
<!-- low
0&#45;&gt;up1
0 -->
<g id="edge3" class="edge"><title>low
0&#45;&gt;up1
0</title>
<path fill="none" stroke="black" d="M55.8583,-125.394C67.2542,-128.427 80.9196,-132.064 93.3015,-135.359"/>
<polygon fill="black" stroke="black" points="92.7587,-138.836 103.322,-138.026 94.5589,-132.071 92.7587,-138.836"/>
<text text-anchor="middle" x="80.897" y="-135.498" font-family="Times New Roman,serif" font-size="14.00">1</text>
</g>
<!-- up2
0 -->
<g id="node5" class="node"><title>up2
0</title>
<ellipse fill="none" stroke="black" cx="226.267" cy="-144.698" rx="26.7407" ry="26.7407"/>
<text text-anchor="middle" x="226.267" y="-148.498" font-family="Times New Roman,serif" font-size="14.00">up2</text>
<text text-anchor="middle" x="226.267" y="-133.498" font-family="Times New Roman,serif" font-size="14.00">0</text>
</g>
<!-- up1
0&#45;&gt;up2
0 -->
<g id="edge4" class="edge"><title>up1
0&#45;&gt;up2
0</title>
<path fill="none" stroke="black" d="M156.321,-144.698C166.465,-144.698 178.274,-144.698 189.223,-144.698"/>
<polygon fill="black" stroke="black" points="189.375,-148.199 199.375,-144.698 189.375,-141.199 189.375,-148.199"/>
<text text-anchor="middle" x="177.897" y="-148.498" font-family="Times New Roman,serif" font-size="14.00">1</text>
</g>
<!-- high
1 -->
<g id="node6" class="node"><title>high
1</title>
<ellipse fill="none" stroke="black" cx="324.421" cy="-150.698" rx="28.0702" ry="28.0702"/>
<text text-anchor="middle" x="324.421" y="-154.498" font-family="Times New Roman,serif" font-size="14.00">high</text>
<text text-anchor="middle" x="324.421" y="-139.498" font-family="Times New Roman,serif" font-size="14.00">1</text>
</g>
<!-- up2
0&#45;&gt;high
1 -->
<g id="edge5" class="edge"><title>up2
0&#45;&gt;high
1</title>
<path fill="none" stroke="black" d="M253.288,-146.322C263.319,-146.948 274.986,-147.676 285.891,-148.357"/>
<polygon fill="black" stroke="black" points="285.837,-151.86 296.035,-148.99 286.273,-144.874 285.837,-151.86"/>
<text text-anchor="middle" x="274.637" y="-151.498" font-family="Times New Roman,serif" font-size="14.00">1</text>
</g>
<!-- high
1&#45;&gt;high
1 -->
<g id="edge6" class="edge"><title>high
1&#45;&gt;high
1</title>
<path fill="none" stroke="black" d="M315.457,-177.797C315.058,-188.274 318.046,-196.983 324.421,-196.983 328.505,-196.983 331.199,-193.409 332.504,-188.085"/>
<polygon fill="black" stroke="black" points="336.019,-188.06 333.386,-177.797 329.044,-187.461 336.019,-188.06"/>
<text text-anchor="middle" x="324.421" y="-200.783" font-family="Times New Roman,serif" font-size="14.00">1</text>
</g>
<!-- down1
1 -->
<g id="node7" class="node"><title>down1
1</title>
<ellipse fill="none" stroke="black" cx="434.597" cy="-156.698" rx="38.7821" ry="38.7821"/>
<text text-anchor="middle" x="434.597" y="-160.498" font-family="Times New Roman,serif" font-size="14.00">down1</text>
<text text-anchor="middle" x="434.597" y="-145.498" font-family="Times New Roman,serif" font-size="14.00">1</text>
</g>
<!-- high
1&#45;&gt;down1
1 -->
<g id="edge7" class="edge"><title>high
1&#45;&gt;down1
1</title>
<path fill="none" stroke="black" d="M352.719,-152.213C362.686,-152.765 374.277,-153.408 385.518,-154.032"/>
<polygon fill="black" stroke="black" points="385.508,-157.536 395.686,-154.596 385.895,-150.547 385.508,-157.536"/>
<text text-anchor="middle" x="374.206" y="-156.498" font-family="Times New Roman,serif" font-size="14.00">0</text>
</g>
<!-- down2
1 -->
<g id="node8" class="node"><title>down2
1</title>
<ellipse fill="none" stroke="black" cx="555.378" cy="-114.698" rx="38.7821" ry="38.7821"/>
<text text-anchor="middle" x="555.378" y="-118.498" font-family="Times New Roman,serif" font-size="14.00">down2</text>
<text text-anchor="middle" x="555.378" y="-103.498" font-family="Times New Roman,serif" font-size="14.00">1</text>
</g>
<!-- down1
1&#45;&gt;down2
1 -->
<g id="edge8" class="edge"><title>down1
1&#45;&gt;down2
1</title>
<path fill="none" stroke="black" d="M471.557,-143.983C483.303,-139.83 496.505,-135.162 508.858,-130.794"/>
<polygon fill="black" stroke="black" points="510.278,-134.004 518.54,-127.371 507.945,-127.405 510.278,-134.004"/>
<text text-anchor="middle" x="494.987" y="-139.498" font-family="Times New Roman,serif" font-size="14.00">0</text>
</g>
<!-- down2
1&#45;&gt;low
0 -->
<g id="edge9" class="edge"><title>down2
1&#45;&gt;low
0</title>
<path fill="none" stroke="black" d="M518.139,-103.004C494.823,-96.4971 463.73,-89.6985 435.597,-89.6985 128.397,-89.6985 128.397,-89.6985 128.397,-89.6985 106.201,-89.6985 82.2966,-96.6628 63.6891,-103.766"/>
<polygon fill="black" stroke="black" points="62.1877,-100.597 54.2104,-107.569 64.7946,-107.093 62.1877,-100.597"/>
<text text-anchor="middle" x="274.637" y="-93.4985" font-family="Times New Roman,serif" font-size="14.00">0</text>
</g>
</g>
</svg>
