<?xml version="1.0" encoding="UTF-8" standalone="no"?>
<!DOCTYPE svg PUBLIC "-//W3C//DTD SVG 1.1//EN"
 "http://www.w3.org/Graphics/SVG/1.1/DTD/svg11.dtd">
<!-- Generated by graphviz version 2.38.0 (20140413.2041)
 -->
<!-- Title: finite_state_machine Pages: 1 -->
<svg width="652pt" height="324pt"
 viewBox="0.00 0.00 652.08 324.15" xmlns="http://www.w3.org/2000/svg" xmlns:xlink="http://www.w3.org/1999/xlink">
<g id="graph0" class="graph" transform="scale(1 1) rotate(0) translate(4 320.154)">
<title>finite_state_machine</title>
<polygon fill="white" stroke="none" points="-4,4 -4,-320.154 648.08,-320.154 648.08,4 -4,4"/>
<g id="node1" class="node"><title></title>
</g>
<!-- y|xx
y -->
<g id="node2" class="node"><title>y|xx
y</title>
<ellipse fill="none" stroke="black" cx="27.5772" cy="-27.5772" rx="27.6545" ry="27.6545"/>
<text text-anchor="middle" x="27.5772" y="-31.3772" font-family="Times New Roman,serif" font-size="14.00">y|xx</text>
<text text-anchor="middle" x="27.5772" y="-16.3772" font-family="Times New Roman,serif" font-size="14.00">y</text>
</g>
<!-- y|xx
y&#45;&gt; -->
<g id="edge1" class="edge"><title>y|xx
y&#45;&gt;</title>
<path fill="none" stroke="black" d="M55.3615,-27.5772C65.5523,-27.5772 77.3427,-27.5772 88.2792,-27.5772"/>
<polygon fill="black" stroke="black" points="88.4232,-31.0773 98.4231,-27.5772 88.4231,-24.0773 88.4232,-31.0773"/>
<text text-anchor="middle" x="76.6543" y="-31.3772" font-family="Times New Roman,serif" font-size="14.00">x</text>
</g>
<!-- 0|00
0 -->
<g id="node3" class="node"><title>0|00
0</title>
<ellipse fill="none" stroke="black" cx="27.5772" cy="-111.577" rx="27.6545" ry="27.6545"/>
<text text-anchor="middle" x="27.5772" y="-115.377" font-family="Times New Roman,serif" font-size="14.00">0|00</text>
<text text-anchor="middle" x="27.5772" y="-100.377" font-family="Times New Roman,serif" font-size="14.00">0</text>
</g>
<!-- 0|00
0&#45;&gt;0|00
0 -->
<g id="edge2" class="edge"><title>0|00
0&#45;&gt;0|00
0</title>
<path fill="none" stroke="black" d="M18.6321,-137.805C18.1267,-148.325 21.1084,-157.154 27.5772,-157.154 31.7212,-157.154 34.4342,-153.531 35.716,-148.161"/>
<polygon fill="black" stroke="black" points="39.2354,-148.047 36.5222,-137.805 32.2565,-147.504 39.2354,-148.047"/>
<text text-anchor="middle" x="27.5772" y="-160.954" font-family="Times New Roman,serif" font-size="14.00">0</text>
</g>
<!-- 0|01
0 -->
<g id="node4" class="node"><title>0|01
0</title>
<ellipse fill="none" stroke="black" cx="125.731" cy="-187.577" rx="27.6545" ry="27.6545"/>
<text text-anchor="middle" x="125.731" y="-191.377" font-family="Times New Roman,serif" font-size="14.00">0|01</text>
<text text-anchor="middle" x="125.731" y="-176.377" font-family="Times New Roman,serif" font-size="14.00">0</text>
</g>
<!-- 0|00
0&#45;&gt;0|01
0 -->
<g id="edge3" class="edge"><title>0|00
0&#45;&gt;0|01
0</title>
<path fill="none" stroke="black" d="M49.9169,-128.444C63.2371,-138.972 80.5722,-152.674 95.2014,-164.237"/>
<polygon fill="black" stroke="black" points="93.4357,-167.302 103.451,-170.757 97.7764,-161.811 93.4357,-167.302"/>
<text text-anchor="middle" x="76.6543" y="-156.377" font-family="Times New Roman,serif" font-size="14.00">1</text>
</g>
<!-- 0|10
0 -->
<g id="node5" class="node"><title>0|10
0</title>
<ellipse fill="none" stroke="black" cx="322.04" cy="-182.577" rx="27.6545" ry="27.6545"/>
<text text-anchor="middle" x="322.04" y="-186.377" font-family="Times New Roman,serif" font-size="14.00">0|10</text>
<text text-anchor="middle" x="322.04" y="-171.377" font-family="Times New Roman,serif" font-size="14.00">0</text>
</g>
<!-- 0|01
0&#45;&gt;0|10
0 -->
<g id="edge4" class="edge"><title>0|01
0&#45;&gt;0|10
0</title>
<path fill="none" stroke="black" d="M152.591,-180.164C165.588,-176.815 181.653,-173.241 196.309,-171.577 225.982,-168.209 259.726,-171.624 284.628,-175.511"/>
<polygon fill="black" stroke="black" points="284.283,-179.001 294.721,-177.187 285.43,-172.096 284.283,-179.001"/>
<text text-anchor="middle" x="223.886" y="-175.377" font-family="Times New Roman,serif" font-size="14.00">0</text>
</g>
<!-- 0|11
0 -->
<g id="node6" class="node"><title>0|11
0</title>
<ellipse fill="none" stroke="black" cx="223.886" cy="-269.577" rx="27.6545" ry="27.6545"/>
<text text-anchor="middle" x="223.886" y="-273.377" font-family="Times New Roman,serif" font-size="14.00">0|11</text>
<text text-anchor="middle" x="223.886" y="-258.377" font-family="Times New Roman,serif" font-size="14.00">0</text>
</g>
<!-- 0|01
0&#45;&gt;0|11
0 -->
<g id="edge5" class="edge"><title>0|01
0&#45;&gt;0|11
0</title>
<path fill="none" stroke="black" d="M147.596,-205.37C161.297,-217.054 179.395,-232.489 194.414,-245.296"/>
<polygon fill="black" stroke="black" points="192.513,-248.275 202.393,-252.101 197.055,-242.949 192.513,-248.275"/>
<text text-anchor="middle" x="174.809" y="-234.377" font-family="Times New Roman,serif" font-size="14.00">1</text>
</g>
<!-- 0|10
0&#45;&gt;0|00
0 -->
<g id="edge17" class="edge"><title>0|10
0&#45;&gt;0|00
0</title>
<path fill="none" stroke="black" d="M295.145,-175.469C289.028,-173.828 282.523,-172.114 276.463,-170.577 201.357,-151.534 112.989,-130.931 64.6617,-119.817"/>
<polygon fill="black" stroke="black" points="65.2211,-116.354 54.6915,-117.528 63.6548,-123.177 65.2211,-116.354"/>
<text text-anchor="middle" x="174.809" y="-150.377" font-family="Times New Roman,serif" font-size="14.00">0</text>
</g>
<!-- 0|10
0&#45;&gt;0|01
0 -->
<g id="edge16" class="edge"><title>0|10
0&#45;&gt;0|01
0</title>
<path fill="none" stroke="black" d="M294.696,-186.672C288.716,-187.448 282.382,-188.15 276.463,-188.577 237.961,-191.354 193.747,-190.573 163.402,-189.427"/>
<polygon fill="black" stroke="black" points="163.414,-185.925 153.279,-189.012 163.127,-192.919 163.414,-185.925"/>
<text text-anchor="middle" x="223.886" y="-194.377" font-family="Times New Roman,serif" font-size="14.00">1</text>
</g>
<!-- 0|11
0&#45;&gt;0|10
0 -->
<g id="edge6" class="edge"><title>0|11
0&#45;&gt;0|10
0</title>
<path fill="none" stroke="black" d="M244.809,-251.551C258.862,-238.836 277.87,-221.637 293.389,-207.595"/>
<polygon fill="black" stroke="black" points="296.075,-209.885 301.142,-200.581 291.379,-204.694 296.075,-209.885"/>
<text text-anchor="middle" x="272.963" y="-232.377" font-family="Times New Roman,serif" font-size="14.00">0</text>
</g>
<!-- 1|11
1 -->
<g id="node7" class="node"><title>1|11
1</title>
<ellipse fill="none" stroke="black" cx="322.04" cy="-255.577" rx="27.6545" ry="27.6545"/>
<text text-anchor="middle" x="322.04" y="-259.377" font-family="Times New Roman,serif" font-size="14.00">1|11</text>
<text text-anchor="middle" x="322.04" y="-244.377" font-family="Times New Roman,serif" font-size="14.00">1</text>
</g>
<!-- 0|11
0&#45;&gt;1|11
1 -->
<g id="edge7" class="edge"><title>0|11
0&#45;&gt;1|11
1</title>
<path fill="none" stroke="black" d="M251.415,-265.715C261.609,-264.23 273.433,-262.509 284.412,-260.91"/>
<polygon fill="black" stroke="black" points="285.206,-264.332 294.598,-259.427 284.198,-257.405 285.206,-264.332"/>
<text text-anchor="middle" x="272.963" y="-266.377" font-family="Times New Roman,serif" font-size="14.00">1</text>
</g>
<!-- 1|11
1&#45;&gt;1|11
1 -->
<g id="edge8" class="edge"><title>1|11
1&#45;&gt;1|11
1</title>
<path fill="none" stroke="black" d="M313.095,-281.805C312.59,-292.325 315.571,-301.154 322.04,-301.154 326.184,-301.154 328.897,-297.531 330.179,-292.161"/>
<polygon fill="black" stroke="black" points="333.698,-292.047 330.985,-281.805 326.719,-291.504 333.698,-292.047"/>
<text text-anchor="middle" x="322.04" y="-304.954" font-family="Times New Roman,serif" font-size="14.00">1</text>
</g>
<!-- 1|10
1 -->
<g id="node8" class="node"><title>1|10
1</title>
<ellipse fill="none" stroke="black" cx="420.194" cy="-177.577" rx="27.6545" ry="27.6545"/>
<text text-anchor="middle" x="420.194" y="-181.377" font-family="Times New Roman,serif" font-size="14.00">1|10</text>
<text text-anchor="middle" x="420.194" y="-166.377" font-family="Times New Roman,serif" font-size="14.00">1</text>
</g>
<!-- 1|11
1&#45;&gt;1|10
1 -->
<g id="edge9" class="edge"><title>1|11
1&#45;&gt;1|10
1</title>
<path fill="none" stroke="black" d="M343.904,-238.652C357.512,-227.613 375.458,-213.056 390.415,-200.923"/>
<polygon fill="black" stroke="black" points="392.81,-203.487 398.371,-194.469 388.4,-198.051 392.81,-203.487"/>
<text text-anchor="middle" x="371.117" y="-222.377" font-family="Times New Roman,serif" font-size="14.00">0</text>
</g>
<!-- 1|01
1 -->
<g id="node9" class="node"><title>1|01
1</title>
<ellipse fill="none" stroke="black" cx="616.503" cy="-186.577" rx="27.6545" ry="27.6545"/>
<text text-anchor="middle" x="616.503" y="-190.377" font-family="Times New Roman,serif" font-size="14.00">1|01</text>
<text text-anchor="middle" x="616.503" y="-175.377" font-family="Times New Roman,serif" font-size="14.00">1</text>
</g>
<!-- 1|10
1&#45;&gt;1|01
1 -->
<g id="edge10" class="edge"><title>1|10
1&#45;&gt;1|01
1</title>
<path fill="none" stroke="black" d="M448.004,-175.689C473.294,-174.253 512.244,-172.931 545.926,-175.577 556.828,-176.434 568.603,-178.034 579.311,-179.754"/>
<polygon fill="black" stroke="black" points="578.745,-183.208 589.188,-181.419 579.909,-176.305 578.745,-183.208"/>
<text text-anchor="middle" x="518.349" y="-179.377" font-family="Times New Roman,serif" font-size="14.00">1</text>
</g>
<!-- 1|00
1 -->
<g id="node10" class="node"><title>1|00
1</title>
<ellipse fill="none" stroke="black" cx="518.349" cy="-97.5772" rx="27.6545" ry="27.6545"/>
<text text-anchor="middle" x="518.349" y="-101.377" font-family="Times New Roman,serif" font-size="14.00">1|00</text>
<text text-anchor="middle" x="518.349" y="-86.3772" font-family="Times New Roman,serif" font-size="14.00">1</text>
</g>
<!-- 1|10
1&#45;&gt;1|00
1 -->
<g id="edge11" class="edge"><title>1|10
1&#45;&gt;1|00
1</title>
<path fill="none" stroke="black" d="M439.504,-157.456C447.275,-149.361 456.636,-140.166 465.772,-132.577 472.093,-127.326 479.202,-122.111 486.076,-117.372"/>
<polygon fill="black" stroke="black" points="488.232,-120.14 494.579,-111.657 484.327,-114.33 488.232,-120.14"/>
<text text-anchor="middle" x="469.272" y="-136.377" font-family="Times New Roman,serif" font-size="14.00">0</text>
</g>
<!-- 1|01
1&#45;&gt;1|11
1 -->
<g id="edge14" class="edge"><title>1|01
1&#45;&gt;1|11
1</title>
<path fill="none" stroke="black" d="M591.294,-198.88C584.774,-201.945 577.66,-205.068 570.926,-207.577 560.114,-211.605 557.167,-211.975 545.926,-214.577 480.809,-229.65 403.964,-242.773 359.632,-249.897"/>
<polygon fill="black" stroke="black" points="358.944,-246.462 349.62,-251.492 360.046,-253.375 358.944,-246.462"/>
<text text-anchor="middle" x="469.272" y="-234.377" font-family="Times New Roman,serif" font-size="14.00">1</text>
</g>
<!-- 1|01
1&#45;&gt;1|10
1 -->
<g id="edge15" class="edge"><title>1|01
1&#45;&gt;1|10
1</title>
<path fill="none" stroke="black" d="M589.162,-190.716C583.182,-191.49 576.847,-192.18 570.926,-192.577 524.276,-195.703 511.991,-196.632 465.772,-189.577 462.875,-189.135 459.896,-188.574 456.918,-187.938"/>
<polygon fill="black" stroke="black" points="457.455,-184.468 446.915,-185.546 455.827,-191.276 457.455,-184.468"/>
<text text-anchor="middle" x="518.349" y="-199.377" font-family="Times New Roman,serif" font-size="14.00">0</text>
</g>
<!-- 1|00
1&#45;&gt;0|00
0 -->
<g id="edge13" class="edge"><title>1|00
1&#45;&gt;0|00
0</title>
<path fill="none" stroke="black" d="M492.466,-87.8154C473.297,-81.1709 445.971,-73.5772 421.194,-73.5772 124.731,-73.5772 124.731,-73.5772 124.731,-73.5772 102.109,-73.5772 78.4564,-82.7872 60.2707,-92.1388"/>
<polygon fill="black" stroke="black" points="58.4245,-89.1582 51.2936,-96.994 61.7546,-95.3154 58.4245,-89.1582"/>
<text text-anchor="middle" x="272.963" y="-77.3772" font-family="Times New Roman,serif" font-size="14.00">0</text>
</g>
<!-- 1|00
1&#45;&gt;1|01
1 -->
<g id="edge12" class="edge"><title>1|00
1&#45;&gt;1|01
1</title>
<path fill="none" stroke="black" d="M542.466,-111.257C551.753,-117.252 562.283,-124.71 570.926,-132.577 578.815,-139.758 586.533,-148.361 593.27,-156.567"/>
<polygon fill="black" stroke="black" points="590.682,-158.934 599.651,-164.573 596.156,-154.572 590.682,-158.934"/>
<text text-anchor="middle" x="567.426" y="-136.377" font-family="Times New Roman,serif" font-size="14.00">1</text>
</g>
</g>
</svg>
