<?xml version="1.0" encoding="UTF-8" standalone="no"?>
<!DOCTYPE svg PUBLIC "-//W3C//DTD SVG 1.1//EN"
 "http://www.w3.org/Graphics/SVG/1.1/DTD/svg11.dtd">
<!-- Generated by graphviz version 2.38.0 (20140413.2041)
 -->
<!-- Title: finite_state_machine Pages: 1 -->
<svg width="602pt" height="241pt"
 viewBox="0.00 0.00 602.27 240.59" xmlns="http://www.w3.org/2000/svg" xmlns:xlink="http://www.w3.org/1999/xlink">
<g id="graph0" class="graph" transform="scale(1 1) rotate(0) translate(4 236.589)">
<title>finite_state_machine</title>
<polygon fill="white" stroke="none" points="-4,4 -4,-236.589 598.269,-236.589 598.269,4 -4,4"/>
<g id="node1" class="node"><title></title>
</g>
<!-- state
y -->
<g id="node2" class="node"><title>state
y</title>
<ellipse fill="none" stroke="black" cx="29.6985" cy="-29.6985" rx="29.8983" ry="29.8983"/>
<text text-anchor="middle" x="29.6985" y="-33.4985" font-family="Times New Roman,serif" font-size="14.00">state</text>
<text text-anchor="middle" x="29.6985" y="-18.4985" font-family="Times New Roman,serif" font-size="14.00">y</text>
</g>
<!-- state
y&#45;&gt; -->
<g id="edge1" class="edge"><title>state
y&#45;&gt;</title>
<path fill="none" stroke="black" d="M59.4828,-29.6985C69.6144,-29.6985 81.1397,-29.6985 91.8266,-29.6985"/>
<polygon fill="black" stroke="black" points="92.1514,-33.1986 102.151,-29.6985 92.1513,-26.1986 92.1514,-33.1986"/>
<text text-anchor="middle" x="80.897" y="-33.4985" font-family="Times New Roman,serif" font-size="14.00">y</text>
</g>
<!-- low
0 -->
<g id="node3" class="node"><title>low
0</title>
<ellipse fill="none" stroke="black" cx="29.6985" cy="-137.698" rx="26.7407" ry="26.7407"/>
<text text-anchor="middle" x="29.6985" y="-141.498" font-family="Times New Roman,serif" font-size="14.00">low</text>
<text text-anchor="middle" x="29.6985" y="-126.498" font-family="Times New Roman,serif" font-size="14.00">0</text>
</g>
<!-- low
0&#45;&gt;low
0 -->
<g id="edge2" class="edge"><title>low
0&#45;&gt;low
0</title>
<path fill="none" stroke="black" d="M20.4059,-163.068C19.765,-173.622 22.8625,-182.569 29.6985,-182.569 34.1846,-182.569 37.0607,-178.716 38.3267,-173.084"/>
<polygon fill="black" stroke="black" points="41.8215,-173.278 38.9911,-163.068 34.8368,-172.815 41.8215,-173.278"/>
<text text-anchor="middle" x="29.6985" y="-186.369" font-family="Times New Roman,serif" font-size="14.00">0</text>
</g>
<!-- up1
0 -->
<g id="node4" class="node"><title>up1
0</title>
<ellipse fill="none" stroke="black" cx="129.397" cy="-181.698" rx="26.7407" ry="26.7407"/>
<text text-anchor="middle" x="129.397" y="-185.498" font-family="Times New Roman,serif" font-size="14.00">up1</text>
<text text-anchor="middle" x="129.397" y="-170.498" font-family="Times New Roman,serif" font-size="14.00">0</text>
</g>
<!-- low
0&#45;&gt;up1
0 -->
<g id="edge3" class="edge"><title>low
0&#45;&gt;up1
0</title>
<path fill="none" stroke="black" d="M50.9989,-154.736C58.829,-160.561 68.1257,-166.627 77.397,-170.698 82.198,-172.807 87.4357,-174.524 92.667,-175.92"/>
<polygon fill="black" stroke="black" points="92.0704,-179.374 102.603,-178.224 93.6521,-172.555 92.0704,-179.374"/>
<text text-anchor="middle" x="80.897" y="-177.498" font-family="Times New Roman,serif" font-size="14.00">1</text>
</g>
<!-- up1
0&#45;&gt;low
0 -->
<g id="edge4" class="edge"><title>up1
0&#45;&gt;low
0</title>
<path fill="none" stroke="black" d="M107.787,-165.496C100.684,-160.509 92.4767,-155.372 84.397,-151.698 78.5839,-149.055 72.1813,-146.843 65.8841,-145.014"/>
<polygon fill="black" stroke="black" points="66.7373,-141.62 56.1751,-142.451 64.9505,-148.388 66.7373,-141.62"/>
<text text-anchor="middle" x="80.897" y="-155.498" font-family="Times New Roman,serif" font-size="14.00">0</text>
</g>
<!-- up2
0 -->
<g id="node5" class="node"><title>up2
0</title>
<ellipse fill="none" stroke="black" cx="226.267" cy="-155.698" rx="26.7407" ry="26.7407"/>
<text text-anchor="middle" x="226.267" y="-159.498" font-family="Times New Roman,serif" font-size="14.00">up2</text>
<text text-anchor="middle" x="226.267" y="-144.498" font-family="Times New Roman,serif" font-size="14.00">0</text>
</g>
<!-- up1
0&#45;&gt;up2
0 -->
<g id="edge5" class="edge"><title>up1
0&#45;&gt;up2
0</title>
<path fill="none" stroke="black" d="M155.82,-174.731C166.433,-171.822 178.935,-168.396 190.385,-165.258"/>
<polygon fill="black" stroke="black" points="191.383,-168.614 200.102,-162.595 189.533,-161.863 191.383,-168.614"/>
<text text-anchor="middle" x="177.897" y="-173.498" font-family="Times New Roman,serif" font-size="14.00">1</text>
</g>
<!-- up2
0&#45;&gt;low
0 -->
<g id="edge7" class="edge"><title>up2
0&#45;&gt;low
0</title>
<path fill="none" stroke="black" d="M201.609,-144.792C188.575,-139.382 171.931,-133.431 156.397,-130.698 126.449,-125.431 91.9273,-127.956 66.6483,-131.36"/>
<polygon fill="black" stroke="black" points="65.8104,-127.945 56.4205,-132.852 66.8211,-134.872 65.8104,-127.945"/>
<text text-anchor="middle" x="129.397" y="-134.498" font-family="Times New Roman,serif" font-size="14.00">0</text>
</g>
<!-- high
1 -->
<g id="node6" class="node"><title>high
1</title>
<ellipse fill="none" stroke="black" cx="324.421" cy="-155.698" rx="28.0702" ry="28.0702"/>
<text text-anchor="middle" x="324.421" y="-159.498" font-family="Times New Roman,serif" font-size="14.00">high</text>
<text text-anchor="middle" x="324.421" y="-144.498" font-family="Times New Roman,serif" font-size="14.00">1</text>
</g>
<!-- up2
0&#45;&gt;high
1 -->
<g id="edge6" class="edge"><title>up2
0&#45;&gt;high
1</title>
<path fill="none" stroke="black" d="M253.288,-155.698C263.319,-155.698 274.986,-155.698 285.891,-155.698"/>
<polygon fill="black" stroke="black" points="286.035,-159.199 296.035,-155.698 286.035,-152.199 286.035,-159.199"/>
<text text-anchor="middle" x="274.637" y="-159.498" font-family="Times New Roman,serif" font-size="14.00">1</text>
</g>
<!-- high
1&#45;&gt;high
1 -->
<g id="edge8" class="edge"><title>high
1&#45;&gt;high
1</title>
<path fill="none" stroke="black" d="M315.457,-182.797C315.058,-193.274 318.046,-201.983 324.421,-201.983 328.505,-201.983 331.199,-198.409 332.504,-193.085"/>
<polygon fill="black" stroke="black" points="336.019,-193.06 333.386,-182.797 329.044,-192.461 336.019,-193.06"/>
<text text-anchor="middle" x="324.421" y="-205.783" font-family="Times New Roman,serif" font-size="14.00">1</text>
</g>
<!-- down1
1 -->
<g id="node7" class="node"><title>down1
1</title>
<ellipse fill="none" stroke="black" cx="434.597" cy="-193.698" rx="38.7821" ry="38.7821"/>
<text text-anchor="middle" x="434.597" y="-197.498" font-family="Times New Roman,serif" font-size="14.00">down1</text>
<text text-anchor="middle" x="434.597" y="-182.498" font-family="Times New Roman,serif" font-size="14.00">1</text>
</g>
<!-- high
1&#45;&gt;down1
1 -->
<g id="edge9" class="edge"><title>high
1&#45;&gt;down1
1</title>
<path fill="none" stroke="black" d="M351.279,-164.85C357.631,-167.094 364.413,-169.486 370.706,-171.698 376.298,-173.665 382.172,-175.725 387.991,-177.764"/>
<polygon fill="black" stroke="black" points="387.076,-181.152 397.671,-181.153 389.389,-174.545 387.076,-181.152"/>
<text text-anchor="middle" x="374.206" y="-178.498" font-family="Times New Roman,serif" font-size="14.00">0</text>
</g>
<!-- down1
1&#45;&gt;high
1 -->
<g id="edge10" class="edge"><title>down1
1&#45;&gt;high
1</title>
<path fill="none" stroke="black" d="M405.402,-167.732C397.076,-161.603 387.541,-155.919 377.706,-152.698 372.809,-151.095 367.518,-150.348 362.247,-150.158"/>
<polygon fill="black" stroke="black" points="362.158,-146.659 352.245,-150.398 362.326,-153.657 362.158,-146.659"/>
<text text-anchor="middle" x="374.206" y="-156.498" font-family="Times New Roman,serif" font-size="14.00">1</text>
</g>
<!-- down2
1 -->
<g id="node8" class="node"><title>down2
1</title>
<ellipse fill="none" stroke="black" cx="555.378" cy="-121.698" rx="38.7821" ry="38.7821"/>
<text text-anchor="middle" x="555.378" y="-125.498" font-family="Times New Roman,serif" font-size="14.00">down2</text>
<text text-anchor="middle" x="555.378" y="-110.498" font-family="Times New Roman,serif" font-size="14.00">1</text>
</g>
<!-- down1
1&#45;&gt;down2
1 -->
<g id="edge11" class="edge"><title>down1
1&#45;&gt;down2
1</title>
<path fill="none" stroke="black" d="M468.369,-173.834C482.13,-165.492 498.296,-155.693 512.876,-146.855"/>
<polygon fill="black" stroke="black" points="514.976,-149.675 521.713,-141.499 511.347,-143.689 514.976,-149.675"/>
<text text-anchor="middle" x="494.987" y="-161.498" font-family="Times New Roman,serif" font-size="14.00">0</text>
</g>
<!-- down2
1&#45;&gt;low
0 -->
<g id="edge13" class="edge"><title>down2
1&#45;&gt;low
0</title>
<path fill="none" stroke="black" d="M521.886,-101.656C498.712,-89.26 466.335,-75.6985 435.597,-75.6985 128.397,-75.6985 128.397,-75.6985 128.397,-75.6985 100.449,-75.6985 74.0229,-94.0099 55.7193,-110.73"/>
<polygon fill="black" stroke="black" points="53.1979,-108.298 48.3914,-117.74 58.0368,-113.356 53.1979,-108.298"/>
<text text-anchor="middle" x="274.637" y="-79.4985" font-family="Times New Roman,serif" font-size="14.00">0</text>
</g>
<!-- down2
1&#45;&gt;high
1 -->
<g id="edge12" class="edge"><title>down2
1&#45;&gt;high
1</title>
<path fill="none" stroke="black" d="M516.484,-120.837C484.094,-120.815 436.41,-122.481 395.706,-130.698 383.825,-133.097 371.238,-137.083 360.048,-141.175"/>
<polygon fill="black" stroke="black" points="358.729,-137.932 350.628,-144.761 361.219,-144.474 358.729,-137.932"/>
<text text-anchor="middle" x="434.597" y="-134.498" font-family="Times New Roman,serif" font-size="14.00">1</text>
</g>
</g>
</svg>
