<?xml version="1.0" encoding="UTF-8" standalone="no"?>
<!DOCTYPE svg PUBLIC "-//W3C//DTD SVG 1.1//EN"
 "http://www.w3.org/Graphics/SVG/1.1/DTD/svg11.dtd">
<!-- Generated by graphviz version 2.38.0 (20140413.2041)
 -->
<!-- Title: finite_state_machine Pages: 1 -->
<svg width="720pt" height="184pt"
 viewBox="0.00 0.00 720.00 184.02" xmlns="http://www.w3.org/2000/svg" xmlns:xlink="http://www.w3.org/1999/xlink">
<g id="graph0" class="graph" transform="scale(0.883254 0.883254) rotate(0) translate(4 204.344)">
<title>finite_state_machine</title>
<polygon fill="white" stroke="none" points="-4,4 -4,-204.344 811.167,-204.344 811.167,4 -4,4"/>
<g id="node1" class="node"><title></title>
</g>
<!-- Q₂Q₁Q₀ -->
<g id="node2" class="node"><title>Q₂Q₁Q₀</title>
<ellipse fill="none" stroke="black" cx="40.2964" cy="-40.2964" rx="40.0939" ry="40.0939"/>
<text text-anchor="middle" x="40.2964" y="-36.5964" font-family="Times New Roman,serif" font-size="14.00">Q₂Q₁Q₀</text>
</g>
<!-- Q₂Q₁Q₀&#45;&gt; -->
<g id="edge1" class="edge"><title>Q₂Q₁Q₀&#45;&gt;</title>
<path fill="none" stroke="black" d="M80.5972,-40.2964C96.458,-40.2964 114.649,-40.2964 130.203,-40.2964"/>
<polygon fill="black" stroke="black" points="130.489,-43.7965 140.489,-40.2964 130.489,-36.7965 130.489,-43.7965"/>
<text text-anchor="middle" x="110.593" y="-44.0964" font-family="Times New Roman,serif" font-size="14.00">X/Y</text>
</g>
<!-- 000 -->
<g id="node3" class="node"><title>000</title>
<ellipse fill="none" stroke="black" cx="40.2964" cy="-128.296" rx="24.0958" ry="24.0958"/>
<text text-anchor="middle" x="40.2964" y="-124.596" font-family="Times New Roman,serif" font-size="14.00">000</text>
</g>
<!-- 000&#45;&gt;000 -->
<g id="edge2" class="edge"><title>000&#45;&gt;000</title>
<path fill="none" stroke="black" d="M27.713,-149.065C25.5746,-160.2 29.7691,-170.344 40.2964,-170.344 47.3695,-170.344 51.5838,-165.765 52.9393,-159.383"/>
<polygon fill="black" stroke="black" points="56.4376,-159.045 52.8799,-149.065 49.4377,-159.085 56.4376,-159.045"/>
<text text-anchor="middle" x="40.2964" y="-174.144" font-family="Times New Roman,serif" font-size="14.00">0/0</text>
</g>
<!-- 001 -->
<g id="node4" class="node"><title>001</title>
<ellipse fill="none" stroke="black" cx="167.593" cy="-143.296" rx="24.0958" ry="24.0958"/>
<text text-anchor="middle" x="167.593" y="-139.596" font-family="Times New Roman,serif" font-size="14.00">001</text>
</g>
<!-- 000&#45;&gt;001 -->
<g id="edge10" class="edge"><title>000&#45;&gt;001</title>
<path fill="none" stroke="black" d="M64.2777,-131.048C83.5846,-133.359 111.43,-136.693 133.199,-139.299"/>
<polygon fill="black" stroke="black" points="132.988,-142.798 143.333,-140.512 133.82,-135.848 132.988,-142.798"/>
<text text-anchor="middle" x="110.593" y="-141.096" font-family="Times New Roman,serif" font-size="14.00">1/0</text>
</g>
<!-- 001&#45;&gt;001 -->
<g id="edge3" class="edge"><title>001&#45;&gt;001</title>
<path fill="none" stroke="black" d="M157.715,-165.362C156.496,-175.975 159.788,-185.344 167.593,-185.344 172.715,-185.344 175.893,-181.309 177.129,-175.536"/>
<polygon fill="black" stroke="black" points="180.633,-175.474 177.471,-165.362 173.637,-175.239 180.633,-175.474"/>
<text text-anchor="middle" x="167.593" y="-189.144" font-family="Times New Roman,serif" font-size="14.00">0/0</text>
</g>
<!-- 010 -->
<g id="node5" class="node"><title>010</title>
<ellipse fill="none" stroke="black" cx="272.641" cy="-143.296" rx="24.0958" ry="24.0958"/>
<text text-anchor="middle" x="272.641" y="-139.596" font-family="Times New Roman,serif" font-size="14.00">010</text>
</g>
<!-- 001&#45;&gt;010 -->
<g id="edge11" class="edge"><title>001&#45;&gt;010</title>
<path fill="none" stroke="black" d="M191.719,-143.296C205.508,-143.296 223.243,-143.296 238.502,-143.296"/>
<polygon fill="black" stroke="black" points="238.592,-146.797 248.592,-143.296 238.592,-139.797 238.592,-146.797"/>
<text text-anchor="middle" x="221.593" y="-147.096" font-family="Times New Roman,serif" font-size="14.00">1/0</text>
</g>
<!-- 010&#45;&gt;010 -->
<g id="edge4" class="edge"><title>010&#45;&gt;010</title>
<path fill="none" stroke="black" d="M263.451,-165.791C262.449,-176.227 265.512,-185.344 272.641,-185.344 277.208,-185.344 280.106,-181.602 281.336,-176.169"/>
<polygon fill="black" stroke="black" points="284.85,-175.947 281.83,-165.791 277.858,-175.613 284.85,-175.947"/>
<text text-anchor="middle" x="272.641" y="-189.144" font-family="Times New Roman,serif" font-size="14.00">0/0</text>
</g>
<!-- 011 -->
<g id="node6" class="node"><title>011</title>
<ellipse fill="none" stroke="black" cx="374.736" cy="-143.296" rx="24.0958" ry="24.0958"/>
<text text-anchor="middle" x="374.736" y="-139.596" font-family="Times New Roman,serif" font-size="14.00">011</text>
</g>
<!-- 010&#45;&gt;011 -->
<g id="edge12" class="edge"><title>010&#45;&gt;011</title>
<path fill="none" stroke="black" d="M296.856,-143.296C309.742,-143.296 325.998,-143.296 340.239,-143.296"/>
<polygon fill="black" stroke="black" points="340.647,-146.797 350.647,-143.296 340.647,-139.797 340.647,-146.797"/>
<text text-anchor="middle" x="323.689" y="-147.096" font-family="Times New Roman,serif" font-size="14.00">1/0</text>
</g>
<!-- 011&#45;&gt;011 -->
<g id="edge5" class="edge"><title>011&#45;&gt;011</title>
<path fill="none" stroke="black" d="M365.547,-165.791C364.544,-176.227 367.608,-185.344 374.736,-185.344 379.303,-185.344 382.202,-181.602 383.432,-176.169"/>
<polygon fill="black" stroke="black" points="386.946,-175.947 383.926,-165.791 379.954,-175.613 386.946,-175.947"/>
<text text-anchor="middle" x="374.736" y="-189.144" font-family="Times New Roman,serif" font-size="14.00">0/0</text>
</g>
<!-- 100 -->
<g id="node7" class="node"><title>100</title>
<ellipse fill="none" stroke="black" cx="476.832" cy="-143.296" rx="24.0958" ry="24.0958"/>
<text text-anchor="middle" x="476.832" y="-139.596" font-family="Times New Roman,serif" font-size="14.00">100</text>
</g>
<!-- 011&#45;&gt;100 -->
<g id="edge13" class="edge"><title>011&#45;&gt;100</title>
<path fill="none" stroke="black" d="M398.952,-143.296C411.838,-143.296 428.093,-143.296 442.334,-143.296"/>
<polygon fill="black" stroke="black" points="442.743,-146.797 452.743,-143.296 442.742,-139.797 442.743,-146.797"/>
<text text-anchor="middle" x="425.784" y="-147.096" font-family="Times New Roman,serif" font-size="14.00">1/0</text>
</g>
<!-- 100&#45;&gt;100 -->
<g id="edge6" class="edge"><title>100&#45;&gt;100</title>
<path fill="none" stroke="black" d="M467.643,-165.791C466.64,-176.227 469.703,-185.344 476.832,-185.344 481.399,-185.344 484.298,-181.602 485.527,-176.169"/>
<polygon fill="black" stroke="black" points="489.042,-175.947 486.022,-165.791 482.05,-175.613 489.042,-175.947"/>
<text text-anchor="middle" x="476.832" y="-189.144" font-family="Times New Roman,serif" font-size="14.00">0/0</text>
</g>
<!-- 101 -->
<g id="node8" class="node"><title>101</title>
<ellipse fill="none" stroke="black" cx="578.928" cy="-143.296" rx="24.0958" ry="24.0958"/>
<text text-anchor="middle" x="578.928" y="-139.596" font-family="Times New Roman,serif" font-size="14.00">101</text>
</g>
<!-- 100&#45;&gt;101 -->
<g id="edge14" class="edge"><title>100&#45;&gt;101</title>
<path fill="none" stroke="black" d="M501.048,-143.296C513.934,-143.296 530.189,-143.296 544.43,-143.296"/>
<polygon fill="black" stroke="black" points="544.838,-146.797 554.838,-143.296 544.838,-139.797 544.838,-146.797"/>
<text text-anchor="middle" x="527.88" y="-147.096" font-family="Times New Roman,serif" font-size="14.00">1/0</text>
</g>
<!-- 101&#45;&gt;101 -->
<g id="edge7" class="edge"><title>101&#45;&gt;101</title>
<path fill="none" stroke="black" d="M569.738,-165.791C568.736,-176.227 571.799,-185.344 578.928,-185.344 583.495,-185.344 586.393,-181.602 587.623,-176.169"/>
<polygon fill="black" stroke="black" points="591.138,-175.947 588.118,-165.791 584.146,-175.613 591.138,-175.947"/>
<text text-anchor="middle" x="578.928" y="-189.144" font-family="Times New Roman,serif" font-size="14.00">0/0</text>
</g>
<!-- 110 -->
<g id="node9" class="node"><title>110</title>
<ellipse fill="none" stroke="black" cx="681.024" cy="-143.296" rx="24.0958" ry="24.0958"/>
<text text-anchor="middle" x="681.024" y="-139.596" font-family="Times New Roman,serif" font-size="14.00">110</text>
</g>
<!-- 101&#45;&gt;110 -->
<g id="edge15" class="edge"><title>101&#45;&gt;110</title>
<path fill="none" stroke="black" d="M603.143,-143.296C616.03,-143.296 632.285,-143.296 646.526,-143.296"/>
<polygon fill="black" stroke="black" points="646.934,-146.797 656.934,-143.296 646.934,-139.797 646.934,-146.797"/>
<text text-anchor="middle" x="629.976" y="-147.096" font-family="Times New Roman,serif" font-size="14.00">1/0</text>
</g>
<!-- 110&#45;&gt;110 -->
<g id="edge8" class="edge"><title>110&#45;&gt;110</title>
<path fill="none" stroke="black" d="M671.834,-165.791C670.832,-176.227 673.895,-185.344 681.024,-185.344 685.591,-185.344 688.489,-181.602 689.719,-176.169"/>
<polygon fill="black" stroke="black" points="693.233,-175.947 690.213,-165.791 686.241,-175.613 693.233,-175.947"/>
<text text-anchor="middle" x="681.024" y="-189.144" font-family="Times New Roman,serif" font-size="14.00">0/0</text>
</g>
<!-- 111 -->
<g id="node10" class="node"><title>111</title>
<ellipse fill="none" stroke="black" cx="783.119" cy="-112.296" rx="24.0958" ry="24.0958"/>
<text text-anchor="middle" x="783.119" y="-108.596" font-family="Times New Roman,serif" font-size="14.00">111</text>
</g>
<!-- 110&#45;&gt;111 -->
<g id="edge16" class="edge"><title>110&#45;&gt;111</title>
<path fill="none" stroke="black" d="M704.238,-136.417C717.716,-132.243 735.141,-126.846 750.091,-122.216"/>
<polygon fill="black" stroke="black" points="751.45,-125.459 759.967,-119.157 749.379,-118.772 751.45,-125.459"/>
<text text-anchor="middle" x="732.072" y="-134.096" font-family="Times New Roman,serif" font-size="14.00">1/0</text>
</g>
<!-- 111&#45;&gt;000 -->
<g id="edge17" class="edge"><title>111&#45;&gt;000</title>
<path fill="none" stroke="black" d="M760.134,-104.952C740.036,-98.8959 709.368,-91.2964 682.024,-91.2964 166.593,-91.2964 166.593,-91.2964 166.593,-91.2964 133.154,-91.2964 96.674,-103.568 71.7463,-113.976"/>
<polygon fill="black" stroke="black" points="70.2537,-110.808 62.4641,-117.99 73.0319,-117.234 70.2537,-110.808"/>
<text text-anchor="middle" x="425.784" y="-95.0964" font-family="Times New Roman,serif" font-size="14.00">1/1</text>
</g>
<!-- 111&#45;&gt;111 -->
<g id="edge9" class="edge"><title>111&#45;&gt;111</title>
<path fill="none" stroke="black" d="M773.93,-134.791C772.927,-145.227 775.99,-154.344 783.119,-154.344 787.686,-154.344 790.585,-150.602 791.815,-145.169"/>
<polygon fill="black" stroke="black" points="795.329,-144.947 792.309,-134.791 788.337,-144.613 795.329,-144.947"/>
<text text-anchor="middle" x="783.119" y="-158.144" font-family="Times New Roman,serif" font-size="14.00">0/0</text>
</g>
</g>
</svg>
