<?xml version="1.0" encoding="UTF-8" standalone="no"?>
<!DOCTYPE svg PUBLIC "-//W3C//DTD SVG 1.1//EN"
 "http://www.w3.org/Graphics/SVG/1.1/DTD/svg11.dtd">
<!-- Generated by graphviz version 2.38.0 (20140413.2041)
 -->
<!-- Title: finite_state_machine Pages: 1 -->
<svg width="261pt" height="179pt"
 viewBox="0.00 0.00 261.14 178.57" xmlns="http://www.w3.org/2000/svg" xmlns:xlink="http://www.w3.org/1999/xlink">
<g id="graph0" class="graph" transform="scale(1 1) rotate(0) translate(4 174.569)">
<title>finite_state_machine</title>
<polygon fill="white" stroke="none" points="-4,4 -4,-174.569 257.137,-174.569 257.137,4 -4,4"/>
<g id="node1" class="node"><title></title>
</g>
<!-- state
y -->
<g id="node2" class="node"><title>state
y</title>
<ellipse fill="none" stroke="black" cx="29.6985" cy="-29.6985" rx="29.8983" ry="29.8983"/>
<text text-anchor="middle" x="29.6985" y="-33.4985" font-family="Times New Roman,serif" font-size="14.00">state</text>
<text text-anchor="middle" x="29.6985" y="-18.4985" font-family="Times New Roman,serif" font-size="14.00">y</text>
</g>
<!-- state
y&#45;&gt; -->
<g id="edge1" class="edge"><title>state
y&#45;&gt;</title>
<path fill="none" stroke="black" d="M59.4828,-29.6985C69.6144,-29.6985 81.1397,-29.6985 91.8266,-29.6985"/>
<polygon fill="black" stroke="black" points="92.1514,-33.1986 102.151,-29.6985 92.1513,-26.1986 92.1514,-33.1986"/>
<text text-anchor="middle" x="80.897" y="-33.4985" font-family="Times New Roman,serif" font-size="14.00">y</text>
</g>
<!-- low
0 -->
<g id="node3" class="node"><title>low
0</title>
<ellipse fill="none" stroke="black" cx="29.6985" cy="-110.698" rx="26.7407" ry="26.7407"/>
<text text-anchor="middle" x="29.6985" y="-114.498" font-family="Times New Roman,serif" font-size="14.00">low</text>
<text text-anchor="middle" x="29.6985" y="-99.4985" font-family="Times New Roman,serif" font-size="14.00">0</text>
</g>
<!-- low
0&#45;&gt;low
0 -->
<g id="edge2" class="edge"><title>low
0&#45;&gt;low
0</title>
<path fill="none" stroke="black" d="M20.4059,-136.068C19.765,-146.622 22.8625,-155.569 29.6985,-155.569 34.1846,-155.569 37.0607,-151.716 38.3267,-146.084"/>
<polygon fill="black" stroke="black" points="41.8215,-146.278 38.9911,-136.068 34.8368,-145.815 41.8215,-146.278"/>
<text text-anchor="middle" x="29.6985" y="-159.369" font-family="Times New Roman,serif" font-size="14.00">0</text>
</g>
<!-- up1
0 -->
<g id="node4" class="node"><title>up1
0</title>
<ellipse fill="none" stroke="black" cx="129.397" cy="-104.698" rx="26.7407" ry="26.7407"/>
<text text-anchor="middle" x="129.397" y="-108.498" font-family="Times New Roman,serif" font-size="14.00">up1</text>
<text text-anchor="middle" x="129.397" y="-93.4985" font-family="Times New Roman,serif" font-size="14.00">0</text>
</g>
<!-- low
0&#45;&gt;up1
0 -->
<g id="edge3" class="edge"><title>low
0&#45;&gt;up1
0</title>
<path fill="none" stroke="black" d="M56.6234,-109.106C67.5541,-108.435 80.4653,-107.642 92.3022,-106.915"/>
<polygon fill="black" stroke="black" points="92.5843,-110.405 102.351,-106.298 92.1552,-103.418 92.5843,-110.405"/>
<text text-anchor="middle" x="80.897" y="-111.498" font-family="Times New Roman,serif" font-size="14.00">1</text>
</g>
<!-- up1
0&#45;&gt;low
0 -->
<g id="edge4" class="edge"><title>up1
0&#45;&gt;low
0</title>
<path fill="none" stroke="black" d="M105.516,-92.148C96.802,-88.7938 86.7244,-86.6114 77.397,-88.6985 72.5158,-89.7907 67.5433,-91.4524 62.7513,-93.3833"/>
<polygon fill="black" stroke="black" points="60.9563,-90.3518 53.2558,-97.6287 63.8135,-96.7422 60.9563,-90.3518"/>
<text text-anchor="middle" x="80.897" y="-92.4985" font-family="Times New Roman,serif" font-size="14.00">0</text>
</g>
<!-- up2
0 -->
<g id="node5" class="node"><title>up2
0</title>
<ellipse fill="none" stroke="black" cx="226.267" cy="-104.698" rx="26.7407" ry="26.7407"/>
<text text-anchor="middle" x="226.267" y="-108.498" font-family="Times New Roman,serif" font-size="14.00">up2</text>
<text text-anchor="middle" x="226.267" y="-93.4985" font-family="Times New Roman,serif" font-size="14.00">0</text>
</g>
<!-- up1
0&#45;&gt;up2
0 -->
<g id="edge5" class="edge"><title>up1
0&#45;&gt;up2
0</title>
<path fill="none" stroke="black" d="M156.321,-104.698C166.465,-104.698 178.274,-104.698 189.223,-104.698"/>
<polygon fill="black" stroke="black" points="189.375,-108.199 199.375,-104.698 189.375,-101.199 189.375,-108.199"/>
<text text-anchor="middle" x="177.897" y="-108.498" font-family="Times New Roman,serif" font-size="14.00">1</text>
</g>
</g>
</svg>
