<?xml version="1.0" encoding="UTF-8" standalone="no"?>
<!DOCTYPE svg PUBLIC "-//W3C//DTD SVG 1.1//EN"
 "http://www.w3.org/Graphics/SVG/1.1/DTD/svg11.dtd">
<!-- Generated by graphviz version 2.38.0 (20140413.2041)
 -->
<!-- Title: finite_state_machine Pages: 1 -->
<svg width="720pt" height="205pt"
 viewBox="0.00 0.00 720.00 204.75" xmlns="http://www.w3.org/2000/svg" xmlns:xlink="http://www.w3.org/1999/xlink">
<g id="graph0" class="graph" transform="scale(0.927689 0.927689) rotate(0) translate(4 216.711)">
<title>finite_state_machine</title>
<polygon fill="white" stroke="none" points="-4,4 -4,-216.711 772.122,-216.711 772.122,4 -4,4"/>
<g id="node1" class="node"><title></title>
</g>
<!-- Q₂Q₁Q₀
Y -->
<g id="node2" class="node"><title>Q₂Q₁Q₀
Y</title>
<ellipse fill="none" stroke="black" cx="43.8406" cy="-43.8406" rx="43.6818" ry="43.6818"/>
<text text-anchor="middle" x="43.8406" y="-47.6406" font-family="Times New Roman,serif" font-size="14.00">Q₂Q₁Q₀</text>
<text text-anchor="middle" x="43.8406" y="-32.6406" font-family="Times New Roman,serif" font-size="14.00">Y</text>
</g>
<!-- Q₂Q₁Q₀
Y&#45;&gt; -->
<g id="edge1" class="edge"><title>Q₂Q₁Q₀
Y&#45;&gt;</title>
<path fill="none" stroke="black" d="M87.9298,-43.8406C99.5053,-43.8406 111.911,-43.8406 123.096,-43.8406"/>
<polygon fill="black" stroke="black" points="123.38,-47.3407 133.379,-43.8406 123.379,-40.3407 123.38,-47.3407"/>
<text text-anchor="middle" x="110.681" y="-47.6406" font-family="Times New Roman,serif" font-size="14.00">X</text>
</g>
<!-- 000
0 -->
<g id="node3" class="node"><title>000
0</title>
<ellipse fill="none" stroke="black" cx="43.8406" cy="-139.841" rx="26.7407" ry="26.7407"/>
<text text-anchor="middle" x="43.8406" y="-143.641" font-family="Times New Roman,serif" font-size="14.00">000</text>
<text text-anchor="middle" x="43.8406" y="-128.641" font-family="Times New Roman,serif" font-size="14.00">0</text>
</g>
<!-- 000
0&#45;&gt;000
0 -->
<g id="edge2" class="edge"><title>000
0&#45;&gt;000
0</title>
<path fill="none" stroke="black" d="M31.7103,-163.845C30.387,-174.981 34.4305,-184.711 43.8406,-184.711 50.1631,-184.711 54.0629,-180.319 55.5401,-174.059"/>
<polygon fill="black" stroke="black" points="59.0463,-173.984 55.9709,-163.845 52.0525,-173.689 59.0463,-173.984"/>
<text text-anchor="middle" x="43.8406" y="-188.511" font-family="Times New Roman,serif" font-size="14.00">0</text>
</g>
<!-- 001
0 -->
<g id="node4" class="node"><title>001
0</title>
<ellipse fill="none" stroke="black" cx="160.681" cy="-152.841" rx="26.7407" ry="26.7407"/>
<text text-anchor="middle" x="160.681" y="-156.641" font-family="Times New Roman,serif" font-size="14.00">001</text>
<text text-anchor="middle" x="160.681" y="-141.641" font-family="Times New Roman,serif" font-size="14.00">0</text>
</g>
<!-- 000
0&#45;&gt;001
0 -->
<g id="edge10" class="edge"><title>000
0&#45;&gt;001
0</title>
<path fill="none" stroke="black" d="M70.6131,-142.758C86.1662,-144.519 106.224,-146.789 123.367,-148.73"/>
<polygon fill="black" stroke="black" points="123.267,-152.241 133.597,-149.888 124.055,-145.285 123.267,-152.241"/>
<text text-anchor="middle" x="110.681" y="-151.641" font-family="Times New Roman,serif" font-size="14.00">1</text>
</g>
<!-- 001
0&#45;&gt;001
0 -->
<g id="edge3" class="edge"><title>001
0&#45;&gt;001
0</title>
<path fill="none" stroke="black" d="M151.76,-178.211C151.145,-188.764 154.119,-197.711 160.681,-197.711 164.988,-197.711 167.749,-193.858 168.964,-188.226"/>
<polygon fill="black" stroke="black" points="172.459,-188.413 169.602,-178.211 165.474,-187.968 172.459,-188.413"/>
<text text-anchor="middle" x="160.681" y="-201.511" font-family="Times New Roman,serif" font-size="14.00">0</text>
</g>
<!-- 010
0 -->
<g id="node5" class="node"><title>010
0</title>
<ellipse fill="none" stroke="black" cx="257.551" cy="-152.841" rx="26.7407" ry="26.7407"/>
<text text-anchor="middle" x="257.551" y="-156.641" font-family="Times New Roman,serif" font-size="14.00">010</text>
<text text-anchor="middle" x="257.551" y="-141.641" font-family="Times New Roman,serif" font-size="14.00">0</text>
</g>
<!-- 001
0&#45;&gt;010
0 -->
<g id="edge11" class="edge"><title>001
0&#45;&gt;010
0</title>
<path fill="none" stroke="black" d="M187.605,-152.841C197.749,-152.841 209.559,-152.841 220.508,-152.841"/>
<polygon fill="black" stroke="black" points="220.659,-156.341 230.659,-152.841 220.659,-149.341 220.659,-156.341"/>
<text text-anchor="middle" x="209.181" y="-156.641" font-family="Times New Roman,serif" font-size="14.00">1</text>
</g>
<!-- 010
0&#45;&gt;010
0 -->
<g id="edge4" class="edge"><title>010
0&#45;&gt;010
0</title>
<path fill="none" stroke="black" d="M248.63,-178.211C248.015,-188.764 250.989,-197.711 257.551,-197.711 261.858,-197.711 264.619,-193.858 265.834,-188.226"/>
<polygon fill="black" stroke="black" points="269.33,-188.413 266.472,-178.211 262.344,-187.968 269.33,-188.413"/>
<text text-anchor="middle" x="257.551" y="-201.511" font-family="Times New Roman,serif" font-size="14.00">0</text>
</g>
<!-- 011
0 -->
<g id="node6" class="node"><title>011
0</title>
<ellipse fill="none" stroke="black" cx="354.291" cy="-152.841" rx="26.7407" ry="26.7407"/>
<text text-anchor="middle" x="354.291" y="-156.641" font-family="Times New Roman,serif" font-size="14.00">011</text>
<text text-anchor="middle" x="354.291" y="-141.641" font-family="Times New Roman,serif" font-size="14.00">0</text>
</g>
<!-- 010
0&#45;&gt;011
0 -->
<g id="edge12" class="edge"><title>010
0&#45;&gt;011
0</title>
<path fill="none" stroke="black" d="M284.439,-152.841C294.487,-152.841 306.17,-152.841 317.028,-152.841"/>
<polygon fill="black" stroke="black" points="317.105,-156.341 327.105,-152.841 317.105,-149.341 317.105,-156.341"/>
<text text-anchor="middle" x="305.921" y="-156.641" font-family="Times New Roman,serif" font-size="14.00">1</text>
</g>
<!-- 011
0&#45;&gt;011
0 -->
<g id="edge5" class="edge"><title>011
0&#45;&gt;011
0</title>
<path fill="none" stroke="black" d="M345.371,-178.211C344.755,-188.764 347.729,-197.711 354.291,-197.711 358.598,-197.711 361.359,-193.858 362.575,-188.226"/>
<polygon fill="black" stroke="black" points="366.07,-188.413 363.212,-178.211 359.084,-187.968 366.07,-188.413"/>
<text text-anchor="middle" x="354.291" y="-201.511" font-family="Times New Roman,serif" font-size="14.00">0</text>
</g>
<!-- 100
0 -->
<g id="node7" class="node"><title>100
0</title>
<ellipse fill="none" stroke="black" cx="451.032" cy="-152.841" rx="26.7407" ry="26.7407"/>
<text text-anchor="middle" x="451.032" y="-156.641" font-family="Times New Roman,serif" font-size="14.00">100</text>
<text text-anchor="middle" x="451.032" y="-141.641" font-family="Times New Roman,serif" font-size="14.00">0</text>
</g>
<!-- 011
0&#45;&gt;100
0 -->
<g id="edge13" class="edge"><title>011
0&#45;&gt;100
0</title>
<path fill="none" stroke="black" d="M381.18,-152.841C391.227,-152.841 402.91,-152.841 413.768,-152.841"/>
<polygon fill="black" stroke="black" points="413.846,-156.341 423.845,-152.841 413.845,-149.341 413.846,-156.341"/>
<text text-anchor="middle" x="402.661" y="-156.641" font-family="Times New Roman,serif" font-size="14.00">1</text>
</g>
<!-- 100
0&#45;&gt;100
0 -->
<g id="edge6" class="edge"><title>100
0&#45;&gt;100
0</title>
<path fill="none" stroke="black" d="M442.111,-178.211C441.495,-188.764 444.469,-197.711 451.032,-197.711 455.338,-197.711 458.099,-193.858 459.315,-188.226"/>
<polygon fill="black" stroke="black" points="462.81,-188.413 459.952,-178.211 455.824,-187.968 462.81,-188.413"/>
<text text-anchor="middle" x="451.032" y="-201.511" font-family="Times New Roman,serif" font-size="14.00">0</text>
</g>
<!-- 101
0 -->
<g id="node8" class="node"><title>101
0</title>
<ellipse fill="none" stroke="black" cx="547.772" cy="-152.841" rx="26.7407" ry="26.7407"/>
<text text-anchor="middle" x="547.772" y="-156.641" font-family="Times New Roman,serif" font-size="14.00">101</text>
<text text-anchor="middle" x="547.772" y="-141.641" font-family="Times New Roman,serif" font-size="14.00">0</text>
</g>
<!-- 100
0&#45;&gt;101
0 -->
<g id="edge14" class="edge"><title>100
0&#45;&gt;101
0</title>
<path fill="none" stroke="black" d="M477.92,-152.841C487.967,-152.841 499.65,-152.841 510.508,-152.841"/>
<polygon fill="black" stroke="black" points="510.586,-156.341 520.586,-152.841 510.586,-149.341 510.586,-156.341"/>
<text text-anchor="middle" x="499.402" y="-156.641" font-family="Times New Roman,serif" font-size="14.00">1</text>
</g>
<!-- 101
0&#45;&gt;101
0 -->
<g id="edge7" class="edge"><title>101
0&#45;&gt;101
0</title>
<path fill="none" stroke="black" d="M538.851,-178.211C538.236,-188.764 541.209,-197.711 547.772,-197.711 552.078,-197.711 554.839,-193.858 556.055,-188.226"/>
<polygon fill="black" stroke="black" points="559.55,-188.413 556.693,-178.211 552.564,-187.968 559.55,-188.413"/>
<text text-anchor="middle" x="547.772" y="-201.511" font-family="Times New Roman,serif" font-size="14.00">0</text>
</g>
<!-- 110
0 -->
<g id="node9" class="node"><title>110
0</title>
<ellipse fill="none" stroke="black" cx="644.512" cy="-152.841" rx="26.7407" ry="26.7407"/>
<text text-anchor="middle" x="644.512" y="-156.641" font-family="Times New Roman,serif" font-size="14.00">110</text>
<text text-anchor="middle" x="644.512" y="-141.641" font-family="Times New Roman,serif" font-size="14.00">0</text>
</g>
<!-- 101
0&#45;&gt;110
0 -->
<g id="edge15" class="edge"><title>101
0&#45;&gt;110
0</title>
<path fill="none" stroke="black" d="M574.66,-152.841C584.707,-152.841 596.39,-152.841 607.248,-152.841"/>
<polygon fill="black" stroke="black" points="607.326,-156.341 617.326,-152.841 607.326,-149.341 607.326,-156.341"/>
<text text-anchor="middle" x="596.142" y="-156.641" font-family="Times New Roman,serif" font-size="14.00">1</text>
</g>
<!-- 110
0&#45;&gt;110
0 -->
<g id="edge8" class="edge"><title>110
0&#45;&gt;110
0</title>
<path fill="none" stroke="black" d="M635.591,-178.211C634.976,-188.764 637.949,-197.711 644.512,-197.711 648.818,-197.711 651.579,-193.858 652.795,-188.226"/>
<polygon fill="black" stroke="black" points="656.29,-188.413 653.433,-178.211 649.304,-187.968 656.29,-188.413"/>
<text text-anchor="middle" x="644.512" y="-201.511" font-family="Times New Roman,serif" font-size="14.00">0</text>
</g>
<!-- 111
1 -->
<g id="node10" class="node"><title>111
1</title>
<ellipse fill="none" stroke="black" cx="741.252" cy="-119.841" rx="26.7407" ry="26.7407"/>
<text text-anchor="middle" x="741.252" y="-123.641" font-family="Times New Roman,serif" font-size="14.00">111</text>
<text text-anchor="middle" x="741.252" y="-108.641" font-family="Times New Roman,serif" font-size="14.00">1</text>
</g>
<!-- 110
0&#45;&gt;111
1 -->
<g id="edge16" class="edge"><title>110
0&#45;&gt;111
1</title>
<path fill="none" stroke="black" d="M670.404,-144.17C681.283,-140.381 694.221,-135.874 705.988,-131.775"/>
<polygon fill="black" stroke="black" points="707.234,-135.048 715.526,-128.453 704.931,-128.437 707.234,-135.048"/>
<text text-anchor="middle" x="692.882" y="-140.641" font-family="Times New Roman,serif" font-size="14.00">1</text>
</g>
<!-- 111
1&#45;&gt;000
0 -->
<g id="edge17" class="edge"><title>111
1&#45;&gt;000
0</title>
<path fill="none" stroke="black" d="M715.68,-110.892C696.764,-104.802 669.827,-97.8406 645.512,-97.8406 159.681,-97.8406 159.681,-97.8406 159.681,-97.8406 130.146,-97.8406 98.7955,-110.245 76.3257,-121.572"/>
<polygon fill="black" stroke="black" points="74.5011,-118.576 67.2707,-126.32 77.7523,-124.775 74.5011,-118.576"/>
<text text-anchor="middle" x="402.661" y="-101.641" font-family="Times New Roman,serif" font-size="14.00">1</text>
</g>
<!-- 111
1&#45;&gt;111
1 -->
<g id="edge9" class="edge"><title>111
1&#45;&gt;111
1</title>
<path fill="none" stroke="black" d="M732.331,-145.211C731.716,-155.764 734.689,-164.711 741.252,-164.711 745.559,-164.711 748.32,-160.858 749.535,-155.226"/>
<polygon fill="black" stroke="black" points="753.03,-155.413 750.173,-145.211 746.044,-154.968 753.03,-155.413"/>
<text text-anchor="middle" x="741.252" y="-168.511" font-family="Times New Roman,serif" font-size="14.00">0</text>
</g>
</g>
</svg>
