<?xml version="1.0" encoding="utf-8" standalone="no"?>
<!DOCTYPE svg PUBLIC "-//W3C//DTD SVG 1.1//EN"
  "http://www.w3.org/Graphics/SVG/1.1/DTD/svg11.dtd">
<!-- Created with matplotlib (http://matplotlib.org/) -->
<svg height="57.67pt" version="1.1" viewBox="0 0 426.3352 57.67" width="426.3352pt" xmlns="http://www.w3.org/2000/svg" xmlns:xlink="http://www.w3.org/1999/xlink">
 <defs>
  <style type="text/css">
*{stroke-linecap:butt;stroke-linejoin:round;}
  </style>
 </defs>
 <g id="figure_1">
  <g id="patch_1">
   <path d="M 0 57.67 
L 426.3352 57.67 
L 426.3352 0 
L 0 0 
z
" style="fill:none;"/>
  </g>
  <g id="axes_1">
   <g id="patch_2">
    <path clip-path="url(#p4350f1e24d)" d="M 74.1716 42.785 
C 78.466459 42.785 82.589806 41.314269 85.62673 38.69914 
C 88.663654 36.08401 90.3716 32.533351 90.3716 28.835 
C 90.3716 25.136649 88.663654 21.58599 85.62673 18.97086 
C 82.589806 16.355731 78.466459 14.885 74.1716 14.885 
" style="fill:none;stroke:#000000;stroke-linejoin:miter;stroke-width:1.5;"/>
   </g>
   <g id="patch_3">
    <path clip-path="url(#p4350f1e24d)" d="M 268.5716 42.785 
C 272.866459 42.785 276.989806 41.314269 280.02673 38.69914 
C 283.063654 36.08401 284.7716 32.533351 284.7716 28.835 
C 284.7716 25.136649 283.063654 21.58599 280.02673 18.97086 
C 276.989806 16.355731 272.866459 14.885 268.5716 14.885 
" style="fill:none;stroke:#000000;stroke-linejoin:miter;stroke-width:1.5;"/>
   </g>
   <g id="line2d_1">
    <path clip-path="url(#p4350f1e24d)" d="M 41.7716 28.835 
M 90.3716 28.835 
L 101.7116 28.835 
" style="fill:none;stroke:#000000;stroke-linecap:round;stroke-width:1.5;"/>
   </g>
   <g id="line2d_2">
    <path clip-path="url(#p4350f1e24d)" d="M 53.1116 28.835 
L 53.1116 42.785 
L 74.1716 42.785 
" style="fill:none;stroke:#000000;stroke-linecap:round;stroke-width:1.5;"/>
   </g>
   <g id="line2d_3">
    <path clip-path="url(#p4350f1e24d)" d="M 53.1116 28.835 
L 53.1116 14.885 
L 74.1716 14.885 
" style="fill:none;stroke:#000000;stroke-linecap:round;stroke-width:1.5;"/>
   </g>
   <g id="line2d_4">
    <path clip-path="url(#p4350f1e24d)" d="M 41.7716 35.81 
L 53.1116 35.81 
" style="fill:none;stroke:#000000;stroke-linecap:round;stroke-width:1.5;"/>
   </g>
   <g id="line2d_5">
    <path clip-path="url(#p4350f1e24d)" d="M 41.7716 21.86 
L 53.1116 21.86 
" style="fill:none;stroke:#000000;stroke-linecap:round;stroke-width:1.5;"/>
   </g>
   <g id="line2d_6">
    <path clip-path="url(#p4350f1e24d)" d="M 41.7716 21.86 
L 36.9116 21.86 
L 32.0516 21.86 
" style="fill:none;stroke:#000000;stroke-linecap:round;stroke-width:1.5;"/>
   </g>
   <g id="line2d_7">
    <path clip-path="url(#p4350f1e24d)" d="M 41.7716 35.81 
L 36.9116 35.81 
L 32.0516 35.81 
" style="fill:none;stroke:#000000;stroke-linecap:round;stroke-width:1.5;"/>
   </g>
   <g id="line2d_8">
    <path clip-path="url(#p4350f1e24d)" d="M 101.7116 28.835 
L 106.5716 28.835 
L 111.4316 28.835 
" style="fill:none;stroke:#000000;stroke-linecap:round;stroke-width:1.5;"/>
   </g>
   <g id="line2d_9">
    <path clip-path="url(#p4350f1e24d)" d="M 236.1716 28.835 
M 292.5476 28.835 
L 296.1116 28.835 
" style="fill:none;stroke:#000000;stroke-linecap:round;stroke-width:1.5;"/>
   </g>
   <g id="line2d_10">
    <path clip-path="url(#p4350f1e24d)" d="M 247.5116 28.835 
L 247.5116 42.785 
L 268.5716 42.785 
" style="fill:none;stroke:#000000;stroke-linecap:round;stroke-width:1.5;"/>
   </g>
   <g id="line2d_11">
    <path clip-path="url(#p4350f1e24d)" d="M 247.5116 28.835 
L 247.5116 14.885 
L 268.5716 14.885 
" style="fill:none;stroke:#000000;stroke-linecap:round;stroke-width:1.5;"/>
   </g>
   <g id="line2d_12">
    <path clip-path="url(#p4350f1e24d)" d="M 236.1716 35.81 
L 247.5116 35.81 
" style="fill:none;stroke:#000000;stroke-linecap:round;stroke-width:1.5;"/>
   </g>
   <g id="line2d_13">
    <path clip-path="url(#p4350f1e24d)" d="M 236.1716 21.86 
L 247.5116 21.86 
" style="fill:none;stroke:#000000;stroke-linecap:round;stroke-width:1.5;"/>
   </g>
   <g id="line2d_14">
    <path clip-path="url(#p4350f1e24d)" d="M 296.1116 28.835 
L 324.6236 28.835 
L 335.9636 28.835 
M 364.7996 28.835 
L 393.3116 28.835 
" style="fill:none;stroke:#000000;stroke-linecap:round;stroke-width:1.5;"/>
   </g>
   <g id="line2d_15">
    <path clip-path="url(#p4350f1e24d)" d="M 335.9636 28.835 
L 335.9636 42.785 
L 357.0236 28.835 
L 335.9636 14.885 
L 335.9636 28.835 
" style="fill:none;stroke:#000000;stroke-linecap:round;stroke-width:1.5;"/>
   </g>
   <g id="line2d_16">
    <path clip-path="url(#p4350f1e24d)" d="M 364.7996 28.835 
L 368.3636 28.835 
" style="fill:none;stroke:#000000;stroke-linecap:round;stroke-width:1.5;"/>
   </g>
   <g id="line2d_17">
    <path clip-path="url(#p4350f1e24d)" d="M 236.1716 21.86 
L 231.3116 21.86 
L 226.4516 21.86 
" style="fill:none;stroke:#000000;stroke-linecap:round;stroke-width:1.5;"/>
   </g>
   <g id="line2d_18">
    <path clip-path="url(#p4350f1e24d)" d="M 236.1716 35.81 
L 231.3116 35.81 
L 226.4516 35.81 
" style="fill:none;stroke:#000000;stroke-linecap:round;stroke-width:1.5;"/>
   </g>
   <g id="line2d_19">
    <path clip-path="url(#p4350f1e24d)" d="M 384.5636 28.835 
L 389.4236 28.835 
L 394.2836 28.835 
" style="fill:none;stroke:#000000;stroke-linecap:round;stroke-width:1.5;"/>
   </g>
   <g id="patch_4">
    <path clip-path="url(#p4350f1e24d)" d="M 288.6596 32.183 
C 289.69071 32.183 290.679727 31.830234 291.408831 31.202394 
C 292.137936 30.574553 292.5476 29.7229 292.5476 28.835 
C 292.5476 27.9471 292.137936 27.095447 291.408831 26.467606 
C 290.679727 25.839766 289.69071 25.487 288.6596 25.487 
C 287.62849 25.487 286.639473 25.839766 285.910369 26.467606 
C 285.181264 27.095447 284.7716 27.9471 284.7716 28.835 
C 284.7716 29.7229 285.181264 30.574553 285.910369 31.202394 
C 286.639473 31.830234 287.62849 32.183 288.6596 32.183 
z
" style="fill:none;stroke:#000000;stroke-linejoin:miter;stroke-width:1.5;"/>
   </g>
   <g id="patch_5">
    <path clip-path="url(#p4350f1e24d)" d="M 360.9116 32.183 
C 361.94271 32.183 362.931727 31.830234 363.660831 31.202394 
C 364.389936 30.574553 364.7996 29.7229 364.7996 28.835 
C 364.7996 27.9471 364.389936 27.095447 363.660831 26.467606 
C 362.931727 25.839766 361.94271 25.487 360.9116 25.487 
C 359.88049 25.487 358.891473 25.839766 358.162369 26.467606 
C 357.433264 27.095447 357.0236 27.9471 357.0236 28.835 
C 357.0236 29.7229 357.433264 30.574553 358.162369 31.202394 
C 358.891473 31.830234 359.88049 32.183 360.9116 32.183 
z
" style="fill:none;stroke:#000000;stroke-linejoin:miter;stroke-width:1.5;"/>
   </g>
   <g id="text_1">
    <!-- $A$ -->
    <defs>
     <path d="M 34.1875 63.1875 
L 20.796875 26.90625 
L 47.609375 26.90625 
z
M 28.609375 72.90625 
L 39.796875 72.90625 
L 67.578125 0 
L 57.328125 0 
L 50.6875 18.703125 
L 17.828125 18.703125 
L 11.1875 0 
L 0.78125 0 
z
" id="DejaVuSans-41"/>
    </defs>
    <g transform="translate(17.7716 26.275)scale(0.16 -0.16)">
     <use transform="translate(0 0.09375)" xlink:href="#DejaVuSans-41"/>
    </g>
   </g>
   <g id="text_2">
    <!-- $B$ -->
    <defs>
     <path d="M 19.671875 34.8125 
L 19.671875 8.109375 
L 35.5 8.109375 
Q 43.453125 8.109375 47.28125 11.40625 
Q 51.125 14.703125 51.125 21.484375 
Q 51.125 28.328125 47.28125 31.5625 
Q 43.453125 34.8125 35.5 34.8125 
z
M 19.671875 64.796875 
L 19.671875 42.828125 
L 34.28125 42.828125 
Q 41.5 42.828125 45.03125 45.53125 
Q 48.578125 48.25 48.578125 53.8125 
Q 48.578125 59.328125 45.03125 62.0625 
Q 41.5 64.796875 34.28125 64.796875 
z
M 9.8125 72.90625 
L 35.015625 72.90625 
Q 46.296875 72.90625 52.390625 68.21875 
Q 58.5 63.53125 58.5 54.890625 
Q 58.5 48.1875 55.375 44.234375 
Q 52.25 40.28125 46.1875 39.3125 
Q 53.46875 37.75 57.5 32.78125 
Q 61.53125 27.828125 61.53125 20.40625 
Q 61.53125 10.640625 54.890625 5.3125 
Q 48.25 0 35.984375 0 
L 9.8125 0 
z
" id="DejaVuSans-42"/>
    </defs>
    <g transform="translate(17.7716 40.225)scale(0.16 -0.16)">
     <use transform="translate(0 0.09375)" xlink:href="#DejaVuSans-42"/>
    </g>
   </g>
   <g id="text_3">
    <!-- $Q$ -->
    <defs>
     <path d="M 39.40625 66.21875 
Q 28.65625 66.21875 22.328125 58.203125 
Q 16.015625 50.203125 16.015625 36.375 
Q 16.015625 22.609375 22.328125 14.59375 
Q 28.65625 6.59375 39.40625 6.59375 
Q 50.140625 6.59375 56.421875 14.59375 
Q 62.703125 22.609375 62.703125 36.375 
Q 62.703125 50.203125 56.421875 58.203125 
Q 50.140625 66.21875 39.40625 66.21875 
z
M 53.21875 1.3125 
L 66.21875 -12.890625 
L 54.296875 -12.890625 
L 43.5 -1.21875 
Q 41.890625 -1.3125 41.03125 -1.359375 
Q 40.1875 -1.421875 39.40625 -1.421875 
Q 24.03125 -1.421875 14.8125 8.859375 
Q 5.609375 19.140625 5.609375 36.375 
Q 5.609375 53.65625 14.8125 63.9375 
Q 24.03125 74.21875 39.40625 74.21875 
Q 54.734375 74.21875 63.90625 63.9375 
Q 73.09375 53.65625 73.09375 36.375 
Q 73.09375 23.6875 67.984375 14.640625 
Q 62.890625 5.609375 53.21875 1.3125 
z
" id="DejaVuSans-51"/>
    </defs>
    <g transform="translate(114.6716 33.25)scale(0.16 -0.16)">
     <use transform="translate(0 0.78125)" xlink:href="#DejaVuSans-51"/>
    </g>
   </g>
   <g id="text_4">
    <!-- $A$ -->
    <g transform="translate(212.1716 26.275)scale(0.16 -0.16)">
     <use transform="translate(0 0.09375)" xlink:href="#DejaVuSans-41"/>
    </g>
   </g>
   <g id="text_5">
    <!-- $B$ -->
    <g transform="translate(212.1716 40.225)scale(0.16 -0.16)">
     <use transform="translate(0 0.09375)" xlink:href="#DejaVuSans-42"/>
    </g>
   </g>
   <g id="text_6">
    <!-- $Q$ -->
    <g transform="translate(397.5236 33.25)scale(0.16 -0.16)">
     <use transform="translate(0 0.78125)" xlink:href="#DejaVuSans-51"/>
    </g>
   </g>
  </g>
 </g>
 <defs>
  <clipPath id="p4350f1e24d">
   <rect height="36.27" width="404.9352" x="10.7" y="10.7"/>
  </clipPath>
 </defs>
</svg>
