<?xml version="1.0" encoding="utf-8" standalone="no"?>
<!DOCTYPE svg PUBLIC "-//W3C//DTD SVG 1.1//EN"
  "http://www.w3.org/Graphics/SVG/1.1/DTD/svg11.dtd">
<!-- Created with matplotlib (http://matplotlib.org/) -->
<svg height="103.705pt" version="1.1" viewBox="0 0 400.318 103.705" width="400.318pt" xmlns="http://www.w3.org/2000/svg" xmlns:xlink="http://www.w3.org/1999/xlink">
 <defs>
  <style type="text/css">
*{stroke-linecap:butt;stroke-linejoin:round;}
  </style>
 </defs>
 <g id="figure_1">
  <g id="patch_1">
   <path d="M 0 103.705 
L 400.318 103.705 
L 400.318 0 
L 0 0 
z
" style="fill:none;"/>
  </g>
  <g id="axes_1">
   <g id="patch_2">
    <path clip-path="url(#pb9cfaa5848)" d="M 332.189 65.8025 
C 336.483859 65.8025 340.607206 64.331769 343.64413 61.71664 
C 346.681054 59.10151 348.389 55.550851 348.389 51.8525 
C 348.389 48.154149 346.681054 44.60349 343.64413 41.98836 
C 340.607206 39.373231 336.483859 37.9025 332.189 37.9025 
" style="fill:none;stroke:#000000;stroke-linejoin:miter;stroke-width:1.5;"/>
   </g>
   <g id="line2d_1">
    <path clip-path="url(#pb9cfaa5848)" d="M 40.589 51.8525 
M 90.809 51.8525 
L 102.149 51.8525 
" style="fill:none;stroke:#000000;stroke-linecap:round;stroke-width:1.5;"/>
   </g>
   <g id="line2d_2">
    <path clip-path="url(#pb9cfaa5848)" d="M 51.929 65.5235 
L 68.129 65.5235 
L 68.591857 65.517806 
L 69.054714 65.500724 
L 69.517571 65.472255 
L 69.980429 65.432398 
L 70.443286 65.381153 
L 70.906143 65.31852 
L 71.369 65.2445 
L 71.831857 65.159092 
L 72.294714 65.062296 
L 72.757571 64.954112 
L 73.220429 64.834541 
L 73.683286 64.703582 
L 74.146143 64.561235 
L 74.609 64.4075 
L 75.071857 64.242378 
L 75.534714 64.065867 
L 75.997571 63.877969 
L 76.460429 63.678684 
L 76.923286 63.46801 
L 77.386143 63.245949 
L 77.849 63.0125 
L 78.311857 62.767663 
L 78.774714 62.511439 
L 79.237571 62.243827 
L 79.700429 61.964827 
L 80.163286 61.674439 
L 80.626143 61.372663 
L 81.089 61.0595 
L 81.551857 60.734949 
L 82.014714 60.39901 
L 82.477571 60.051684 
L 82.940429 59.692969 
L 83.403286 59.322867 
L 83.866143 58.941378 
L 84.329 58.5485 
L 84.791857 58.144235 
L 85.254714 57.728582 
L 85.717571 57.301541 
L 86.180429 56.863112 
L 86.643286 56.413296 
L 87.106143 55.952092 
L 87.569 55.4795 
L 88.031857 54.99552 
L 88.494714 54.500153 
L 88.957571 53.993398 
L 89.420429 53.475255 
L 89.883286 52.945724 
L 90.346143 52.404806 
L 90.809 51.8525 
" style="fill:none;stroke:#000000;stroke-linecap:round;stroke-width:1.5;"/>
   </g>
   <g id="line2d_3">
    <path clip-path="url(#pb9cfaa5848)" d="M 51.929 38.1815 
L 68.129 38.1815 
L 68.591857 38.187194 
L 69.054714 38.204276 
L 69.517571 38.232745 
L 69.980429 38.272602 
L 70.443286 38.323847 
L 70.906143 38.38648 
L 71.369 38.4605 
L 71.831857 38.545908 
L 72.294714 38.642704 
L 72.757571 38.750888 
L 73.220429 38.870459 
L 73.683286 39.001418 
L 74.146143 39.143765 
L 74.609 39.2975 
L 75.071857 39.462622 
L 75.534714 39.639133 
L 75.997571 39.827031 
L 76.460429 40.026316 
L 76.923286 40.23699 
L 77.386143 40.459051 
L 77.849 40.6925 
L 78.311857 40.937337 
L 78.774714 41.193561 
L 79.237571 41.461173 
L 79.700429 41.740173 
L 80.163286 42.030561 
L 80.626143 42.332337 
L 81.089 42.6455 
L 81.551857 42.970051 
L 82.014714 43.30599 
L 82.477571 43.653316 
L 82.940429 44.012031 
L 83.403286 44.382133 
L 83.866143 44.763622 
L 84.329 45.1565 
L 84.791857 45.560765 
L 85.254714 45.976418 
L 85.717571 46.403459 
L 86.180429 46.841888 
L 86.643286 47.291704 
L 87.106143 47.752908 
L 87.569 48.2255 
L 88.031857 48.70948 
L 88.494714 49.204847 
L 88.957571 49.711602 
L 89.420429 50.229745 
L 89.883286 50.759276 
L 90.346143 51.300194 
L 90.809 51.8525 
" style="fill:none;stroke:#000000;stroke-linecap:round;stroke-width:1.5;"/>
   </g>
   <g id="line2d_4">
    <path clip-path="url(#pb9cfaa5848)" d="M 51.929 65.5235 
L 52.55108 64.9655 
L 53.14724 64.4075 
L 53.71748 63.8495 
L 54.2618 63.2915 
L 54.7802 62.7335 
L 55.27268 62.1755 
L 55.73924 61.6175 
L 56.17988 61.0595 
L 56.5946 60.5015 
L 56.9834 59.9435 
L 57.34628 59.3855 
L 57.68324 58.8275 
L 57.99428 58.2695 
L 58.2794 57.7115 
L 58.5386 57.1535 
L 58.77188 56.5955 
L 58.97924 56.0375 
L 59.16068 55.4795 
L 59.3162 54.9215 
L 59.4458 54.3635 
L 59.54948 53.8055 
L 59.62724 53.2475 
L 59.67908 52.6895 
L 59.705 52.1315 
L 59.705 51.5735 
L 59.67908 51.0155 
L 59.62724 50.4575 
L 59.54948 49.8995 
L 59.4458 49.3415 
L 59.3162 48.7835 
L 59.16068 48.2255 
L 58.97924 47.6675 
L 58.77188 47.1095 
L 58.5386 46.5515 
L 58.2794 45.9935 
L 57.99428 45.4355 
L 57.68324 44.8775 
L 57.34628 44.3195 
L 56.9834 43.7615 
L 56.5946 43.2035 
L 56.17988 42.6455 
L 55.73924 42.0875 
L 55.27268 41.5295 
L 54.7802 40.9715 
L 54.2618 40.4135 
L 53.71748 39.8555 
L 53.14724 39.2975 
L 52.55108 38.7395 
L 51.929 38.1815 
" style="fill:none;stroke:#000000;stroke-linecap:round;stroke-width:1.5;"/>
   </g>
   <g id="line2d_5">
    <path clip-path="url(#pb9cfaa5848)" d="M 40.589 58.8275 
L 57.68324 58.8275 
" style="fill:none;stroke:#000000;stroke-linecap:round;stroke-width:1.5;"/>
   </g>
   <g id="line2d_6">
    <path clip-path="url(#pb9cfaa5848)" d="M 40.589 44.8775 
L 57.68324 44.8775 
" style="fill:none;stroke:#000000;stroke-linecap:round;stroke-width:1.5;"/>
   </g>
   <g id="line2d_7">
    <path clip-path="url(#pb9cfaa5848)" d="M 40.589 44.8775 
L 35.729 44.8775 
L 30.869 44.8775 
" style="fill:none;stroke:#000000;stroke-linecap:round;stroke-width:1.5;"/>
   </g>
   <g id="line2d_8">
    <path clip-path="url(#pb9cfaa5848)" d="M 40.589 58.8275 
L 35.729 58.8275 
L 30.869 58.8275 
" style="fill:none;stroke:#000000;stroke-linecap:round;stroke-width:1.5;"/>
   </g>
   <g id="line2d_9">
    <path clip-path="url(#pb9cfaa5848)" d="M 102.149 51.8525 
L 107.009 51.8525 
L 111.869 51.8525 
" style="fill:none;stroke:#000000;stroke-linecap:round;stroke-width:1.5;"/>
   </g>
   <g id="line2d_10">
    <path clip-path="url(#pb9cfaa5848)" d="M 299.789 51.8525 
M 356.165 51.8525 
L 359.729 51.8525 
" style="fill:none;stroke:#000000;stroke-linecap:round;stroke-width:1.5;"/>
   </g>
   <g id="line2d_11">
    <path clip-path="url(#pb9cfaa5848)" d="M 311.129 51.8525 
L 311.129 65.8025 
L 332.189 65.8025 
" style="fill:none;stroke:#000000;stroke-linecap:round;stroke-width:1.5;"/>
   </g>
   <g id="line2d_12">
    <path clip-path="url(#pb9cfaa5848)" d="M 311.129 51.8525 
L 311.129 37.9025 
L 332.189 37.9025 
" style="fill:none;stroke:#000000;stroke-linecap:round;stroke-width:1.5;"/>
   </g>
   <g id="line2d_13">
    <path clip-path="url(#pb9cfaa5848)" d="M 299.789 58.8275 
L 311.129 58.8275 
" style="fill:none;stroke:#000000;stroke-linecap:round;stroke-width:1.5;"/>
   </g>
   <g id="line2d_14">
    <path clip-path="url(#pb9cfaa5848)" d="M 299.789 44.8775 
L 311.129 44.8775 
" style="fill:none;stroke:#000000;stroke-linecap:round;stroke-width:1.5;"/>
   </g>
   <g id="line2d_15">
    <path clip-path="url(#pb9cfaa5848)" d="M 299.789 44.8775 
L 299.789 37.9025 
L 299.789 30.9275 
" style="fill:none;stroke:#000000;stroke-linecap:round;stroke-width:1.5;"/>
   </g>
   <g id="line2d_16">
    <path clip-path="url(#pb9cfaa5848)" d="M 299.789 30.9275 
L 291.689 30.9275 
L 283.589 30.9275 
" style="fill:none;stroke:#000000;stroke-linecap:round;stroke-width:1.5;"/>
   </g>
   <g id="line2d_17">
    <path clip-path="url(#pb9cfaa5848)" d="M 299.789 58.8275 
L 299.789 65.8025 
L 299.789 72.7775 
" style="fill:none;stroke:#000000;stroke-linecap:round;stroke-width:1.5;"/>
   </g>
   <g id="line2d_18">
    <path clip-path="url(#pb9cfaa5848)" d="M 299.789 72.7775 
L 291.689 72.7775 
L 283.589 72.7775 
" style="fill:none;stroke:#000000;stroke-linecap:round;stroke-width:1.5;"/>
   </g>
   <g id="line2d_19">
    <path clip-path="url(#pb9cfaa5848)" d="M 186.389 30.9275 
L 214.901 30.9275 
L 226.241 30.9275 
M 255.077 30.9275 
L 283.589 30.9275 
" style="fill:none;stroke:#000000;stroke-linecap:round;stroke-width:1.5;"/>
   </g>
   <g id="line2d_20">
    <path clip-path="url(#pb9cfaa5848)" d="M 226.241 30.9275 
L 226.241 16.9775 
L 247.301 30.9275 
L 226.241 44.8775 
L 226.241 30.9275 
" style="fill:none;stroke:#000000;stroke-linecap:round;stroke-width:1.5;"/>
   </g>
   <g id="line2d_21">
    <path clip-path="url(#pb9cfaa5848)" d="M 255.077 30.9275 
L 258.641 30.9275 
" style="fill:none;stroke:#000000;stroke-linecap:round;stroke-width:1.5;"/>
   </g>
   <g id="line2d_22">
    <path clip-path="url(#pb9cfaa5848)" d="M 186.389 72.7775 
L 214.901 72.7775 
L 226.241 72.7775 
M 255.077 72.7775 
L 283.589 72.7775 
" style="fill:none;stroke:#000000;stroke-linecap:round;stroke-width:1.5;"/>
   </g>
   <g id="line2d_23">
    <path clip-path="url(#pb9cfaa5848)" d="M 226.241 72.7775 
L 226.241 58.8275 
L 247.301 72.7775 
L 226.241 86.7275 
L 226.241 72.7775 
" style="fill:none;stroke:#000000;stroke-linecap:round;stroke-width:1.5;"/>
   </g>
   <g id="line2d_24">
    <path clip-path="url(#pb9cfaa5848)" d="M 255.077 72.7775 
L 258.641 72.7775 
" style="fill:none;stroke:#000000;stroke-linecap:round;stroke-width:1.5;"/>
   </g>
   <g id="line2d_25">
    <path clip-path="url(#pb9cfaa5848)" d="M 359.729 51.8525 
L 364.589 51.8525 
L 369.449 51.8525 
" style="fill:none;stroke:#000000;stroke-linecap:round;stroke-width:1.5;"/>
   </g>
   <g id="patch_3">
    <path clip-path="url(#pb9cfaa5848)" d="M 352.277 55.2005 
C 353.30811 55.2005 354.297127 54.847734 355.026231 54.219894 
C 355.755336 53.592053 356.165 52.7404 356.165 51.8525 
C 356.165 50.9646 355.755336 50.112947 355.026231 49.485106 
C 354.297127 48.857266 353.30811 48.5045 352.277 48.5045 
C 351.24589 48.5045 350.256873 48.857266 349.527769 49.485106 
C 348.798664 50.112947 348.389 50.9646 348.389 51.8525 
C 348.389 52.7404 348.798664 53.592053 349.527769 54.219894 
C 350.256873 54.847734 351.24589 55.2005 352.277 55.2005 
z
" style="fill:none;stroke:#000000;stroke-linejoin:miter;stroke-width:1.5;"/>
   </g>
   <g id="patch_4">
    <path clip-path="url(#pb9cfaa5848)" d="M 251.189 34.2755 
C 252.22011 34.2755 253.209127 33.922734 253.938231 33.294894 
C 254.667336 32.667053 255.077 31.8154 255.077 30.9275 
C 255.077 30.0396 254.667336 29.187947 253.938231 28.560106 
C 253.209127 27.932266 252.22011 27.5795 251.189 27.5795 
C 250.15789 27.5795 249.168873 27.932266 248.439769 28.560106 
C 247.710664 29.187947 247.301 30.0396 247.301 30.9275 
C 247.301 31.8154 247.710664 32.667053 248.439769 33.294894 
C 249.168873 33.922734 250.15789 34.2755 251.189 34.2755 
z
" style="fill:none;stroke:#000000;stroke-linejoin:miter;stroke-width:1.5;"/>
   </g>
   <g id="patch_5">
    <path clip-path="url(#pb9cfaa5848)" d="M 251.189 76.1255 
C 252.22011 76.1255 253.209127 75.772734 253.938231 75.144894 
C 254.667336 74.517053 255.077 73.6654 255.077 72.7775 
C 255.077 71.8896 254.667336 71.037947 253.938231 70.410106 
C 253.209127 69.782266 252.22011 69.4295 251.189 69.4295 
C 250.15789 69.4295 249.168873 69.782266 248.439769 70.410106 
C 247.710664 71.037947 247.301 71.8896 247.301 72.7775 
C 247.301 73.6654 247.710664 74.517053 248.439769 75.144894 
C 249.168873 75.772734 250.15789 76.1255 251.189 76.1255 
z
" style="fill:none;stroke:#000000;stroke-linejoin:miter;stroke-width:1.5;"/>
   </g>
   <g id="text_1">
    <!-- $A$ -->
    <defs>
     <path d="M 34.1875 63.1875 
L 20.796875 26.90625 
L 47.609375 26.90625 
z
M 28.609375 72.90625 
L 39.796875 72.90625 
L 67.578125 0 
L 57.328125 0 
L 50.6875 18.703125 
L 17.828125 18.703125 
L 11.1875 0 
L 0.78125 0 
z
" id="DejaVuSans-41"/>
    </defs>
    <g transform="translate(16.589 49.2925)scale(0.16 -0.16)">
     <use transform="translate(0 0.09375)" xlink:href="#DejaVuSans-41"/>
    </g>
   </g>
   <g id="text_2">
    <!-- $B$ -->
    <defs>
     <path d="M 19.671875 34.8125 
L 19.671875 8.109375 
L 35.5 8.109375 
Q 43.453125 8.109375 47.28125 11.40625 
Q 51.125 14.703125 51.125 21.484375 
Q 51.125 28.328125 47.28125 31.5625 
Q 43.453125 34.8125 35.5 34.8125 
z
M 19.671875 64.796875 
L 19.671875 42.828125 
L 34.28125 42.828125 
Q 41.5 42.828125 45.03125 45.53125 
Q 48.578125 48.25 48.578125 53.8125 
Q 48.578125 59.328125 45.03125 62.0625 
Q 41.5 64.796875 34.28125 64.796875 
z
M 9.8125 72.90625 
L 35.015625 72.90625 
Q 46.296875 72.90625 52.390625 68.21875 
Q 58.5 63.53125 58.5 54.890625 
Q 58.5 48.1875 55.375 44.234375 
Q 52.25 40.28125 46.1875 39.3125 
Q 53.46875 37.75 57.5 32.78125 
Q 61.53125 27.828125 61.53125 20.40625 
Q 61.53125 10.640625 54.890625 5.3125 
Q 48.25 0 35.984375 0 
L 9.8125 0 
z
" id="DejaVuSans-42"/>
    </defs>
    <g transform="translate(16.589 63.2425)scale(0.16 -0.16)">
     <use transform="translate(0 0.09375)" xlink:href="#DejaVuSans-42"/>
    </g>
   </g>
   <g id="text_3">
    <!-- $Q$ -->
    <defs>
     <path d="M 39.40625 66.21875 
Q 28.65625 66.21875 22.328125 58.203125 
Q 16.015625 50.203125 16.015625 36.375 
Q 16.015625 22.609375 22.328125 14.59375 
Q 28.65625 6.59375 39.40625 6.59375 
Q 50.140625 6.59375 56.421875 14.59375 
Q 62.703125 22.609375 62.703125 36.375 
Q 62.703125 50.203125 56.421875 58.203125 
Q 50.140625 66.21875 39.40625 66.21875 
z
M 53.21875 1.3125 
L 66.21875 -12.890625 
L 54.296875 -12.890625 
L 43.5 -1.21875 
Q 41.890625 -1.3125 41.03125 -1.359375 
Q 40.1875 -1.421875 39.40625 -1.421875 
Q 24.03125 -1.421875 14.8125 8.859375 
Q 5.609375 19.140625 5.609375 36.375 
Q 5.609375 53.65625 14.8125 63.9375 
Q 24.03125 74.21875 39.40625 74.21875 
Q 54.734375 74.21875 63.90625 63.9375 
Q 73.09375 53.65625 73.09375 36.375 
Q 73.09375 23.6875 67.984375 14.640625 
Q 62.890625 5.609375 53.21875 1.3125 
z
" id="DejaVuSans-51"/>
    </defs>
    <g transform="translate(115.109 56.2675)scale(0.16 -0.16)">
     <use transform="translate(0 0.78125)" xlink:href="#DejaVuSans-51"/>
    </g>
   </g>
   <g id="text_4">
    <!-- $A$ -->
    <g transform="translate(172.109 35.3425)scale(0.16 -0.16)">
     <use transform="translate(0 0.09375)" xlink:href="#DejaVuSans-41"/>
    </g>
   </g>
   <g id="text_5">
    <!-- $B$ -->
    <g transform="translate(172.109 77.1925)scale(0.16 -0.16)">
     <use transform="translate(0 0.09375)" xlink:href="#DejaVuSans-42"/>
    </g>
   </g>
   <g id="text_6">
    <!-- $Q$ -->
    <g transform="translate(372.689 56.2675)scale(0.16 -0.16)">
     <use transform="translate(0 0.78125)" xlink:href="#DejaVuSans-51"/>
    </g>
   </g>
  </g>
 </g>
 <defs>
  <clipPath id="pb9cfaa5848">
   <rect height="82.305" width="378.918" x="10.7" y="10.7"/>
  </clipPath>
 </defs>
</svg>
