<?xml version="1.0" encoding="utf-8" standalone="no"?>
<!DOCTYPE svg PUBLIC "-//W3C//DTD SVG 1.1//EN"
  "http://www.w3.org/Graphics/SVG/1.1/DTD/svg11.dtd">
<!-- Created with matplotlib (http://matplotlib.org/) -->
<svg height="103.705pt" version="1.1" viewBox="0 0 471.598 103.705" width="471.598pt" xmlns="http://www.w3.org/2000/svg" xmlns:xlink="http://www.w3.org/1999/xlink">
 <defs>
  <style type="text/css">
*{stroke-linecap:butt;stroke-linejoin:round;}
  </style>
 </defs>
 <g id="figure_1">
  <g id="patch_1">
   <path d="M 0 103.705 
L 471.598 103.705 
L 471.598 0 
L 0 0 
z
" style="fill:none;"/>
  </g>
  <g id="axes_1">
   <g id="patch_2">
    <path clip-path="url(#pa7953784a9)" d="M 400.229 65.8025 
C 404.523859 65.8025 408.647206 64.331769 411.68413 61.71664 
C 414.721054 59.10151 416.429 55.550851 416.429 51.8525 
C 416.429 48.154149 414.721054 44.60349 411.68413 41.98836 
C 408.647206 39.373231 404.523859 37.9025 400.229 37.9025 
" style="fill:none;stroke:#000000;stroke-linejoin:miter;stroke-width:1.5;"/>
   </g>
   <g id="patch_3">
    <path clip-path="url(#pa7953784a9)" d="M 324.089 44.8775 
C 328.383859 44.8775 332.507206 43.406769 335.54413 40.79164 
C 338.581054 38.17651 340.289 34.625851 340.289 30.9275 
C 340.289 27.229149 338.581054 23.67849 335.54413 21.06336 
C 332.507206 18.448231 328.383859 16.9775 324.089 16.9775 
" style="fill:none;stroke:#000000;stroke-linejoin:miter;stroke-width:1.5;"/>
   </g>
   <g id="patch_4">
    <path clip-path="url(#pa7953784a9)" d="M 324.089 86.7275 
C 328.383859 86.7275 332.507206 85.256769 335.54413 82.64164 
C 338.581054 80.02651 340.289 76.475851 340.289 72.7775 
C 340.289 69.079149 338.581054 65.52849 335.54413 62.91336 
C 332.507206 60.298231 328.383859 58.8275 324.089 58.8275 
" style="fill:none;stroke:#000000;stroke-linejoin:miter;stroke-width:1.5;"/>
   </g>
   <g id="patch_5">
    <path clip-path="url(#pa7953784a9)" d="M 247.949 65.8025 
C 252.243859 65.8025 256.367206 64.331769 259.40413 61.71664 
C 262.441054 59.10151 264.149 55.550851 264.149 51.8525 
C 264.149 48.154149 262.441054 44.60349 259.40413 41.98836 
C 256.367206 39.373231 252.243859 37.9025 247.949 37.9025 
" style="fill:none;stroke:#000000;stroke-linejoin:miter;stroke-width:1.5;"/>
   </g>
   <g id="line2d_1">
    <path clip-path="url(#pa7953784a9)" d="M 43.829 51.8525 
M 98.909 51.8525 
L 110.249 51.8525 
" style="fill:none;stroke:#000000;stroke-linecap:round;stroke-width:1.5;"/>
   </g>
   <g id="line2d_2">
    <path clip-path="url(#pa7953784a9)" d="M 60.029 65.5235 
L 76.229 65.5235 
L 76.691857 65.517806 
L 77.154714 65.500724 
L 77.617571 65.472255 
L 78.080429 65.432398 
L 78.543286 65.381153 
L 79.006143 65.31852 
L 79.469 65.2445 
L 79.931857 65.159092 
L 80.394714 65.062296 
L 80.857571 64.954112 
L 81.320429 64.834541 
L 81.783286 64.703582 
L 82.246143 64.561235 
L 82.709 64.4075 
L 83.171857 64.242378 
L 83.634714 64.065867 
L 84.097571 63.877969 
L 84.560429 63.678684 
L 85.023286 63.46801 
L 85.486143 63.245949 
L 85.949 63.0125 
L 86.411857 62.767663 
L 86.874714 62.511439 
L 87.337571 62.243827 
L 87.800429 61.964827 
L 88.263286 61.674439 
L 88.726143 61.372663 
L 89.189 61.0595 
L 89.651857 60.734949 
L 90.114714 60.39901 
L 90.577571 60.051684 
L 91.040429 59.692969 
L 91.503286 59.322867 
L 91.966143 58.941378 
L 92.429 58.5485 
L 92.891857 58.144235 
L 93.354714 57.728582 
L 93.817571 57.301541 
L 94.280429 56.863112 
L 94.743286 56.413296 
L 95.206143 55.952092 
L 95.669 55.4795 
L 96.131857 54.99552 
L 96.594714 54.500153 
L 97.057571 53.993398 
L 97.520429 53.475255 
L 97.983286 52.945724 
L 98.446143 52.404806 
L 98.909 51.8525 
" style="fill:none;stroke:#000000;stroke-linecap:round;stroke-width:1.5;"/>
   </g>
   <g id="line2d_3">
    <path clip-path="url(#pa7953784a9)" d="M 60.029 38.1815 
L 76.229 38.1815 
L 76.691857 38.187194 
L 77.154714 38.204276 
L 77.617571 38.232745 
L 78.080429 38.272602 
L 78.543286 38.323847 
L 79.006143 38.38648 
L 79.469 38.4605 
L 79.931857 38.545908 
L 80.394714 38.642704 
L 80.857571 38.750888 
L 81.320429 38.870459 
L 81.783286 39.001418 
L 82.246143 39.143765 
L 82.709 39.2975 
L 83.171857 39.462622 
L 83.634714 39.639133 
L 84.097571 39.827031 
L 84.560429 40.026316 
L 85.023286 40.23699 
L 85.486143 40.459051 
L 85.949 40.6925 
L 86.411857 40.937337 
L 86.874714 41.193561 
L 87.337571 41.461173 
L 87.800429 41.740173 
L 88.263286 42.030561 
L 88.726143 42.332337 
L 89.189 42.6455 
L 89.651857 42.970051 
L 90.114714 43.30599 
L 90.577571 43.653316 
L 91.040429 44.012031 
L 91.503286 44.382133 
L 91.966143 44.763622 
L 92.429 45.1565 
L 92.891857 45.560765 
L 93.354714 45.976418 
L 93.817571 46.403459 
L 94.280429 46.841888 
L 94.743286 47.291704 
L 95.206143 47.752908 
L 95.669 48.2255 
L 96.131857 48.70948 
L 96.594714 49.204847 
L 97.057571 49.711602 
L 97.520429 50.229745 
L 97.983286 50.759276 
L 98.446143 51.300194 
L 98.909 51.8525 
" style="fill:none;stroke:#000000;stroke-linecap:round;stroke-width:1.5;"/>
   </g>
   <g id="line2d_4">
    <path clip-path="url(#pa7953784a9)" d="M 55.169 65.5235 
L 55.79108 64.9655 
L 56.38724 64.4075 
L 56.95748 63.8495 
L 57.5018 63.2915 
L 58.0202 62.7335 
L 58.51268 62.1755 
L 58.97924 61.6175 
L 59.41988 61.0595 
L 59.8346 60.5015 
L 60.2234 59.9435 
L 60.58628 59.3855 
L 60.92324 58.8275 
L 61.23428 58.2695 
L 61.5194 57.7115 
L 61.7786 57.1535 
L 62.01188 56.5955 
L 62.21924 56.0375 
L 62.40068 55.4795 
L 62.5562 54.9215 
L 62.6858 54.3635 
L 62.78948 53.8055 
L 62.86724 53.2475 
L 62.91908 52.6895 
L 62.945 52.1315 
L 62.945 51.5735 
L 62.91908 51.0155 
L 62.86724 50.4575 
L 62.78948 49.8995 
L 62.6858 49.3415 
L 62.5562 48.7835 
L 62.40068 48.2255 
L 62.21924 47.6675 
L 62.01188 47.1095 
L 61.7786 46.5515 
L 61.5194 45.9935 
L 61.23428 45.4355 
L 60.92324 44.8775 
L 60.58628 44.3195 
L 60.2234 43.7615 
L 59.8346 43.2035 
L 59.41988 42.6455 
L 58.97924 42.0875 
L 58.51268 41.5295 
L 58.0202 40.9715 
L 57.5018 40.4135 
L 56.95748 39.8555 
L 56.38724 39.2975 
L 55.79108 38.7395 
L 55.169 38.1815 
" style="fill:none;stroke:#000000;stroke-linecap:round;stroke-width:1.5;"/>
   </g>
   <g id="line2d_5">
    <path clip-path="url(#pa7953784a9)" d="M 60.029 65.5235 
L 60.65108 64.9655 
L 61.24724 64.4075 
L 61.81748 63.8495 
L 62.3618 63.2915 
L 62.8802 62.7335 
L 63.37268 62.1755 
L 63.83924 61.6175 
L 64.27988 61.0595 
L 64.6946 60.5015 
L 65.0834 59.9435 
L 65.44628 59.3855 
L 65.78324 58.8275 
L 66.09428 58.2695 
L 66.3794 57.7115 
L 66.6386 57.1535 
L 66.87188 56.5955 
L 67.07924 56.0375 
L 67.26068 55.4795 
L 67.4162 54.9215 
L 67.5458 54.3635 
L 67.64948 53.8055 
L 67.72724 53.2475 
L 67.77908 52.6895 
L 67.805 52.1315 
L 67.805 51.5735 
L 67.77908 51.0155 
L 67.72724 50.4575 
L 67.64948 49.8995 
L 67.5458 49.3415 
L 67.4162 48.7835 
L 67.26068 48.2255 
L 67.07924 47.6675 
L 66.87188 47.1095 
L 66.6386 46.5515 
L 66.3794 45.9935 
L 66.09428 45.4355 
L 65.78324 44.8775 
L 65.44628 44.3195 
L 65.0834 43.7615 
L 64.6946 43.2035 
L 64.27988 42.6455 
L 63.83924 42.0875 
L 63.37268 41.5295 
L 62.8802 40.9715 
L 62.3618 40.4135 
L 61.81748 39.8555 
L 61.24724 39.2975 
L 60.65108 38.7395 
L 60.029 38.1815 
" style="fill:none;stroke:#000000;stroke-linecap:round;stroke-width:1.5;"/>
   </g>
   <g id="line2d_6">
    <path clip-path="url(#pa7953784a9)" d="M 43.829 58.8275 
L 60.92324 58.8275 
" style="fill:none;stroke:#000000;stroke-linecap:round;stroke-width:1.5;"/>
   </g>
   <g id="line2d_7">
    <path clip-path="url(#pa7953784a9)" d="M 43.829 44.8775 
L 60.92324 44.8775 
" style="fill:none;stroke:#000000;stroke-linecap:round;stroke-width:1.5;"/>
   </g>
   <g id="line2d_8">
    <path clip-path="url(#pa7953784a9)" d="M 43.829 44.8775 
L 38.969 44.8775 
L 34.109 44.8775 
" style="fill:none;stroke:#000000;stroke-linecap:round;stroke-width:1.5;"/>
   </g>
   <g id="line2d_9">
    <path clip-path="url(#pa7953784a9)" d="M 43.829 58.8275 
L 38.969 58.8275 
L 34.109 58.8275 
" style="fill:none;stroke:#000000;stroke-linecap:round;stroke-width:1.5;"/>
   </g>
   <g id="line2d_10">
    <path clip-path="url(#pa7953784a9)" d="M 110.249 51.8525 
L 115.109 51.8525 
L 119.969 51.8525 
" style="fill:none;stroke:#000000;stroke-linecap:round;stroke-width:1.5;"/>
   </g>
   <g id="line2d_11">
    <path clip-path="url(#pa7953784a9)" d="M 367.829 51.8525 
M 424.205 51.8525 
L 427.769 51.8525 
" style="fill:none;stroke:#000000;stroke-linecap:round;stroke-width:1.5;"/>
   </g>
   <g id="line2d_12">
    <path clip-path="url(#pa7953784a9)" d="M 379.169 51.8525 
L 379.169 65.8025 
L 400.229 65.8025 
" style="fill:none;stroke:#000000;stroke-linecap:round;stroke-width:1.5;"/>
   </g>
   <g id="line2d_13">
    <path clip-path="url(#pa7953784a9)" d="M 379.169 51.8525 
L 379.169 37.9025 
L 400.229 37.9025 
" style="fill:none;stroke:#000000;stroke-linecap:round;stroke-width:1.5;"/>
   </g>
   <g id="line2d_14">
    <path clip-path="url(#pa7953784a9)" d="M 367.829 58.8275 
L 379.169 58.8275 
" style="fill:none;stroke:#000000;stroke-linecap:round;stroke-width:1.5;"/>
   </g>
   <g id="line2d_15">
    <path clip-path="url(#pa7953784a9)" d="M 367.829 44.8775 
L 379.169 44.8775 
" style="fill:none;stroke:#000000;stroke-linecap:round;stroke-width:1.5;"/>
   </g>
   <g id="line2d_16">
    <path clip-path="url(#pa7953784a9)" d="M 367.829 44.8775 
L 367.829 37.9025 
L 367.829 30.9275 
" style="fill:none;stroke:#000000;stroke-linecap:round;stroke-width:1.5;"/>
   </g>
   <g id="line2d_17">
    <path clip-path="url(#pa7953784a9)" d="M 367.829 30.9275 
L 359.729 30.9275 
L 351.629 30.9275 
" style="fill:none;stroke:#000000;stroke-linecap:round;stroke-width:1.5;"/>
   </g>
   <g id="line2d_18">
    <path clip-path="url(#pa7953784a9)" d="M 367.829 58.8275 
L 367.829 65.8025 
L 367.829 72.7775 
" style="fill:none;stroke:#000000;stroke-linecap:round;stroke-width:1.5;"/>
   </g>
   <g id="line2d_19">
    <path clip-path="url(#pa7953784a9)" d="M 367.829 72.7775 
L 359.729 72.7775 
L 351.629 72.7775 
" style="fill:none;stroke:#000000;stroke-linecap:round;stroke-width:1.5;"/>
   </g>
   <g id="line2d_20">
    <path clip-path="url(#pa7953784a9)" d="M 291.689 30.9275 
M 348.065 30.9275 
L 351.629 30.9275 
" style="fill:none;stroke:#000000;stroke-linecap:round;stroke-width:1.5;"/>
   </g>
   <g id="line2d_21">
    <path clip-path="url(#pa7953784a9)" d="M 303.029 30.9275 
L 303.029 16.9775 
L 324.089 16.9775 
" style="fill:none;stroke:#000000;stroke-linecap:round;stroke-width:1.5;"/>
   </g>
   <g id="line2d_22">
    <path clip-path="url(#pa7953784a9)" d="M 303.029 30.9275 
L 303.029 44.8775 
L 324.089 44.8775 
" style="fill:none;stroke:#000000;stroke-linecap:round;stroke-width:1.5;"/>
   </g>
   <g id="line2d_23">
    <path clip-path="url(#pa7953784a9)" d="M 291.689 23.9525 
L 303.029 23.9525 
" style="fill:none;stroke:#000000;stroke-linecap:round;stroke-width:1.5;"/>
   </g>
   <g id="line2d_24">
    <path clip-path="url(#pa7953784a9)" d="M 291.689 37.9025 
L 303.029 37.9025 
" style="fill:none;stroke:#000000;stroke-linecap:round;stroke-width:1.5;"/>
   </g>
   <g id="line2d_25">
    <path clip-path="url(#pa7953784a9)" d="M 291.689 72.7775 
M 348.065 72.7775 
L 351.629 72.7775 
" style="fill:none;stroke:#000000;stroke-linecap:round;stroke-width:1.5;"/>
   </g>
   <g id="line2d_26">
    <path clip-path="url(#pa7953784a9)" d="M 303.029 72.7775 
L 303.029 58.8275 
L 324.089 58.8275 
" style="fill:none;stroke:#000000;stroke-linecap:round;stroke-width:1.5;"/>
   </g>
   <g id="line2d_27">
    <path clip-path="url(#pa7953784a9)" d="M 303.029 72.7775 
L 303.029 86.7275 
L 324.089 86.7275 
" style="fill:none;stroke:#000000;stroke-linecap:round;stroke-width:1.5;"/>
   </g>
   <g id="line2d_28">
    <path clip-path="url(#pa7953784a9)" d="M 291.689 65.8025 
L 303.029 65.8025 
" style="fill:none;stroke:#000000;stroke-linecap:round;stroke-width:1.5;"/>
   </g>
   <g id="line2d_29">
    <path clip-path="url(#pa7953784a9)" d="M 291.689 79.7525 
L 303.029 79.7525 
" style="fill:none;stroke:#000000;stroke-linecap:round;stroke-width:1.5;"/>
   </g>
   <g id="line2d_30">
    <path clip-path="url(#pa7953784a9)" d="M 291.689 37.9025 
L 291.689 51.8525 
L 291.689 65.8025 
" style="fill:none;stroke:#000000;stroke-linecap:round;stroke-width:1.5;"/>
   </g>
   <g id="line2d_31">
    <path clip-path="url(#pa7953784a9)" d="M 291.689 51.8525 
" style="fill:none;stroke:#000000;stroke-linecap:round;stroke-width:1.5;"/>
   </g>
   <g id="line2d_32">
    <path clip-path="url(#pa7953784a9)" d="M 291.689 51.8525 
L 283.589 51.8525 
L 275.489 51.8525 
" style="fill:none;stroke:#000000;stroke-linecap:round;stroke-width:1.5;"/>
   </g>
   <g id="line2d_33">
    <path clip-path="url(#pa7953784a9)" d="M 215.549 51.8525 
M 271.925 51.8525 
L 275.489 51.8525 
" style="fill:none;stroke:#000000;stroke-linecap:round;stroke-width:1.5;"/>
   </g>
   <g id="line2d_34">
    <path clip-path="url(#pa7953784a9)" d="M 226.889 51.8525 
L 226.889 37.9025 
L 247.949 37.9025 
" style="fill:none;stroke:#000000;stroke-linecap:round;stroke-width:1.5;"/>
   </g>
   <g id="line2d_35">
    <path clip-path="url(#pa7953784a9)" d="M 226.889 51.8525 
L 226.889 65.8025 
L 247.949 65.8025 
" style="fill:none;stroke:#000000;stroke-linecap:round;stroke-width:1.5;"/>
   </g>
   <g id="line2d_36">
    <path clip-path="url(#pa7953784a9)" d="M 215.549 44.8775 
L 226.889 44.8775 
" style="fill:none;stroke:#000000;stroke-linecap:round;stroke-width:1.5;"/>
   </g>
   <g id="line2d_37">
    <path clip-path="url(#pa7953784a9)" d="M 215.549 58.8275 
L 226.889 58.8275 
" style="fill:none;stroke:#000000;stroke-linecap:round;stroke-width:1.5;"/>
   </g>
   <g id="line2d_38">
    <path clip-path="url(#pa7953784a9)" d="M 291.689 23.9525 
L 243.089 23.9525 
L 194.489 23.9525 
" style="fill:none;stroke:#000000;stroke-linecap:round;stroke-width:1.5;"/>
   </g>
   <g id="line2d_39">
    <path clip-path="url(#pa7953784a9)" d="M 291.689 79.7525 
L 243.089 79.7525 
L 194.489 79.7525 
" style="fill:none;stroke:#000000;stroke-linecap:round;stroke-width:1.5;"/>
   </g>
   <g id="line2d_40">
    <path clip-path="url(#pa7953784a9)" d="M 215.549 44.8775 
L 215.549 34.415 
L 215.549 23.9525 
" style="fill:none;stroke:#000000;stroke-linecap:round;stroke-width:1.5;"/>
   </g>
   <g id="line2d_41">
    <path clip-path="url(#pa7953784a9)" d="M 215.549 58.8275 
L 215.549 69.29 
L 215.549 79.7525 
" style="fill:none;stroke:#000000;stroke-linecap:round;stroke-width:1.5;"/>
   </g>
   <g id="line2d_42">
    <path clip-path="url(#pa7953784a9)" d="M 215.549 23.9525 
" style="fill:none;stroke:#000000;stroke-linecap:round;stroke-width:1.5;"/>
   </g>
   <g id="line2d_43">
    <path clip-path="url(#pa7953784a9)" d="M 215.549 79.7525 
" style="fill:none;stroke:#000000;stroke-linecap:round;stroke-width:1.5;"/>
   </g>
   <g id="line2d_44">
    <path clip-path="url(#pa7953784a9)" d="M 427.769 51.8525 
L 432.629 51.8525 
L 437.489 51.8525 
" style="fill:none;stroke:#000000;stroke-linecap:round;stroke-width:1.5;"/>
   </g>
   <g id="patch_6">
    <path clip-path="url(#pa7953784a9)" d="M 420.317 55.2005 
C 421.34811 55.2005 422.337127 54.847734 423.066231 54.219894 
C 423.795336 53.592053 424.205 52.7404 424.205 51.8525 
C 424.205 50.9646 423.795336 50.112947 423.066231 49.485106 
C 422.337127 48.857266 421.34811 48.5045 420.317 48.5045 
C 419.28589 48.5045 418.296873 48.857266 417.567769 49.485106 
C 416.838664 50.112947 416.429 50.9646 416.429 51.8525 
C 416.429 52.7404 416.838664 53.592053 417.567769 54.219894 
C 418.296873 54.847734 419.28589 55.2005 420.317 55.2005 
z
" style="fill:none;stroke:#000000;stroke-linejoin:miter;stroke-width:1.5;"/>
   </g>
   <g id="patch_7">
    <path clip-path="url(#pa7953784a9)" d="M 344.177 34.2755 
C 345.20811 34.2755 346.197127 33.922734 346.926231 33.294894 
C 347.655336 32.667053 348.065 31.8154 348.065 30.9275 
C 348.065 30.0396 347.655336 29.187947 346.926231 28.560106 
C 346.197127 27.932266 345.20811 27.5795 344.177 27.5795 
C 343.14589 27.5795 342.156873 27.932266 341.427769 28.560106 
C 340.698664 29.187947 340.289 30.0396 340.289 30.9275 
C 340.289 31.8154 340.698664 32.667053 341.427769 33.294894 
C 342.156873 33.922734 343.14589 34.2755 344.177 34.2755 
z
" style="fill:none;stroke:#000000;stroke-linejoin:miter;stroke-width:1.5;"/>
   </g>
   <g id="patch_8">
    <path clip-path="url(#pa7953784a9)" d="M 344.177 76.1255 
C 345.20811 76.1255 346.197127 75.772734 346.926231 75.144894 
C 347.655336 74.517053 348.065 73.6654 348.065 72.7775 
C 348.065 71.8896 347.655336 71.037947 346.926231 70.410106 
C 346.197127 69.782266 345.20811 69.4295 344.177 69.4295 
C 343.14589 69.4295 342.156873 69.782266 341.427769 70.410106 
C 340.698664 71.037947 340.289 71.8896 340.289 72.7775 
C 340.289 73.6654 340.698664 74.517053 341.427769 75.144894 
C 342.156873 75.772734 343.14589 76.1255 344.177 76.1255 
z
" style="fill:none;stroke:#000000;stroke-linejoin:miter;stroke-width:1.5;"/>
   </g>
   <g id="patch_9">
    <path clip-path="url(#pa7953784a9)" d="M 291.689 53.945 
C 292.333444 53.945 292.951579 53.724521 293.407269 53.332121 
C 293.86296 52.939721 294.119 52.407437 294.119 51.8525 
C 294.119 51.297563 293.86296 50.765279 293.407269 50.372879 
C 292.951579 49.980479 292.333444 49.76 291.689 49.76 
C 291.044556 49.76 290.426421 49.980479 289.970731 50.372879 
C 289.51504 50.765279 289.259 51.297563 289.259 51.8525 
C 289.259 52.407437 289.51504 52.939721 289.970731 53.332121 
C 290.426421 53.724521 291.044556 53.945 291.689 53.945 
z
" style="stroke:#000000;stroke-linejoin:miter;stroke-width:1.5;"/>
   </g>
   <g id="patch_10">
    <path clip-path="url(#pa7953784a9)" d="M 268.037 55.2005 
C 269.06811 55.2005 270.057127 54.847734 270.786231 54.219894 
C 271.515336 53.592053 271.925 52.7404 271.925 51.8525 
C 271.925 50.9646 271.515336 50.112947 270.786231 49.485106 
C 270.057127 48.857266 269.06811 48.5045 268.037 48.5045 
C 267.00589 48.5045 266.016873 48.857266 265.287769 49.485106 
C 264.558664 50.112947 264.149 50.9646 264.149 51.8525 
C 264.149 52.7404 264.558664 53.592053 265.287769 54.219894 
C 266.016873 54.847734 267.00589 55.2005 268.037 55.2005 
z
" style="fill:none;stroke:#000000;stroke-linejoin:miter;stroke-width:1.5;"/>
   </g>
   <g id="patch_11">
    <path clip-path="url(#pa7953784a9)" d="M 215.549 26.045 
C 216.193444 26.045 216.811579 25.824521 217.267269 25.432121 
C 217.72296 25.039721 217.979 24.507437 217.979 23.9525 
C 217.979 23.397563 217.72296 22.865279 217.267269 22.472879 
C 216.811579 22.080479 216.193444 21.86 215.549 21.86 
C 214.904556 21.86 214.286421 22.080479 213.830731 22.472879 
C 213.37504 22.865279 213.119 23.397563 213.119 23.9525 
C 213.119 24.507437 213.37504 25.039721 213.830731 25.432121 
C 214.286421 25.824521 214.904556 26.045 215.549 26.045 
z
" style="stroke:#000000;stroke-linejoin:miter;stroke-width:1.5;"/>
   </g>
   <g id="patch_12">
    <path clip-path="url(#pa7953784a9)" d="M 215.549 81.845 
C 216.193444 81.845 216.811579 81.624521 217.267269 81.232121 
C 217.72296 80.839721 217.979 80.307437 217.979 79.7525 
C 217.979 79.197563 217.72296 78.665279 217.267269 78.272879 
C 216.811579 77.880479 216.193444 77.66 215.549 77.66 
C 214.904556 77.66 214.286421 77.880479 213.830731 78.272879 
C 213.37504 78.665279 213.119 79.197563 213.119 79.7525 
C 213.119 80.307437 213.37504 80.839721 213.830731 81.232121 
C 214.286421 81.624521 214.904556 81.845 215.549 81.845 
z
" style="stroke:#000000;stroke-linejoin:miter;stroke-width:1.5;"/>
   </g>
   <g id="text_1">
    <!-- $A$ -->
    <defs>
     <path d="M 34.1875 63.1875 
L 20.796875 26.90625 
L 47.609375 26.90625 
z
M 28.609375 72.90625 
L 39.796875 72.90625 
L 67.578125 0 
L 57.328125 0 
L 50.6875 18.703125 
L 17.828125 18.703125 
L 11.1875 0 
L 0.78125 0 
z
" id="DejaVuSans-41"/>
    </defs>
    <g transform="translate(19.829 49.2925)scale(0.16 -0.16)">
     <use transform="translate(0 0.09375)" xlink:href="#DejaVuSans-41"/>
    </g>
   </g>
   <g id="text_2">
    <!-- $B$ -->
    <defs>
     <path d="M 19.671875 34.8125 
L 19.671875 8.109375 
L 35.5 8.109375 
Q 43.453125 8.109375 47.28125 11.40625 
Q 51.125 14.703125 51.125 21.484375 
Q 51.125 28.328125 47.28125 31.5625 
Q 43.453125 34.8125 35.5 34.8125 
z
M 19.671875 64.796875 
L 19.671875 42.828125 
L 34.28125 42.828125 
Q 41.5 42.828125 45.03125 45.53125 
Q 48.578125 48.25 48.578125 53.8125 
Q 48.578125 59.328125 45.03125 62.0625 
Q 41.5 64.796875 34.28125 64.796875 
z
M 9.8125 72.90625 
L 35.015625 72.90625 
Q 46.296875 72.90625 52.390625 68.21875 
Q 58.5 63.53125 58.5 54.890625 
Q 58.5 48.1875 55.375 44.234375 
Q 52.25 40.28125 46.1875 39.3125 
Q 53.46875 37.75 57.5 32.78125 
Q 61.53125 27.828125 61.53125 20.40625 
Q 61.53125 10.640625 54.890625 5.3125 
Q 48.25 0 35.984375 0 
L 9.8125 0 
z
" id="DejaVuSans-42"/>
    </defs>
    <g transform="translate(19.829 63.2425)scale(0.16 -0.16)">
     <use transform="translate(0 0.09375)" xlink:href="#DejaVuSans-42"/>
    </g>
   </g>
   <g id="text_3">
    <!-- $Q$ -->
    <defs>
     <path d="M 39.40625 66.21875 
Q 28.65625 66.21875 22.328125 58.203125 
Q 16.015625 50.203125 16.015625 36.375 
Q 16.015625 22.609375 22.328125 14.59375 
Q 28.65625 6.59375 39.40625 6.59375 
Q 50.140625 6.59375 56.421875 14.59375 
Q 62.703125 22.609375 62.703125 36.375 
Q 62.703125 50.203125 56.421875 58.203125 
Q 50.140625 66.21875 39.40625 66.21875 
z
M 53.21875 1.3125 
L 66.21875 -12.890625 
L 54.296875 -12.890625 
L 43.5 -1.21875 
Q 41.890625 -1.3125 41.03125 -1.359375 
Q 40.1875 -1.421875 39.40625 -1.421875 
Q 24.03125 -1.421875 14.8125 8.859375 
Q 5.609375 19.140625 5.609375 36.375 
Q 5.609375 53.65625 14.8125 63.9375 
Q 24.03125 74.21875 39.40625 74.21875 
Q 54.734375 74.21875 63.90625 63.9375 
Q 73.09375 53.65625 73.09375 36.375 
Q 73.09375 23.6875 67.984375 14.640625 
Q 62.890625 5.609375 53.21875 1.3125 
z
" id="DejaVuSans-51"/>
    </defs>
    <g transform="translate(123.209 56.2675)scale(0.16 -0.16)">
     <use transform="translate(0 0.78125)" xlink:href="#DejaVuSans-51"/>
    </g>
   </g>
   <g id="text_4">
    <!-- $A$ -->
    <g transform="translate(180.209 28.3675)scale(0.16 -0.16)">
     <use transform="translate(0 0.09375)" xlink:href="#DejaVuSans-41"/>
    </g>
   </g>
   <g id="text_5">
    <!-- $B$ -->
    <g transform="translate(180.209 84.1675)scale(0.16 -0.16)">
     <use transform="translate(0 0.09375)" xlink:href="#DejaVuSans-42"/>
    </g>
   </g>
   <g id="text_6">
    <!-- $Q$ -->
    <g transform="translate(440.729 56.2675)scale(0.16 -0.16)">
     <use transform="translate(0 0.78125)" xlink:href="#DejaVuSans-51"/>
    </g>
   </g>
  </g>
 </g>
 <defs>
  <clipPath id="pa7953784a9">
   <rect height="82.305" width="450.198" x="10.7" y="10.7"/>
  </clipPath>
 </defs>
</svg>
