<?xml version="1.0" encoding="utf-8" standalone="no"?>
<!DOCTYPE svg PUBLIC "-//W3C//DTD SVG 1.1//EN"
  "http://www.w3.org/Graphics/SVG/1.1/DTD/svg11.dtd">
<!-- Created with matplotlib (http://matplotlib.org/) -->
<svg height="149.74pt" version="1.1" viewBox="0 0 425.351 149.74" width="425.351pt" xmlns="http://www.w3.org/2000/svg" xmlns:xlink="http://www.w3.org/1999/xlink">
 <defs>
  <style type="text/css">
*{stroke-linecap:butt;stroke-linejoin:round;}
  </style>
 </defs>
 <g id="figure_1">
  <g id="patch_1">
   <path d="M 0 149.74 
L 425.351 149.74 
L 425.351 0 
L 0 0 
z
" style="fill:none;"/>
  </g>
  <g id="axes_1">
   <g id="patch_2">
    <path clip-path="url(#p30f4972f03)" d="M 338.831 116.72 
C 343.125859 116.72 347.249206 115.249269 350.28613 112.63414 
C 353.323054 110.01901 355.031 106.468351 355.031 102.77 
C 355.031 99.071649 353.323054 95.52099 350.28613 92.90586 
C 347.249206 90.290731 343.125859 88.82 338.831 88.82 
" style="fill:none;stroke:#000000;stroke-linejoin:miter;stroke-width:1.5;"/>
   </g>
   <g id="line2d_1">
    <path clip-path="url(#p30f4972f03)" d="M 95.831 116.72 
L 95.831 130.67 
" style="fill:none;stroke:#000000;stroke-linecap:round;stroke-width:1.5;"/>
   </g>
   <g id="line2d_2">
    <path clip-path="url(#p30f4972f03)" d="M 47.231 116.72 
L 144.431 116.72 
L 144.431 33.02 
L 47.231 33.02 
L 47.231 116.72 
" style="fill:none;stroke:#000000;stroke-linecap:round;stroke-width:1.5;"/>
   </g>
   <g id="line2d_3">
    <path clip-path="url(#p30f4972f03)" d="M 47.231 74.87 
L 31.031 74.87 
" style="fill:none;stroke:#000000;stroke-linecap:round;stroke-width:1.5;"/>
   </g>
   <g id="line2d_4">
    <path clip-path="url(#p30f4972f03)" d="M 71.531 33.02 
L 71.531 19.07 
" style="fill:none;stroke:#000000;stroke-linecap:round;stroke-width:1.5;"/>
   </g>
   <g id="line2d_5">
    <path clip-path="url(#p30f4972f03)" d="M 120.131 33.02 
L 120.131 19.07 
" style="fill:none;stroke:#000000;stroke-linecap:round;stroke-width:1.5;"/>
   </g>
   <g id="line2d_6">
    <path clip-path="url(#p30f4972f03)" d="M 306.431 60.92 
M 361.511 60.92 
L 372.851 60.92 
" style="fill:none;stroke:#000000;stroke-linecap:round;stroke-width:1.5;"/>
   </g>
   <g id="line2d_7">
    <path clip-path="url(#p30f4972f03)" d="M 322.631 74.591 
L 338.831 74.591 
L 339.293857 74.585306 
L 339.756714 74.568224 
L 340.219571 74.539755 
L 340.682429 74.499898 
L 341.145286 74.448653 
L 341.608143 74.38602 
L 342.071 74.312 
L 342.533857 74.226592 
L 342.996714 74.129796 
L 343.459571 74.021612 
L 343.922429 73.902041 
L 344.385286 73.771082 
L 344.848143 73.628735 
L 345.311 73.475 
L 345.773857 73.309878 
L 346.236714 73.133367 
L 346.699571 72.945469 
L 347.162429 72.746184 
L 347.625286 72.53551 
L 348.088143 72.313449 
L 348.551 72.08 
L 349.013857 71.835163 
L 349.476714 71.578939 
L 349.939571 71.311327 
L 350.402429 71.032327 
L 350.865286 70.741939 
L 351.328143 70.440163 
L 351.791 70.127 
L 352.253857 69.802449 
L 352.716714 69.46651 
L 353.179571 69.119184 
L 353.642429 68.760469 
L 354.105286 68.390367 
L 354.568143 68.008878 
L 355.031 67.616 
L 355.493857 67.211735 
L 355.956714 66.796082 
L 356.419571 66.369041 
L 356.882429 65.930612 
L 357.345286 65.480796 
L 357.808143 65.019592 
L 358.271 64.547 
L 358.733857 64.06302 
L 359.196714 63.567653 
L 359.659571 63.060898 
L 360.122429 62.542755 
L 360.585286 62.013224 
L 361.048143 61.472306 
L 361.511 60.92 
" style="fill:none;stroke:#000000;stroke-linecap:round;stroke-width:1.5;"/>
   </g>
   <g id="line2d_8">
    <path clip-path="url(#p30f4972f03)" d="M 322.631 47.249 
L 338.831 47.249 
L 339.293857 47.254694 
L 339.756714 47.271776 
L 340.219571 47.300245 
L 340.682429 47.340102 
L 341.145286 47.391347 
L 341.608143 47.45398 
L 342.071 47.528 
L 342.533857 47.613408 
L 342.996714 47.710204 
L 343.459571 47.818388 
L 343.922429 47.937959 
L 344.385286 48.068918 
L 344.848143 48.211265 
L 345.311 48.365 
L 345.773857 48.530122 
L 346.236714 48.706633 
L 346.699571 48.894531 
L 347.162429 49.093816 
L 347.625286 49.30449 
L 348.088143 49.526551 
L 348.551 49.76 
L 349.013857 50.004837 
L 349.476714 50.261061 
L 349.939571 50.528673 
L 350.402429 50.807673 
L 350.865286 51.098061 
L 351.328143 51.399837 
L 351.791 51.713 
L 352.253857 52.037551 
L 352.716714 52.37349 
L 353.179571 52.720816 
L 353.642429 53.079531 
L 354.105286 53.449633 
L 354.568143 53.831122 
L 355.031 54.224 
L 355.493857 54.628265 
L 355.956714 55.043918 
L 356.419571 55.470959 
L 356.882429 55.909388 
L 357.345286 56.359204 
L 357.808143 56.820408 
L 358.271 57.293 
L 358.733857 57.77698 
L 359.196714 58.272347 
L 359.659571 58.779102 
L 360.122429 59.297245 
L 360.585286 59.826776 
L 361.048143 60.367694 
L 361.511 60.92 
" style="fill:none;stroke:#000000;stroke-linecap:round;stroke-width:1.5;"/>
   </g>
   <g id="line2d_9">
    <path clip-path="url(#p30f4972f03)" d="M 317.771 74.591 
L 318.39308 74.033 
L 318.98924 73.475 
L 319.55948 72.917 
L 320.1038 72.359 
L 320.6222 71.801 
L 321.11468 71.243 
L 321.58124 70.685 
L 322.02188 70.127 
L 322.4366 69.569 
L 322.8254 69.011 
L 323.18828 68.453 
L 323.52524 67.895 
L 323.83628 67.337 
L 324.1214 66.779 
L 324.3806 66.221 
L 324.61388 65.663 
L 324.82124 65.105 
L 325.00268 64.547 
L 325.1582 63.989 
L 325.2878 63.431 
L 325.39148 62.873 
L 325.46924 62.315 
L 325.52108 61.757 
L 325.547 61.199 
L 325.547 60.641 
L 325.52108 60.083 
L 325.46924 59.525 
L 325.39148 58.967 
L 325.2878 58.409 
L 325.1582 57.851 
L 325.00268 57.293 
L 324.82124 56.735 
L 324.61388 56.177 
L 324.3806 55.619 
L 324.1214 55.061 
L 323.83628 54.503 
L 323.52524 53.945 
L 323.18828 53.387 
L 322.8254 52.829 
L 322.4366 52.271 
L 322.02188 51.713 
L 321.58124 51.155 
L 321.11468 50.597 
L 320.6222 50.039 
L 320.1038 49.481 
L 319.55948 48.923 
L 318.98924 48.365 
L 318.39308 47.807 
L 317.771 47.249 
" style="fill:none;stroke:#000000;stroke-linecap:round;stroke-width:1.5;"/>
   </g>
   <g id="line2d_10">
    <path clip-path="url(#p30f4972f03)" d="M 322.631 74.591 
L 323.25308 74.033 
L 323.84924 73.475 
L 324.41948 72.917 
L 324.9638 72.359 
L 325.4822 71.801 
L 325.97468 71.243 
L 326.44124 70.685 
L 326.88188 70.127 
L 327.2966 69.569 
L 327.6854 69.011 
L 328.04828 68.453 
L 328.38524 67.895 
L 328.69628 67.337 
L 328.9814 66.779 
L 329.2406 66.221 
L 329.47388 65.663 
L 329.68124 65.105 
L 329.86268 64.547 
L 330.0182 63.989 
L 330.1478 63.431 
L 330.25148 62.873 
L 330.32924 62.315 
L 330.38108 61.757 
L 330.407 61.199 
L 330.407 60.641 
L 330.38108 60.083 
L 330.32924 59.525 
L 330.25148 58.967 
L 330.1478 58.409 
L 330.0182 57.851 
L 329.86268 57.293 
L 329.68124 56.735 
L 329.47388 56.177 
L 329.2406 55.619 
L 328.9814 55.061 
L 328.69628 54.503 
L 328.38524 53.945 
L 328.04828 53.387 
L 327.6854 52.829 
L 327.2966 52.271 
L 326.88188 51.713 
L 326.44124 51.155 
L 325.97468 50.597 
L 325.4822 50.039 
L 324.9638 49.481 
L 324.41948 48.923 
L 323.84924 48.365 
L 323.25308 47.807 
L 322.631 47.249 
" style="fill:none;stroke:#000000;stroke-linecap:round;stroke-width:1.5;"/>
   </g>
   <g id="line2d_11">
    <path clip-path="url(#p30f4972f03)" d="M 306.431 67.895 
L 323.52524 67.895 
" style="fill:none;stroke:#000000;stroke-linecap:round;stroke-width:1.5;"/>
   </g>
   <g id="line2d_12">
    <path clip-path="url(#p30f4972f03)" d="M 306.431 53.945 
L 323.52524 53.945 
" style="fill:none;stroke:#000000;stroke-linecap:round;stroke-width:1.5;"/>
   </g>
   <g id="line2d_13">
    <path clip-path="url(#p30f4972f03)" d="M 306.431 53.945 
" style="fill:none;stroke:#000000;stroke-linecap:round;stroke-width:1.5;"/>
   </g>
   <g id="line2d_14">
    <path clip-path="url(#p30f4972f03)" d="M 306.431 53.945 
L 294.281 53.945 
L 282.131 53.945 
" style="fill:none;stroke:#000000;stroke-linecap:round;stroke-width:1.5;"/>
   </g>
   <g id="line2d_15">
    <path clip-path="url(#p30f4972f03)" d="M 306.431 67.895 
L 294.281 67.895 
L 282.131 67.895 
" style="fill:none;stroke:#000000;stroke-linecap:round;stroke-width:1.5;"/>
   </g>
   <g id="line2d_16">
    <path clip-path="url(#p30f4972f03)" d="M 306.431 53.945 
L 306.431 74.87 
L 306.431 95.795 
" style="fill:none;stroke:#000000;stroke-linecap:round;stroke-width:1.5;"/>
   </g>
   <g id="line2d_17">
    <path clip-path="url(#p30f4972f03)" d="M 306.431 102.77 
M 355.031 102.77 
L 366.371 102.77 
" style="fill:none;stroke:#000000;stroke-linecap:round;stroke-width:1.5;"/>
   </g>
   <g id="line2d_18">
    <path clip-path="url(#p30f4972f03)" d="M 317.771 102.77 
L 317.771 116.72 
L 338.831 116.72 
" style="fill:none;stroke:#000000;stroke-linecap:round;stroke-width:1.5;"/>
   </g>
   <g id="line2d_19">
    <path clip-path="url(#p30f4972f03)" d="M 317.771 102.77 
L 317.771 88.82 
L 338.831 88.82 
" style="fill:none;stroke:#000000;stroke-linecap:round;stroke-width:1.5;"/>
   </g>
   <g id="line2d_20">
    <path clip-path="url(#p30f4972f03)" d="M 306.431 109.745 
L 317.771 109.745 
" style="fill:none;stroke:#000000;stroke-linecap:round;stroke-width:1.5;"/>
   </g>
   <g id="line2d_21">
    <path clip-path="url(#p30f4972f03)" d="M 306.431 95.795 
L 317.771 95.795 
" style="fill:none;stroke:#000000;stroke-linecap:round;stroke-width:1.5;"/>
   </g>
   <g id="line2d_22">
    <path clip-path="url(#p30f4972f03)" d="M 306.431 109.745 
L 300.356 109.745 
L 294.281 109.745 
" style="fill:none;stroke:#000000;stroke-linecap:round;stroke-width:1.5;"/>
   </g>
   <g id="line2d_23">
    <path clip-path="url(#p30f4972f03)" d="M 294.281 109.745 
L 294.281 88.82 
L 294.281 67.895 
" style="fill:none;stroke:#000000;stroke-linecap:round;stroke-width:1.5;"/>
   </g>
   <g id="line2d_24">
    <path clip-path="url(#p30f4972f03)" d="M 294.281 67.895 
" style="fill:none;stroke:#000000;stroke-linecap:round;stroke-width:1.5;"/>
   </g>
   <g id="patch_3">
    <path clip-path="url(#p30f4972f03)" d="M 306.431 56.0375 
C 307.075444 56.0375 307.693579 55.817021 308.149269 55.424621 
C 308.60496 55.032221 308.861 54.499937 308.861 53.945 
C 308.861 53.390063 308.60496 52.857779 308.149269 52.465379 
C 307.693579 52.072979 307.075444 51.8525 306.431 51.8525 
C 305.786556 51.8525 305.168421 52.072979 304.712731 52.465379 
C 304.25704 52.857779 304.001 53.390063 304.001 53.945 
C 304.001 54.499937 304.25704 55.032221 304.712731 55.424621 
C 305.168421 55.817021 305.786556 56.0375 306.431 56.0375 
z
" style="stroke:#000000;stroke-linejoin:miter;stroke-width:1.5;"/>
   </g>
   <g id="patch_4">
    <path clip-path="url(#p30f4972f03)" d="M 294.281 69.9875 
C 294.925444 69.9875 295.543579 69.767021 295.999269 69.374621 
C 296.45496 68.982221 296.711 68.449937 296.711 67.895 
C 296.711 67.340063 296.45496 66.807779 295.999269 66.415379 
C 295.543579 66.022979 294.925444 65.8025 294.281 65.8025 
C 293.636556 65.8025 293.018421 66.022979 292.562731 66.415379 
C 292.10704 66.807779 291.851 67.340063 291.851 67.895 
C 291.851 68.449937 292.10704 68.982221 292.562731 69.374621 
C 293.018421 69.767021 293.636556 69.9875 294.281 69.9875 
z
" style="stroke:#000000;stroke-linejoin:miter;stroke-width:1.5;"/>
   </g>
   <g id="text_1">
    <!-- HalfAdder -->
    <defs>
     <path d="M 9.8125 72.90625 
L 19.671875 72.90625 
L 19.671875 43.015625 
L 55.515625 43.015625 
L 55.515625 72.90625 
L 65.375 72.90625 
L 65.375 0 
L 55.515625 0 
L 55.515625 34.71875 
L 19.671875 34.71875 
L 19.671875 0 
L 9.8125 0 
z
" id="DejaVuSans-48"/>
     <path d="M 34.28125 27.484375 
Q 23.390625 27.484375 19.1875 25 
Q 14.984375 22.515625 14.984375 16.5 
Q 14.984375 11.71875 18.140625 8.90625 
Q 21.296875 6.109375 26.703125 6.109375 
Q 34.1875 6.109375 38.703125 11.40625 
Q 43.21875 16.703125 43.21875 25.484375 
L 43.21875 27.484375 
z
M 52.203125 31.203125 
L 52.203125 0 
L 43.21875 0 
L 43.21875 8.296875 
Q 40.140625 3.328125 35.546875 0.953125 
Q 30.953125 -1.421875 24.3125 -1.421875 
Q 15.921875 -1.421875 10.953125 3.296875 
Q 6 8.015625 6 15.921875 
Q 6 25.140625 12.171875 29.828125 
Q 18.359375 34.515625 30.609375 34.515625 
L 43.21875 34.515625 
L 43.21875 35.40625 
Q 43.21875 41.609375 39.140625 45 
Q 35.0625 48.390625 27.6875 48.390625 
Q 23 48.390625 18.546875 47.265625 
Q 14.109375 46.140625 10.015625 43.890625 
L 10.015625 52.203125 
Q 14.9375 54.109375 19.578125 55.046875 
Q 24.21875 56 28.609375 56 
Q 40.484375 56 46.34375 49.84375 
Q 52.203125 43.703125 52.203125 31.203125 
z
" id="DejaVuSans-61"/>
     <path d="M 9.421875 75.984375 
L 18.40625 75.984375 
L 18.40625 0 
L 9.421875 0 
z
" id="DejaVuSans-6c"/>
     <path d="M 37.109375 75.984375 
L 37.109375 68.5 
L 28.515625 68.5 
Q 23.6875 68.5 21.796875 66.546875 
Q 19.921875 64.59375 19.921875 59.515625 
L 19.921875 54.6875 
L 34.71875 54.6875 
L 34.71875 47.703125 
L 19.921875 47.703125 
L 19.921875 0 
L 10.890625 0 
L 10.890625 47.703125 
L 2.296875 47.703125 
L 2.296875 54.6875 
L 10.890625 54.6875 
L 10.890625 58.5 
Q 10.890625 67.625 15.140625 71.796875 
Q 19.390625 75.984375 28.609375 75.984375 
z
" id="DejaVuSans-66"/>
     <path d="M 34.1875 63.1875 
L 20.796875 26.90625 
L 47.609375 26.90625 
z
M 28.609375 72.90625 
L 39.796875 72.90625 
L 67.578125 0 
L 57.328125 0 
L 50.6875 18.703125 
L 17.828125 18.703125 
L 11.1875 0 
L 0.78125 0 
z
" id="DejaVuSans-41"/>
     <path d="M 45.40625 46.390625 
L 45.40625 75.984375 
L 54.390625 75.984375 
L 54.390625 0 
L 45.40625 0 
L 45.40625 8.203125 
Q 42.578125 3.328125 38.25 0.953125 
Q 33.9375 -1.421875 27.875 -1.421875 
Q 17.96875 -1.421875 11.734375 6.484375 
Q 5.515625 14.40625 5.515625 27.296875 
Q 5.515625 40.1875 11.734375 48.09375 
Q 17.96875 56 27.875 56 
Q 33.9375 56 38.25 53.625 
Q 42.578125 51.265625 45.40625 46.390625 
z
M 14.796875 27.296875 
Q 14.796875 17.390625 18.875 11.75 
Q 22.953125 6.109375 30.078125 6.109375 
Q 37.203125 6.109375 41.296875 11.75 
Q 45.40625 17.390625 45.40625 27.296875 
Q 45.40625 37.203125 41.296875 42.84375 
Q 37.203125 48.484375 30.078125 48.484375 
Q 22.953125 48.484375 18.875 42.84375 
Q 14.796875 37.203125 14.796875 27.296875 
z
" id="DejaVuSans-64"/>
     <path d="M 56.203125 29.59375 
L 56.203125 25.203125 
L 14.890625 25.203125 
Q 15.484375 15.921875 20.484375 11.0625 
Q 25.484375 6.203125 34.421875 6.203125 
Q 39.59375 6.203125 44.453125 7.46875 
Q 49.3125 8.734375 54.109375 11.28125 
L 54.109375 2.78125 
Q 49.265625 0.734375 44.1875 -0.34375 
Q 39.109375 -1.421875 33.890625 -1.421875 
Q 20.796875 -1.421875 13.15625 6.1875 
Q 5.515625 13.8125 5.515625 26.8125 
Q 5.515625 40.234375 12.765625 48.109375 
Q 20.015625 56 32.328125 56 
Q 43.359375 56 49.78125 48.890625 
Q 56.203125 41.796875 56.203125 29.59375 
z
M 47.21875 32.234375 
Q 47.125 39.59375 43.09375 43.984375 
Q 39.0625 48.390625 32.421875 48.390625 
Q 24.90625 48.390625 20.390625 44.140625 
Q 15.875 39.890625 15.1875 32.171875 
z
" id="DejaVuSans-65"/>
     <path d="M 41.109375 46.296875 
Q 39.59375 47.171875 37.8125 47.578125 
Q 36.03125 48 33.890625 48 
Q 26.265625 48 22.1875 43.046875 
Q 18.109375 38.09375 18.109375 28.8125 
L 18.109375 0 
L 9.078125 0 
L 9.078125 54.6875 
L 18.109375 54.6875 
L 18.109375 46.1875 
Q 20.953125 51.171875 25.484375 53.578125 
Q 30.03125 56 36.53125 56 
Q 37.453125 56 38.578125 55.875 
Q 39.703125 55.765625 41.0625 55.515625 
z
" id="DejaVuSans-72"/>
    </defs>
    <g transform="translate(56.0335 65.335)scale(0.16 -0.16)">
     <use xlink:href="#DejaVuSans-48"/>
     <use x="75.195312" xlink:href="#DejaVuSans-61"/>
     <use x="136.474609" xlink:href="#DejaVuSans-6c"/>
     <use x="164.257812" xlink:href="#DejaVuSans-66"/>
     <use x="199.462891" xlink:href="#DejaVuSans-41"/>
     <use x="267.855469" xlink:href="#DejaVuSans-64"/>
     <use x="331.332031" xlink:href="#DejaVuSans-64"/>
     <use x="394.808594" xlink:href="#DejaVuSans-65"/>
     <use x="456.332031" xlink:href="#DejaVuSans-72"/>
    </g>
   </g>
   <g id="text_2">
    <!-- $Carry$ -->
    <defs>
     <path d="M 64.40625 67.28125 
L 64.40625 56.890625 
Q 59.421875 61.53125 53.78125 63.8125 
Q 48.140625 66.109375 41.796875 66.109375 
Q 29.296875 66.109375 22.65625 58.46875 
Q 16.015625 50.828125 16.015625 36.375 
Q 16.015625 21.96875 22.65625 14.328125 
Q 29.296875 6.6875 41.796875 6.6875 
Q 48.140625 6.6875 53.78125 8.984375 
Q 59.421875 11.28125 64.40625 15.921875 
L 64.40625 5.609375 
Q 59.234375 2.09375 53.4375 0.328125 
Q 47.65625 -1.421875 41.21875 -1.421875 
Q 24.65625 -1.421875 15.125 8.703125 
Q 5.609375 18.84375 5.609375 36.375 
Q 5.609375 53.953125 15.125 64.078125 
Q 24.65625 74.21875 41.21875 74.21875 
Q 47.75 74.21875 53.53125 72.484375 
Q 59.328125 70.75 64.40625 67.28125 
z
" id="DejaVuSans-43"/>
     <path d="M 32.171875 -5.078125 
Q 28.375 -14.84375 24.75 -17.8125 
Q 21.140625 -20.796875 15.09375 -20.796875 
L 7.90625 -20.796875 
L 7.90625 -13.28125 
L 13.1875 -13.28125 
Q 16.890625 -13.28125 18.9375 -11.515625 
Q 21 -9.765625 23.484375 -3.21875 
L 25.09375 0.875 
L 2.984375 54.6875 
L 12.5 54.6875 
L 29.59375 11.921875 
L 46.6875 54.6875 
L 56.203125 54.6875 
z
" id="DejaVuSans-79"/>
    </defs>
    <g transform="translate(52.091 79.2525)scale(0.16 -0.16)">
     <use transform="translate(0 0.78125)" xlink:href="#DejaVuSans-43"/>
     <use transform="translate(69.824219 0.78125)" xlink:href="#DejaVuSans-61"/>
     <use transform="translate(131.103516 0.78125)" xlink:href="#DejaVuSans-72"/>
     <use transform="translate(172.216797 0.78125)" xlink:href="#DejaVuSans-72"/>
     <use transform="translate(213.330078 0.78125)" xlink:href="#DejaVuSans-79"/>
    </g>
   </g>
   <g id="text_3">
    <!-- B -->
    <defs>
     <path d="M 19.671875 34.8125 
L 19.671875 8.109375 
L 35.5 8.109375 
Q 43.453125 8.109375 47.28125 11.40625 
Q 51.125 14.703125 51.125 21.484375 
Q 51.125 28.328125 47.28125 31.5625 
Q 43.453125 34.8125 35.5 34.8125 
z
M 19.671875 64.796875 
L 19.671875 42.828125 
L 34.28125 42.828125 
Q 41.5 42.828125 45.03125 45.53125 
Q 48.578125 48.25 48.578125 53.8125 
Q 48.578125 59.328125 45.03125 62.0625 
Q 41.5 64.796875 34.28125 64.796875 
z
M 9.8125 72.90625 
L 35.015625 72.90625 
Q 46.296875 72.90625 52.390625 68.21875 
Q 58.5 63.53125 58.5 54.890625 
Q 58.5 48.1875 55.375 44.234375 
Q 52.25 40.28125 46.1875 39.3125 
Q 53.46875 37.75 57.5 32.78125 
Q 61.53125 27.828125 61.53125 20.40625 
Q 61.53125 10.640625 54.890625 5.3125 
Q 48.25 0 35.984375 0 
L 9.8125 0 
z
" id="DejaVuSans-42"/>
    </defs>
    <g transform="translate(66.04225 49.3625)scale(0.16 -0.16)">
     <use xlink:href="#DejaVuSans-42"/>
    </g>
   </g>
   <g id="text_4">
    <!-- A -->
    <g transform="translate(114.6585 49.3625)scale(0.16 -0.16)">
     <use xlink:href="#DejaVuSans-41"/>
    </g>
   </g>
   <g id="text_5">
    <!-- $Sum$ -->
    <defs>
     <path d="M 53.515625 70.515625 
L 53.515625 60.890625 
Q 47.90625 63.578125 42.921875 64.890625 
Q 37.9375 66.21875 33.296875 66.21875 
Q 25.25 66.21875 20.875 63.09375 
Q 16.5 59.96875 16.5 54.203125 
Q 16.5 49.359375 19.40625 46.890625 
Q 22.3125 44.4375 30.421875 42.921875 
L 36.375 41.703125 
Q 47.40625 39.59375 52.65625 34.296875 
Q 57.90625 29 57.90625 20.125 
Q 57.90625 9.515625 50.796875 4.046875 
Q 43.703125 -1.421875 29.984375 -1.421875 
Q 24.8125 -1.421875 18.96875 -0.25 
Q 13.140625 0.921875 6.890625 3.21875 
L 6.890625 13.375 
Q 12.890625 10.015625 18.65625 8.296875 
Q 24.421875 6.59375 29.984375 6.59375 
Q 38.421875 6.59375 43.015625 9.90625 
Q 47.609375 13.234375 47.609375 19.390625 
Q 47.609375 24.75 44.3125 27.78125 
Q 41.015625 30.8125 33.5 32.328125 
L 27.484375 33.5 
Q 16.453125 35.6875 11.515625 40.375 
Q 6.59375 45.0625 6.59375 53.421875 
Q 6.59375 63.09375 13.40625 68.65625 
Q 20.21875 74.21875 32.171875 74.21875 
Q 37.3125 74.21875 42.625 73.28125 
Q 47.953125 72.359375 53.515625 70.515625 
z
" id="DejaVuSans-53"/>
     <path d="M 8.5 21.578125 
L 8.5 54.6875 
L 17.484375 54.6875 
L 17.484375 21.921875 
Q 17.484375 14.15625 20.5 10.265625 
Q 23.53125 6.390625 29.59375 6.390625 
Q 36.859375 6.390625 41.078125 11.03125 
Q 45.3125 15.671875 45.3125 23.6875 
L 45.3125 54.6875 
L 54.296875 54.6875 
L 54.296875 0 
L 45.3125 0 
L 45.3125 8.40625 
Q 42.046875 3.421875 37.71875 1 
Q 33.40625 -1.421875 27.6875 -1.421875 
Q 18.265625 -1.421875 13.375 4.4375 
Q 8.5 10.296875 8.5 21.578125 
z
M 31.109375 56 
z
" id="DejaVuSans-75"/>
     <path d="M 52 44.1875 
Q 55.375 50.25 60.0625 53.125 
Q 64.75 56 71.09375 56 
Q 79.640625 56 84.28125 50.015625 
Q 88.921875 44.046875 88.921875 33.015625 
L 88.921875 0 
L 79.890625 0 
L 79.890625 32.71875 
Q 79.890625 40.578125 77.09375 44.375 
Q 74.3125 48.1875 68.609375 48.1875 
Q 61.625 48.1875 57.5625 43.546875 
Q 53.515625 38.921875 53.515625 30.90625 
L 53.515625 0 
L 44.484375 0 
L 44.484375 32.71875 
Q 44.484375 40.625 41.703125 44.40625 
Q 38.921875 48.1875 33.109375 48.1875 
Q 26.21875 48.1875 22.15625 43.53125 
Q 18.109375 38.875 18.109375 30.90625 
L 18.109375 0 
L 9.078125 0 
L 9.078125 54.6875 
L 18.109375 54.6875 
L 18.109375 46.1875 
Q 21.1875 51.21875 25.484375 53.609375 
Q 29.78125 56 35.6875 56 
Q 41.65625 56 45.828125 52.96875 
Q 50 49.953125 52 44.1875 
z
" id="DejaVuSans-6d"/>
    </defs>
    <g transform="translate(77.831 109.2075)scale(0.16 -0.16)">
     <use transform="translate(0 0.78125)" xlink:href="#DejaVuSans-53"/>
     <use transform="translate(63.476562 0.78125)" xlink:href="#DejaVuSans-75"/>
     <use transform="translate(126.855469 0.78125)" xlink:href="#DejaVuSans-6d"/>
    </g>
   </g>
   <g id="text_6">
    <!-- $Sum$ -->
    <g transform="translate(376.091 65.335)scale(0.16 -0.16)">
     <use transform="translate(0 0.78125)" xlink:href="#DejaVuSans-53"/>
     <use transform="translate(63.476562 0.78125)" xlink:href="#DejaVuSans-75"/>
     <use transform="translate(126.855469 0.78125)" xlink:href="#DejaVuSans-6d"/>
    </g>
   </g>
   <g id="text_7">
    <!-- $A$ -->
    <g transform="translate(267.851 58.36)scale(0.16 -0.16)">
     <use transform="translate(0 0.09375)" xlink:href="#DejaVuSans-41"/>
    </g>
   </g>
   <g id="text_8">
    <!-- $B$ -->
    <g transform="translate(267.851 72.31)scale(0.16 -0.16)">
     <use transform="translate(0 0.09375)" xlink:href="#DejaVuSans-42"/>
    </g>
   </g>
   <g id="text_9">
    <!-- $Carry$ -->
    <g transform="translate(374.471 107.1525)scale(0.16 -0.16)">
     <use transform="translate(0 0.78125)" xlink:href="#DejaVuSans-43"/>
     <use transform="translate(69.824219 0.78125)" xlink:href="#DejaVuSans-61"/>
     <use transform="translate(131.103516 0.78125)" xlink:href="#DejaVuSans-72"/>
     <use transform="translate(172.216797 0.78125)" xlink:href="#DejaVuSans-72"/>
     <use transform="translate(213.330078 0.78125)" xlink:href="#DejaVuSans-79"/>
    </g>
   </g>
  </g>
 </g>
 <defs>
  <clipPath id="p30f4972f03">
   <rect height="128.34" width="382.482" x="10.7" y="10.7"/>
  </clipPath>
 </defs>
</svg>
