<?xml version="1.0" encoding="utf-8" standalone="no"?>
<!DOCTYPE svg PUBLIC "-//W3C//DTD SVG 1.1//EN"
  "http://www.w3.org/Graphics/SVG/1.1/DTD/svg11.dtd">
<!-- Created with matplotlib (http://matplotlib.org/) -->
<svg height="157.1056pt" version="1.1" viewBox="0 0 548.416571 157.1056" width="548.416571pt" xmlns="http://www.w3.org/2000/svg" xmlns:xlink="http://www.w3.org/1999/xlink">
 <defs>
  <style type="text/css">
*{stroke-linecap:butt;stroke-linejoin:round;}
  </style>
 </defs>
 <g id="figure_1">
  <g id="patch_1">
   <path d="M 0 157.1056 
L 548.416571 157.1056 
L 548.416571 0 
L 0 0 
z
" style="fill:none;"/>
  </g>
  <g id="axes_1">
   <g id="patch_2">
    <path clip-path="url(#p3bf4d16c23)" d="M 398.528 96.1298 
C 402.822859 96.1298 406.946206 94.659069 409.98313 92.04394 
C 413.020054 89.42881 414.728 85.878151 414.728 82.1798 
C 414.728 78.481449 413.020054 74.93079 409.98313 72.31566 
C 406.946206 69.700531 402.822859 68.2298 398.528 68.2298 
" style="fill:none;stroke:#000000;stroke-linejoin:miter;stroke-width:1.5;"/>
   </g>
   <g id="patch_3">
    <path clip-path="url(#p3bf4d16c23)" d="M 317.528 68.2298 
C 321.822859 68.2298 325.946206 66.759069 328.98313 64.14394 
C 332.020054 61.52881 333.728 57.978151 333.728 54.2798 
C 333.728 50.581449 332.020054 47.03079 328.98313 44.41566 
C 325.946206 41.800531 321.822859 40.3298 317.528 40.3298 
" style="fill:none;stroke:#000000;stroke-linejoin:miter;stroke-width:1.5;"/>
   </g>
   <g id="line2d_1">
    <path clip-path="url(#p3bf4d16c23)" d="M 102.068 117.0548 
L 102.068 131.0048 
" style="fill:none;stroke:#000000;stroke-linecap:round;stroke-width:1.5;"/>
   </g>
   <g id="line2d_2">
    <path clip-path="url(#p3bf4d16c23)" d="M 53.468 117.0548 
L 150.668 117.0548 
L 150.668 33.3548 
L 53.468 33.3548 
L 53.468 117.0548 
" style="fill:none;stroke:#000000;stroke-linecap:round;stroke-width:1.5;"/>
   </g>
   <g id="line2d_3">
    <path clip-path="url(#p3bf4d16c23)" d="M 53.468 75.2048 
L 37.268 75.2048 
" style="fill:none;stroke:#000000;stroke-linecap:round;stroke-width:1.5;"/>
   </g>
   <g id="line2d_4">
    <path clip-path="url(#p3bf4d16c23)" d="M 150.668 75.2048 
L 166.868 75.2048 
" style="fill:none;stroke:#000000;stroke-linecap:round;stroke-width:1.5;"/>
   </g>
   <g id="line2d_5">
    <path clip-path="url(#p3bf4d16c23)" d="M 77.768 33.3548 
L 77.768 19.4048 
" style="fill:none;stroke:#000000;stroke-linecap:round;stroke-width:1.5;"/>
   </g>
   <g id="line2d_6">
    <path clip-path="url(#p3bf4d16c23)" d="M 126.368 33.3548 
L 126.368 19.4048 
" style="fill:none;stroke:#000000;stroke-linecap:round;stroke-width:1.5;"/>
   </g>
   <g id="line2d_7">
    <path clip-path="url(#p3bf4d16c23)" d="M 442.268 61.2548 
M 492.488 61.2548 
L 503.828 61.2548 
" style="fill:none;stroke:#000000;stroke-linecap:round;stroke-width:1.5;"/>
   </g>
   <g id="line2d_8">
    <path clip-path="url(#p3bf4d16c23)" d="M 453.608 74.9258 
L 469.808 74.9258 
L 470.270857 74.920106 
L 470.733714 74.903024 
L 471.196571 74.874555 
L 471.659429 74.834698 
L 472.122286 74.783453 
L 472.585143 74.72082 
L 473.048 74.6468 
L 473.510857 74.561392 
L 473.973714 74.464596 
L 474.436571 74.356412 
L 474.899429 74.236841 
L 475.362286 74.105882 
L 475.825143 73.963535 
L 476.288 73.8098 
L 476.750857 73.644678 
L 477.213714 73.468167 
L 477.676571 73.280269 
L 478.139429 73.080984 
L 478.602286 72.87031 
L 479.065143 72.648249 
L 479.528 72.4148 
L 479.990857 72.169963 
L 480.453714 71.913739 
L 480.916571 71.646127 
L 481.379429 71.367127 
L 481.842286 71.076739 
L 482.305143 70.774963 
L 482.768 70.4618 
L 483.230857 70.137249 
L 483.693714 69.80131 
L 484.156571 69.453984 
L 484.619429 69.095269 
L 485.082286 68.725167 
L 485.545143 68.343678 
L 486.008 67.9508 
L 486.470857 67.546535 
L 486.933714 67.130882 
L 487.396571 66.703841 
L 487.859429 66.265412 
L 488.322286 65.815596 
L 488.785143 65.354392 
L 489.248 64.8818 
L 489.710857 64.39782 
L 490.173714 63.902453 
L 490.636571 63.395698 
L 491.099429 62.877555 
L 491.562286 62.348024 
L 492.025143 61.807106 
L 492.488 61.2548 
" style="fill:none;stroke:#000000;stroke-linecap:round;stroke-width:1.5;"/>
   </g>
   <g id="line2d_9">
    <path clip-path="url(#p3bf4d16c23)" d="M 453.608 47.5838 
L 469.808 47.5838 
L 470.270857 47.589494 
L 470.733714 47.606576 
L 471.196571 47.635045 
L 471.659429 47.674902 
L 472.122286 47.726147 
L 472.585143 47.78878 
L 473.048 47.8628 
L 473.510857 47.948208 
L 473.973714 48.045004 
L 474.436571 48.153188 
L 474.899429 48.272759 
L 475.362286 48.403718 
L 475.825143 48.546065 
L 476.288 48.6998 
L 476.750857 48.864922 
L 477.213714 49.041433 
L 477.676571 49.229331 
L 478.139429 49.428616 
L 478.602286 49.63929 
L 479.065143 49.861351 
L 479.528 50.0948 
L 479.990857 50.339637 
L 480.453714 50.595861 
L 480.916571 50.863473 
L 481.379429 51.142473 
L 481.842286 51.432861 
L 482.305143 51.734637 
L 482.768 52.0478 
L 483.230857 52.372351 
L 483.693714 52.70829 
L 484.156571 53.055616 
L 484.619429 53.414331 
L 485.082286 53.784433 
L 485.545143 54.165922 
L 486.008 54.5588 
L 486.470857 54.963065 
L 486.933714 55.378718 
L 487.396571 55.805759 
L 487.859429 56.244188 
L 488.322286 56.694004 
L 488.785143 57.155208 
L 489.248 57.6278 
L 489.710857 58.11178 
L 490.173714 58.607147 
L 490.636571 59.113902 
L 491.099429 59.632045 
L 491.562286 60.161576 
L 492.025143 60.702494 
L 492.488 61.2548 
" style="fill:none;stroke:#000000;stroke-linecap:round;stroke-width:1.5;"/>
   </g>
   <g id="line2d_10">
    <path clip-path="url(#p3bf4d16c23)" d="M 453.608 74.9258 
L 454.23008 74.3678 
L 454.82624 73.8098 
L 455.39648 73.2518 
L 455.9408 72.6938 
L 456.4592 72.1358 
L 456.95168 71.5778 
L 457.41824 71.0198 
L 457.85888 70.4618 
L 458.2736 69.9038 
L 458.6624 69.3458 
L 459.02528 68.7878 
L 459.36224 68.2298 
L 459.67328 67.6718 
L 459.9584 67.1138 
L 460.2176 66.5558 
L 460.45088 65.9978 
L 460.65824 65.4398 
L 460.83968 64.8818 
L 460.9952 64.3238 
L 461.1248 63.7658 
L 461.22848 63.2078 
L 461.30624 62.6498 
L 461.35808 62.0918 
L 461.384 61.5338 
L 461.384 60.9758 
L 461.35808 60.4178 
L 461.30624 59.8598 
L 461.22848 59.3018 
L 461.1248 58.7438 
L 460.9952 58.1858 
L 460.83968 57.6278 
L 460.65824 57.0698 
L 460.45088 56.5118 
L 460.2176 55.9538 
L 459.9584 55.3958 
L 459.67328 54.8378 
L 459.36224 54.2798 
L 459.02528 53.7218 
L 458.6624 53.1638 
L 458.2736 52.6058 
L 457.85888 52.0478 
L 457.41824 51.4898 
L 456.95168 50.9318 
L 456.4592 50.3738 
L 455.9408 49.8158 
L 455.39648 49.2578 
L 454.82624 48.6998 
L 454.23008 48.1418 
L 453.608 47.5838 
" style="fill:none;stroke:#000000;stroke-linecap:round;stroke-width:1.5;"/>
   </g>
   <g id="line2d_11">
    <path clip-path="url(#p3bf4d16c23)" d="M 442.268 68.2298 
L 459.36224 68.2298 
" style="fill:none;stroke:#000000;stroke-linecap:round;stroke-width:1.5;"/>
   </g>
   <g id="line2d_12">
    <path clip-path="url(#p3bf4d16c23)" d="M 442.268 54.2798 
L 459.36224 54.2798 
" style="fill:none;stroke:#000000;stroke-linecap:round;stroke-width:1.5;"/>
   </g>
   <g id="line2d_13">
    <path clip-path="url(#p3bf4d16c23)" d="M 442.268 68.2298 
L 442.268 75.2048 
L 442.268 82.1798 
" style="fill:none;stroke:#000000;stroke-linecap:round;stroke-width:1.5;"/>
   </g>
   <g id="line2d_14">
    <path clip-path="url(#p3bf4d16c23)" d="M 442.268 82.1798 
L 434.168 82.1798 
L 426.068 82.1798 
" style="fill:none;stroke:#000000;stroke-linecap:round;stroke-width:1.5;"/>
   </g>
   <g id="line2d_15">
    <path clip-path="url(#p3bf4d16c23)" d="M 442.268 54.2798 
L 393.668 54.2798 
L 345.068 54.2798 
" style="fill:none;stroke:#000000;stroke-linecap:round;stroke-width:1.5;"/>
   </g>
   <g id="line2d_16">
    <path clip-path="url(#p3bf4d16c23)" d="M 366.128 82.1798 
M 414.728 82.1798 
L 426.068 82.1798 
" style="fill:none;stroke:#000000;stroke-linecap:round;stroke-width:1.5;"/>
   </g>
   <g id="line2d_17">
    <path clip-path="url(#p3bf4d16c23)" d="M 377.468 82.1798 
L 377.468 68.2298 
L 398.528 68.2298 
" style="fill:none;stroke:#000000;stroke-linecap:round;stroke-width:1.5;"/>
   </g>
   <g id="line2d_18">
    <path clip-path="url(#p3bf4d16c23)" d="M 377.468 82.1798 
L 377.468 96.1298 
L 398.528 96.1298 
" style="fill:none;stroke:#000000;stroke-linecap:round;stroke-width:1.5;"/>
   </g>
   <g id="line2d_19">
    <path clip-path="url(#p3bf4d16c23)" d="M 366.128 75.2048 
L 377.468 75.2048 
" style="fill:none;stroke:#000000;stroke-linecap:round;stroke-width:1.5;"/>
   </g>
   <g id="line2d_20">
    <path clip-path="url(#p3bf4d16c23)" d="M 366.128 89.1548 
L 377.468 89.1548 
" style="fill:none;stroke:#000000;stroke-linecap:round;stroke-width:1.5;"/>
   </g>
   <g id="line2d_21">
    <path clip-path="url(#p3bf4d16c23)" d="M 366.128 89.1548 
L 366.128 110.0798 
L 366.128 131.0048 
" style="fill:none;stroke:#000000;stroke-linecap:round;stroke-width:1.5;"/>
   </g>
   <g id="line2d_22">
    <path clip-path="url(#p3bf4d16c23)" d="M 366.128 131.0048 
" style="fill:none;stroke:#000000;stroke-linecap:round;stroke-width:1.5;"/>
   </g>
   <g id="line2d_23">
    <path clip-path="url(#p3bf4d16c23)" d="M 366.128 124.0298 
M 421.208 124.0298 
L 432.548 124.0298 
" style="fill:none;stroke:#000000;stroke-linecap:round;stroke-width:1.5;"/>
   </g>
   <g id="line2d_24">
    <path clip-path="url(#p3bf4d16c23)" d="M 382.328 137.7008 
L 398.528 137.7008 
L 398.990857 137.695106 
L 399.453714 137.678024 
L 399.916571 137.649555 
L 400.379429 137.609698 
L 400.842286 137.558453 
L 401.305143 137.49582 
L 401.768 137.4218 
L 402.230857 137.336392 
L 402.693714 137.239596 
L 403.156571 137.131412 
L 403.619429 137.011841 
L 404.082286 136.880882 
L 404.545143 136.738535 
L 405.008 136.5848 
L 405.470857 136.419678 
L 405.933714 136.243167 
L 406.396571 136.055269 
L 406.859429 135.855984 
L 407.322286 135.64531 
L 407.785143 135.423249 
L 408.248 135.1898 
L 408.710857 134.944963 
L 409.173714 134.688739 
L 409.636571 134.421127 
L 410.099429 134.142127 
L 410.562286 133.851739 
L 411.025143 133.549963 
L 411.488 133.2368 
L 411.950857 132.912249 
L 412.413714 132.57631 
L 412.876571 132.228984 
L 413.339429 131.870269 
L 413.802286 131.500167 
L 414.265143 131.118678 
L 414.728 130.7258 
L 415.190857 130.321535 
L 415.653714 129.905882 
L 416.116571 129.478841 
L 416.579429 129.040412 
L 417.042286 128.590596 
L 417.505143 128.129392 
L 417.968 127.6568 
L 418.430857 127.17282 
L 418.893714 126.677453 
L 419.356571 126.170698 
L 419.819429 125.652555 
L 420.282286 125.123024 
L 420.745143 124.582106 
L 421.208 124.0298 
" style="fill:none;stroke:#000000;stroke-linecap:round;stroke-width:1.5;"/>
   </g>
   <g id="line2d_25">
    <path clip-path="url(#p3bf4d16c23)" d="M 382.328 110.3588 
L 398.528 110.3588 
L 398.990857 110.364494 
L 399.453714 110.381576 
L 399.916571 110.410045 
L 400.379429 110.449902 
L 400.842286 110.501147 
L 401.305143 110.56378 
L 401.768 110.6378 
L 402.230857 110.723208 
L 402.693714 110.820004 
L 403.156571 110.928188 
L 403.619429 111.047759 
L 404.082286 111.178718 
L 404.545143 111.321065 
L 405.008 111.4748 
L 405.470857 111.639922 
L 405.933714 111.816433 
L 406.396571 112.004331 
L 406.859429 112.203616 
L 407.322286 112.41429 
L 407.785143 112.636351 
L 408.248 112.8698 
L 408.710857 113.114637 
L 409.173714 113.370861 
L 409.636571 113.638473 
L 410.099429 113.917473 
L 410.562286 114.207861 
L 411.025143 114.509637 
L 411.488 114.8228 
L 411.950857 115.147351 
L 412.413714 115.48329 
L 412.876571 115.830616 
L 413.339429 116.189331 
L 413.802286 116.559433 
L 414.265143 116.940922 
L 414.728 117.3338 
L 415.190857 117.738065 
L 415.653714 118.153718 
L 416.116571 118.580759 
L 416.579429 119.019188 
L 417.042286 119.469004 
L 417.505143 119.930208 
L 417.968 120.4028 
L 418.430857 120.88678 
L 418.893714 121.382147 
L 419.356571 121.888902 
L 419.819429 122.407045 
L 420.282286 122.936576 
L 420.745143 123.477494 
L 421.208 124.0298 
" style="fill:none;stroke:#000000;stroke-linecap:round;stroke-width:1.5;"/>
   </g>
   <g id="line2d_26">
    <path clip-path="url(#p3bf4d16c23)" d="M 377.468 137.7008 
L 378.09008 137.1428 
L 378.68624 136.5848 
L 379.25648 136.0268 
L 379.8008 135.4688 
L 380.3192 134.9108 
L 380.81168 134.3528 
L 381.27824 133.7948 
L 381.71888 133.2368 
L 382.1336 132.6788 
L 382.5224 132.1208 
L 382.88528 131.5628 
L 383.22224 131.0048 
L 383.53328 130.4468 
L 383.8184 129.8888 
L 384.0776 129.3308 
L 384.31088 128.7728 
L 384.51824 128.2148 
L 384.69968 127.6568 
L 384.8552 127.0988 
L 384.9848 126.5408 
L 385.08848 125.9828 
L 385.16624 125.4248 
L 385.21808 124.8668 
L 385.244 124.3088 
L 385.244 123.7508 
L 385.21808 123.1928 
L 385.16624 122.6348 
L 385.08848 122.0768 
L 384.9848 121.5188 
L 384.8552 120.9608 
L 384.69968 120.4028 
L 384.51824 119.8448 
L 384.31088 119.2868 
L 384.0776 118.7288 
L 383.8184 118.1708 
L 383.53328 117.6128 
L 383.22224 117.0548 
L 382.88528 116.4968 
L 382.5224 115.9388 
L 382.1336 115.3808 
L 381.71888 114.8228 
L 381.27824 114.2648 
L 380.81168 113.7068 
L 380.3192 113.1488 
L 379.8008 112.5908 
L 379.25648 112.0328 
L 378.68624 111.4748 
L 378.09008 110.9168 
L 377.468 110.3588 
" style="fill:none;stroke:#000000;stroke-linecap:round;stroke-width:1.5;"/>
   </g>
   <g id="line2d_27">
    <path clip-path="url(#p3bf4d16c23)" d="M 382.328 137.7008 
L 382.95008 137.1428 
L 383.54624 136.5848 
L 384.11648 136.0268 
L 384.6608 135.4688 
L 385.1792 134.9108 
L 385.67168 134.3528 
L 386.13824 133.7948 
L 386.57888 133.2368 
L 386.9936 132.6788 
L 387.3824 132.1208 
L 387.74528 131.5628 
L 388.08224 131.0048 
L 388.39328 130.4468 
L 388.6784 129.8888 
L 388.9376 129.3308 
L 389.17088 128.7728 
L 389.37824 128.2148 
L 389.55968 127.6568 
L 389.7152 127.0988 
L 389.8448 126.5408 
L 389.94848 125.9828 
L 390.02624 125.4248 
L 390.07808 124.8668 
L 390.104 124.3088 
L 390.104 123.7508 
L 390.07808 123.1928 
L 390.02624 122.6348 
L 389.94848 122.0768 
L 389.8448 121.5188 
L 389.7152 120.9608 
L 389.55968 120.4028 
L 389.37824 119.8448 
L 389.17088 119.2868 
L 388.9376 118.7288 
L 388.6784 118.1708 
L 388.39328 117.6128 
L 388.08224 117.0548 
L 387.74528 116.4968 
L 387.3824 115.9388 
L 386.9936 115.3808 
L 386.57888 114.8228 
L 386.13824 114.2648 
L 385.67168 113.7068 
L 385.1792 113.1488 
L 384.6608 112.5908 
L 384.11648 112.0328 
L 383.54624 111.4748 
L 382.95008 110.9168 
L 382.328 110.3588 
" style="fill:none;stroke:#000000;stroke-linecap:round;stroke-width:1.5;"/>
   </g>
   <g id="line2d_28">
    <path clip-path="url(#p3bf4d16c23)" d="M 366.128 131.0048 
L 383.22224 131.0048 
" style="fill:none;stroke:#000000;stroke-linecap:round;stroke-width:1.5;"/>
   </g>
   <g id="line2d_29">
    <path clip-path="url(#p3bf4d16c23)" d="M 366.128 117.0548 
L 383.22224 117.0548 
" style="fill:none;stroke:#000000;stroke-linecap:round;stroke-width:1.5;"/>
   </g>
   <g id="line2d_30">
    <path clip-path="url(#p3bf4d16c23)" d="M 432.548 124.0298 
L 467.262286 124.0298 
L 501.976571 124.0298 
" style="fill:none;stroke:#000000;stroke-linecap:round;stroke-width:1.5;"/>
   </g>
   <g id="line2d_31">
    <path clip-path="url(#p3bf4d16c23)" d="M 366.128 75.2048 
L 360.053 75.2048 
L 353.978 75.2048 
" style="fill:none;stroke:#000000;stroke-linecap:round;stroke-width:1.5;"/>
   </g>
   <g id="line2d_32">
    <path clip-path="url(#p3bf4d16c23)" d="M 353.978 75.2048 
L 353.978 96.1298 
L 353.978 117.0548 
" style="fill:none;stroke:#000000;stroke-linecap:round;stroke-width:1.5;"/>
   </g>
   <g id="line2d_33">
    <path clip-path="url(#p3bf4d16c23)" d="M 353.978 117.0548 
L 362.078 117.0548 
L 370.178 117.0548 
" style="fill:none;stroke:#000000;stroke-linecap:round;stroke-width:1.5;"/>
   </g>
   <g id="line2d_34">
    <path clip-path="url(#p3bf4d16c23)" d="M 366.128 131.0048 
L 307.808 131.0048 
L 249.488 131.0048 
" style="fill:none;stroke:#000000;stroke-linecap:round;stroke-width:1.5;"/>
   </g>
   <g id="line2d_35">
    <path clip-path="url(#p3bf4d16c23)" d="M 353.978 96.1298 
" style="fill:none;stroke:#000000;stroke-linecap:round;stroke-width:1.5;"/>
   </g>
   <g id="line2d_36">
    <path clip-path="url(#p3bf4d16c23)" d="M 353.978 96.1298 
L 347.903 96.1298 
L 341.828 96.1298 
" style="fill:none;stroke:#000000;stroke-linecap:round;stroke-width:1.5;"/>
   </g>
   <g id="line2d_37">
    <path clip-path="url(#p3bf4d16c23)" d="M 275.408 96.1298 
M 330.488 96.1298 
L 341.828 96.1298 
" style="fill:none;stroke:#000000;stroke-linecap:round;stroke-width:1.5;"/>
   </g>
   <g id="line2d_38">
    <path clip-path="url(#p3bf4d16c23)" d="M 291.608 82.4588 
L 307.808 82.4588 
L 308.270857 82.464494 
L 308.733714 82.481576 
L 309.196571 82.510045 
L 309.659429 82.549902 
L 310.122286 82.601147 
L 310.585143 82.66378 
L 311.048 82.7378 
L 311.510857 82.823208 
L 311.973714 82.920004 
L 312.436571 83.028188 
L 312.899429 83.147759 
L 313.362286 83.278718 
L 313.825143 83.421065 
L 314.288 83.5748 
L 314.750857 83.739922 
L 315.213714 83.916433 
L 315.676571 84.104331 
L 316.139429 84.303616 
L 316.602286 84.51429 
L 317.065143 84.736351 
L 317.528 84.9698 
L 317.990857 85.214637 
L 318.453714 85.470861 
L 318.916571 85.738473 
L 319.379429 86.017473 
L 319.842286 86.307861 
L 320.305143 86.609637 
L 320.768 86.9228 
L 321.230857 87.247351 
L 321.693714 87.58329 
L 322.156571 87.930616 
L 322.619429 88.289331 
L 323.082286 88.659433 
L 323.545143 89.040922 
L 324.008 89.4338 
L 324.470857 89.838065 
L 324.933714 90.253718 
L 325.396571 90.680759 
L 325.859429 91.119188 
L 326.322286 91.569004 
L 326.785143 92.030208 
L 327.248 92.5028 
L 327.710857 92.98678 
L 328.173714 93.482147 
L 328.636571 93.988902 
L 329.099429 94.507045 
L 329.562286 95.036576 
L 330.025143 95.577494 
L 330.488 96.1298 
" style="fill:none;stroke:#000000;stroke-linecap:round;stroke-width:1.5;"/>
   </g>
   <g id="line2d_39">
    <path clip-path="url(#p3bf4d16c23)" d="M 291.608 109.8008 
L 307.808 109.8008 
L 308.270857 109.795106 
L 308.733714 109.778024 
L 309.196571 109.749555 
L 309.659429 109.709698 
L 310.122286 109.658453 
L 310.585143 109.59582 
L 311.048 109.5218 
L 311.510857 109.436392 
L 311.973714 109.339596 
L 312.436571 109.231412 
L 312.899429 109.111841 
L 313.362286 108.980882 
L 313.825143 108.838535 
L 314.288 108.6848 
L 314.750857 108.519678 
L 315.213714 108.343167 
L 315.676571 108.155269 
L 316.139429 107.955984 
L 316.602286 107.74531 
L 317.065143 107.523249 
L 317.528 107.2898 
L 317.990857 107.044963 
L 318.453714 106.788739 
L 318.916571 106.521127 
L 319.379429 106.242127 
L 319.842286 105.951739 
L 320.305143 105.649963 
L 320.768 105.3368 
L 321.230857 105.012249 
L 321.693714 104.67631 
L 322.156571 104.328984 
L 322.619429 103.970269 
L 323.082286 103.600167 
L 323.545143 103.218678 
L 324.008 102.8258 
L 324.470857 102.421535 
L 324.933714 102.005882 
L 325.396571 101.578841 
L 325.859429 101.140412 
L 326.322286 100.690596 
L 326.785143 100.229392 
L 327.248 99.7568 
L 327.710857 99.27282 
L 328.173714 98.777453 
L 328.636571 98.270698 
L 329.099429 97.752555 
L 329.562286 97.223024 
L 330.025143 96.682106 
L 330.488 96.1298 
" style="fill:none;stroke:#000000;stroke-linecap:round;stroke-width:1.5;"/>
   </g>
   <g id="line2d_40">
    <path clip-path="url(#p3bf4d16c23)" d="M 286.748 82.4588 
L 287.37008 83.0168 
L 287.96624 83.5748 
L 288.53648 84.1328 
L 289.0808 84.6908 
L 289.5992 85.2488 
L 290.09168 85.8068 
L 290.55824 86.3648 
L 290.99888 86.9228 
L 291.4136 87.4808 
L 291.8024 88.0388 
L 292.16528 88.5968 
L 292.50224 89.1548 
L 292.81328 89.7128 
L 293.0984 90.2708 
L 293.3576 90.8288 
L 293.59088 91.3868 
L 293.79824 91.9448 
L 293.97968 92.5028 
L 294.1352 93.0608 
L 294.2648 93.6188 
L 294.36848 94.1768 
L 294.44624 94.7348 
L 294.49808 95.2928 
L 294.524 95.8508 
L 294.524 96.4088 
L 294.49808 96.9668 
L 294.44624 97.5248 
L 294.36848 98.0828 
L 294.2648 98.6408 
L 294.1352 99.1988 
L 293.97968 99.7568 
L 293.79824 100.3148 
L 293.59088 100.8728 
L 293.3576 101.4308 
L 293.0984 101.9888 
L 292.81328 102.5468 
L 292.50224 103.1048 
L 292.16528 103.6628 
L 291.8024 104.2208 
L 291.4136 104.7788 
L 290.99888 105.3368 
L 290.55824 105.8948 
L 290.09168 106.4528 
L 289.5992 107.0108 
L 289.0808 107.5688 
L 288.53648 108.1268 
L 287.96624 108.6848 
L 287.37008 109.2428 
L 286.748 109.8008 
" style="fill:none;stroke:#000000;stroke-linecap:round;stroke-width:1.5;"/>
   </g>
   <g id="line2d_41">
    <path clip-path="url(#p3bf4d16c23)" d="M 291.608 82.4588 
L 292.23008 83.0168 
L 292.82624 83.5748 
L 293.39648 84.1328 
L 293.9408 84.6908 
L 294.4592 85.2488 
L 294.95168 85.8068 
L 295.41824 86.3648 
L 295.85888 86.9228 
L 296.2736 87.4808 
L 296.6624 88.0388 
L 297.02528 88.5968 
L 297.36224 89.1548 
L 297.67328 89.7128 
L 297.9584 90.2708 
L 298.2176 90.8288 
L 298.45088 91.3868 
L 298.65824 91.9448 
L 298.83968 92.5028 
L 298.9952 93.0608 
L 299.1248 93.6188 
L 299.22848 94.1768 
L 299.30624 94.7348 
L 299.35808 95.2928 
L 299.384 95.8508 
L 299.384 96.4088 
L 299.35808 96.9668 
L 299.30624 97.5248 
L 299.22848 98.0828 
L 299.1248 98.6408 
L 298.9952 99.1988 
L 298.83968 99.7568 
L 298.65824 100.3148 
L 298.45088 100.8728 
L 298.2176 101.4308 
L 297.9584 101.9888 
L 297.67328 102.5468 
L 297.36224 103.1048 
L 297.02528 103.6628 
L 296.6624 104.2208 
L 296.2736 104.7788 
L 295.85888 105.3368 
L 295.41824 105.8948 
L 294.95168 106.4528 
L 294.4592 107.0108 
L 293.9408 107.5688 
L 293.39648 108.1268 
L 292.82624 108.6848 
L 292.23008 109.2428 
L 291.608 109.8008 
" style="fill:none;stroke:#000000;stroke-linecap:round;stroke-width:1.5;"/>
   </g>
   <g id="line2d_42">
    <path clip-path="url(#p3bf4d16c23)" d="M 275.408 89.1548 
L 292.50224 89.1548 
" style="fill:none;stroke:#000000;stroke-linecap:round;stroke-width:1.5;"/>
   </g>
   <g id="line2d_43">
    <path clip-path="url(#p3bf4d16c23)" d="M 275.408 103.1048 
L 292.50224 103.1048 
" style="fill:none;stroke:#000000;stroke-linecap:round;stroke-width:1.5;"/>
   </g>
   <g id="line2d_44">
    <path clip-path="url(#p3bf4d16c23)" d="M 275.408 89.1548 
L 275.408 75.2048 
L 275.408 61.2548 
" style="fill:none;stroke:#000000;stroke-linecap:round;stroke-width:1.5;"/>
   </g>
   <g id="line2d_45">
    <path clip-path="url(#p3bf4d16c23)" d="M 275.408 103.1048 
L 269.333 103.1048 
L 263.258 103.1048 
" style="fill:none;stroke:#000000;stroke-linecap:round;stroke-width:1.5;"/>
   </g>
   <g id="line2d_46">
    <path clip-path="url(#p3bf4d16c23)" d="M 263.258 103.1048 
L 263.258 75.2048 
L 263.258 47.3048 
" style="fill:none;stroke:#000000;stroke-linecap:round;stroke-width:1.5;"/>
   </g>
   <g id="line2d_47">
    <path clip-path="url(#p3bf4d16c23)" d="M 285.128 54.2798 
M 333.728 54.2798 
L 345.068 54.2798 
" style="fill:none;stroke:#000000;stroke-linecap:round;stroke-width:1.5;"/>
   </g>
   <g id="line2d_48">
    <path clip-path="url(#p3bf4d16c23)" d="M 296.468 54.2798 
L 296.468 68.2298 
L 317.528 68.2298 
" style="fill:none;stroke:#000000;stroke-linecap:round;stroke-width:1.5;"/>
   </g>
   <g id="line2d_49">
    <path clip-path="url(#p3bf4d16c23)" d="M 296.468 54.2798 
L 296.468 40.3298 
L 317.528 40.3298 
" style="fill:none;stroke:#000000;stroke-linecap:round;stroke-width:1.5;"/>
   </g>
   <g id="line2d_50">
    <path clip-path="url(#p3bf4d16c23)" d="M 285.128 61.2548 
L 296.468 61.2548 
" style="fill:none;stroke:#000000;stroke-linecap:round;stroke-width:1.5;"/>
   </g>
   <g id="line2d_51">
    <path clip-path="url(#p3bf4d16c23)" d="M 285.128 47.3048 
L 296.468 47.3048 
" style="fill:none;stroke:#000000;stroke-linecap:round;stroke-width:1.5;"/>
   </g>
   <g id="line2d_52">
    <path clip-path="url(#p3bf4d16c23)" d="M 285.128 47.3048 
L 268.928 47.3048 
L 252.728 47.3048 
" style="fill:none;stroke:#000000;stroke-linecap:round;stroke-width:1.5;"/>
   </g>
   <g id="line2d_53">
    <path clip-path="url(#p3bf4d16c23)" d="M 285.128 61.2548 
L 268.928 61.2548 
L 252.728 61.2548 
" style="fill:none;stroke:#000000;stroke-linecap:round;stroke-width:1.5;"/>
   </g>
   <g id="line2d_54">
    <path clip-path="url(#p3bf4d16c23)" d="M 275.408 61.2548 
" style="fill:none;stroke:#000000;stroke-linecap:round;stroke-width:1.5;"/>
   </g>
   <g id="line2d_55">
    <path clip-path="url(#p3bf4d16c23)" d="M 263.258 47.3048 
" style="fill:none;stroke:#000000;stroke-linecap:round;stroke-width:1.5;"/>
   </g>
   <g id="patch_4">
    <path clip-path="url(#p3bf4d16c23)" d="M 366.128 133.0973 
C 366.772444 133.0973 367.390579 132.876821 367.846269 132.484421 
C 368.30196 132.092021 368.558 131.559737 368.558 131.0048 
C 368.558 130.449863 368.30196 129.917579 367.846269 129.525179 
C 367.390579 129.132779 366.772444 128.9123 366.128 128.9123 
C 365.483556 128.9123 364.865421 129.132779 364.409731 129.525179 
C 363.95404 129.917579 363.698 130.449863 363.698 131.0048 
C 363.698 131.559737 363.95404 132.092021 364.409731 132.484421 
C 364.865421 132.876821 365.483556 133.0973 366.128 133.0973 
z
" style="stroke:#000000;stroke-linejoin:miter;stroke-width:1.5;"/>
   </g>
   <g id="patch_5">
    <path clip-path="url(#p3bf4d16c23)" d="M 353.978 98.2223 
C 354.622444 98.2223 355.240579 98.001821 355.696269 97.609421 
C 356.15196 97.217021 356.408 96.684737 356.408 96.1298 
C 356.408 95.574863 356.15196 95.042579 355.696269 94.650179 
C 355.240579 94.257779 354.622444 94.0373 353.978 94.0373 
C 353.333556 94.0373 352.715421 94.257779 352.259731 94.650179 
C 351.80404 95.042579 351.548 95.574863 351.548 96.1298 
C 351.548 96.684737 351.80404 97.217021 352.259731 97.609421 
C 352.715421 98.001821 353.333556 98.2223 353.978 98.2223 
z
" style="stroke:#000000;stroke-linejoin:miter;stroke-width:1.5;"/>
   </g>
   <g id="patch_6">
    <path clip-path="url(#p3bf4d16c23)" d="M 275.408 63.3473 
C 276.052444 63.3473 276.670579 63.126821 277.126269 62.734421 
C 277.58196 62.342021 277.838 61.809737 277.838 61.2548 
C 277.838 60.699863 277.58196 60.167579 277.126269 59.775179 
C 276.670579 59.382779 276.052444 59.1623 275.408 59.1623 
C 274.763556 59.1623 274.145421 59.382779 273.689731 59.775179 
C 273.23404 60.167579 272.978 60.699863 272.978 61.2548 
C 272.978 61.809737 273.23404 62.342021 273.689731 62.734421 
C 274.145421 63.126821 274.763556 63.3473 275.408 63.3473 
z
" style="stroke:#000000;stroke-linejoin:miter;stroke-width:1.5;"/>
   </g>
   <g id="patch_7">
    <path clip-path="url(#p3bf4d16c23)" d="M 263.258 49.3973 
C 263.902444 49.3973 264.520579 49.176821 264.976269 48.784421 
C 265.43196 48.392021 265.688 47.859737 265.688 47.3048 
C 265.688 46.749863 265.43196 46.217579 264.976269 45.825179 
C 264.520579 45.432779 263.902444 45.2123 263.258 45.2123 
C 262.613556 45.2123 261.995421 45.432779 261.539731 45.825179 
C 261.08404 46.217579 260.828 46.749863 260.828 47.3048 
C 260.828 47.859737 261.08404 48.392021 261.539731 48.784421 
C 261.995421 49.176821 262.613556 49.3973 263.258 49.3973 
z
" style="stroke:#000000;stroke-linejoin:miter;stroke-width:1.5;"/>
   </g>
   <g id="text_1">
    <!-- FullAdder -->
    <defs>
     <path d="M 9.8125 72.90625 
L 51.703125 72.90625 
L 51.703125 64.59375 
L 19.671875 64.59375 
L 19.671875 43.109375 
L 48.578125 43.109375 
L 48.578125 34.8125 
L 19.671875 34.8125 
L 19.671875 0 
L 9.8125 0 
z
" id="DejaVuSans-46"/>
     <path d="M 8.5 21.578125 
L 8.5 54.6875 
L 17.484375 54.6875 
L 17.484375 21.921875 
Q 17.484375 14.15625 20.5 10.265625 
Q 23.53125 6.390625 29.59375 6.390625 
Q 36.859375 6.390625 41.078125 11.03125 
Q 45.3125 15.671875 45.3125 23.6875 
L 45.3125 54.6875 
L 54.296875 54.6875 
L 54.296875 0 
L 45.3125 0 
L 45.3125 8.40625 
Q 42.046875 3.421875 37.71875 1 
Q 33.40625 -1.421875 27.6875 -1.421875 
Q 18.265625 -1.421875 13.375 4.4375 
Q 8.5 10.296875 8.5 21.578125 
z
M 31.109375 56 
z
" id="DejaVuSans-75"/>
     <path d="M 9.421875 75.984375 
L 18.40625 75.984375 
L 18.40625 0 
L 9.421875 0 
z
" id="DejaVuSans-6c"/>
     <path d="M 34.1875 63.1875 
L 20.796875 26.90625 
L 47.609375 26.90625 
z
M 28.609375 72.90625 
L 39.796875 72.90625 
L 67.578125 0 
L 57.328125 0 
L 50.6875 18.703125 
L 17.828125 18.703125 
L 11.1875 0 
L 0.78125 0 
z
" id="DejaVuSans-41"/>
     <path d="M 45.40625 46.390625 
L 45.40625 75.984375 
L 54.390625 75.984375 
L 54.390625 0 
L 45.40625 0 
L 45.40625 8.203125 
Q 42.578125 3.328125 38.25 0.953125 
Q 33.9375 -1.421875 27.875 -1.421875 
Q 17.96875 -1.421875 11.734375 6.484375 
Q 5.515625 14.40625 5.515625 27.296875 
Q 5.515625 40.1875 11.734375 48.09375 
Q 17.96875 56 27.875 56 
Q 33.9375 56 38.25 53.625 
Q 42.578125 51.265625 45.40625 46.390625 
z
M 14.796875 27.296875 
Q 14.796875 17.390625 18.875 11.75 
Q 22.953125 6.109375 30.078125 6.109375 
Q 37.203125 6.109375 41.296875 11.75 
Q 45.40625 17.390625 45.40625 27.296875 
Q 45.40625 37.203125 41.296875 42.84375 
Q 37.203125 48.484375 30.078125 48.484375 
Q 22.953125 48.484375 18.875 42.84375 
Q 14.796875 37.203125 14.796875 27.296875 
z
" id="DejaVuSans-64"/>
     <path d="M 56.203125 29.59375 
L 56.203125 25.203125 
L 14.890625 25.203125 
Q 15.484375 15.921875 20.484375 11.0625 
Q 25.484375 6.203125 34.421875 6.203125 
Q 39.59375 6.203125 44.453125 7.46875 
Q 49.3125 8.734375 54.109375 11.28125 
L 54.109375 2.78125 
Q 49.265625 0.734375 44.1875 -0.34375 
Q 39.109375 -1.421875 33.890625 -1.421875 
Q 20.796875 -1.421875 13.15625 6.1875 
Q 5.515625 13.8125 5.515625 26.8125 
Q 5.515625 40.234375 12.765625 48.109375 
Q 20.015625 56 32.328125 56 
Q 43.359375 56 49.78125 48.890625 
Q 56.203125 41.796875 56.203125 29.59375 
z
M 47.21875 32.234375 
Q 47.125 39.59375 43.09375 43.984375 
Q 39.0625 48.390625 32.421875 48.390625 
Q 24.90625 48.390625 20.390625 44.140625 
Q 15.875 39.890625 15.1875 32.171875 
z
" id="DejaVuSans-65"/>
     <path d="M 41.109375 46.296875 
Q 39.59375 47.171875 37.8125 47.578125 
Q 36.03125 48 33.890625 48 
Q 26.265625 48 22.1875 43.046875 
Q 18.109375 38.09375 18.109375 28.8125 
L 18.109375 0 
L 9.078125 0 
L 9.078125 54.6875 
L 18.109375 54.6875 
L 18.109375 46.1875 
Q 20.953125 51.171875 25.484375 53.578125 
Q 30.03125 56 36.53125 56 
Q 37.453125 56 38.578125 55.875 
Q 39.703125 55.765625 41.0625 55.515625 
z
" id="DejaVuSans-72"/>
    </defs>
    <g transform="translate(64.118 65.6698)scale(0.16 -0.16)">
     <use xlink:href="#DejaVuSans-46"/>
     <use x="57.441406" xlink:href="#DejaVuSans-75"/>
     <use x="120.820312" xlink:href="#DejaVuSans-6c"/>
     <use x="148.603516" xlink:href="#DejaVuSans-6c"/>
     <use x="176.386719" xlink:href="#DejaVuSans-41"/>
     <use x="244.779297" xlink:href="#DejaVuSans-64"/>
     <use x="308.255859" xlink:href="#DejaVuSans-64"/>
     <use x="371.732422" xlink:href="#DejaVuSans-65"/>
     <use x="433.255859" xlink:href="#DejaVuSans-72"/>
    </g>
   </g>
   <g id="text_2">
    <!-- $C_{out}$ -->
    <defs>
     <path d="M 64.40625 67.28125 
L 64.40625 56.890625 
Q 59.421875 61.53125 53.78125 63.8125 
Q 48.140625 66.109375 41.796875 66.109375 
Q 29.296875 66.109375 22.65625 58.46875 
Q 16.015625 50.828125 16.015625 36.375 
Q 16.015625 21.96875 22.65625 14.328125 
Q 29.296875 6.6875 41.796875 6.6875 
Q 48.140625 6.6875 53.78125 8.984375 
Q 59.421875 11.28125 64.40625 15.921875 
L 64.40625 5.609375 
Q 59.234375 2.09375 53.4375 0.328125 
Q 47.65625 -1.421875 41.21875 -1.421875 
Q 24.65625 -1.421875 15.125 8.703125 
Q 5.609375 18.84375 5.609375 36.375 
Q 5.609375 53.953125 15.125 64.078125 
Q 24.65625 74.21875 41.21875 74.21875 
Q 47.75 74.21875 53.53125 72.484375 
Q 59.328125 70.75 64.40625 67.28125 
z
" id="DejaVuSans-43"/>
     <path d="M 30.609375 48.390625 
Q 23.390625 48.390625 19.1875 42.75 
Q 14.984375 37.109375 14.984375 27.296875 
Q 14.984375 17.484375 19.15625 11.84375 
Q 23.34375 6.203125 30.609375 6.203125 
Q 37.796875 6.203125 41.984375 11.859375 
Q 46.1875 17.53125 46.1875 27.296875 
Q 46.1875 37.015625 41.984375 42.703125 
Q 37.796875 48.390625 30.609375 48.390625 
z
M 30.609375 56 
Q 42.328125 56 49.015625 48.375 
Q 55.71875 40.765625 55.71875 27.296875 
Q 55.71875 13.875 49.015625 6.21875 
Q 42.328125 -1.421875 30.609375 -1.421875 
Q 18.84375 -1.421875 12.171875 6.21875 
Q 5.515625 13.875 5.515625 27.296875 
Q 5.515625 40.765625 12.171875 48.375 
Q 18.84375 56 30.609375 56 
z
" id="DejaVuSans-6f"/>
     <path d="M 18.3125 70.21875 
L 18.3125 54.6875 
L 36.8125 54.6875 
L 36.8125 47.703125 
L 18.3125 47.703125 
L 18.3125 18.015625 
Q 18.3125 11.328125 20.140625 9.421875 
Q 21.96875 7.515625 27.59375 7.515625 
L 36.8125 7.515625 
L 36.8125 0 
L 27.59375 0 
Q 17.1875 0 13.234375 3.875 
Q 9.28125 7.765625 9.28125 18.015625 
L 9.28125 47.703125 
L 2.6875 47.703125 
L 2.6875 54.6875 
L 9.28125 54.6875 
L 9.28125 70.21875 
z
" id="DejaVuSans-74"/>
    </defs>
    <g transform="translate(58.328 79.6198)scale(0.16 -0.16)">
     <use transform="translate(0 0.78125)" xlink:href="#DejaVuSans-43"/>
     <use transform="translate(70.78125 -15.625)scale(0.7)" xlink:href="#DejaVuSans-6f"/>
     <use transform="translate(113.608398 -15.625)scale(0.7)" xlink:href="#DejaVuSans-75"/>
     <use transform="translate(157.973633 -15.625)scale(0.7)" xlink:href="#DejaVuSans-74"/>
    </g>
   </g>
   <g id="text_3">
    <!-- $C_{in}$ -->
    <defs>
     <path d="M 9.421875 54.6875 
L 18.40625 54.6875 
L 18.40625 0 
L 9.421875 0 
z
M 9.421875 75.984375 
L 18.40625 75.984375 
L 18.40625 64.59375 
L 9.421875 64.59375 
z
" id="DejaVuSans-69"/>
     <path d="M 54.890625 33.015625 
L 54.890625 0 
L 45.90625 0 
L 45.90625 32.71875 
Q 45.90625 40.484375 42.875 44.328125 
Q 39.84375 48.1875 33.796875 48.1875 
Q 26.515625 48.1875 22.3125 43.546875 
Q 18.109375 38.921875 18.109375 30.90625 
L 18.109375 0 
L 9.078125 0 
L 9.078125 54.6875 
L 18.109375 54.6875 
L 18.109375 46.1875 
Q 21.34375 51.125 25.703125 53.5625 
Q 30.078125 56 35.796875 56 
Q 45.21875 56 50.046875 50.171875 
Q 54.890625 44.34375 54.890625 33.015625 
z
" id="DejaVuSans-6e"/>
    </defs>
    <g transform="translate(123.728 79.6198)scale(0.16 -0.16)">
     <use transform="translate(0 0.78125)" xlink:href="#DejaVuSans-43"/>
     <use transform="translate(70.78125 -15.625)scale(0.7)" xlink:href="#DejaVuSans-69"/>
     <use transform="translate(90.229492 -15.625)scale(0.7)" xlink:href="#DejaVuSans-6e"/>
    </g>
   </g>
   <g id="text_4">
    <!-- B -->
    <defs>
     <path d="M 19.671875 34.8125 
L 19.671875 8.109375 
L 35.5 8.109375 
Q 43.453125 8.109375 47.28125 11.40625 
Q 51.125 14.703125 51.125 21.484375 
Q 51.125 28.328125 47.28125 31.5625 
Q 43.453125 34.8125 35.5 34.8125 
z
M 19.671875 64.796875 
L 19.671875 42.828125 
L 34.28125 42.828125 
Q 41.5 42.828125 45.03125 45.53125 
Q 48.578125 48.25 48.578125 53.8125 
Q 48.578125 59.328125 45.03125 62.0625 
Q 41.5 64.796875 34.28125 64.796875 
z
M 9.8125 72.90625 
L 35.015625 72.90625 
Q 46.296875 72.90625 52.390625 68.21875 
Q 58.5 63.53125 58.5 54.890625 
Q 58.5 48.1875 55.375 44.234375 
Q 52.25 40.28125 46.1875 39.3125 
Q 53.46875 37.75 57.5 32.78125 
Q 61.53125 27.828125 61.53125 20.40625 
Q 61.53125 10.640625 54.890625 5.3125 
Q 48.25 0 35.984375 0 
L 9.8125 0 
z
" id="DejaVuSans-42"/>
    </defs>
    <g transform="translate(72.27925 49.6973)scale(0.16 -0.16)">
     <use xlink:href="#DejaVuSans-42"/>
    </g>
   </g>
   <g id="text_5">
    <!-- A -->
    <g transform="translate(120.8955 49.6973)scale(0.16 -0.16)">
     <use xlink:href="#DejaVuSans-41"/>
    </g>
   </g>
   <g id="text_6">
    <!-- $Sum$ -->
    <defs>
     <path d="M 53.515625 70.515625 
L 53.515625 60.890625 
Q 47.90625 63.578125 42.921875 64.890625 
Q 37.9375 66.21875 33.296875 66.21875 
Q 25.25 66.21875 20.875 63.09375 
Q 16.5 59.96875 16.5 54.203125 
Q 16.5 49.359375 19.40625 46.890625 
Q 22.3125 44.4375 30.421875 42.921875 
L 36.375 41.703125 
Q 47.40625 39.59375 52.65625 34.296875 
Q 57.90625 29 57.90625 20.125 
Q 57.90625 9.515625 50.796875 4.046875 
Q 43.703125 -1.421875 29.984375 -1.421875 
Q 24.8125 -1.421875 18.96875 -0.25 
Q 13.140625 0.921875 6.890625 3.21875 
L 6.890625 13.375 
Q 12.890625 10.015625 18.65625 8.296875 
Q 24.421875 6.59375 29.984375 6.59375 
Q 38.421875 6.59375 43.015625 9.90625 
Q 47.609375 13.234375 47.609375 19.390625 
Q 47.609375 24.75 44.3125 27.78125 
Q 41.015625 30.8125 33.5 32.328125 
L 27.484375 33.5 
Q 16.453125 35.6875 11.515625 40.375 
Q 6.59375 45.0625 6.59375 53.421875 
Q 6.59375 63.09375 13.40625 68.65625 
Q 20.21875 74.21875 32.171875 74.21875 
Q 37.3125 74.21875 42.625 73.28125 
Q 47.953125 72.359375 53.515625 70.515625 
z
" id="DejaVuSans-53"/>
     <path d="M 52 44.1875 
Q 55.375 50.25 60.0625 53.125 
Q 64.75 56 71.09375 56 
Q 79.640625 56 84.28125 50.015625 
Q 88.921875 44.046875 88.921875 33.015625 
L 88.921875 0 
L 79.890625 0 
L 79.890625 32.71875 
Q 79.890625 40.578125 77.09375 44.375 
Q 74.3125 48.1875 68.609375 48.1875 
Q 61.625 48.1875 57.5625 43.546875 
Q 53.515625 38.921875 53.515625 30.90625 
L 53.515625 0 
L 44.484375 0 
L 44.484375 32.71875 
Q 44.484375 40.625 41.703125 44.40625 
Q 38.921875 48.1875 33.109375 48.1875 
Q 26.21875 48.1875 22.15625 43.53125 
Q 18.109375 38.875 18.109375 30.90625 
L 18.109375 0 
L 9.078125 0 
L 9.078125 54.6875 
L 18.109375 54.6875 
L 18.109375 46.1875 
Q 21.1875 51.21875 25.484375 53.609375 
Q 29.78125 56 35.6875 56 
Q 41.65625 56 45.828125 52.96875 
Q 50 49.953125 52 44.1875 
z
" id="DejaVuSans-6d"/>
    </defs>
    <g transform="translate(84.068 109.5423)scale(0.16 -0.16)">
     <use transform="translate(0 0.78125)" xlink:href="#DejaVuSans-53"/>
     <use transform="translate(63.476562 0.78125)" xlink:href="#DejaVuSans-75"/>
     <use transform="translate(126.855469 0.78125)" xlink:href="#DejaVuSans-6d"/>
    </g>
   </g>
   <g id="text_7">
    <!-- $C_{out}$ -->
    <g transform="translate(507.068 65.6698)scale(0.16 -0.16)">
     <use transform="translate(0 0.78125)" xlink:href="#DejaVuSans-43"/>
     <use transform="translate(70.78125 -15.625)scale(0.7)" xlink:href="#DejaVuSans-6f"/>
     <use transform="translate(113.608398 -15.625)scale(0.7)" xlink:href="#DejaVuSans-75"/>
     <use transform="translate(157.973633 -15.625)scale(0.7)" xlink:href="#DejaVuSans-74"/>
    </g>
   </g>
   <g id="text_8">
    <!-- $Sum$ -->
    <g transform="translate(505.216571 128.4448)scale(0.16 -0.16)">
     <use transform="translate(0 0.78125)" xlink:href="#DejaVuSans-53"/>
     <use transform="translate(63.476562 0.78125)" xlink:href="#DejaVuSans-75"/>
     <use transform="translate(126.855469 0.78125)" xlink:href="#DejaVuSans-6d"/>
    </g>
   </g>
   <g id="text_9">
    <!-- $C_{in}$ -->
    <g transform="translate(224.168 135.4198)scale(0.16 -0.16)">
     <use transform="translate(0 0.78125)" xlink:href="#DejaVuSans-43"/>
     <use transform="translate(70.78125 -15.625)scale(0.7)" xlink:href="#DejaVuSans-69"/>
     <use transform="translate(90.229492 -15.625)scale(0.7)" xlink:href="#DejaVuSans-6e"/>
    </g>
   </g>
   <g id="text_10">
    <!-- A -->
    <g transform="translate(238.543 51.7198)scale(0.16 -0.16)">
     <use xlink:href="#DejaVuSans-41"/>
    </g>
   </g>
   <g id="text_11">
    <!-- B -->
    <g transform="translate(238.5105 65.6698)scale(0.16 -0.16)">
     <use xlink:href="#DejaVuSans-42"/>
    </g>
   </g>
  </g>
 </g>
 <defs>
  <clipPath id="p3bf4d16c23">
   <rect height="135.7056" width="519.696" x="10.7" y="10.7"/>
  </clipPath>
 </defs>
</svg>
