<?xml version="1.0" encoding="utf-8" standalone="no"?>
<!DOCTYPE svg PUBLIC "-//W3C//DTD SVG 1.1//EN"
  "http://www.w3.org/Graphics/SVG/1.1/DTD/svg11.dtd">
<!-- Created with matplotlib (http://matplotlib.org/) -->
<svg height="195.775pt" version="1.1" viewBox="0 0 885.022 195.775" width="885.022pt" xmlns="http://www.w3.org/2000/svg" xmlns:xlink="http://www.w3.org/1999/xlink">
 <defs>
  <style type="text/css">
*{stroke-linecap:butt;stroke-linejoin:round;}
  </style>
 </defs>
 <g id="figure_1">
  <g id="patch_1">
   <path d="M 0 195.775 
L 885.022 195.775 
L 885.022 0 
L 0 0 
z
" style="fill:none;"/>
  </g>
  <g id="axes_1">
   <g id="patch_2">
    <path clip-path="url(#pe9cecae26e)" d="M 717.101 153.6875 
C 721.395859 153.6875 725.519206 152.216769 728.55613 149.60164 
C 731.593054 146.98651 733.301 143.435851 733.301 139.7375 
C 733.301 136.039149 731.593054 132.48849 728.55613 129.87336 
C 725.519206 127.258231 721.395859 125.7875 717.101 125.7875 
" style="fill:none;stroke:#000000;stroke-linejoin:miter;stroke-width:1.5;"/>
   </g>
   <g id="patch_3">
    <path clip-path="url(#pe9cecae26e)" d="M 490.301 146.7125 
C 494.595859 146.7125 498.719206 145.241769 501.75613 142.62664 
C 504.793054 140.01151 506.501 136.460851 506.501 132.7625 
C 506.501 129.064149 504.793054 125.51349 501.75613 122.89836 
C 498.719206 120.283231 494.595859 118.8125 490.301 118.8125 
" style="fill:none;stroke:#000000;stroke-linejoin:miter;stroke-width:1.5;"/>
   </g>
   <g id="line2d_1">
    <path clip-path="url(#pe9cecae26e)" d="M 142.001 160.6625 
L 142.001 174.6125 
" style="fill:none;stroke:#000000;stroke-linecap:round;stroke-width:1.5;"/>
   </g>
   <g id="line2d_2">
    <path clip-path="url(#pe9cecae26e)" d="M 69.101 160.6625 
L 214.901 160.6625 
L 214.901 35.1125 
L 69.101 35.1125 
L 69.101 160.6625 
" style="fill:none;stroke:#000000;stroke-linecap:round;stroke-width:1.5;"/>
   </g>
   <g id="line2d_3">
    <path clip-path="url(#pe9cecae26e)" d="M 69.101 97.8875 
L 52.901 97.8875 
" style="fill:none;stroke:#000000;stroke-linecap:round;stroke-width:1.5;"/>
   </g>
   <g id="line2d_4">
    <path clip-path="url(#pe9cecae26e)" d="M 214.901 97.8875 
L 231.101 97.8875 
" style="fill:none;stroke:#000000;stroke-linecap:round;stroke-width:1.5;"/>
   </g>
   <g id="line2d_5">
    <path clip-path="url(#pe9cecae26e)" d="M 105.551 35.1125 
L 105.551 21.1625 
" style="fill:none;stroke:#000000;stroke-linecap:round;stroke-width:1.5;"/>
   </g>
   <g id="line2d_6">
    <path clip-path="url(#pe9cecae26e)" d="M 178.451 35.1125 
L 178.451 21.1625 
" style="fill:none;stroke:#000000;stroke-linecap:round;stroke-width:1.5;"/>
   </g>
   <g id="line2d_7">
    <path clip-path="url(#pe9cecae26e)" d="M 587.501 97.8875 
L 581.426 97.8875 
L 575.351 97.8875 
" style="fill:none;stroke:#000000;stroke-linecap:round;stroke-width:1.5;"/>
   </g>
   <g id="line2d_8">
    <path clip-path="url(#pe9cecae26e)" d="M 684.701 104.8625 
M 739.781 104.8625 
L 751.121 104.8625 
" style="fill:none;stroke:#000000;stroke-linecap:round;stroke-width:1.5;"/>
   </g>
   <g id="line2d_9">
    <path clip-path="url(#pe9cecae26e)" d="M 700.901 118.5335 
L 717.101 118.5335 
L 717.563857 118.527806 
L 718.026714 118.510724 
L 718.489571 118.482255 
L 718.952429 118.442398 
L 719.415286 118.391153 
L 719.878143 118.32852 
L 720.341 118.2545 
L 720.803857 118.169092 
L 721.266714 118.072296 
L 721.729571 117.964112 
L 722.192429 117.844541 
L 722.655286 117.713582 
L 723.118143 117.571235 
L 723.581 117.4175 
L 724.043857 117.252378 
L 724.506714 117.075867 
L 724.969571 116.887969 
L 725.432429 116.688684 
L 725.895286 116.47801 
L 726.358143 116.255949 
L 726.821 116.0225 
L 727.283857 115.777663 
L 727.746714 115.521439 
L 728.209571 115.253827 
L 728.672429 114.974827 
L 729.135286 114.684439 
L 729.598143 114.382663 
L 730.061 114.0695 
L 730.523857 113.744949 
L 730.986714 113.40901 
L 731.449571 113.061684 
L 731.912429 112.702969 
L 732.375286 112.332867 
L 732.838143 111.951378 
L 733.301 111.5585 
L 733.763857 111.154235 
L 734.226714 110.738582 
L 734.689571 110.311541 
L 735.152429 109.873112 
L 735.615286 109.423296 
L 736.078143 108.962092 
L 736.541 108.4895 
L 737.003857 108.00552 
L 737.466714 107.510153 
L 737.929571 107.003398 
L 738.392429 106.485255 
L 738.855286 105.955724 
L 739.318143 105.414806 
L 739.781 104.8625 
" style="fill:none;stroke:#000000;stroke-linecap:round;stroke-width:1.5;"/>
   </g>
   <g id="line2d_10">
    <path clip-path="url(#pe9cecae26e)" d="M 700.901 91.1915 
L 717.101 91.1915 
L 717.563857 91.197194 
L 718.026714 91.214276 
L 718.489571 91.242745 
L 718.952429 91.282602 
L 719.415286 91.333847 
L 719.878143 91.39648 
L 720.341 91.4705 
L 720.803857 91.555908 
L 721.266714 91.652704 
L 721.729571 91.760888 
L 722.192429 91.880459 
L 722.655286 92.011418 
L 723.118143 92.153765 
L 723.581 92.3075 
L 724.043857 92.472622 
L 724.506714 92.649133 
L 724.969571 92.837031 
L 725.432429 93.036316 
L 725.895286 93.24699 
L 726.358143 93.469051 
L 726.821 93.7025 
L 727.283857 93.947337 
L 727.746714 94.203561 
L 728.209571 94.471173 
L 728.672429 94.750173 
L 729.135286 95.040561 
L 729.598143 95.342337 
L 730.061 95.6555 
L 730.523857 95.980051 
L 730.986714 96.31599 
L 731.449571 96.663316 
L 731.912429 97.022031 
L 732.375286 97.392133 
L 732.838143 97.773622 
L 733.301 98.1665 
L 733.763857 98.570765 
L 734.226714 98.986418 
L 734.689571 99.413459 
L 735.152429 99.851888 
L 735.615286 100.301704 
L 736.078143 100.762908 
L 736.541 101.2355 
L 737.003857 101.71948 
L 737.466714 102.214847 
L 737.929571 102.721602 
L 738.392429 103.239745 
L 738.855286 103.769276 
L 739.318143 104.310194 
L 739.781 104.8625 
" style="fill:none;stroke:#000000;stroke-linecap:round;stroke-width:1.5;"/>
   </g>
   <g id="line2d_11">
    <path clip-path="url(#pe9cecae26e)" d="M 696.041 118.5335 
L 696.66308 117.9755 
L 697.25924 117.4175 
L 697.82948 116.8595 
L 698.3738 116.3015 
L 698.8922 115.7435 
L 699.38468 115.1855 
L 699.85124 114.6275 
L 700.29188 114.0695 
L 700.7066 113.5115 
L 701.0954 112.9535 
L 701.45828 112.3955 
L 701.79524 111.8375 
L 702.10628 111.2795 
L 702.3914 110.7215 
L 702.6506 110.1635 
L 702.88388 109.6055 
L 703.09124 109.0475 
L 703.27268 108.4895 
L 703.4282 107.9315 
L 703.5578 107.3735 
L 703.66148 106.8155 
L 703.73924 106.2575 
L 703.79108 105.6995 
L 703.817 105.1415 
L 703.817 104.5835 
L 703.79108 104.0255 
L 703.73924 103.4675 
L 703.66148 102.9095 
L 703.5578 102.3515 
L 703.4282 101.7935 
L 703.27268 101.2355 
L 703.09124 100.6775 
L 702.88388 100.1195 
L 702.6506 99.5615 
L 702.3914 99.0035 
L 702.10628 98.4455 
L 701.79524 97.8875 
L 701.45828 97.3295 
L 701.0954 96.7715 
L 700.7066 96.2135 
L 700.29188 95.6555 
L 699.85124 95.0975 
L 699.38468 94.5395 
L 698.8922 93.9815 
L 698.3738 93.4235 
L 697.82948 92.8655 
L 697.25924 92.3075 
L 696.66308 91.7495 
L 696.041 91.1915 
" style="fill:none;stroke:#000000;stroke-linecap:round;stroke-width:1.5;"/>
   </g>
   <g id="line2d_12">
    <path clip-path="url(#pe9cecae26e)" d="M 700.901 118.5335 
L 701.52308 117.9755 
L 702.11924 117.4175 
L 702.68948 116.8595 
L 703.2338 116.3015 
L 703.7522 115.7435 
L 704.24468 115.1855 
L 704.71124 114.6275 
L 705.15188 114.0695 
L 705.5666 113.5115 
L 705.9554 112.9535 
L 706.31828 112.3955 
L 706.65524 111.8375 
L 706.96628 111.2795 
L 707.2514 110.7215 
L 707.5106 110.1635 
L 707.74388 109.6055 
L 707.95124 109.0475 
L 708.13268 108.4895 
L 708.2882 107.9315 
L 708.4178 107.3735 
L 708.52148 106.8155 
L 708.59924 106.2575 
L 708.65108 105.6995 
L 708.677 105.1415 
L 708.677 104.5835 
L 708.65108 104.0255 
L 708.59924 103.4675 
L 708.52148 102.9095 
L 708.4178 102.3515 
L 708.2882 101.7935 
L 708.13268 101.2355 
L 707.95124 100.6775 
L 707.74388 100.1195 
L 707.5106 99.5615 
L 707.2514 99.0035 
L 706.96628 98.4455 
L 706.65524 97.8875 
L 706.31828 97.3295 
L 705.9554 96.7715 
L 705.5666 96.2135 
L 705.15188 95.6555 
L 704.71124 95.0975 
L 704.24468 94.5395 
L 703.7522 93.9815 
L 703.2338 93.4235 
L 702.68948 92.8655 
L 702.11924 92.3075 
L 701.52308 91.7495 
L 700.901 91.1915 
" style="fill:none;stroke:#000000;stroke-linecap:round;stroke-width:1.5;"/>
   </g>
   <g id="line2d_13">
    <path clip-path="url(#pe9cecae26e)" d="M 684.701 111.8375 
L 701.79524 111.8375 
" style="fill:none;stroke:#000000;stroke-linecap:round;stroke-width:1.5;"/>
   </g>
   <g id="line2d_14">
    <path clip-path="url(#pe9cecae26e)" d="M 684.701 97.8875 
L 701.79524 97.8875 
" style="fill:none;stroke:#000000;stroke-linecap:round;stroke-width:1.5;"/>
   </g>
   <g id="line2d_15">
    <path clip-path="url(#pe9cecae26e)" d="M 684.701 97.8875 
L 636.101 97.8875 
L 587.501 97.8875 
" style="fill:none;stroke:#000000;stroke-linecap:round;stroke-width:1.5;"/>
   </g>
   <g id="line2d_16">
    <path clip-path="url(#pe9cecae26e)" d="M 684.701 111.8375 
" style="fill:none;stroke:#000000;stroke-linecap:round;stroke-width:1.5;"/>
   </g>
   <g id="line2d_17">
    <path clip-path="url(#pe9cecae26e)" d="M 684.701 111.8375 
L 684.701 122.3 
L 684.701 132.7625 
" style="fill:none;stroke:#000000;stroke-linecap:round;stroke-width:1.5;"/>
   </g>
   <g id="line2d_18">
    <path clip-path="url(#pe9cecae26e)" d="M 587.501 97.8875 
" style="fill:none;stroke:#000000;stroke-linecap:round;stroke-width:1.5;"/>
   </g>
   <g id="line2d_19">
    <path clip-path="url(#pe9cecae26e)" d="M 587.501 97.8875 
L 587.501 122.361184 
L 587.501 146.834868 
" style="fill:none;stroke:#000000;stroke-linecap:round;stroke-width:1.5;"/>
   </g>
   <g id="line2d_20">
    <path clip-path="url(#pe9cecae26e)" d="M 684.701 139.7375 
M 733.301 139.7375 
L 744.641 139.7375 
" style="fill:none;stroke:#000000;stroke-linecap:round;stroke-width:1.5;"/>
   </g>
   <g id="line2d_21">
    <path clip-path="url(#pe9cecae26e)" d="M 696.041 139.7375 
L 696.041 153.6875 
L 717.101 153.6875 
" style="fill:none;stroke:#000000;stroke-linecap:round;stroke-width:1.5;"/>
   </g>
   <g id="line2d_22">
    <path clip-path="url(#pe9cecae26e)" d="M 696.041 139.7375 
L 696.041 125.7875 
L 717.101 125.7875 
" style="fill:none;stroke:#000000;stroke-linecap:round;stroke-width:1.5;"/>
   </g>
   <g id="line2d_23">
    <path clip-path="url(#pe9cecae26e)" d="M 684.701 146.7125 
L 696.041 146.7125 
" style="fill:none;stroke:#000000;stroke-linecap:round;stroke-width:1.5;"/>
   </g>
   <g id="line2d_24">
    <path clip-path="url(#pe9cecae26e)" d="M 684.701 132.7625 
L 696.041 132.7625 
" style="fill:none;stroke:#000000;stroke-linecap:round;stroke-width:1.5;"/>
   </g>
   <g id="line2d_25">
    <path clip-path="url(#pe9cecae26e)" d="M 587.501 146.834868 
L 616.013 146.834868 
L 627.353 146.834868 
M 656.189 146.834868 
L 684.701 146.834868 
" style="fill:none;stroke:#000000;stroke-linecap:round;stroke-width:1.5;"/>
   </g>
   <g id="line2d_26">
    <path clip-path="url(#pe9cecae26e)" d="M 627.353 146.834868 
L 627.353 160.784868 
L 648.413 146.834868 
L 627.353 132.884868 
L 627.353 146.834868 
" style="fill:none;stroke:#000000;stroke-linecap:round;stroke-width:1.5;"/>
   </g>
   <g id="line2d_27">
    <path clip-path="url(#pe9cecae26e)" d="M 656.189 146.834868 
L 659.753 146.834868 
" style="fill:none;stroke:#000000;stroke-linecap:round;stroke-width:1.5;"/>
   </g>
   <g id="line2d_28">
    <path clip-path="url(#pe9cecae26e)" d="M 684.701 111.8375 
L 631.241 111.8375 
L 577.781 111.8375 
" style="fill:none;stroke:#000000;stroke-linecap:round;stroke-width:1.5;"/>
   </g>
   <g id="line2d_29">
    <path clip-path="url(#pe9cecae26e)" d="M 360.701 90.9125 
L 354.626 90.9125 
L 348.551 90.9125 
" style="fill:none;stroke:#000000;stroke-linecap:round;stroke-width:1.5;"/>
   </g>
   <g id="line2d_30">
    <path clip-path="url(#pe9cecae26e)" d="M 457.901 97.8875 
M 512.981 97.8875 
L 524.321 97.8875 
" style="fill:none;stroke:#000000;stroke-linecap:round;stroke-width:1.5;"/>
   </g>
   <g id="line2d_31">
    <path clip-path="url(#pe9cecae26e)" d="M 474.101 111.5585 
L 490.301 111.5585 
L 490.763857 111.552806 
L 491.226714 111.535724 
L 491.689571 111.507255 
L 492.152429 111.467398 
L 492.615286 111.416153 
L 493.078143 111.35352 
L 493.541 111.2795 
L 494.003857 111.194092 
L 494.466714 111.097296 
L 494.929571 110.989112 
L 495.392429 110.869541 
L 495.855286 110.738582 
L 496.318143 110.596235 
L 496.781 110.4425 
L 497.243857 110.277378 
L 497.706714 110.100867 
L 498.169571 109.912969 
L 498.632429 109.713684 
L 499.095286 109.50301 
L 499.558143 109.280949 
L 500.021 109.0475 
L 500.483857 108.802663 
L 500.946714 108.546439 
L 501.409571 108.278827 
L 501.872429 107.999827 
L 502.335286 107.709439 
L 502.798143 107.407663 
L 503.261 107.0945 
L 503.723857 106.769949 
L 504.186714 106.43401 
L 504.649571 106.086684 
L 505.112429 105.727969 
L 505.575286 105.357867 
L 506.038143 104.976378 
L 506.501 104.5835 
L 506.963857 104.179235 
L 507.426714 103.763582 
L 507.889571 103.336541 
L 508.352429 102.898112 
L 508.815286 102.448296 
L 509.278143 101.987092 
L 509.741 101.5145 
L 510.203857 101.03052 
L 510.666714 100.535153 
L 511.129571 100.028398 
L 511.592429 99.510255 
L 512.055286 98.980724 
L 512.518143 98.439806 
L 512.981 97.8875 
" style="fill:none;stroke:#000000;stroke-linecap:round;stroke-width:1.5;"/>
   </g>
   <g id="line2d_32">
    <path clip-path="url(#pe9cecae26e)" d="M 474.101 84.2165 
L 490.301 84.2165 
L 490.763857 84.222194 
L 491.226714 84.239276 
L 491.689571 84.267745 
L 492.152429 84.307602 
L 492.615286 84.358847 
L 493.078143 84.42148 
L 493.541 84.4955 
L 494.003857 84.580908 
L 494.466714 84.677704 
L 494.929571 84.785888 
L 495.392429 84.905459 
L 495.855286 85.036418 
L 496.318143 85.178765 
L 496.781 85.3325 
L 497.243857 85.497622 
L 497.706714 85.674133 
L 498.169571 85.862031 
L 498.632429 86.061316 
L 499.095286 86.27199 
L 499.558143 86.494051 
L 500.021 86.7275 
L 500.483857 86.972337 
L 500.946714 87.228561 
L 501.409571 87.496173 
L 501.872429 87.775173 
L 502.335286 88.065561 
L 502.798143 88.367337 
L 503.261 88.6805 
L 503.723857 89.005051 
L 504.186714 89.34099 
L 504.649571 89.688316 
L 505.112429 90.047031 
L 505.575286 90.417133 
L 506.038143 90.798622 
L 506.501 91.1915 
L 506.963857 91.595765 
L 507.426714 92.011418 
L 507.889571 92.438459 
L 508.352429 92.876888 
L 508.815286 93.326704 
L 509.278143 93.787908 
L 509.741 94.2605 
L 510.203857 94.74448 
L 510.666714 95.239847 
L 511.129571 95.746602 
L 511.592429 96.264745 
L 512.055286 96.794276 
L 512.518143 97.335194 
L 512.981 97.8875 
" style="fill:none;stroke:#000000;stroke-linecap:round;stroke-width:1.5;"/>
   </g>
   <g id="line2d_33">
    <path clip-path="url(#pe9cecae26e)" d="M 469.241 111.5585 
L 469.86308 111.0005 
L 470.45924 110.4425 
L 471.02948 109.8845 
L 471.5738 109.3265 
L 472.0922 108.7685 
L 472.58468 108.2105 
L 473.05124 107.6525 
L 473.49188 107.0945 
L 473.9066 106.5365 
L 474.2954 105.9785 
L 474.65828 105.4205 
L 474.99524 104.8625 
L 475.30628 104.3045 
L 475.5914 103.7465 
L 475.8506 103.1885 
L 476.08388 102.6305 
L 476.29124 102.0725 
L 476.47268 101.5145 
L 476.6282 100.9565 
L 476.7578 100.3985 
L 476.86148 99.8405 
L 476.93924 99.2825 
L 476.99108 98.7245 
L 477.017 98.1665 
L 477.017 97.6085 
L 476.99108 97.0505 
L 476.93924 96.4925 
L 476.86148 95.9345 
L 476.7578 95.3765 
L 476.6282 94.8185 
L 476.47268 94.2605 
L 476.29124 93.7025 
L 476.08388 93.1445 
L 475.8506 92.5865 
L 475.5914 92.0285 
L 475.30628 91.4705 
L 474.99524 90.9125 
L 474.65828 90.3545 
L 474.2954 89.7965 
L 473.9066 89.2385 
L 473.49188 88.6805 
L 473.05124 88.1225 
L 472.58468 87.5645 
L 472.0922 87.0065 
L 471.5738 86.4485 
L 471.02948 85.8905 
L 470.45924 85.3325 
L 469.86308 84.7745 
L 469.241 84.2165 
" style="fill:none;stroke:#000000;stroke-linecap:round;stroke-width:1.5;"/>
   </g>
   <g id="line2d_34">
    <path clip-path="url(#pe9cecae26e)" d="M 474.101 111.5585 
L 474.72308 111.0005 
L 475.31924 110.4425 
L 475.88948 109.8845 
L 476.4338 109.3265 
L 476.9522 108.7685 
L 477.44468 108.2105 
L 477.91124 107.6525 
L 478.35188 107.0945 
L 478.7666 106.5365 
L 479.1554 105.9785 
L 479.51828 105.4205 
L 479.85524 104.8625 
L 480.16628 104.3045 
L 480.4514 103.7465 
L 480.7106 103.1885 
L 480.94388 102.6305 
L 481.15124 102.0725 
L 481.33268 101.5145 
L 481.4882 100.9565 
L 481.6178 100.3985 
L 481.72148 99.8405 
L 481.79924 99.2825 
L 481.85108 98.7245 
L 481.877 98.1665 
L 481.877 97.6085 
L 481.85108 97.0505 
L 481.79924 96.4925 
L 481.72148 95.9345 
L 481.6178 95.3765 
L 481.4882 94.8185 
L 481.33268 94.2605 
L 481.15124 93.7025 
L 480.94388 93.1445 
L 480.7106 92.5865 
L 480.4514 92.0285 
L 480.16628 91.4705 
L 479.85524 90.9125 
L 479.51828 90.3545 
L 479.1554 89.7965 
L 478.7666 89.2385 
L 478.35188 88.6805 
L 477.91124 88.1225 
L 477.44468 87.5645 
L 476.9522 87.0065 
L 476.4338 86.4485 
L 475.88948 85.8905 
L 475.31924 85.3325 
L 474.72308 84.7745 
L 474.101 84.2165 
" style="fill:none;stroke:#000000;stroke-linecap:round;stroke-width:1.5;"/>
   </g>
   <g id="line2d_35">
    <path clip-path="url(#pe9cecae26e)" d="M 457.901 104.8625 
L 474.99524 104.8625 
" style="fill:none;stroke:#000000;stroke-linecap:round;stroke-width:1.5;"/>
   </g>
   <g id="line2d_36">
    <path clip-path="url(#pe9cecae26e)" d="M 457.901 90.9125 
L 474.99524 90.9125 
" style="fill:none;stroke:#000000;stroke-linecap:round;stroke-width:1.5;"/>
   </g>
   <g id="line2d_37">
    <path clip-path="url(#pe9cecae26e)" d="M 457.901 90.9125 
L 409.301 90.9125 
L 360.701 90.9125 
" style="fill:none;stroke:#000000;stroke-linecap:round;stroke-width:1.5;"/>
   </g>
   <g id="line2d_38">
    <path clip-path="url(#pe9cecae26e)" d="M 457.901 104.8625 
" style="fill:none;stroke:#000000;stroke-linecap:round;stroke-width:1.5;"/>
   </g>
   <g id="line2d_39">
    <path clip-path="url(#pe9cecae26e)" d="M 457.901 104.8625 
L 457.901 115.325 
L 457.901 125.7875 
" style="fill:none;stroke:#000000;stroke-linecap:round;stroke-width:1.5;"/>
   </g>
   <g id="line2d_40">
    <path clip-path="url(#pe9cecae26e)" d="M 360.701 90.9125 
" style="fill:none;stroke:#000000;stroke-linecap:round;stroke-width:1.5;"/>
   </g>
   <g id="line2d_41">
    <path clip-path="url(#pe9cecae26e)" d="M 360.701 90.9125 
L 360.701 115.386184 
L 360.701 139.859868 
" style="fill:none;stroke:#000000;stroke-linecap:round;stroke-width:1.5;"/>
   </g>
   <g id="line2d_42">
    <path clip-path="url(#pe9cecae26e)" d="M 457.901 132.7625 
M 506.501 132.7625 
L 517.841 132.7625 
" style="fill:none;stroke:#000000;stroke-linecap:round;stroke-width:1.5;"/>
   </g>
   <g id="line2d_43">
    <path clip-path="url(#pe9cecae26e)" d="M 469.241 132.7625 
L 469.241 146.7125 
L 490.301 146.7125 
" style="fill:none;stroke:#000000;stroke-linecap:round;stroke-width:1.5;"/>
   </g>
   <g id="line2d_44">
    <path clip-path="url(#pe9cecae26e)" d="M 469.241 132.7625 
L 469.241 118.8125 
L 490.301 118.8125 
" style="fill:none;stroke:#000000;stroke-linecap:round;stroke-width:1.5;"/>
   </g>
   <g id="line2d_45">
    <path clip-path="url(#pe9cecae26e)" d="M 457.901 139.7375 
L 469.241 139.7375 
" style="fill:none;stroke:#000000;stroke-linecap:round;stroke-width:1.5;"/>
   </g>
   <g id="line2d_46">
    <path clip-path="url(#pe9cecae26e)" d="M 457.901 125.7875 
L 469.241 125.7875 
" style="fill:none;stroke:#000000;stroke-linecap:round;stroke-width:1.5;"/>
   </g>
   <g id="line2d_47">
    <path clip-path="url(#pe9cecae26e)" d="M 360.701 139.859868 
L 389.213 139.859868 
L 400.553 139.859868 
M 429.389 139.859868 
L 457.901 139.859868 
" style="fill:none;stroke:#000000;stroke-linecap:round;stroke-width:1.5;"/>
   </g>
   <g id="line2d_48">
    <path clip-path="url(#pe9cecae26e)" d="M 400.553 139.859868 
L 400.553 153.809868 
L 421.613 139.859868 
L 400.553 125.909868 
L 400.553 139.859868 
" style="fill:none;stroke:#000000;stroke-linecap:round;stroke-width:1.5;"/>
   </g>
   <g id="line2d_49">
    <path clip-path="url(#pe9cecae26e)" d="M 429.389 139.859868 
L 432.953 139.859868 
" style="fill:none;stroke:#000000;stroke-linecap:round;stroke-width:1.5;"/>
   </g>
   <g id="line2d_50">
    <path clip-path="url(#pe9cecae26e)" d="M 457.901 104.8625 
L 404.441 104.8625 
L 350.981 104.8625 
" style="fill:none;stroke:#000000;stroke-linecap:round;stroke-width:1.5;"/>
   </g>
   <g id="line2d_51">
    <path clip-path="url(#pe9cecae26e)" d="M 561.581 83.9375 
L 658.781 83.9375 
L 755.981 83.9375 
" style="fill:none;stroke:#000000;stroke-dasharray:1.5,2.475;stroke-dashoffset:0;stroke-width:1.5;"/>
   </g>
   <g id="line2d_52">
    <path clip-path="url(#pe9cecae26e)" d="M 755.981 83.9375 
L 755.981 125.7875 
L 755.981 167.6375 
" style="fill:none;stroke:#000000;stroke-dasharray:1.5,2.475;stroke-dashoffset:0;stroke-width:1.5;"/>
   </g>
   <g id="line2d_53">
    <path clip-path="url(#pe9cecae26e)" d="M 755.981 167.6375 
L 658.781 167.6375 
L 561.581 167.6375 
" style="fill:none;stroke:#000000;stroke-dasharray:1.5,2.475;stroke-dashoffset:0;stroke-width:1.5;"/>
   </g>
   <g id="line2d_54">
    <path clip-path="url(#pe9cecae26e)" d="M 561.581 167.6375 
L 561.581 125.7875 
L 561.581 83.9375 
" style="fill:none;stroke:#000000;stroke-dasharray:1.5,2.475;stroke-dashoffset:0;stroke-width:1.5;"/>
   </g>
   <g id="line2d_55">
    <path clip-path="url(#pe9cecae26e)" d="M 334.781 76.9625 
L 431.981 76.9625 
L 529.181 76.9625 
" style="fill:none;stroke:#000000;stroke-dasharray:1.5,2.475;stroke-dashoffset:0;stroke-width:1.5;"/>
   </g>
   <g id="line2d_56">
    <path clip-path="url(#pe9cecae26e)" d="M 529.181 76.9625 
L 529.181 118.8125 
L 529.181 160.6625 
" style="fill:none;stroke:#000000;stroke-dasharray:1.5,2.475;stroke-dashoffset:0;stroke-width:1.5;"/>
   </g>
   <g id="line2d_57">
    <path clip-path="url(#pe9cecae26e)" d="M 529.181 160.6625 
L 431.981 160.6625 
L 334.781 160.6625 
" style="fill:none;stroke:#000000;stroke-dasharray:1.5,2.475;stroke-dashoffset:0;stroke-width:1.5;"/>
   </g>
   <g id="line2d_58">
    <path clip-path="url(#pe9cecae26e)" d="M 334.781 160.6625 
L 334.781 118.8125 
L 334.781 76.9625 
" style="fill:none;stroke:#000000;stroke-dasharray:1.5,2.475;stroke-dashoffset:0;stroke-width:1.5;"/>
   </g>
   <g id="line2d_59">
    <path clip-path="url(#pe9cecae26e)" d="M 751.121 104.8625 
L 791.621 104.8625 
L 832.121 104.8625 
" style="fill:none;stroke:#000000;stroke-linecap:round;stroke-width:1.5;"/>
   </g>
   <g id="line2d_60">
    <path clip-path="url(#pe9cecae26e)" d="M 744.641 139.7375 
L 754.361 139.7375 
L 764.081 139.7375 
" style="fill:none;stroke:#000000;stroke-linecap:round;stroke-width:1.5;"/>
   </g>
   <g id="line2d_61">
    <path clip-path="url(#pe9cecae26e)" d="M 764.081 146.7125 
M 814.301 146.7125 
L 825.641 146.7125 
" style="fill:none;stroke:#000000;stroke-linecap:round;stroke-width:1.5;"/>
   </g>
   <g id="line2d_62">
    <path clip-path="url(#pe9cecae26e)" d="M 775.421 160.3835 
L 791.621 160.3835 
L 792.083857 160.377806 
L 792.546714 160.360724 
L 793.009571 160.332255 
L 793.472429 160.292398 
L 793.935286 160.241153 
L 794.398143 160.17852 
L 794.861 160.1045 
L 795.323857 160.019092 
L 795.786714 159.922296 
L 796.249571 159.814112 
L 796.712429 159.694541 
L 797.175286 159.563582 
L 797.638143 159.421235 
L 798.101 159.2675 
L 798.563857 159.102378 
L 799.026714 158.925867 
L 799.489571 158.737969 
L 799.952429 158.538684 
L 800.415286 158.32801 
L 800.878143 158.105949 
L 801.341 157.8725 
L 801.803857 157.627663 
L 802.266714 157.371439 
L 802.729571 157.103827 
L 803.192429 156.824827 
L 803.655286 156.534439 
L 804.118143 156.232663 
L 804.581 155.9195 
L 805.043857 155.594949 
L 805.506714 155.25901 
L 805.969571 154.911684 
L 806.432429 154.552969 
L 806.895286 154.182867 
L 807.358143 153.801378 
L 807.821 153.4085 
L 808.283857 153.004235 
L 808.746714 152.588582 
L 809.209571 152.161541 
L 809.672429 151.723112 
L 810.135286 151.273296 
L 810.598143 150.812092 
L 811.061 150.3395 
L 811.523857 149.85552 
L 811.986714 149.360153 
L 812.449571 148.853398 
L 812.912429 148.335255 
L 813.375286 147.805724 
L 813.838143 147.264806 
L 814.301 146.7125 
" style="fill:none;stroke:#000000;stroke-linecap:round;stroke-width:1.5;"/>
   </g>
   <g id="line2d_63">
    <path clip-path="url(#pe9cecae26e)" d="M 775.421 133.0415 
L 791.621 133.0415 
L 792.083857 133.047194 
L 792.546714 133.064276 
L 793.009571 133.092745 
L 793.472429 133.132602 
L 793.935286 133.183847 
L 794.398143 133.24648 
L 794.861 133.3205 
L 795.323857 133.405908 
L 795.786714 133.502704 
L 796.249571 133.610888 
L 796.712429 133.730459 
L 797.175286 133.861418 
L 797.638143 134.003765 
L 798.101 134.1575 
L 798.563857 134.322622 
L 799.026714 134.499133 
L 799.489571 134.687031 
L 799.952429 134.886316 
L 800.415286 135.09699 
L 800.878143 135.319051 
L 801.341 135.5525 
L 801.803857 135.797337 
L 802.266714 136.053561 
L 802.729571 136.321173 
L 803.192429 136.600173 
L 803.655286 136.890561 
L 804.118143 137.192337 
L 804.581 137.5055 
L 805.043857 137.830051 
L 805.506714 138.16599 
L 805.969571 138.513316 
L 806.432429 138.872031 
L 806.895286 139.242133 
L 807.358143 139.623622 
L 807.821 140.0165 
L 808.283857 140.420765 
L 808.746714 140.836418 
L 809.209571 141.263459 
L 809.672429 141.701888 
L 810.135286 142.151704 
L 810.598143 142.612908 
L 811.061 143.0855 
L 811.523857 143.56948 
L 811.986714 144.064847 
L 812.449571 144.571602 
L 812.912429 145.089745 
L 813.375286 145.619276 
L 813.838143 146.160194 
L 814.301 146.7125 
" style="fill:none;stroke:#000000;stroke-linecap:round;stroke-width:1.5;"/>
   </g>
   <g id="line2d_64">
    <path clip-path="url(#pe9cecae26e)" d="M 775.421 160.3835 
L 776.04308 159.8255 
L 776.63924 159.2675 
L 777.20948 158.7095 
L 777.7538 158.1515 
L 778.2722 157.5935 
L 778.76468 157.0355 
L 779.23124 156.4775 
L 779.67188 155.9195 
L 780.0866 155.3615 
L 780.4754 154.8035 
L 780.83828 154.2455 
L 781.17524 153.6875 
L 781.48628 153.1295 
L 781.7714 152.5715 
L 782.0306 152.0135 
L 782.26388 151.4555 
L 782.47124 150.8975 
L 782.65268 150.3395 
L 782.8082 149.7815 
L 782.9378 149.2235 
L 783.04148 148.6655 
L 783.11924 148.1075 
L 783.17108 147.5495 
L 783.197 146.9915 
L 783.197 146.4335 
L 783.17108 145.8755 
L 783.11924 145.3175 
L 783.04148 144.7595 
L 782.9378 144.2015 
L 782.8082 143.6435 
L 782.65268 143.0855 
L 782.47124 142.5275 
L 782.26388 141.9695 
L 782.0306 141.4115 
L 781.7714 140.8535 
L 781.48628 140.2955 
L 781.17524 139.7375 
L 780.83828 139.1795 
L 780.4754 138.6215 
L 780.0866 138.0635 
L 779.67188 137.5055 
L 779.23124 136.9475 
L 778.76468 136.3895 
L 778.2722 135.8315 
L 777.7538 135.2735 
L 777.20948 134.7155 
L 776.63924 134.1575 
L 776.04308 133.5995 
L 775.421 133.0415 
" style="fill:none;stroke:#000000;stroke-linecap:round;stroke-width:1.5;"/>
   </g>
   <g id="line2d_65">
    <path clip-path="url(#pe9cecae26e)" d="M 764.081 153.6875 
L 781.17524 153.6875 
" style="fill:none;stroke:#000000;stroke-linecap:round;stroke-width:1.5;"/>
   </g>
   <g id="line2d_66">
    <path clip-path="url(#pe9cecae26e)" d="M 764.081 139.7375 
L 781.17524 139.7375 
" style="fill:none;stroke:#000000;stroke-linecap:round;stroke-width:1.5;"/>
   </g>
   <g id="line2d_67">
    <path clip-path="url(#pe9cecae26e)" d="M 825.641 146.7125 
L 825.641 146.7125 
L 825.641 146.7125 
" style="fill:none;stroke:#000000;stroke-linecap:round;stroke-width:1.5;"/>
   </g>
   <g id="line2d_68">
    <path clip-path="url(#pe9cecae26e)" d="M 524.321 97.8875 
L 556.721 97.8875 
L 589.121 97.8875 
" style="fill:none;stroke:#000000;stroke-linecap:round;stroke-width:1.5;"/>
   </g>
   <g id="line2d_69">
    <path clip-path="url(#pe9cecae26e)" d="M 517.841 132.7625 
L 529.991 132.7625 
L 542.141 132.7625 
" style="fill:none;stroke:#000000;stroke-linecap:round;stroke-width:1.5;"/>
   </g>
   <g id="line2d_70">
    <path clip-path="url(#pe9cecae26e)" d="M 542.141 132.7625 
L 542.141 153.6875 
L 542.141 174.6125 
" style="fill:none;stroke:#000000;stroke-linecap:round;stroke-width:1.5;"/>
   </g>
   <g id="line2d_71">
    <path clip-path="url(#pe9cecae26e)" d="M 542.141 174.6125 
L 652.949 174.6125 
L 763.757 174.6125 
" style="fill:none;stroke:#000000;stroke-linecap:round;stroke-width:1.5;"/>
   </g>
   <g id="line2d_72">
    <path clip-path="url(#pe9cecae26e)" d="M 763.757 174.6125 
L 763.757 164.15 
L 763.757 153.6875 
" style="fill:none;stroke:#000000;stroke-linecap:round;stroke-width:1.5;"/>
   </g>
   <g id="line2d_73">
    <path clip-path="url(#pe9cecae26e)" d="M 350.981 104.8625 
L 326.681 104.8625 
L 302.381 104.8625 
" style="fill:none;stroke:#000000;stroke-linecap:round;stroke-width:1.5;"/>
   </g>
   <g id="line2d_74">
    <path clip-path="url(#pe9cecae26e)" d="M 348.551 90.9125 
L 325.408143 90.9125 
L 302.265286 90.9125 
" style="fill:none;stroke:#000000;stroke-linecap:round;stroke-width:1.5;"/>
   </g>
   <g id="line2d_75">
    <path clip-path="url(#pe9cecae26e)" d="M 577.781 111.8375 
L 565.631 111.8375 
L 553.481 111.8375 
" style="fill:none;stroke:#000000;stroke-linecap:round;stroke-width:1.5;"/>
   </g>
   <g id="line2d_76">
    <path clip-path="url(#pe9cecae26e)" d="M 553.481 111.8375 
L 553.481 139.7375 
L 553.481 167.6375 
" style="fill:none;stroke:#000000;stroke-linecap:round;stroke-width:1.5;"/>
   </g>
   <g id="line2d_77">
    <path clip-path="url(#pe9cecae26e)" d="M 553.481 167.6375 
L 431.981 167.6375 
L 310.481 167.6375 
" style="fill:none;stroke:#000000;stroke-linecap:round;stroke-width:1.5;"/>
   </g>
   <g id="patch_4">
    <path clip-path="url(#pe9cecae26e)" d="M 684.701 113.93 
C 685.345444 113.93 685.963579 113.709521 686.419269 113.317121 
C 686.87496 112.924721 687.131 112.392437 687.131 111.8375 
C 687.131 111.282563 686.87496 110.750279 686.419269 110.357879 
C 685.963579 109.965479 685.345444 109.745 684.701 109.745 
C 684.056556 109.745 683.438421 109.965479 682.982731 110.357879 
C 682.52704 110.750279 682.271 111.282563 682.271 111.8375 
C 682.271 112.392437 682.52704 112.924721 682.982731 113.317121 
C 683.438421 113.709521 684.056556 113.93 684.701 113.93 
z
" style="stroke:#000000;stroke-linejoin:miter;stroke-width:1.5;"/>
   </g>
   <g id="patch_5">
    <path clip-path="url(#pe9cecae26e)" d="M 587.501 99.98 
C 588.145444 99.98 588.763579 99.759521 589.219269 99.367121 
C 589.67496 98.974721 589.931 98.442437 589.931 97.8875 
C 589.931 97.332563 589.67496 96.800279 589.219269 96.407879 
C 588.763579 96.015479 588.145444 95.795 587.501 95.795 
C 586.856556 95.795 586.238421 96.015479 585.782731 96.407879 
C 585.32704 96.800279 585.071 97.332563 585.071 97.8875 
C 585.071 98.442437 585.32704 98.974721 585.782731 99.367121 
C 586.238421 99.759521 586.856556 99.98 587.501 99.98 
z
" style="stroke:#000000;stroke-linejoin:miter;stroke-width:1.5;"/>
   </g>
   <g id="patch_6">
    <path clip-path="url(#pe9cecae26e)" d="M 652.301 150.182868 
C 653.33211 150.182868 654.321127 149.830102 655.050231 149.202262 
C 655.779336 148.574422 656.189 147.722768 656.189 146.834868 
C 656.189 145.946968 655.779336 145.095315 655.050231 144.467475 
C 654.321127 143.839635 653.33211 143.486868 652.301 143.486868 
C 651.26989 143.486868 650.280873 143.839635 649.551769 144.467475 
C 648.822664 145.095315 648.413 145.946968 648.413 146.834868 
C 648.413 147.722768 648.822664 148.574422 649.551769 149.202262 
C 650.280873 149.830102 651.26989 150.182868 652.301 150.182868 
z
" style="fill:none;stroke:#000000;stroke-linejoin:miter;stroke-width:1.5;"/>
   </g>
   <g id="patch_7">
    <path clip-path="url(#pe9cecae26e)" d="M 457.901 106.955 
C 458.545444 106.955 459.163579 106.734521 459.619269 106.342121 
C 460.07496 105.949721 460.331 105.417437 460.331 104.8625 
C 460.331 104.307563 460.07496 103.775279 459.619269 103.382879 
C 459.163579 102.990479 458.545444 102.77 457.901 102.77 
C 457.256556 102.77 456.638421 102.990479 456.182731 103.382879 
C 455.72704 103.775279 455.471 104.307563 455.471 104.8625 
C 455.471 105.417437 455.72704 105.949721 456.182731 106.342121 
C 456.638421 106.734521 457.256556 106.955 457.901 106.955 
z
" style="stroke:#000000;stroke-linejoin:miter;stroke-width:1.5;"/>
   </g>
   <g id="patch_8">
    <path clip-path="url(#pe9cecae26e)" d="M 360.701 93.005 
C 361.345444 93.005 361.963579 92.784521 362.419269 92.392121 
C 362.87496 91.999721 363.131 91.467437 363.131 90.9125 
C 363.131 90.357563 362.87496 89.825279 362.419269 89.432879 
C 361.963579 89.040479 361.345444 88.82 360.701 88.82 
C 360.056556 88.82 359.438421 89.040479 358.982731 89.432879 
C 358.52704 89.825279 358.271 90.357563 358.271 90.9125 
C 358.271 91.467437 358.52704 91.999721 358.982731 92.392121 
C 359.438421 92.784521 360.056556 93.005 360.701 93.005 
z
" style="stroke:#000000;stroke-linejoin:miter;stroke-width:1.5;"/>
   </g>
   <g id="patch_9">
    <path clip-path="url(#pe9cecae26e)" d="M 425.501 143.207868 
C 426.53211 143.207868 427.521127 142.855102 428.250231 142.227262 
C 428.979336 141.599422 429.389 140.747768 429.389 139.859868 
C 429.389 138.971968 428.979336 138.120315 428.250231 137.492475 
C 427.521127 136.864635 426.53211 136.511868 425.501 136.511868 
C 424.46989 136.511868 423.480873 136.864635 422.751769 137.492475 
C 422.022664 138.120315 421.613 138.971968 421.613 139.859868 
C 421.613 140.747768 422.022664 141.599422 422.751769 142.227262 
C 423.480873 142.855102 424.46989 143.207868 425.501 143.207868 
z
" style="fill:none;stroke:#000000;stroke-linejoin:miter;stroke-width:1.5;"/>
   </g>
   <g id="text_1">
    <!-- FullSubstractor -->
    <defs>
     <path d="M 9.8125 72.90625 
L 51.703125 72.90625 
L 51.703125 64.59375 
L 19.671875 64.59375 
L 19.671875 43.109375 
L 48.578125 43.109375 
L 48.578125 34.8125 
L 19.671875 34.8125 
L 19.671875 0 
L 9.8125 0 
z
" id="DejaVuSans-46"/>
     <path d="M 8.5 21.578125 
L 8.5 54.6875 
L 17.484375 54.6875 
L 17.484375 21.921875 
Q 17.484375 14.15625 20.5 10.265625 
Q 23.53125 6.390625 29.59375 6.390625 
Q 36.859375 6.390625 41.078125 11.03125 
Q 45.3125 15.671875 45.3125 23.6875 
L 45.3125 54.6875 
L 54.296875 54.6875 
L 54.296875 0 
L 45.3125 0 
L 45.3125 8.40625 
Q 42.046875 3.421875 37.71875 1 
Q 33.40625 -1.421875 27.6875 -1.421875 
Q 18.265625 -1.421875 13.375 4.4375 
Q 8.5 10.296875 8.5 21.578125 
z
M 31.109375 56 
z
" id="DejaVuSans-75"/>
     <path d="M 9.421875 75.984375 
L 18.40625 75.984375 
L 18.40625 0 
L 9.421875 0 
z
" id="DejaVuSans-6c"/>
     <path d="M 53.515625 70.515625 
L 53.515625 60.890625 
Q 47.90625 63.578125 42.921875 64.890625 
Q 37.9375 66.21875 33.296875 66.21875 
Q 25.25 66.21875 20.875 63.09375 
Q 16.5 59.96875 16.5 54.203125 
Q 16.5 49.359375 19.40625 46.890625 
Q 22.3125 44.4375 30.421875 42.921875 
L 36.375 41.703125 
Q 47.40625 39.59375 52.65625 34.296875 
Q 57.90625 29 57.90625 20.125 
Q 57.90625 9.515625 50.796875 4.046875 
Q 43.703125 -1.421875 29.984375 -1.421875 
Q 24.8125 -1.421875 18.96875 -0.25 
Q 13.140625 0.921875 6.890625 3.21875 
L 6.890625 13.375 
Q 12.890625 10.015625 18.65625 8.296875 
Q 24.421875 6.59375 29.984375 6.59375 
Q 38.421875 6.59375 43.015625 9.90625 
Q 47.609375 13.234375 47.609375 19.390625 
Q 47.609375 24.75 44.3125 27.78125 
Q 41.015625 30.8125 33.5 32.328125 
L 27.484375 33.5 
Q 16.453125 35.6875 11.515625 40.375 
Q 6.59375 45.0625 6.59375 53.421875 
Q 6.59375 63.09375 13.40625 68.65625 
Q 20.21875 74.21875 32.171875 74.21875 
Q 37.3125 74.21875 42.625 73.28125 
Q 47.953125 72.359375 53.515625 70.515625 
z
" id="DejaVuSans-53"/>
     <path d="M 48.6875 27.296875 
Q 48.6875 37.203125 44.609375 42.84375 
Q 40.53125 48.484375 33.40625 48.484375 
Q 26.265625 48.484375 22.1875 42.84375 
Q 18.109375 37.203125 18.109375 27.296875 
Q 18.109375 17.390625 22.1875 11.75 
Q 26.265625 6.109375 33.40625 6.109375 
Q 40.53125 6.109375 44.609375 11.75 
Q 48.6875 17.390625 48.6875 27.296875 
z
M 18.109375 46.390625 
Q 20.953125 51.265625 25.265625 53.625 
Q 29.59375 56 35.59375 56 
Q 45.5625 56 51.78125 48.09375 
Q 58.015625 40.1875 58.015625 27.296875 
Q 58.015625 14.40625 51.78125 6.484375 
Q 45.5625 -1.421875 35.59375 -1.421875 
Q 29.59375 -1.421875 25.265625 0.953125 
Q 20.953125 3.328125 18.109375 8.203125 
L 18.109375 0 
L 9.078125 0 
L 9.078125 75.984375 
L 18.109375 75.984375 
z
" id="DejaVuSans-62"/>
     <path d="M 44.28125 53.078125 
L 44.28125 44.578125 
Q 40.484375 46.53125 36.375 47.5 
Q 32.28125 48.484375 27.875 48.484375 
Q 21.1875 48.484375 17.84375 46.4375 
Q 14.5 44.390625 14.5 40.28125 
Q 14.5 37.15625 16.890625 35.375 
Q 19.28125 33.59375 26.515625 31.984375 
L 29.59375 31.296875 
Q 39.15625 29.25 43.1875 25.515625 
Q 47.21875 21.78125 47.21875 15.09375 
Q 47.21875 7.46875 41.1875 3.015625 
Q 35.15625 -1.421875 24.609375 -1.421875 
Q 20.21875 -1.421875 15.453125 -0.5625 
Q 10.6875 0.296875 5.421875 2 
L 5.421875 11.28125 
Q 10.40625 8.6875 15.234375 7.390625 
Q 20.0625 6.109375 24.8125 6.109375 
Q 31.15625 6.109375 34.5625 8.28125 
Q 37.984375 10.453125 37.984375 14.40625 
Q 37.984375 18.0625 35.515625 20.015625 
Q 33.0625 21.96875 24.703125 23.78125 
L 21.578125 24.515625 
Q 13.234375 26.265625 9.515625 29.90625 
Q 5.8125 33.546875 5.8125 39.890625 
Q 5.8125 47.609375 11.28125 51.796875 
Q 16.75 56 26.8125 56 
Q 31.78125 56 36.171875 55.265625 
Q 40.578125 54.546875 44.28125 53.078125 
z
" id="DejaVuSans-73"/>
     <path d="M 18.3125 70.21875 
L 18.3125 54.6875 
L 36.8125 54.6875 
L 36.8125 47.703125 
L 18.3125 47.703125 
L 18.3125 18.015625 
Q 18.3125 11.328125 20.140625 9.421875 
Q 21.96875 7.515625 27.59375 7.515625 
L 36.8125 7.515625 
L 36.8125 0 
L 27.59375 0 
Q 17.1875 0 13.234375 3.875 
Q 9.28125 7.765625 9.28125 18.015625 
L 9.28125 47.703125 
L 2.6875 47.703125 
L 2.6875 54.6875 
L 9.28125 54.6875 
L 9.28125 70.21875 
z
" id="DejaVuSans-74"/>
     <path d="M 41.109375 46.296875 
Q 39.59375 47.171875 37.8125 47.578125 
Q 36.03125 48 33.890625 48 
Q 26.265625 48 22.1875 43.046875 
Q 18.109375 38.09375 18.109375 28.8125 
L 18.109375 0 
L 9.078125 0 
L 9.078125 54.6875 
L 18.109375 54.6875 
L 18.109375 46.1875 
Q 20.953125 51.171875 25.484375 53.578125 
Q 30.03125 56 36.53125 56 
Q 37.453125 56 38.578125 55.875 
Q 39.703125 55.765625 41.0625 55.515625 
z
" id="DejaVuSans-72"/>
     <path d="M 34.28125 27.484375 
Q 23.390625 27.484375 19.1875 25 
Q 14.984375 22.515625 14.984375 16.5 
Q 14.984375 11.71875 18.140625 8.90625 
Q 21.296875 6.109375 26.703125 6.109375 
Q 34.1875 6.109375 38.703125 11.40625 
Q 43.21875 16.703125 43.21875 25.484375 
L 43.21875 27.484375 
z
M 52.203125 31.203125 
L 52.203125 0 
L 43.21875 0 
L 43.21875 8.296875 
Q 40.140625 3.328125 35.546875 0.953125 
Q 30.953125 -1.421875 24.3125 -1.421875 
Q 15.921875 -1.421875 10.953125 3.296875 
Q 6 8.015625 6 15.921875 
Q 6 25.140625 12.171875 29.828125 
Q 18.359375 34.515625 30.609375 34.515625 
L 43.21875 34.515625 
L 43.21875 35.40625 
Q 43.21875 41.609375 39.140625 45 
Q 35.0625 48.390625 27.6875 48.390625 
Q 23 48.390625 18.546875 47.265625 
Q 14.109375 46.140625 10.015625 43.890625 
L 10.015625 52.203125 
Q 14.9375 54.109375 19.578125 55.046875 
Q 24.21875 56 28.609375 56 
Q 40.484375 56 46.34375 49.84375 
Q 52.203125 43.703125 52.203125 31.203125 
z
" id="DejaVuSans-61"/>
     <path d="M 48.78125 52.59375 
L 48.78125 44.1875 
Q 44.96875 46.296875 41.140625 47.34375 
Q 37.3125 48.390625 33.40625 48.390625 
Q 24.65625 48.390625 19.8125 42.84375 
Q 14.984375 37.3125 14.984375 27.296875 
Q 14.984375 17.28125 19.8125 11.734375 
Q 24.65625 6.203125 33.40625 6.203125 
Q 37.3125 6.203125 41.140625 7.25 
Q 44.96875 8.296875 48.78125 10.40625 
L 48.78125 2.09375 
Q 45.015625 0.34375 40.984375 -0.53125 
Q 36.96875 -1.421875 32.421875 -1.421875 
Q 20.0625 -1.421875 12.78125 6.34375 
Q 5.515625 14.109375 5.515625 27.296875 
Q 5.515625 40.671875 12.859375 48.328125 
Q 20.21875 56 33.015625 56 
Q 37.15625 56 41.109375 55.140625 
Q 45.0625 54.296875 48.78125 52.59375 
z
" id="DejaVuSans-63"/>
     <path d="M 30.609375 48.390625 
Q 23.390625 48.390625 19.1875 42.75 
Q 14.984375 37.109375 14.984375 27.296875 
Q 14.984375 17.484375 19.15625 11.84375 
Q 23.34375 6.203125 30.609375 6.203125 
Q 37.796875 6.203125 41.984375 11.859375 
Q 46.1875 17.53125 46.1875 27.296875 
Q 46.1875 37.015625 41.984375 42.703125 
Q 37.796875 48.390625 30.609375 48.390625 
z
M 30.609375 56 
Q 42.328125 56 49.015625 48.375 
Q 55.71875 40.765625 55.71875 27.296875 
Q 55.71875 13.875 49.015625 6.21875 
Q 42.328125 -1.421875 30.609375 -1.421875 
Q 18.84375 -1.421875 12.171875 6.21875 
Q 5.515625 13.875 5.515625 27.296875 
Q 5.515625 40.765625 12.171875 48.375 
Q 18.84375 56 30.609375 56 
z
" id="DejaVuSans-6f"/>
    </defs>
    <g transform="translate(81.44975 81.3775)scale(0.16 -0.16)">
     <use xlink:href="#DejaVuSans-46"/>
     <use x="57.441406" xlink:href="#DejaVuSans-75"/>
     <use x="120.820312" xlink:href="#DejaVuSans-6c"/>
     <use x="148.603516" xlink:href="#DejaVuSans-6c"/>
     <use x="176.386719" xlink:href="#DejaVuSans-53"/>
     <use x="239.863281" xlink:href="#DejaVuSans-75"/>
     <use x="303.242188" xlink:href="#DejaVuSans-62"/>
     <use x="366.71875" xlink:href="#DejaVuSans-73"/>
     <use x="418.818359" xlink:href="#DejaVuSans-74"/>
     <use x="458.027344" xlink:href="#DejaVuSans-72"/>
     <use x="499.140625" xlink:href="#DejaVuSans-61"/>
     <use x="560.419922" xlink:href="#DejaVuSans-63"/>
     <use x="615.400391" xlink:href="#DejaVuSans-74"/>
     <use x="654.609375" xlink:href="#DejaVuSans-6f"/>
     <use x="715.791016" xlink:href="#DejaVuSans-72"/>
    </g>
   </g>
   <g id="text_2">
    <!-- $B_{out}$ -->
    <defs>
     <path d="M 19.671875 34.8125 
L 19.671875 8.109375 
L 35.5 8.109375 
Q 43.453125 8.109375 47.28125 11.40625 
Q 51.125 14.703125 51.125 21.484375 
Q 51.125 28.328125 47.28125 31.5625 
Q 43.453125 34.8125 35.5 34.8125 
z
M 19.671875 64.796875 
L 19.671875 42.828125 
L 34.28125 42.828125 
Q 41.5 42.828125 45.03125 45.53125 
Q 48.578125 48.25 48.578125 53.8125 
Q 48.578125 59.328125 45.03125 62.0625 
Q 41.5 64.796875 34.28125 64.796875 
z
M 9.8125 72.90625 
L 35.015625 72.90625 
Q 46.296875 72.90625 52.390625 68.21875 
Q 58.5 63.53125 58.5 54.890625 
Q 58.5 48.1875 55.375 44.234375 
Q 52.25 40.28125 46.1875 39.3125 
Q 53.46875 37.75 57.5 32.78125 
Q 61.53125 27.828125 61.53125 20.40625 
Q 61.53125 10.640625 54.890625 5.3125 
Q 48.25 0 35.984375 0 
L 9.8125 0 
z
" id="DejaVuSans-42"/>
    </defs>
    <g transform="translate(73.961 102.3025)scale(0.16 -0.16)">
     <use transform="translate(0 0.09375)" xlink:href="#DejaVuSans-42"/>
     <use transform="translate(69.560547 -16.3125)scale(0.7)" xlink:href="#DejaVuSans-6f"/>
     <use transform="translate(112.387695 -16.3125)scale(0.7)" xlink:href="#DejaVuSans-75"/>
     <use transform="translate(156.75293 -16.3125)scale(0.7)" xlink:href="#DejaVuSans-74"/>
    </g>
   </g>
   <g id="text_3">
    <!-- $B_{in}$ -->
    <defs>
     <path d="M 9.421875 54.6875 
L 18.40625 54.6875 
L 18.40625 0 
L 9.421875 0 
z
M 9.421875 75.984375 
L 18.40625 75.984375 
L 18.40625 64.59375 
L 9.421875 64.59375 
z
" id="DejaVuSans-69"/>
     <path d="M 54.890625 33.015625 
L 54.890625 0 
L 45.90625 0 
L 45.90625 32.71875 
Q 45.90625 40.484375 42.875 44.328125 
Q 39.84375 48.1875 33.796875 48.1875 
Q 26.515625 48.1875 22.3125 43.546875 
Q 18.109375 38.921875 18.109375 30.90625 
L 18.109375 0 
L 9.078125 0 
L 9.078125 54.6875 
L 18.109375 54.6875 
L 18.109375 46.1875 
Q 21.34375 51.125 25.703125 53.5625 
Q 30.078125 56 35.796875 56 
Q 45.21875 56 50.046875 50.171875 
Q 54.890625 44.34375 54.890625 33.015625 
z
" id="DejaVuSans-6e"/>
    </defs>
    <g transform="translate(188.121 102.3025)scale(0.16 -0.16)">
     <use transform="translate(0 0.09375)" xlink:href="#DejaVuSans-42"/>
     <use transform="translate(69.560547 -16.3125)scale(0.7)" xlink:href="#DejaVuSans-69"/>
     <use transform="translate(89.008789 -16.3125)scale(0.7)" xlink:href="#DejaVuSans-6e"/>
    </g>
   </g>
   <g id="text_4">
    <!-- B -->
    <g transform="translate(100.06225 51.455)scale(0.16 -0.16)">
     <use xlink:href="#DejaVuSans-42"/>
    </g>
   </g>
   <g id="text_5">
    <!-- A -->
    <defs>
     <path d="M 34.1875 63.1875 
L 20.796875 26.90625 
L 47.609375 26.90625 
z
M 28.609375 72.90625 
L 39.796875 72.90625 
L 67.578125 0 
L 57.328125 0 
L 50.6875 18.703125 
L 17.828125 18.703125 
L 11.1875 0 
L 0.78125 0 
z
" id="DejaVuSans-41"/>
    </defs>
    <g transform="translate(172.9785 51.455)scale(0.16 -0.16)">
     <use xlink:href="#DejaVuSans-41"/>
    </g>
   </g>
   <g id="text_6">
    <!-- $Diff$ -->
    <defs>
     <path d="M 19.671875 64.796875 
L 19.671875 8.109375 
L 31.59375 8.109375 
Q 46.6875 8.109375 53.6875 14.9375 
Q 60.6875 21.78125 60.6875 36.53125 
Q 60.6875 51.171875 53.6875 57.984375 
Q 46.6875 64.796875 31.59375 64.796875 
z
M 9.8125 72.90625 
L 30.078125 72.90625 
Q 51.265625 72.90625 61.171875 64.09375 
Q 71.09375 55.28125 71.09375 36.53125 
Q 71.09375 17.671875 61.125 8.828125 
Q 51.171875 0 30.078125 0 
L 9.8125 0 
z
" id="DejaVuSans-44"/>
     <path d="M 37.109375 75.984375 
L 37.109375 68.5 
L 28.515625 68.5 
Q 23.6875 68.5 21.796875 66.546875 
Q 19.921875 64.59375 19.921875 59.515625 
L 19.921875 54.6875 
L 34.71875 54.6875 
L 34.71875 47.703125 
L 19.921875 47.703125 
L 19.921875 0 
L 10.890625 0 
L 10.890625 47.703125 
L 2.296875 47.703125 
L 2.296875 54.6875 
L 10.890625 54.6875 
L 10.890625 58.5 
Q 10.890625 67.625 15.140625 71.796875 
Q 19.390625 75.984375 28.609375 75.984375 
z
" id="DejaVuSans-66"/>
    </defs>
    <g transform="translate(127.921 153.15)scale(0.16 -0.16)">
     <use transform="translate(0 0.015625)" xlink:href="#DejaVuSans-44"/>
     <use transform="translate(77.001953 0.015625)" xlink:href="#DejaVuSans-69"/>
     <use transform="translate(104.785156 0.015625)" xlink:href="#DejaVuSans-66"/>
     <use transform="translate(139.990234 0.015625)" xlink:href="#DejaVuSans-66"/>
    </g>
   </g>
   <g id="text_7">
    <!-- Diff -->
    <g transform="translate(835.361 109.2775)scale(0.16 -0.16)">
     <use xlink:href="#DejaVuSans-44"/>
     <use x="77.001953" xlink:href="#DejaVuSans-69"/>
     <use x="104.785156" xlink:href="#DejaVuSans-66"/>
     <use x="139.990234" xlink:href="#DejaVuSans-66"/>
    </g>
   </g>
   <g id="text_8">
    <!-- $B_{out}$ -->
    <g transform="translate(828.881 151.1275)scale(0.16 -0.16)">
     <use transform="translate(0 0.09375)" xlink:href="#DejaVuSans-42"/>
     <use transform="translate(69.560547 -16.3125)scale(0.7)" xlink:href="#DejaVuSans-6f"/>
     <use transform="translate(112.387695 -16.3125)scale(0.7)" xlink:href="#DejaVuSans-75"/>
     <use transform="translate(156.75293 -16.3125)scale(0.7)" xlink:href="#DejaVuSans-74"/>
    </g>
   </g>
   <g id="text_9">
    <!-- B -->
    <g transform="translate(288.1635 109.2775)scale(0.16 -0.16)">
     <use xlink:href="#DejaVuSans-42"/>
    </g>
   </g>
   <g id="text_10">
    <!-- A -->
    <g transform="translate(288.080286 95.3275)scale(0.16 -0.16)">
     <use xlink:href="#DejaVuSans-41"/>
    </g>
   </g>
   <g id="text_11">
    <!-- $B_{in}$ -->
    <g transform="translate(285.321 172.0525)scale(0.16 -0.16)">
     <use transform="translate(0 0.09375)" xlink:href="#DejaVuSans-42"/>
     <use transform="translate(69.560547 -16.3125)scale(0.7)" xlink:href="#DejaVuSans-69"/>
     <use transform="translate(89.008789 -16.3125)scale(0.7)" xlink:href="#DejaVuSans-6e"/>
    </g>
   </g>
  </g>
 </g>
 <defs>
  <clipPath id="pe9cecae26e">
   <rect height="174.375" width="863.622" x="10.7" y="10.7"/>
  </clipPath>
 </defs>
</svg>
