<?xml version="1.0" encoding="utf-8" standalone="no"?>
<!DOCTYPE svg PUBLIC "-//W3C//DTD SVG 1.1//EN"
  "http://www.w3.org/Graphics/SVG/1.1/DTD/svg11.dtd">
<!-- Created with matplotlib (http://matplotlib.org/) -->
<svg height="274.15pt" version="1.1" viewBox="0 0 731.77 274.15" width="731.77pt" xmlns="http://www.w3.org/2000/svg" xmlns:xlink="http://www.w3.org/1999/xlink">
 <defs>
  <style type="text/css">
*{stroke-linecap:butt;stroke-linejoin:round;}
  </style>
 </defs>
 <g id="figure_1">
  <g id="patch_1">
   <path d="M 0 274.15 
L 731.77 274.15 
L 731.77 0 
L 0 0 
z
" style="fill:none;"/>
  </g>
  <g id="axes_1">
   <g id="line2d_1">
    <path clip-path="url(#p0e8dab379f)" d="M 135.035 220.775 
L 135.035 234.725 
" style="fill:none;stroke:#000000;stroke-linecap:round;stroke-width:1.5;"/>
   </g>
   <g id="line2d_2">
    <path clip-path="url(#p0e8dab379f)" d="M 86.435 220.775 
L 183.635 220.775 
L 183.635 137.075 
L 86.435 137.075 
L 86.435 220.775 
" style="fill:none;stroke:#000000;stroke-linecap:round;stroke-width:1.5;"/>
   </g>
   <g id="line2d_3">
    <path clip-path="url(#p0e8dab379f)" d="M 86.435 178.925 
L 70.235 178.925 
" style="fill:none;stroke:#000000;stroke-linecap:round;stroke-width:1.5;"/>
   </g>
   <g id="line2d_4">
    <path clip-path="url(#p0e8dab379f)" d="M 183.635 178.925 
L 199.835 178.925 
" style="fill:none;stroke:#000000;stroke-linecap:round;stroke-width:1.5;"/>
   </g>
   <g id="line2d_5">
    <path clip-path="url(#p0e8dab379f)" d="M 110.735 137.075 
L 110.735 123.125 
" style="fill:none;stroke:#000000;stroke-linecap:round;stroke-width:1.5;"/>
   </g>
   <g id="line2d_6">
    <path clip-path="url(#p0e8dab379f)" d="M 159.335 137.075 
L 159.335 123.125 
" style="fill:none;stroke:#000000;stroke-linecap:round;stroke-width:1.5;"/>
   </g>
   <g id="line2d_7">
    <path clip-path="url(#p0e8dab379f)" d="M 199.835 178.925 
L 211.985 178.925 
L 224.135 178.925 
" style="fill:none;stroke:#000000;stroke-linecap:round;stroke-width:1.5;"/>
   </g>
   <g id="line2d_8">
    <path clip-path="url(#p0e8dab379f)" d="M 288.935 220.775 
L 288.935 234.725 
" style="fill:none;stroke:#000000;stroke-linecap:round;stroke-width:1.5;"/>
   </g>
   <g id="line2d_9">
    <path clip-path="url(#p0e8dab379f)" d="M 240.335 220.775 
L 337.535 220.775 
L 337.535 137.075 
L 240.335 137.075 
L 240.335 220.775 
" style="fill:none;stroke:#000000;stroke-linecap:round;stroke-width:1.5;"/>
   </g>
   <g id="line2d_10">
    <path clip-path="url(#p0e8dab379f)" d="M 240.335 178.925 
L 224.135 178.925 
" style="fill:none;stroke:#000000;stroke-linecap:round;stroke-width:1.5;"/>
   </g>
   <g id="line2d_11">
    <path clip-path="url(#p0e8dab379f)" d="M 337.535 178.925 
L 353.735 178.925 
" style="fill:none;stroke:#000000;stroke-linecap:round;stroke-width:1.5;"/>
   </g>
   <g id="line2d_12">
    <path clip-path="url(#p0e8dab379f)" d="M 264.635 137.075 
L 264.635 123.125 
" style="fill:none;stroke:#000000;stroke-linecap:round;stroke-width:1.5;"/>
   </g>
   <g id="line2d_13">
    <path clip-path="url(#p0e8dab379f)" d="M 313.235 137.075 
L 313.235 123.125 
" style="fill:none;stroke:#000000;stroke-linecap:round;stroke-width:1.5;"/>
   </g>
   <g id="line2d_14">
    <path clip-path="url(#p0e8dab379f)" d="M 353.735 178.925 
L 365.885 178.925 
L 378.035 178.925 
" style="fill:none;stroke:#000000;stroke-linecap:round;stroke-width:1.5;"/>
   </g>
   <g id="line2d_15">
    <path clip-path="url(#p0e8dab379f)" d="M 442.835 220.775 
L 442.835 234.725 
" style="fill:none;stroke:#000000;stroke-linecap:round;stroke-width:1.5;"/>
   </g>
   <g id="line2d_16">
    <path clip-path="url(#p0e8dab379f)" d="M 394.235 220.775 
L 491.435 220.775 
L 491.435 137.075 
L 394.235 137.075 
L 394.235 220.775 
" style="fill:none;stroke:#000000;stroke-linecap:round;stroke-width:1.5;"/>
   </g>
   <g id="line2d_17">
    <path clip-path="url(#p0e8dab379f)" d="M 394.235 178.925 
L 378.035 178.925 
" style="fill:none;stroke:#000000;stroke-linecap:round;stroke-width:1.5;"/>
   </g>
   <g id="line2d_18">
    <path clip-path="url(#p0e8dab379f)" d="M 491.435 178.925 
L 507.635 178.925 
" style="fill:none;stroke:#000000;stroke-linecap:round;stroke-width:1.5;"/>
   </g>
   <g id="line2d_19">
    <path clip-path="url(#p0e8dab379f)" d="M 418.535 137.075 
L 418.535 123.125 
" style="fill:none;stroke:#000000;stroke-linecap:round;stroke-width:1.5;"/>
   </g>
   <g id="line2d_20">
    <path clip-path="url(#p0e8dab379f)" d="M 467.135 137.075 
L 467.135 123.125 
" style="fill:none;stroke:#000000;stroke-linecap:round;stroke-width:1.5;"/>
   </g>
   <g id="line2d_21">
    <path clip-path="url(#p0e8dab379f)" d="M 507.635 178.925 
L 519.785 178.925 
L 531.935 178.925 
" style="fill:none;stroke:#000000;stroke-linecap:round;stroke-width:1.5;"/>
   </g>
   <g id="line2d_22">
    <path clip-path="url(#p0e8dab379f)" d="M 596.735 220.775 
L 596.735 234.725 
" style="fill:none;stroke:#000000;stroke-linecap:round;stroke-width:1.5;"/>
   </g>
   <g id="line2d_23">
    <path clip-path="url(#p0e8dab379f)" d="M 548.135 220.775 
L 645.335 220.775 
L 645.335 137.075 
L 548.135 137.075 
L 548.135 220.775 
" style="fill:none;stroke:#000000;stroke-linecap:round;stroke-width:1.5;"/>
   </g>
   <g id="line2d_24">
    <path clip-path="url(#p0e8dab379f)" d="M 548.135 178.925 
L 531.935 178.925 
" style="fill:none;stroke:#000000;stroke-linecap:round;stroke-width:1.5;"/>
   </g>
   <g id="line2d_25">
    <path clip-path="url(#p0e8dab379f)" d="M 645.335 178.925 
L 661.535 178.925 
" style="fill:none;stroke:#000000;stroke-linecap:round;stroke-width:1.5;"/>
   </g>
   <g id="line2d_26">
    <path clip-path="url(#p0e8dab379f)" d="M 572.435 137.075 
L 572.435 123.125 
" style="fill:none;stroke:#000000;stroke-linecap:round;stroke-width:1.5;"/>
   </g>
   <g id="line2d_27">
    <path clip-path="url(#p0e8dab379f)" d="M 621.035 137.075 
L 621.035 123.125 
" style="fill:none;stroke:#000000;stroke-linecap:round;stroke-width:1.5;"/>
   </g>
   <g id="line2d_28">
    <path clip-path="url(#p0e8dab379f)" d="M 661.535 178.925 
L 673.685 178.925 
L 685.835 178.925 
" style="fill:none;stroke:#000000;stroke-linecap:round;stroke-width:1.5;"/>
   </g>
   <g id="line2d_29">
    <path clip-path="url(#p0e8dab379f)" d="M 596.735 234.725 
L 596.735 241.7 
L 596.735 248.675 
" style="fill:none;stroke:#000000;stroke-linecap:round;stroke-width:1.5;"/>
   </g>
   <g id="line2d_30">
    <path clip-path="url(#p0e8dab379f)" d="M 442.835 234.725 
L 442.835 241.7 
L 442.835 248.675 
" style="fill:none;stroke:#000000;stroke-linecap:round;stroke-width:1.5;"/>
   </g>
   <g id="line2d_31">
    <path clip-path="url(#p0e8dab379f)" d="M 288.935 234.725 
L 288.935 241.7 
L 288.935 248.675 
" style="fill:none;stroke:#000000;stroke-linecap:round;stroke-width:1.5;"/>
   </g>
   <g id="line2d_32">
    <path clip-path="url(#p0e8dab379f)" d="M 135.035 234.725 
L 135.035 241.7 
L 135.035 248.675 
" style="fill:none;stroke:#000000;stroke-linecap:round;stroke-width:1.5;"/>
   </g>
   <g id="line2d_33">
    <path clip-path="url(#p0e8dab379f)" d="M 70.235 178.925 
L 58.085 178.925 
L 45.935 178.925 
" style="fill:none;stroke:#000000;stroke-linecap:round;stroke-width:1.5;"/>
   </g>
   <g id="line2d_34">
    <path clip-path="url(#p0e8dab379f)" d="M 45.935 178.925 
L 45.935 213.8 
L 45.935 248.675 
" style="fill:none;stroke:#000000;stroke-linecap:round;stroke-width:1.5;"/>
   </g>
   <g id="line2d_35">
    <path clip-path="url(#p0e8dab379f)" d="M 159.335 123.125 
L 159.335 74.579 
L 159.335 26.033 
" style="fill:none;stroke:#000000;stroke-linecap:round;stroke-width:1.5;"/>
   </g>
   <g id="line2d_36">
    <path clip-path="url(#p0e8dab379f)" d="M 110.735 123.125 
L 110.735 116.15 
L 110.735 109.175 
" style="fill:none;stroke:#000000;stroke-linecap:round;stroke-width:1.5;"/>
   </g>
   <g id="line2d_37">
    <path clip-path="url(#p0e8dab379f)" d="M 313.235 123.125 
L 313.235 74.579 
L 313.235 26.033 
" style="fill:none;stroke:#000000;stroke-linecap:round;stroke-width:1.5;"/>
   </g>
   <g id="line2d_38">
    <path clip-path="url(#p0e8dab379f)" d="M 264.635 123.125 
L 264.635 116.15 
L 264.635 109.175 
" style="fill:none;stroke:#000000;stroke-linecap:round;stroke-width:1.5;"/>
   </g>
   <g id="line2d_39">
    <path clip-path="url(#p0e8dab379f)" d="M 467.135 123.125 
L 467.135 74.579 
L 467.135 26.033 
" style="fill:none;stroke:#000000;stroke-linecap:round;stroke-width:1.5;"/>
   </g>
   <g id="line2d_40">
    <path clip-path="url(#p0e8dab379f)" d="M 418.535 123.125 
L 418.535 116.15 
L 418.535 109.175 
" style="fill:none;stroke:#000000;stroke-linecap:round;stroke-width:1.5;"/>
   </g>
   <g id="line2d_41">
    <path clip-path="url(#p0e8dab379f)" d="M 621.035 123.125 
L 621.035 74.579 
L 621.035 26.033 
" style="fill:none;stroke:#000000;stroke-linecap:round;stroke-width:1.5;"/>
   </g>
   <g id="line2d_42">
    <path clip-path="url(#p0e8dab379f)" d="M 572.435 123.125 
L 572.435 116.15 
L 572.435 109.175 
" style="fill:none;stroke:#000000;stroke-linecap:round;stroke-width:1.5;"/>
   </g>
   <g id="line2d_43">
    <path clip-path="url(#p0e8dab379f)" d="M 110.735 25.475 
L 110.735 50.027 
L 110.735 59.792 
M 110.735 84.623 
L 110.735 109.175 
" style="fill:none;stroke:#000000;stroke-linecap:round;stroke-width:1.5;"/>
   </g>
   <g id="line2d_44">
    <path clip-path="url(#p0e8dab379f)" d="M 110.735 59.792 
L 126.935 59.792 
L 110.735 77.927 
L 94.535 59.792 
L 110.735 59.792 
" style="fill:none;stroke:#000000;stroke-linecap:round;stroke-width:1.5;"/>
   </g>
   <g id="line2d_45">
    <path clip-path="url(#p0e8dab379f)" d="M 110.735 84.623 
L 110.735 87.692 
" style="fill:none;stroke:#000000;stroke-linecap:round;stroke-width:1.5;"/>
   </g>
   <g id="line2d_46">
    <path clip-path="url(#p0e8dab379f)" d="M 264.635 25.475 
L 264.635 50.027 
L 264.635 59.792 
M 264.635 84.623 
L 264.635 109.175 
" style="fill:none;stroke:#000000;stroke-linecap:round;stroke-width:1.5;"/>
   </g>
   <g id="line2d_47">
    <path clip-path="url(#p0e8dab379f)" d="M 264.635 59.792 
L 280.835 59.792 
L 264.635 77.927 
L 248.435 59.792 
L 264.635 59.792 
" style="fill:none;stroke:#000000;stroke-linecap:round;stroke-width:1.5;"/>
   </g>
   <g id="line2d_48">
    <path clip-path="url(#p0e8dab379f)" d="M 264.635 84.623 
L 264.635 87.692 
" style="fill:none;stroke:#000000;stroke-linecap:round;stroke-width:1.5;"/>
   </g>
   <g id="line2d_49">
    <path clip-path="url(#p0e8dab379f)" d="M 418.535 25.475 
L 418.535 50.027 
L 418.535 59.792 
M 418.535 84.623 
L 418.535 109.175 
" style="fill:none;stroke:#000000;stroke-linecap:round;stroke-width:1.5;"/>
   </g>
   <g id="line2d_50">
    <path clip-path="url(#p0e8dab379f)" d="M 418.535 59.792 
L 434.735 59.792 
L 418.535 77.927 
L 402.335 59.792 
L 418.535 59.792 
" style="fill:none;stroke:#000000;stroke-linecap:round;stroke-width:1.5;"/>
   </g>
   <g id="line2d_51">
    <path clip-path="url(#p0e8dab379f)" d="M 418.535 84.623 
L 418.535 87.692 
" style="fill:none;stroke:#000000;stroke-linecap:round;stroke-width:1.5;"/>
   </g>
   <g id="line2d_52">
    <path clip-path="url(#p0e8dab379f)" d="M 572.435 25.475 
L 572.435 50.027 
L 572.435 59.792 
M 572.435 84.623 
L 572.435 109.175 
" style="fill:none;stroke:#000000;stroke-linecap:round;stroke-width:1.5;"/>
   </g>
   <g id="line2d_53">
    <path clip-path="url(#p0e8dab379f)" d="M 572.435 59.792 
L 588.635 59.792 
L 572.435 77.927 
L 556.235 59.792 
L 572.435 59.792 
" style="fill:none;stroke:#000000;stroke-linecap:round;stroke-width:1.5;"/>
   </g>
   <g id="line2d_54">
    <path clip-path="url(#p0e8dab379f)" d="M 572.435 84.623 
L 572.435 87.692 
" style="fill:none;stroke:#000000;stroke-linecap:round;stroke-width:1.5;"/>
   </g>
   <g id="patch_2">
    <path clip-path="url(#p0e8dab379f)" d="M 110.735 84.623 
C 111.76611 84.623 112.755127 84.270234 113.484231 83.642394 
C 114.213336 83.014553 114.623 82.1629 114.623 81.275 
C 114.623 80.3871 114.213336 79.535447 113.484231 78.907606 
C 112.755127 78.279766 111.76611 77.927 110.735 77.927 
C 109.70389 77.927 108.714873 78.279766 107.985769 78.907606 
C 107.256664 79.535447 106.847 80.3871 106.847 81.275 
C 106.847 82.1629 107.256664 83.014553 107.985769 83.642394 
C 108.714873 84.270234 109.70389 84.623 110.735 84.623 
z
" style="fill:none;stroke:#000000;stroke-linejoin:miter;stroke-width:1.5;"/>
   </g>
   <g id="patch_3">
    <path clip-path="url(#p0e8dab379f)" d="M 264.635 84.623 
C 265.66611 84.623 266.655127 84.270234 267.384231 83.642394 
C 268.113336 83.014553 268.523 82.1629 268.523 81.275 
C 268.523 80.3871 268.113336 79.535447 267.384231 78.907606 
C 266.655127 78.279766 265.66611 77.927 264.635 77.927 
C 263.60389 77.927 262.614873 78.279766 261.885769 78.907606 
C 261.156664 79.535447 260.747 80.3871 260.747 81.275 
C 260.747 82.1629 261.156664 83.014553 261.885769 83.642394 
C 262.614873 84.270234 263.60389 84.623 264.635 84.623 
z
" style="fill:none;stroke:#000000;stroke-linejoin:miter;stroke-width:1.5;"/>
   </g>
   <g id="patch_4">
    <path clip-path="url(#p0e8dab379f)" d="M 418.535 84.623 
C 419.56611 84.623 420.555127 84.270234 421.284231 83.642394 
C 422.013336 83.014553 422.423 82.1629 422.423 81.275 
C 422.423 80.3871 422.013336 79.535447 421.284231 78.907606 
C 420.555127 78.279766 419.56611 77.927 418.535 77.927 
C 417.50389 77.927 416.514873 78.279766 415.785769 78.907606 
C 415.056664 79.535447 414.647 80.3871 414.647 81.275 
C 414.647 82.1629 415.056664 83.014553 415.785769 83.642394 
C 416.514873 84.270234 417.50389 84.623 418.535 84.623 
z
" style="fill:none;stroke:#000000;stroke-linejoin:miter;stroke-width:1.5;"/>
   </g>
   <g id="patch_5">
    <path clip-path="url(#p0e8dab379f)" d="M 572.435 84.623 
C 573.46611 84.623 574.455127 84.270234 575.184231 83.642394 
C 575.913336 83.014553 576.323 82.1629 576.323 81.275 
C 576.323 80.3871 575.913336 79.535447 575.184231 78.907606 
C 574.455127 78.279766 573.46611 77.927 572.435 77.927 
C 571.40389 77.927 570.414873 78.279766 569.685769 78.907606 
C 568.956664 79.535447 568.547 80.3871 568.547 81.275 
C 568.547 82.1629 568.956664 83.014553 569.685769 83.642394 
C 570.414873 84.270234 571.40389 84.623 572.435 84.623 
z
" style="fill:none;stroke:#000000;stroke-linejoin:miter;stroke-width:1.5;"/>
   </g>
   <g id="text_1">
    <!-- FullAdder -->
    <defs>
     <path d="M 9.8125 72.90625 
L 51.703125 72.90625 
L 51.703125 64.59375 
L 19.671875 64.59375 
L 19.671875 43.109375 
L 48.578125 43.109375 
L 48.578125 34.8125 
L 19.671875 34.8125 
L 19.671875 0 
L 9.8125 0 
z
" id="DejaVuSans-46"/>
     <path d="M 8.5 21.578125 
L 8.5 54.6875 
L 17.484375 54.6875 
L 17.484375 21.921875 
Q 17.484375 14.15625 20.5 10.265625 
Q 23.53125 6.390625 29.59375 6.390625 
Q 36.859375 6.390625 41.078125 11.03125 
Q 45.3125 15.671875 45.3125 23.6875 
L 45.3125 54.6875 
L 54.296875 54.6875 
L 54.296875 0 
L 45.3125 0 
L 45.3125 8.40625 
Q 42.046875 3.421875 37.71875 1 
Q 33.40625 -1.421875 27.6875 -1.421875 
Q 18.265625 -1.421875 13.375 4.4375 
Q 8.5 10.296875 8.5 21.578125 
z
M 31.109375 56 
z
" id="DejaVuSans-75"/>
     <path d="M 9.421875 75.984375 
L 18.40625 75.984375 
L 18.40625 0 
L 9.421875 0 
z
" id="DejaVuSans-6c"/>
     <path d="M 34.1875 63.1875 
L 20.796875 26.90625 
L 47.609375 26.90625 
z
M 28.609375 72.90625 
L 39.796875 72.90625 
L 67.578125 0 
L 57.328125 0 
L 50.6875 18.703125 
L 17.828125 18.703125 
L 11.1875 0 
L 0.78125 0 
z
" id="DejaVuSans-41"/>
     <path d="M 45.40625 46.390625 
L 45.40625 75.984375 
L 54.390625 75.984375 
L 54.390625 0 
L 45.40625 0 
L 45.40625 8.203125 
Q 42.578125 3.328125 38.25 0.953125 
Q 33.9375 -1.421875 27.875 -1.421875 
Q 17.96875 -1.421875 11.734375 6.484375 
Q 5.515625 14.40625 5.515625 27.296875 
Q 5.515625 40.1875 11.734375 48.09375 
Q 17.96875 56 27.875 56 
Q 33.9375 56 38.25 53.625 
Q 42.578125 51.265625 45.40625 46.390625 
z
M 14.796875 27.296875 
Q 14.796875 17.390625 18.875 11.75 
Q 22.953125 6.109375 30.078125 6.109375 
Q 37.203125 6.109375 41.296875 11.75 
Q 45.40625 17.390625 45.40625 27.296875 
Q 45.40625 37.203125 41.296875 42.84375 
Q 37.203125 48.484375 30.078125 48.484375 
Q 22.953125 48.484375 18.875 42.84375 
Q 14.796875 37.203125 14.796875 27.296875 
z
" id="DejaVuSans-64"/>
     <path d="M 56.203125 29.59375 
L 56.203125 25.203125 
L 14.890625 25.203125 
Q 15.484375 15.921875 20.484375 11.0625 
Q 25.484375 6.203125 34.421875 6.203125 
Q 39.59375 6.203125 44.453125 7.46875 
Q 49.3125 8.734375 54.109375 11.28125 
L 54.109375 2.78125 
Q 49.265625 0.734375 44.1875 -0.34375 
Q 39.109375 -1.421875 33.890625 -1.421875 
Q 20.796875 -1.421875 13.15625 6.1875 
Q 5.515625 13.8125 5.515625 26.8125 
Q 5.515625 40.234375 12.765625 48.109375 
Q 20.015625 56 32.328125 56 
Q 43.359375 56 49.78125 48.890625 
Q 56.203125 41.796875 56.203125 29.59375 
z
M 47.21875 32.234375 
Q 47.125 39.59375 43.09375 43.984375 
Q 39.0625 48.390625 32.421875 48.390625 
Q 24.90625 48.390625 20.390625 44.140625 
Q 15.875 39.890625 15.1875 32.171875 
z
" id="DejaVuSans-65"/>
     <path d="M 41.109375 46.296875 
Q 39.59375 47.171875 37.8125 47.578125 
Q 36.03125 48 33.890625 48 
Q 26.265625 48 22.1875 43.046875 
Q 18.109375 38.09375 18.109375 28.8125 
L 18.109375 0 
L 9.078125 0 
L 9.078125 54.6875 
L 18.109375 54.6875 
L 18.109375 46.1875 
Q 20.953125 51.171875 25.484375 53.578125 
Q 30.03125 56 36.53125 56 
Q 37.453125 56 38.578125 55.875 
Q 39.703125 55.765625 41.0625 55.515625 
z
" id="DejaVuSans-72"/>
    </defs>
    <g transform="translate(97.085 169.39)scale(0.16 -0.16)">
     <use xlink:href="#DejaVuSans-46"/>
     <use x="57.441406" xlink:href="#DejaVuSans-75"/>
     <use x="120.820312" xlink:href="#DejaVuSans-6c"/>
     <use x="148.603516" xlink:href="#DejaVuSans-6c"/>
     <use x="176.386719" xlink:href="#DejaVuSans-41"/>
     <use x="244.779297" xlink:href="#DejaVuSans-64"/>
     <use x="308.255859" xlink:href="#DejaVuSans-64"/>
     <use x="371.732422" xlink:href="#DejaVuSans-65"/>
     <use x="433.255859" xlink:href="#DejaVuSans-72"/>
    </g>
   </g>
   <g id="text_2">
    <!-- $c_{out}$ -->
    <defs>
     <path d="M 48.78125 52.59375 
L 48.78125 44.1875 
Q 44.96875 46.296875 41.140625 47.34375 
Q 37.3125 48.390625 33.40625 48.390625 
Q 24.65625 48.390625 19.8125 42.84375 
Q 14.984375 37.3125 14.984375 27.296875 
Q 14.984375 17.28125 19.8125 11.734375 
Q 24.65625 6.203125 33.40625 6.203125 
Q 37.3125 6.203125 41.140625 7.25 
Q 44.96875 8.296875 48.78125 10.40625 
L 48.78125 2.09375 
Q 45.015625 0.34375 40.984375 -0.53125 
Q 36.96875 -1.421875 32.421875 -1.421875 
Q 20.0625 -1.421875 12.78125 6.34375 
Q 5.515625 14.109375 5.515625 27.296875 
Q 5.515625 40.671875 12.859375 48.328125 
Q 20.21875 56 33.015625 56 
Q 37.15625 56 41.109375 55.140625 
Q 45.0625 54.296875 48.78125 52.59375 
z
" id="DejaVuSans-63"/>
     <path d="M 30.609375 48.390625 
Q 23.390625 48.390625 19.1875 42.75 
Q 14.984375 37.109375 14.984375 27.296875 
Q 14.984375 17.484375 19.15625 11.84375 
Q 23.34375 6.203125 30.609375 6.203125 
Q 37.796875 6.203125 41.984375 11.859375 
Q 46.1875 17.53125 46.1875 27.296875 
Q 46.1875 37.015625 41.984375 42.703125 
Q 37.796875 48.390625 30.609375 48.390625 
z
M 30.609375 56 
Q 42.328125 56 49.015625 48.375 
Q 55.71875 40.765625 55.71875 27.296875 
Q 55.71875 13.875 49.015625 6.21875 
Q 42.328125 -1.421875 30.609375 -1.421875 
Q 18.84375 -1.421875 12.171875 6.21875 
Q 5.515625 13.875 5.515625 27.296875 
Q 5.515625 40.765625 12.171875 48.375 
Q 18.84375 56 30.609375 56 
z
" id="DejaVuSans-6f"/>
     <path d="M 18.3125 70.21875 
L 18.3125 54.6875 
L 36.8125 54.6875 
L 36.8125 47.703125 
L 18.3125 47.703125 
L 18.3125 18.015625 
Q 18.3125 11.328125 20.140625 9.421875 
Q 21.96875 7.515625 27.59375 7.515625 
L 36.8125 7.515625 
L 36.8125 0 
L 27.59375 0 
Q 17.1875 0 13.234375 3.875 
Q 9.28125 7.765625 9.28125 18.015625 
L 9.28125 47.703125 
L 2.6875 47.703125 
L 2.6875 54.6875 
L 9.28125 54.6875 
L 9.28125 70.21875 
z
" id="DejaVuSans-74"/>
    </defs>
    <g transform="translate(91.295 183.34)scale(0.16 -0.16)">
     <use xlink:href="#DejaVuSans-63"/>
     <use transform="translate(55.9375 -16.40625)scale(0.7)" xlink:href="#DejaVuSans-6f"/>
     <use transform="translate(98.764648 -16.40625)scale(0.7)" xlink:href="#DejaVuSans-75"/>
     <use transform="translate(143.129883 -16.40625)scale(0.7)" xlink:href="#DejaVuSans-74"/>
    </g>
   </g>
   <g id="text_3">
    <!-- $c_{in}$ -->
    <defs>
     <path d="M 9.421875 54.6875 
L 18.40625 54.6875 
L 18.40625 0 
L 9.421875 0 
z
M 9.421875 75.984375 
L 18.40625 75.984375 
L 18.40625 64.59375 
L 9.421875 64.59375 
z
" id="DejaVuSans-69"/>
     <path d="M 54.890625 33.015625 
L 54.890625 0 
L 45.90625 0 
L 45.90625 32.71875 
Q 45.90625 40.484375 42.875 44.328125 
Q 39.84375 48.1875 33.796875 48.1875 
Q 26.515625 48.1875 22.3125 43.546875 
Q 18.109375 38.921875 18.109375 30.90625 
L 18.109375 0 
L 9.078125 0 
L 9.078125 54.6875 
L 18.109375 54.6875 
L 18.109375 46.1875 
Q 21.34375 51.125 25.703125 53.5625 
Q 30.078125 56 35.796875 56 
Q 45.21875 56 50.046875 50.171875 
Q 54.890625 44.34375 54.890625 33.015625 
z
" id="DejaVuSans-6e"/>
    </defs>
    <g transform="translate(159.095 183.34)scale(0.16 -0.16)">
     <use xlink:href="#DejaVuSans-63"/>
     <use transform="translate(55.9375 -16.40625)scale(0.7)" xlink:href="#DejaVuSans-69"/>
     <use transform="translate(75.385742 -16.40625)scale(0.7)" xlink:href="#DejaVuSans-6e"/>
    </g>
   </g>
   <g id="text_4">
    <!-- b -->
    <defs>
     <path d="M 48.6875 27.296875 
Q 48.6875 37.203125 44.609375 42.84375 
Q 40.53125 48.484375 33.40625 48.484375 
Q 26.265625 48.484375 22.1875 42.84375 
Q 18.109375 37.203125 18.109375 27.296875 
Q 18.109375 17.390625 22.1875 11.75 
Q 26.265625 6.109375 33.40625 6.109375 
Q 40.53125 6.109375 44.609375 11.75 
Q 48.6875 17.390625 48.6875 27.296875 
z
M 18.109375 46.390625 
Q 20.953125 51.265625 25.265625 53.625 
Q 29.59375 56 35.59375 56 
Q 45.5625 56 51.78125 48.09375 
Q 58.015625 40.1875 58.015625 27.296875 
Q 58.015625 14.40625 51.78125 6.484375 
Q 45.5625 -1.421875 35.59375 -1.421875 
Q 29.59375 -1.421875 25.265625 0.953125 
Q 20.953125 3.328125 18.109375 8.203125 
L 18.109375 0 
L 9.078125 0 
L 9.078125 75.984375 
L 18.109375 75.984375 
z
" id="DejaVuSans-62"/>
    </defs>
    <g transform="translate(105.65625 153.4175)scale(0.16 -0.16)">
     <use xlink:href="#DejaVuSans-62"/>
    </g>
   </g>
   <g id="text_5">
    <!-- a -->
    <defs>
     <path d="M 34.28125 27.484375 
Q 23.390625 27.484375 19.1875 25 
Q 14.984375 22.515625 14.984375 16.5 
Q 14.984375 11.71875 18.140625 8.90625 
Q 21.296875 6.109375 26.703125 6.109375 
Q 34.1875 6.109375 38.703125 11.40625 
Q 43.21875 16.703125 43.21875 25.484375 
L 43.21875 27.484375 
z
M 52.203125 31.203125 
L 52.203125 0 
L 43.21875 0 
L 43.21875 8.296875 
Q 40.140625 3.328125 35.546875 0.953125 
Q 30.953125 -1.421875 24.3125 -1.421875 
Q 15.921875 -1.421875 10.953125 3.296875 
Q 6 8.015625 6 15.921875 
Q 6 25.140625 12.171875 29.828125 
Q 18.359375 34.515625 30.609375 34.515625 
L 43.21875 34.515625 
L 43.21875 35.40625 
Q 43.21875 41.609375 39.140625 45 
Q 35.0625 48.390625 27.6875 48.390625 
Q 23 48.390625 18.546875 47.265625 
Q 14.109375 46.140625 10.015625 43.890625 
L 10.015625 52.203125 
Q 14.9375 54.109375 19.578125 55.046875 
Q 24.21875 56 28.609375 56 
Q 40.484375 56 46.34375 49.84375 
Q 52.203125 43.703125 52.203125 31.203125 
z
" id="DejaVuSans-61"/>
    </defs>
    <g transform="translate(154.4325 153.4175)scale(0.16 -0.16)">
     <use xlink:href="#DejaVuSans-61"/>
    </g>
   </g>
   <g id="text_6">
    <!-- $s$ -->
    <defs>
     <path d="M 44.28125 53.078125 
L 44.28125 44.578125 
Q 40.484375 46.53125 36.375 47.5 
Q 32.28125 48.484375 27.875 48.484375 
Q 21.1875 48.484375 17.84375 46.4375 
Q 14.5 44.390625 14.5 40.28125 
Q 14.5 37.15625 16.890625 35.375 
Q 19.28125 33.59375 26.515625 31.984375 
L 29.59375 31.296875 
Q 39.15625 29.25 43.1875 25.515625 
Q 47.21875 21.78125 47.21875 15.09375 
Q 47.21875 7.46875 41.1875 3.015625 
Q 35.15625 -1.421875 24.609375 -1.421875 
Q 20.21875 -1.421875 15.453125 -0.5625 
Q 10.6875 0.296875 5.421875 2 
L 5.421875 11.28125 
Q 10.40625 8.6875 15.234375 7.390625 
Q 20.0625 6.109375 24.8125 6.109375 
Q 31.15625 6.109375 34.5625 8.28125 
Q 37.984375 10.453125 37.984375 14.40625 
Q 37.984375 18.0625 35.515625 20.015625 
Q 33.0625 21.96875 24.703125 23.78125 
L 21.578125 24.515625 
Q 13.234375 26.265625 9.515625 29.90625 
Q 5.8125 33.546875 5.8125 39.890625 
Q 5.8125 47.609375 11.28125 51.796875 
Q 16.75 56 26.8125 56 
Q 31.78125 56 36.171875 55.265625 
Q 40.578125 54.546875 44.28125 53.078125 
z
" id="DejaVuSans-73"/>
    </defs>
    <g transform="translate(130.795 213.2625)scale(0.16 -0.16)">
     <use xlink:href="#DejaVuSans-73"/>
    </g>
   </g>
   <g id="text_7">
    <!-- FullAdder -->
    <g transform="translate(250.985 169.39)scale(0.16 -0.16)">
     <use xlink:href="#DejaVuSans-46"/>
     <use x="57.441406" xlink:href="#DejaVuSans-75"/>
     <use x="120.820312" xlink:href="#DejaVuSans-6c"/>
     <use x="148.603516" xlink:href="#DejaVuSans-6c"/>
     <use x="176.386719" xlink:href="#DejaVuSans-41"/>
     <use x="244.779297" xlink:href="#DejaVuSans-64"/>
     <use x="308.255859" xlink:href="#DejaVuSans-64"/>
     <use x="371.732422" xlink:href="#DejaVuSans-65"/>
     <use x="433.255859" xlink:href="#DejaVuSans-72"/>
    </g>
   </g>
   <g id="text_8">
    <!-- $c_{out}$ -->
    <g transform="translate(245.195 183.34)scale(0.16 -0.16)">
     <use xlink:href="#DejaVuSans-63"/>
     <use transform="translate(55.9375 -16.40625)scale(0.7)" xlink:href="#DejaVuSans-6f"/>
     <use transform="translate(98.764648 -16.40625)scale(0.7)" xlink:href="#DejaVuSans-75"/>
     <use transform="translate(143.129883 -16.40625)scale(0.7)" xlink:href="#DejaVuSans-74"/>
    </g>
   </g>
   <g id="text_9">
    <!-- $c_{in}$ -->
    <g transform="translate(312.995 183.34)scale(0.16 -0.16)">
     <use xlink:href="#DejaVuSans-63"/>
     <use transform="translate(55.9375 -16.40625)scale(0.7)" xlink:href="#DejaVuSans-69"/>
     <use transform="translate(75.385742 -16.40625)scale(0.7)" xlink:href="#DejaVuSans-6e"/>
    </g>
   </g>
   <g id="text_10">
    <!-- b -->
    <g transform="translate(259.55625 153.4175)scale(0.16 -0.16)">
     <use xlink:href="#DejaVuSans-62"/>
    </g>
   </g>
   <g id="text_11">
    <!-- a -->
    <g transform="translate(308.3325 153.4175)scale(0.16 -0.16)">
     <use xlink:href="#DejaVuSans-61"/>
    </g>
   </g>
   <g id="text_12">
    <!-- $s$ -->
    <g transform="translate(284.695 213.2625)scale(0.16 -0.16)">
     <use xlink:href="#DejaVuSans-73"/>
    </g>
   </g>
   <g id="text_13">
    <!-- FullAdder -->
    <g transform="translate(404.885 169.39)scale(0.16 -0.16)">
     <use xlink:href="#DejaVuSans-46"/>
     <use x="57.441406" xlink:href="#DejaVuSans-75"/>
     <use x="120.820312" xlink:href="#DejaVuSans-6c"/>
     <use x="148.603516" xlink:href="#DejaVuSans-6c"/>
     <use x="176.386719" xlink:href="#DejaVuSans-41"/>
     <use x="244.779297" xlink:href="#DejaVuSans-64"/>
     <use x="308.255859" xlink:href="#DejaVuSans-64"/>
     <use x="371.732422" xlink:href="#DejaVuSans-65"/>
     <use x="433.255859" xlink:href="#DejaVuSans-72"/>
    </g>
   </g>
   <g id="text_14">
    <!-- $c_{out}$ -->
    <g transform="translate(399.095 183.34)scale(0.16 -0.16)">
     <use xlink:href="#DejaVuSans-63"/>
     <use transform="translate(55.9375 -16.40625)scale(0.7)" xlink:href="#DejaVuSans-6f"/>
     <use transform="translate(98.764648 -16.40625)scale(0.7)" xlink:href="#DejaVuSans-75"/>
     <use transform="translate(143.129883 -16.40625)scale(0.7)" xlink:href="#DejaVuSans-74"/>
    </g>
   </g>
   <g id="text_15">
    <!-- $c_{in}$ -->
    <g transform="translate(466.895 183.34)scale(0.16 -0.16)">
     <use xlink:href="#DejaVuSans-63"/>
     <use transform="translate(55.9375 -16.40625)scale(0.7)" xlink:href="#DejaVuSans-69"/>
     <use transform="translate(75.385742 -16.40625)scale(0.7)" xlink:href="#DejaVuSans-6e"/>
    </g>
   </g>
   <g id="text_16">
    <!-- b -->
    <g transform="translate(413.45625 153.4175)scale(0.16 -0.16)">
     <use xlink:href="#DejaVuSans-62"/>
    </g>
   </g>
   <g id="text_17">
    <!-- a -->
    <g transform="translate(462.2325 153.4175)scale(0.16 -0.16)">
     <use xlink:href="#DejaVuSans-61"/>
    </g>
   </g>
   <g id="text_18">
    <!-- $s$ -->
    <g transform="translate(438.595 213.2625)scale(0.16 -0.16)">
     <use xlink:href="#DejaVuSans-73"/>
    </g>
   </g>
   <g id="text_19">
    <!-- FullAdder -->
    <g transform="translate(558.785 169.39)scale(0.16 -0.16)">
     <use xlink:href="#DejaVuSans-46"/>
     <use x="57.441406" xlink:href="#DejaVuSans-75"/>
     <use x="120.820312" xlink:href="#DejaVuSans-6c"/>
     <use x="148.603516" xlink:href="#DejaVuSans-6c"/>
     <use x="176.386719" xlink:href="#DejaVuSans-41"/>
     <use x="244.779297" xlink:href="#DejaVuSans-64"/>
     <use x="308.255859" xlink:href="#DejaVuSans-64"/>
     <use x="371.732422" xlink:href="#DejaVuSans-65"/>
     <use x="433.255859" xlink:href="#DejaVuSans-72"/>
    </g>
   </g>
   <g id="text_20">
    <!-- $c_{out}$ -->
    <g transform="translate(552.995 183.34)scale(0.16 -0.16)">
     <use xlink:href="#DejaVuSans-63"/>
     <use transform="translate(55.9375 -16.40625)scale(0.7)" xlink:href="#DejaVuSans-6f"/>
     <use transform="translate(98.764648 -16.40625)scale(0.7)" xlink:href="#DejaVuSans-75"/>
     <use transform="translate(143.129883 -16.40625)scale(0.7)" xlink:href="#DejaVuSans-74"/>
    </g>
   </g>
   <g id="text_21">
    <!-- $c_{in}$ -->
    <g transform="translate(620.795 183.34)scale(0.16 -0.16)">
     <use xlink:href="#DejaVuSans-63"/>
     <use transform="translate(55.9375 -16.40625)scale(0.7)" xlink:href="#DejaVuSans-69"/>
     <use transform="translate(75.385742 -16.40625)scale(0.7)" xlink:href="#DejaVuSans-6e"/>
    </g>
   </g>
   <g id="text_22">
    <!-- b -->
    <g transform="translate(567.35625 153.4175)scale(0.16 -0.16)">
     <use xlink:href="#DejaVuSans-62"/>
    </g>
   </g>
   <g id="text_23">
    <!-- a -->
    <g transform="translate(616.1325 153.4175)scale(0.16 -0.16)">
     <use xlink:href="#DejaVuSans-61"/>
    </g>
   </g>
   <g id="text_24">
    <!-- $s$ -->
    <g transform="translate(592.495 213.2625)scale(0.16 -0.16)">
     <use xlink:href="#DejaVuSans-73"/>
    </g>
   </g>
   <g id="text_25">
    <!-- $'1'$ -->
    <defs>
     <path d="M 1.953125 54.6875 
L 10.40625 72.90625 
L 20.3125 72.90625 
L 6.203125 54.6875 
z
" id="DejaVuSans-2032"/>
     <path d="M 12.40625 8.296875 
L 28.515625 8.296875 
L 28.515625 63.921875 
L 10.984375 60.40625 
L 10.984375 69.390625 
L 28.421875 72.90625 
L 38.28125 72.90625 
L 38.28125 8.296875 
L 54.390625 8.296875 
L 54.390625 0 
L 12.40625 0 
z
" id="DejaVuSans-31"/>
    </defs>
    <g transform="translate(689.075 183.34)scale(0.16 -0.16)">
     <use transform="translate(0.957031 38.965625)scale(0.7)" xlink:href="#DejaVuSans-2032"/>
     <use transform="translate(19.584961 0.684375)" xlink:href="#DejaVuSans-31"/>
     <use transform="translate(84.165039 38.965625)scale(0.7)" xlink:href="#DejaVuSans-2032"/>
    </g>
   </g>
   <g id="text_26">
    <!-- $s_0$ -->
    <defs>
     <path d="M 31.78125 66.40625 
Q 24.171875 66.40625 20.328125 58.90625 
Q 16.5 51.421875 16.5 36.375 
Q 16.5 21.390625 20.328125 13.890625 
Q 24.171875 6.390625 31.78125 6.390625 
Q 39.453125 6.390625 43.28125 13.890625 
Q 47.125 21.390625 47.125 36.375 
Q 47.125 51.421875 43.28125 58.90625 
Q 39.453125 66.40625 31.78125 66.40625 
z
M 31.78125 74.21875 
Q 44.046875 74.21875 50.515625 64.515625 
Q 56.984375 54.828125 56.984375 36.375 
Q 56.984375 17.96875 50.515625 8.265625 
Q 44.046875 -1.421875 31.78125 -1.421875 
Q 19.53125 -1.421875 13.0625 8.265625 
Q 6.59375 17.96875 6.59375 36.375 
Q 6.59375 54.828125 13.0625 64.515625 
Q 19.53125 74.21875 31.78125 74.21875 
z
" id="DejaVuSans-30"/>
    </defs>
    <g transform="translate(588.655 263.6225)scale(0.16 -0.16)">
     <use xlink:href="#DejaVuSans-73"/>
     <use transform="translate(53.056641 -16.40625)scale(0.7)" xlink:href="#DejaVuSans-30"/>
    </g>
   </g>
   <g id="text_27">
    <!-- $s_1$ -->
    <g transform="translate(434.755 263.6225)scale(0.16 -0.16)">
     <use xlink:href="#DejaVuSans-73"/>
     <use transform="translate(53.056641 -16.40625)scale(0.7)" xlink:href="#DejaVuSans-31"/>
    </g>
   </g>
   <g id="text_28">
    <!-- $s_2$ -->
    <defs>
     <path d="M 19.1875 8.296875 
L 53.609375 8.296875 
L 53.609375 0 
L 7.328125 0 
L 7.328125 8.296875 
Q 12.9375 14.109375 22.625 23.890625 
Q 32.328125 33.6875 34.8125 36.53125 
Q 39.546875 41.84375 41.421875 45.53125 
Q 43.3125 49.21875 43.3125 52.78125 
Q 43.3125 58.59375 39.234375 62.25 
Q 35.15625 65.921875 28.609375 65.921875 
Q 23.96875 65.921875 18.8125 64.3125 
Q 13.671875 62.703125 7.8125 59.421875 
L 7.8125 69.390625 
Q 13.765625 71.78125 18.9375 73 
Q 24.125 74.21875 28.421875 74.21875 
Q 39.75 74.21875 46.484375 68.546875 
Q 53.21875 62.890625 53.21875 53.421875 
Q 53.21875 48.921875 51.53125 44.890625 
Q 49.859375 40.875 45.40625 35.40625 
Q 44.1875 33.984375 37.640625 27.21875 
Q 31.109375 20.453125 19.1875 8.296875 
z
" id="DejaVuSans-32"/>
    </defs>
    <g transform="translate(280.855 263.6225)scale(0.16 -0.16)">
     <use xlink:href="#DejaVuSans-73"/>
     <use transform="translate(53.056641 -16.40625)scale(0.7)" xlink:href="#DejaVuSans-32"/>
    </g>
   </g>
   <g id="text_29">
    <!-- $s_3$ -->
    <defs>
     <path d="M 40.578125 39.3125 
Q 47.65625 37.796875 51.625 33 
Q 55.609375 28.21875 55.609375 21.1875 
Q 55.609375 10.40625 48.1875 4.484375 
Q 40.765625 -1.421875 27.09375 -1.421875 
Q 22.515625 -1.421875 17.65625 -0.515625 
Q 12.796875 0.390625 7.625 2.203125 
L 7.625 11.71875 
Q 11.71875 9.328125 16.59375 8.109375 
Q 21.484375 6.890625 26.8125 6.890625 
Q 36.078125 6.890625 40.9375 10.546875 
Q 45.796875 14.203125 45.796875 21.1875 
Q 45.796875 27.640625 41.28125 31.265625 
Q 36.765625 34.90625 28.71875 34.90625 
L 20.21875 34.90625 
L 20.21875 43.015625 
L 29.109375 43.015625 
Q 36.375 43.015625 40.234375 45.921875 
Q 44.09375 48.828125 44.09375 54.296875 
Q 44.09375 59.90625 40.109375 62.90625 
Q 36.140625 65.921875 28.71875 65.921875 
Q 24.65625 65.921875 20.015625 65.03125 
Q 15.375 64.15625 9.8125 62.3125 
L 9.8125 71.09375 
Q 15.4375 72.65625 20.34375 73.4375 
Q 25.25 74.21875 29.59375 74.21875 
Q 40.828125 74.21875 47.359375 69.109375 
Q 53.90625 64.015625 53.90625 55.328125 
Q 53.90625 49.265625 50.4375 45.09375 
Q 46.96875 40.921875 40.578125 39.3125 
z
" id="DejaVuSans-33"/>
    </defs>
    <g transform="translate(126.955 263.6225)scale(0.16 -0.16)">
     <use xlink:href="#DejaVuSans-73"/>
     <use transform="translate(53.056641 -16.40625)scale(0.7)" xlink:href="#DejaVuSans-33"/>
    </g>
   </g>
   <g id="text_30">
    <!-- $s_4$ -->
    <defs>
     <path d="M 37.796875 64.3125 
L 12.890625 25.390625 
L 37.796875 25.390625 
z
M 35.203125 72.90625 
L 47.609375 72.90625 
L 47.609375 25.390625 
L 58.015625 25.390625 
L 58.015625 17.1875 
L 47.609375 17.1875 
L 47.609375 0 
L 37.796875 0 
L 37.796875 17.1875 
L 4.890625 17.1875 
L 4.890625 26.703125 
z
" id="DejaVuSans-34"/>
    </defs>
    <g transform="translate(37.855 263.6225)scale(0.16 -0.16)">
     <use xlink:href="#DejaVuSans-73"/>
     <use transform="translate(53.056641 -16.40625)scale(0.7)" xlink:href="#DejaVuSans-34"/>
    </g>
   </g>
   <g id="text_31">
    <!-- $a_3$ -->
    <g transform="translate(150.535 19.9155)scale(0.16 -0.16)">
     <use xlink:href="#DejaVuSans-61"/>
     <use transform="translate(62.236328 -16.40625)scale(0.7)" xlink:href="#DejaVuSans-33"/>
    </g>
   </g>
   <g id="text_32">
    <!-- $a_2$ -->
    <g transform="translate(304.435 19.9155)scale(0.16 -0.16)">
     <use xlink:href="#DejaVuSans-61"/>
     <use transform="translate(62.236328 -16.40625)scale(0.7)" xlink:href="#DejaVuSans-32"/>
    </g>
   </g>
   <g id="text_33">
    <!-- $a_1$ -->
    <g transform="translate(458.335 19.9155)scale(0.16 -0.16)">
     <use xlink:href="#DejaVuSans-61"/>
     <use transform="translate(62.236328 -16.40625)scale(0.7)" xlink:href="#DejaVuSans-31"/>
    </g>
   </g>
   <g id="text_34">
    <!-- $a_0$ -->
    <g transform="translate(612.235 19.9155)scale(0.16 -0.16)">
     <use xlink:href="#DejaVuSans-61"/>
     <use transform="translate(62.236328 -16.40625)scale(0.7)" xlink:href="#DejaVuSans-30"/>
    </g>
   </g>
   <g id="text_35">
    <!-- $b_3$ -->
    <g transform="translate(101.775 19.3575)scale(0.16 -0.16)">
     <use transform="translate(0 0.015625)" xlink:href="#DejaVuSans-62"/>
     <use transform="translate(64.433594 -16.390625)scale(0.7)" xlink:href="#DejaVuSans-33"/>
    </g>
   </g>
   <g id="text_36">
    <!-- $b_2$ -->
    <g transform="translate(255.675 19.3575)scale(0.16 -0.16)">
     <use transform="translate(0 0.015625)" xlink:href="#DejaVuSans-62"/>
     <use transform="translate(64.433594 -16.390625)scale(0.7)" xlink:href="#DejaVuSans-32"/>
    </g>
   </g>
   <g id="text_37">
    <!-- $b_1$ -->
    <g transform="translate(409.575 19.3575)scale(0.16 -0.16)">
     <use transform="translate(0 0.015625)" xlink:href="#DejaVuSans-62"/>
     <use transform="translate(64.433594 -16.390625)scale(0.7)" xlink:href="#DejaVuSans-31"/>
    </g>
   </g>
   <g id="text_38">
    <!-- $b_0$ -->
    <g transform="translate(563.475 19.3575)scale(0.16 -0.16)">
     <use transform="translate(0 0.015625)" xlink:href="#DejaVuSans-62"/>
     <use transform="translate(64.433594 -16.390625)scale(0.7)" xlink:href="#DejaVuSans-30"/>
    </g>
   </g>
  </g>
 </g>
 <defs>
  <clipPath id="p0e8dab379f">
   <rect height="251.1" width="710.37" x="10.7" y="11.525"/>
  </clipPath>
 </defs>
</svg>
