<?xml version="1.0" encoding="utf-8" standalone="no"?>
<!DOCTYPE svg PUBLIC "-//W3C//DTD SVG 1.1//EN"
  "http://www.w3.org/Graphics/SVG/1.1/DTD/svg11.dtd">
<!-- Created with matplotlib (http://matplotlib.org/) -->
<svg height="145.216614pt" version="1.1" viewBox="0 0 607.03 145.216614" width="607.03pt" xmlns="http://www.w3.org/2000/svg" xmlns:xlink="http://www.w3.org/1999/xlink">
 <defs>
  <style type="text/css">
*{stroke-linecap:butt;stroke-linejoin:round;}
  </style>
 </defs>
 <g id="figure_1">
  <g id="patch_1">
   <path d="M 0 145.216614 
L 607.03 145.216614 
L 607.03 0 
L 0 0 
z
" style="fill:none;"/>
  </g>
  <g id="axes_1">
   <g id="patch_2">
    <path clip-path="url(#p7dac002ce0)" d="M 437.165 60.399601 
C 441.459859 60.399601 445.583206 58.928869 448.62013 56.31374 
C 451.657054 53.698611 453.365 50.147952 453.365 46.449601 
C 453.365 42.75125 451.657054 39.20059 448.62013 36.585461 
C 445.583206 33.970332 441.459859 32.499601 437.165 32.499601 
" style="fill:none;stroke:#000000;stroke-linejoin:miter;stroke-width:1.5;"/>
   </g>
   <g id="patch_3">
    <path clip-path="url(#p7dac002ce0)" d="M 437.165 116.199601 
C 441.459859 116.199601 445.583206 114.728869 448.62013 112.11374 
C 451.657054 109.498611 453.365 105.947952 453.365 102.249601 
C 453.365 98.55125 451.657054 95.00059 448.62013 92.385461 
C 445.583206 89.770332 441.459859 88.299601 437.165 88.299601 
" style="fill:none;stroke:#000000;stroke-linejoin:miter;stroke-width:1.5;"/>
   </g>
   <g id="line2d_1">
    <path clip-path="url(#p7dac002ce0)" d="M 106.685 91.841614 
L 106.685 105.791614 
" style="fill:none;stroke:#000000;stroke-linecap:round;stroke-width:1.5;"/>
   </g>
   <g id="line2d_2">
    <path clip-path="url(#p7dac002ce0)" d="M 80.765 102.249601 
L 132.605 81.433627 
L 132.605 39.365575 
L 80.765 18.549601 
L 80.765 102.249601 
" style="fill:none;stroke:#000000;stroke-linecap:round;stroke-width:1.5;"/>
   </g>
   <g id="line2d_3">
    <path clip-path="url(#p7dac002ce0)" d="M 80.765 74.349601 
L 64.565 74.349601 
" style="fill:none;stroke:#000000;stroke-linecap:round;stroke-width:1.5;"/>
   </g>
   <g id="line2d_4">
    <path clip-path="url(#p7dac002ce0)" d="M 80.765 46.449601 
L 64.565 46.449601 
" style="fill:none;stroke:#000000;stroke-linecap:round;stroke-width:1.5;"/>
   </g>
   <g id="line2d_5">
    <path clip-path="url(#p7dac002ce0)" d="M 132.605 60.399601 
L 148.805 60.399601 
" style="fill:none;stroke:#000000;stroke-linecap:round;stroke-width:1.5;"/>
   </g>
   <g id="line2d_6">
    <path clip-path="url(#p7dac002ce0)" d="M 64.565 74.349601 
L 52.415 74.349601 
L 40.265 74.349601 
" style="fill:none;stroke:#000000;stroke-linecap:round;stroke-width:1.5;"/>
   </g>
   <g id="line2d_7">
    <path clip-path="url(#p7dac002ce0)" d="M 64.565 46.449601 
L 52.415 46.449601 
L 40.265 46.449601 
" style="fill:none;stroke:#000000;stroke-linecap:round;stroke-width:1.5;"/>
   </g>
   <g id="line2d_8">
    <path clip-path="url(#p7dac002ce0)" d="M 106.685 105.791614 
L 106.685 112.766614 
L 106.685 119.741614 
" style="fill:none;stroke:#000000;stroke-linecap:round;stroke-width:1.5;"/>
   </g>
   <g id="line2d_9">
    <path clip-path="url(#p7dac002ce0)" d="M 148.805 60.399601 
L 156.905 60.399601 
L 165.005 60.399601 
" style="fill:none;stroke:#000000;stroke-linecap:round;stroke-width:1.5;"/>
   </g>
   <g id="line2d_10">
    <path clip-path="url(#p7dac002ce0)" d="M 404.765 46.449601 
M 453.365 46.449601 
L 464.705 46.449601 
" style="fill:none;stroke:#000000;stroke-linecap:round;stroke-width:1.5;"/>
   </g>
   <g id="line2d_11">
    <path clip-path="url(#p7dac002ce0)" d="M 416.105 46.449601 
L 416.105 60.399601 
L 437.165 60.399601 
" style="fill:none;stroke:#000000;stroke-linecap:round;stroke-width:1.5;"/>
   </g>
   <g id="line2d_12">
    <path clip-path="url(#p7dac002ce0)" d="M 416.105 46.449601 
L 416.105 32.499601 
L 437.165 32.499601 
" style="fill:none;stroke:#000000;stroke-linecap:round;stroke-width:1.5;"/>
   </g>
   <g id="line2d_13">
    <path clip-path="url(#p7dac002ce0)" d="M 404.765 53.424601 
L 416.105 53.424601 
" style="fill:none;stroke:#000000;stroke-linecap:round;stroke-width:1.5;"/>
   </g>
   <g id="line2d_14">
    <path clip-path="url(#p7dac002ce0)" d="M 404.765 39.474601 
L 416.105 39.474601 
" style="fill:none;stroke:#000000;stroke-linecap:round;stroke-width:1.5;"/>
   </g>
   <g id="line2d_15">
    <path clip-path="url(#p7dac002ce0)" d="M 404.765 39.474601 
L 346.445 39.474601 
L 288.125 39.474601 
" style="fill:none;stroke:#000000;stroke-linecap:round;stroke-width:1.5;"/>
   </g>
   <g id="line2d_16">
    <path clip-path="url(#p7dac002ce0)" d="M 404.765 53.424601 
L 346.445 53.424601 
L 288.125 53.424601 
" style="fill:none;stroke:#000000;stroke-linecap:round;stroke-width:1.5;"/>
   </g>
   <g id="line2d_17">
    <path clip-path="url(#p7dac002ce0)" d="M 464.705 46.449601 
L 476.855 46.449601 
L 489.005 46.449601 
" style="fill:none;stroke:#000000;stroke-linecap:round;stroke-width:1.5;"/>
   </g>
   <g id="line2d_18">
    <path clip-path="url(#p7dac002ce0)" d="M 489.005 46.449601 
L 489.005 56.912101 
L 489.005 67.374601 
" style="fill:none;stroke:#000000;stroke-linecap:round;stroke-width:1.5;"/>
   </g>
   <g id="line2d_19">
    <path clip-path="url(#p7dac002ce0)" d="M 489.005 74.349601 
M 539.225 74.349601 
L 550.565 74.349601 
" style="fill:none;stroke:#000000;stroke-linecap:round;stroke-width:1.5;"/>
   </g>
   <g id="line2d_20">
    <path clip-path="url(#p7dac002ce0)" d="M 500.345 88.020601 
L 516.545 88.020601 
L 517.007857 88.014907 
L 517.470714 87.997825 
L 517.933571 87.969356 
L 518.396429 87.929499 
L 518.859286 87.878254 
L 519.322143 87.815621 
L 519.785 87.741601 
L 520.247857 87.656192 
L 520.710714 87.559397 
L 521.173571 87.451213 
L 521.636429 87.331641 
L 522.099286 87.200682 
L 522.562143 87.058335 
L 523.025 86.904601 
L 523.487857 86.739478 
L 523.950714 86.562968 
L 524.413571 86.37507 
L 524.876429 86.175784 
L 525.339286 85.965111 
L 525.802143 85.74305 
L 526.265 85.509601 
L 526.727857 85.264764 
L 527.190714 85.008539 
L 527.653571 84.740927 
L 528.116429 84.461927 
L 528.579286 84.171539 
L 529.042143 83.869764 
L 529.505 83.556601 
L 529.967857 83.23205 
L 530.430714 82.896111 
L 530.893571 82.548784 
L 531.356429 82.19007 
L 531.819286 81.819968 
L 532.282143 81.438478 
L 532.745 81.045601 
L 533.207857 80.641335 
L 533.670714 80.225682 
L 534.133571 79.798641 
L 534.596429 79.360213 
L 535.059286 78.910397 
L 535.522143 78.449192 
L 535.985 77.976601 
L 536.447857 77.492621 
L 536.910714 76.997254 
L 537.373571 76.490499 
L 537.836429 75.972356 
L 538.299286 75.442825 
L 538.762143 74.901907 
L 539.225 74.349601 
" style="fill:none;stroke:#000000;stroke-linecap:round;stroke-width:1.5;"/>
   </g>
   <g id="line2d_21">
    <path clip-path="url(#p7dac002ce0)" d="M 500.345 60.678601 
L 516.545 60.678601 
L 517.007857 60.684295 
L 517.470714 60.701376 
L 517.933571 60.729846 
L 518.396429 60.769703 
L 518.859286 60.820948 
L 519.322143 60.88358 
L 519.785 60.957601 
L 520.247857 61.043009 
L 520.710714 61.139805 
L 521.173571 61.247988 
L 521.636429 61.36756 
L 522.099286 61.498519 
L 522.562143 61.640866 
L 523.025 61.794601 
L 523.487857 61.959723 
L 523.950714 62.136233 
L 524.413571 62.324131 
L 524.876429 62.523417 
L 525.339286 62.73409 
L 525.802143 62.956152 
L 526.265 63.189601 
L 526.727857 63.434437 
L 527.190714 63.690662 
L 527.653571 63.958274 
L 528.116429 64.237274 
L 528.579286 64.527662 
L 529.042143 64.829437 
L 529.505 65.142601 
L 529.967857 65.467152 
L 530.430714 65.80309 
L 530.893571 66.150417 
L 531.356429 66.509131 
L 531.819286 66.879233 
L 532.282143 67.260723 
L 532.745 67.653601 
L 533.207857 68.057866 
L 533.670714 68.473519 
L 534.133571 68.90056 
L 534.596429 69.338988 
L 535.059286 69.788805 
L 535.522143 70.250009 
L 535.985 70.722601 
L 536.447857 71.20658 
L 536.910714 71.701948 
L 537.373571 72.208703 
L 537.836429 72.726846 
L 538.299286 73.256376 
L 538.762143 73.797295 
L 539.225 74.349601 
" style="fill:none;stroke:#000000;stroke-linecap:round;stroke-width:1.5;"/>
   </g>
   <g id="line2d_22">
    <path clip-path="url(#p7dac002ce0)" d="M 500.345 88.020601 
L 500.96708 87.462601 
L 501.56324 86.904601 
L 502.13348 86.346601 
L 502.6778 85.788601 
L 503.1962 85.230601 
L 503.68868 84.672601 
L 504.15524 84.114601 
L 504.59588 83.556601 
L 505.0106 82.998601 
L 505.3994 82.440601 
L 505.76228 81.882601 
L 506.09924 81.324601 
L 506.41028 80.766601 
L 506.6954 80.208601 
L 506.9546 79.650601 
L 507.18788 79.092601 
L 507.39524 78.534601 
L 507.57668 77.976601 
L 507.7322 77.418601 
L 507.8618 76.860601 
L 507.96548 76.302601 
L 508.04324 75.744601 
L 508.09508 75.186601 
L 508.121 74.628601 
L 508.121 74.070601 
L 508.09508 73.512601 
L 508.04324 72.954601 
L 507.96548 72.396601 
L 507.8618 71.838601 
L 507.7322 71.280601 
L 507.57668 70.722601 
L 507.39524 70.164601 
L 507.18788 69.606601 
L 506.9546 69.048601 
L 506.6954 68.490601 
L 506.41028 67.932601 
L 506.09924 67.374601 
L 505.76228 66.816601 
L 505.3994 66.258601 
L 505.0106 65.700601 
L 504.59588 65.142601 
L 504.15524 64.584601 
L 503.68868 64.026601 
L 503.1962 63.468601 
L 502.6778 62.910601 
L 502.13348 62.352601 
L 501.56324 61.794601 
L 500.96708 61.236601 
L 500.345 60.678601 
" style="fill:none;stroke:#000000;stroke-linecap:round;stroke-width:1.5;"/>
   </g>
   <g id="line2d_23">
    <path clip-path="url(#p7dac002ce0)" d="M 489.005 81.324601 
L 506.09924 81.324601 
" style="fill:none;stroke:#000000;stroke-linecap:round;stroke-width:1.5;"/>
   </g>
   <g id="line2d_24">
    <path clip-path="url(#p7dac002ce0)" d="M 489.005 67.374601 
L 506.09924 67.374601 
" style="fill:none;stroke:#000000;stroke-linecap:round;stroke-width:1.5;"/>
   </g>
   <g id="line2d_25">
    <path clip-path="url(#p7dac002ce0)" d="M 489.005 81.324601 
L 489.005 91.787101 
L 489.005 102.249601 
" style="fill:none;stroke:#000000;stroke-linecap:round;stroke-width:1.5;"/>
   </g>
   <g id="line2d_26">
    <path clip-path="url(#p7dac002ce0)" d="M 489.005 102.249601 
L 476.855 102.249601 
L 464.705 102.249601 
" style="fill:none;stroke:#000000;stroke-linecap:round;stroke-width:1.5;"/>
   </g>
   <g id="line2d_27">
    <path clip-path="url(#p7dac002ce0)" d="M 404.765 102.249601 
M 453.365 102.249601 
L 464.705 102.249601 
" style="fill:none;stroke:#000000;stroke-linecap:round;stroke-width:1.5;"/>
   </g>
   <g id="line2d_28">
    <path clip-path="url(#p7dac002ce0)" d="M 416.105 102.249601 
L 416.105 88.299601 
L 437.165 88.299601 
" style="fill:none;stroke:#000000;stroke-linecap:round;stroke-width:1.5;"/>
   </g>
   <g id="line2d_29">
    <path clip-path="url(#p7dac002ce0)" d="M 416.105 102.249601 
L 416.105 116.199601 
L 437.165 116.199601 
" style="fill:none;stroke:#000000;stroke-linecap:round;stroke-width:1.5;"/>
   </g>
   <g id="line2d_30">
    <path clip-path="url(#p7dac002ce0)" d="M 404.765 95.274601 
L 416.105 95.274601 
" style="fill:none;stroke:#000000;stroke-linecap:round;stroke-width:1.5;"/>
   </g>
   <g id="line2d_31">
    <path clip-path="url(#p7dac002ce0)" d="M 404.765 109.224601 
L 416.105 109.224601 
" style="fill:none;stroke:#000000;stroke-linecap:round;stroke-width:1.5;"/>
   </g>
   <g id="line2d_32">
    <path clip-path="url(#p7dac002ce0)" d="M 404.765 109.224601 
L 346.445 109.224601 
L 288.125 109.224601 
" style="fill:none;stroke:#000000;stroke-linecap:round;stroke-width:1.5;"/>
   </g>
   <g id="line2d_33">
    <path clip-path="url(#p7dac002ce0)" d="M 307.565 95.274601 
L 336.077 95.274601 
L 347.417 95.274601 
M 376.253 95.274601 
L 404.765 95.274601 
" style="fill:none;stroke:#000000;stroke-linecap:round;stroke-width:1.5;"/>
   </g>
   <g id="line2d_34">
    <path clip-path="url(#p7dac002ce0)" d="M 347.417 95.274601 
L 347.417 81.324601 
L 368.477 95.274601 
L 347.417 109.224601 
L 347.417 95.274601 
" style="fill:none;stroke:#000000;stroke-linecap:round;stroke-width:1.5;"/>
   </g>
   <g id="line2d_35">
    <path clip-path="url(#p7dac002ce0)" d="M 376.253 95.274601 
L 379.817 95.274601 
" style="fill:none;stroke:#000000;stroke-linecap:round;stroke-width:1.5;"/>
   </g>
   <g id="line2d_36">
    <path clip-path="url(#p7dac002ce0)" d="M 307.565 95.274601 
L 307.565 74.349601 
L 307.565 53.424601 
" style="fill:none;stroke:#000000;stroke-linecap:round;stroke-width:1.5;"/>
   </g>
   <g id="line2d_37">
    <path clip-path="url(#p7dac002ce0)" d="M 307.565 53.424601 
" style="fill:none;stroke:#000000;stroke-linecap:round;stroke-width:1.5;"/>
   </g>
   <g id="line2d_38">
    <path clip-path="url(#p7dac002ce0)" d="M 550.565 74.349601 
L 558.665 74.349601 
L 566.765 74.349601 
" style="fill:none;stroke:#000000;stroke-linecap:round;stroke-width:1.5;"/>
   </g>
   <g id="patch_4">
    <path clip-path="url(#p7dac002ce0)" d="M 372.365 98.622601 
C 373.39611 98.622601 374.385127 98.269834 375.114231 97.641994 
C 375.843336 97.014154 376.253 96.162501 376.253 95.274601 
C 376.253 94.386701 375.843336 93.535047 375.114231 92.907207 
C 374.385127 92.279367 373.39611 91.926601 372.365 91.926601 
C 371.33389 91.926601 370.344873 92.279367 369.615769 92.907207 
C 368.886664 93.535047 368.477 94.386701 368.477 95.274601 
C 368.477 96.162501 368.886664 97.014154 369.615769 97.641994 
C 370.344873 98.269834 371.33389 98.622601 372.365 98.622601 
z
" style="fill:none;stroke:#000000;stroke-linejoin:miter;stroke-width:1.5;"/>
   </g>
   <g id="patch_5">
    <path clip-path="url(#p7dac002ce0)" d="M 307.565 55.517101 
C 308.209444 55.517101 308.827579 55.296622 309.283269 54.904222 
C 309.73896 54.511822 309.995 53.979538 309.995 53.424601 
C 309.995 52.869663 309.73896 52.33738 309.283269 51.94498 
C 308.827579 51.55258 308.209444 51.332101 307.565 51.332101 
C 306.920556 51.332101 306.302421 51.55258 305.846731 51.94498 
C 305.39104 52.33738 305.135 52.869663 305.135 53.424601 
C 305.135 53.979538 305.39104 54.511822 305.846731 54.904222 
C 306.302421 55.296622 306.920556 55.517101 307.565 55.517101 
z
" style="stroke:#000000;stroke-linejoin:miter;stroke-width:1.5;"/>
   </g>
   <g id="text_1">
    <!-- $D_0$ -->
    <defs>
     <path d="M 19.671875 64.796875 
L 19.671875 8.109375 
L 31.59375 8.109375 
Q 46.6875 8.109375 53.6875 14.9375 
Q 60.6875 21.78125 60.6875 36.53125 
Q 60.6875 51.171875 53.6875 57.984375 
Q 46.6875 64.796875 31.59375 64.796875 
z
M 9.8125 72.90625 
L 30.078125 72.90625 
Q 51.265625 72.90625 61.171875 64.09375 
Q 71.09375 55.28125 71.09375 36.53125 
Q 71.09375 17.671875 61.125 8.828125 
Q 51.171875 0 30.078125 0 
L 9.8125 0 
z
" id="DejaVuSans-44"/>
     <path d="M 31.78125 66.40625 
Q 24.171875 66.40625 20.328125 58.90625 
Q 16.5 51.421875 16.5 36.375 
Q 16.5 21.390625 20.328125 13.890625 
Q 24.171875 6.390625 31.78125 6.390625 
Q 39.453125 6.390625 43.28125 13.890625 
Q 47.125 21.390625 47.125 36.375 
Q 47.125 51.421875 43.28125 58.90625 
Q 39.453125 66.40625 31.78125 66.40625 
z
M 31.78125 74.21875 
Q 44.046875 74.21875 50.515625 64.515625 
Q 56.984375 54.828125 56.984375 36.375 
Q 56.984375 17.96875 50.515625 8.265625 
Q 44.046875 -1.421875 31.78125 -1.421875 
Q 19.53125 -1.421875 13.0625 8.265625 
Q 6.59375 17.96875 6.59375 36.375 
Q 6.59375 54.828125 13.0625 64.515625 
Q 19.53125 74.21875 31.78125 74.21875 
z
" id="DejaVuSans-30"/>
    </defs>
    <g transform="translate(85.625 78.764601)scale(0.16 -0.16)">
     <use transform="translate(0 0.09375)" xlink:href="#DejaVuSans-44"/>
     <use transform="translate(77.958984 -16.3125)scale(0.7)" xlink:href="#DejaVuSans-30"/>
    </g>
   </g>
   <g id="text_2">
    <!-- $D_1$ -->
    <defs>
     <path d="M 12.40625 8.296875 
L 28.515625 8.296875 
L 28.515625 63.921875 
L 10.984375 60.40625 
L 10.984375 69.390625 
L 28.421875 72.90625 
L 38.28125 72.90625 
L 38.28125 8.296875 
L 54.390625 8.296875 
L 54.390625 0 
L 12.40625 0 
z
" id="DejaVuSans-31"/>
    </defs>
    <g transform="translate(85.625 50.864601)scale(0.16 -0.16)">
     <use transform="translate(0 0.09375)" xlink:href="#DejaVuSans-44"/>
     <use transform="translate(77.958984 -16.3125)scale(0.7)" xlink:href="#DejaVuSans-31"/>
    </g>
   </g>
   <g id="text_3">
    <!-- Q -->
    <defs>
     <path d="M 39.40625 66.21875 
Q 28.65625 66.21875 22.328125 58.203125 
Q 16.015625 50.203125 16.015625 36.375 
Q 16.015625 22.609375 22.328125 14.59375 
Q 28.65625 6.59375 39.40625 6.59375 
Q 50.140625 6.59375 56.421875 14.59375 
Q 62.703125 22.609375 62.703125 36.375 
Q 62.703125 50.203125 56.421875 58.203125 
Q 50.140625 66.21875 39.40625 66.21875 
z
M 53.21875 1.3125 
L 66.21875 -12.890625 
L 54.296875 -12.890625 
L 43.5 -1.21875 
Q 41.890625 -1.3125 41.03125 -1.359375 
Q 40.1875 -1.421875 39.40625 -1.421875 
Q 24.03125 -1.421875 14.8125 8.859375 
Q 5.609375 19.140625 5.609375 36.375 
Q 5.609375 53.65625 14.8125 63.9375 
Q 24.03125 74.21875 39.40625 74.21875 
Q 54.734375 74.21875 63.90625 63.9375 
Q 73.09375 53.65625 73.09375 36.375 
Q 73.09375 23.6875 67.984375 14.640625 
Q 62.890625 5.609375 53.21875 1.3125 
z
" id="DejaVuSans-51"/>
    </defs>
    <g transform="translate(115.15 64.814601)scale(0.16 -0.16)">
     <use xlink:href="#DejaVuSans-51"/>
    </g>
   </g>
   <g id="text_4">
    <!-- S -->
    <defs>
     <path d="M 53.515625 70.515625 
L 53.515625 60.890625 
Q 47.90625 63.578125 42.921875 64.890625 
Q 37.9375 66.21875 33.296875 66.21875 
Q 25.25 66.21875 20.875 63.09375 
Q 16.5 59.96875 16.5 54.203125 
Q 16.5 49.359375 19.40625 46.890625 
Q 22.3125 44.4375 30.421875 42.921875 
L 36.375 41.703125 
Q 47.40625 39.59375 52.65625 34.296875 
Q 57.90625 29 57.90625 20.125 
Q 57.90625 9.515625 50.796875 4.046875 
Q 43.703125 -1.421875 29.984375 -1.421875 
Q 24.8125 -1.421875 18.96875 -0.25 
Q 13.140625 0.921875 6.890625 3.21875 
L 6.890625 13.375 
Q 12.890625 10.015625 18.65625 8.296875 
Q 24.421875 6.59375 29.984375 6.59375 
Q 38.421875 6.59375 43.015625 9.90625 
Q 47.609375 13.234375 47.609375 19.390625 
Q 47.609375 24.75 44.3125 27.78125 
Q 41.015625 30.8125 33.5 32.328125 
L 27.484375 33.5 
Q 16.453125 35.6875 11.515625 40.375 
Q 6.59375 45.0625 6.59375 53.421875 
Q 6.59375 63.09375 13.40625 68.65625 
Q 20.21875 74.21875 32.171875 74.21875 
Q 37.3125 74.21875 42.625 73.28125 
Q 47.953125 72.359375 53.515625 70.515625 
z
" id="DejaVuSans-53"/>
    </defs>
    <g transform="translate(101.60625 84.329114)scale(0.16 -0.16)">
     <use xlink:href="#DejaVuSans-53"/>
    </g>
   </g>
   <g id="text_5">
    <!-- $D_0$ -->
    <g transform="translate(16.865 78.764601)scale(0.16 -0.16)">
     <use transform="translate(0 0.09375)" xlink:href="#DejaVuSans-44"/>
     <use transform="translate(77.958984 -16.3125)scale(0.7)" xlink:href="#DejaVuSans-30"/>
    </g>
   </g>
   <g id="text_6">
    <!-- $D_1$ -->
    <g transform="translate(16.865 50.864601)scale(0.16 -0.16)">
     <use transform="translate(0 0.09375)" xlink:href="#DejaVuSans-44"/>
     <use transform="translate(77.958984 -16.3125)scale(0.7)" xlink:href="#DejaVuSans-31"/>
    </g>
   </g>
   <g id="text_7">
    <!-- Selector -->
    <defs>
     <path d="M 56.203125 29.59375 
L 56.203125 25.203125 
L 14.890625 25.203125 
Q 15.484375 15.921875 20.484375 11.0625 
Q 25.484375 6.203125 34.421875 6.203125 
Q 39.59375 6.203125 44.453125 7.46875 
Q 49.3125 8.734375 54.109375 11.28125 
L 54.109375 2.78125 
Q 49.265625 0.734375 44.1875 -0.34375 
Q 39.109375 -1.421875 33.890625 -1.421875 
Q 20.796875 -1.421875 13.15625 6.1875 
Q 5.515625 13.8125 5.515625 26.8125 
Q 5.515625 40.234375 12.765625 48.109375 
Q 20.015625 56 32.328125 56 
Q 43.359375 56 49.78125 48.890625 
Q 56.203125 41.796875 56.203125 29.59375 
z
M 47.21875 32.234375 
Q 47.125 39.59375 43.09375 43.984375 
Q 39.0625 48.390625 32.421875 48.390625 
Q 24.90625 48.390625 20.390625 44.140625 
Q 15.875 39.890625 15.1875 32.171875 
z
" id="DejaVuSans-65"/>
     <path d="M 9.421875 75.984375 
L 18.40625 75.984375 
L 18.40625 0 
L 9.421875 0 
z
" id="DejaVuSans-6c"/>
     <path d="M 48.78125 52.59375 
L 48.78125 44.1875 
Q 44.96875 46.296875 41.140625 47.34375 
Q 37.3125 48.390625 33.40625 48.390625 
Q 24.65625 48.390625 19.8125 42.84375 
Q 14.984375 37.3125 14.984375 27.296875 
Q 14.984375 17.28125 19.8125 11.734375 
Q 24.65625 6.203125 33.40625 6.203125 
Q 37.3125 6.203125 41.140625 7.25 
Q 44.96875 8.296875 48.78125 10.40625 
L 48.78125 2.09375 
Q 45.015625 0.34375 40.984375 -0.53125 
Q 36.96875 -1.421875 32.421875 -1.421875 
Q 20.0625 -1.421875 12.78125 6.34375 
Q 5.515625 14.109375 5.515625 27.296875 
Q 5.515625 40.671875 12.859375 48.328125 
Q 20.21875 56 33.015625 56 
Q 37.15625 56 41.109375 55.140625 
Q 45.0625 54.296875 48.78125 52.59375 
z
" id="DejaVuSans-63"/>
     <path d="M 18.3125 70.21875 
L 18.3125 54.6875 
L 36.8125 54.6875 
L 36.8125 47.703125 
L 18.3125 47.703125 
L 18.3125 18.015625 
Q 18.3125 11.328125 20.140625 9.421875 
Q 21.96875 7.515625 27.59375 7.515625 
L 36.8125 7.515625 
L 36.8125 0 
L 27.59375 0 
Q 17.1875 0 13.234375 3.875 
Q 9.28125 7.765625 9.28125 18.015625 
L 9.28125 47.703125 
L 2.6875 47.703125 
L 2.6875 54.6875 
L 9.28125 54.6875 
L 9.28125 70.21875 
z
" id="DejaVuSans-74"/>
     <path d="M 30.609375 48.390625 
Q 23.390625 48.390625 19.1875 42.75 
Q 14.984375 37.109375 14.984375 27.296875 
Q 14.984375 17.484375 19.15625 11.84375 
Q 23.34375 6.203125 30.609375 6.203125 
Q 37.796875 6.203125 41.984375 11.859375 
Q 46.1875 17.53125 46.1875 27.296875 
Q 46.1875 37.015625 41.984375 42.703125 
Q 37.796875 48.390625 30.609375 48.390625 
z
M 30.609375 56 
Q 42.328125 56 49.015625 48.375 
Q 55.71875 40.765625 55.71875 27.296875 
Q 55.71875 13.875 49.015625 6.21875 
Q 42.328125 -1.421875 30.609375 -1.421875 
Q 18.84375 -1.421875 12.171875 6.21875 
Q 5.515625 13.875 5.515625 27.296875 
Q 5.515625 40.765625 12.171875 48.375 
Q 18.84375 56 30.609375 56 
z
" id="DejaVuSans-6f"/>
     <path d="M 41.109375 46.296875 
Q 39.59375 47.171875 37.8125 47.578125 
Q 36.03125 48 33.890625 48 
Q 26.265625 48 22.1875 43.046875 
Q 18.109375 38.09375 18.109375 28.8125 
L 18.109375 0 
L 9.078125 0 
L 9.078125 54.6875 
L 18.109375 54.6875 
L 18.109375 46.1875 
Q 20.953125 51.171875 25.484375 53.578125 
Q 30.03125 56 36.53125 56 
Q 37.453125 56 38.578125 55.875 
Q 39.703125 55.765625 41.0625 55.515625 
z
" id="DejaVuSans-72"/>
    </defs>
    <g transform="translate(73.82 134.689114)scale(0.16 -0.16)">
     <use xlink:href="#DejaVuSans-53"/>
     <use x="63.476562" xlink:href="#DejaVuSans-65"/>
     <use x="125" xlink:href="#DejaVuSans-6c"/>
     <use x="152.783203" xlink:href="#DejaVuSans-65"/>
     <use x="214.306641" xlink:href="#DejaVuSans-63"/>
     <use x="269.287109" xlink:href="#DejaVuSans-74"/>
     <use x="308.496094" xlink:href="#DejaVuSans-6f"/>
     <use x="369.677734" xlink:href="#DejaVuSans-72"/>
    </g>
   </g>
   <g id="text_8">
    <!-- Out -->
    <defs>
     <path d="M 39.40625 66.21875 
Q 28.65625 66.21875 22.328125 58.203125 
Q 16.015625 50.203125 16.015625 36.375 
Q 16.015625 22.609375 22.328125 14.59375 
Q 28.65625 6.59375 39.40625 6.59375 
Q 50.140625 6.59375 56.421875 14.59375 
Q 62.703125 22.609375 62.703125 36.375 
Q 62.703125 50.203125 56.421875 58.203125 
Q 50.140625 66.21875 39.40625 66.21875 
z
M 39.40625 74.21875 
Q 54.734375 74.21875 63.90625 63.9375 
Q 73.09375 53.65625 73.09375 36.375 
Q 73.09375 19.140625 63.90625 8.859375 
Q 54.734375 -1.421875 39.40625 -1.421875 
Q 24.03125 -1.421875 14.8125 8.828125 
Q 5.609375 19.09375 5.609375 36.375 
Q 5.609375 53.65625 14.8125 63.9375 
Q 24.03125 74.21875 39.40625 74.21875 
z
" id="DejaVuSans-4f"/>
     <path d="M 8.5 21.578125 
L 8.5 54.6875 
L 17.484375 54.6875 
L 17.484375 21.921875 
Q 17.484375 14.15625 20.5 10.265625 
Q 23.53125 6.390625 29.59375 6.390625 
Q 36.859375 6.390625 41.078125 11.03125 
Q 45.3125 15.671875 45.3125 23.6875 
L 45.3125 54.6875 
L 54.296875 54.6875 
L 54.296875 0 
L 45.3125 0 
L 45.3125 8.40625 
Q 42.046875 3.421875 37.71875 1 
Q 33.40625 -1.421875 27.6875 -1.421875 
Q 18.265625 -1.421875 13.375 4.4375 
Q 8.5 10.296875 8.5 21.578125 
z
M 31.109375 56 
z
" id="DejaVuSans-75"/>
    </defs>
    <g transform="translate(168.245 64.814601)scale(0.16 -0.16)">
     <use xlink:href="#DejaVuSans-4f"/>
     <use x="78.710938" xlink:href="#DejaVuSans-75"/>
     <use x="142.089844" xlink:href="#DejaVuSans-74"/>
    </g>
   </g>
   <g id="text_9">
    <!-- $D_1$ -->
    <g transform="translate(264.725 43.889601)scale(0.16 -0.16)">
     <use transform="translate(0 0.09375)" xlink:href="#DejaVuSans-44"/>
     <use transform="translate(77.958984 -16.3125)scale(0.7)" xlink:href="#DejaVuSans-31"/>
    </g>
   </g>
   <g id="text_10">
    <!-- Selector -->
    <g transform="translate(219.155 57.839601)scale(0.16 -0.16)">
     <use xlink:href="#DejaVuSans-53"/>
     <use x="63.476562" xlink:href="#DejaVuSans-65"/>
     <use x="125" xlink:href="#DejaVuSans-6c"/>
     <use x="152.783203" xlink:href="#DejaVuSans-65"/>
     <use x="214.306641" xlink:href="#DejaVuSans-63"/>
     <use x="269.287109" xlink:href="#DejaVuSans-74"/>
     <use x="308.496094" xlink:href="#DejaVuSans-6f"/>
     <use x="369.677734" xlink:href="#DejaVuSans-72"/>
    </g>
   </g>
   <g id="text_11">
    <!-- $D_0$ -->
    <g transform="translate(264.725 113.639601)scale(0.16 -0.16)">
     <use transform="translate(0 0.09375)" xlink:href="#DejaVuSans-44"/>
     <use transform="translate(77.958984 -16.3125)scale(0.7)" xlink:href="#DejaVuSans-30"/>
    </g>
   </g>
   <g id="text_12">
    <!-- Out -->
    <g transform="translate(570.005 78.764601)scale(0.16 -0.16)">
     <use xlink:href="#DejaVuSans-4f"/>
     <use x="78.710938" xlink:href="#DejaVuSans-75"/>
     <use x="142.089844" xlink:href="#DejaVuSans-74"/>
    </g>
   </g>
  </g>
 </g>
 <defs>
  <clipPath id="p7dac002ce0">
   <rect height="116.891214" width="585.63" x="10.7" y="10.7"/>
  </clipPath>
 </defs>
</svg>
