<?xml version="1.0" encoding="utf-8" standalone="no"?>
<!DOCTYPE svg PUBLIC "-//W3C//DTD SVG 1.1//EN"
  "http://www.w3.org/Graphics/SVG/1.1/DTD/svg11.dtd">
<!-- Created with matplotlib (http://matplotlib.org/) -->
<svg height="113.3519pt" version="1.1" viewBox="0 0 425.266 113.3519" width="425.266pt" xmlns="http://www.w3.org/2000/svg" xmlns:xlink="http://www.w3.org/1999/xlink">
 <defs>
  <style type="text/css">
*{stroke-linecap:butt;stroke-linejoin:round;}
  </style>
 </defs>
 <g id="figure_1">
  <g id="patch_1">
   <path d="M 0 113.3519 
L 425.266 113.3519 
L 425.266 0 
L 0 0 
z
" style="fill:none;"/>
  </g>
  <g id="axes_1">
   <g id="patch_2">
    <path clip-path="url(#pcb97349ba3)" d="M 80.603 45.315995 
C 84.897859 45.315995 89.021206 43.845264 92.05813 41.230135 
C 95.095054 38.615006 96.803 35.064347 96.803 31.365995 
C 96.803 27.667644 95.095054 24.116985 92.05813 21.501856 
C 89.021206 18.886727 84.897859 17.415995 80.603 17.415995 
" style="fill:none;stroke:#000000;stroke-linejoin:miter;stroke-width:1.5;"/>
   </g>
   <g id="patch_3">
    <path clip-path="url(#pcb97349ba3)" d="M 81.003574 95.935905 
C 85.298433 95.935905 89.421779 94.465174 92.458703 91.850045 
C 95.495628 89.234915 97.203574 85.684256 97.203574 81.985905 
C 97.203574 78.287554 95.495628 74.736895 92.458703 72.121765 
C 89.421779 69.506636 85.298433 68.035905 81.003574 68.035905 
" style="fill:none;stroke:#000000;stroke-linejoin:miter;stroke-width:1.5;"/>
   </g>
   <g id="line2d_1">
    <path clip-path="url(#pcb97349ba3)" d="M 48.203 31.365995 
M 104.579 31.365995 
L 108.143 31.365995 
" style="fill:none;stroke:#000000;stroke-linecap:round;stroke-width:1.5;"/>
   </g>
   <g id="line2d_2">
    <path clip-path="url(#pcb97349ba3)" d="M 59.543 31.365995 
L 59.543 45.315995 
L 80.603 45.315995 
" style="fill:none;stroke:#000000;stroke-linecap:round;stroke-width:1.5;"/>
   </g>
   <g id="line2d_3">
    <path clip-path="url(#pcb97349ba3)" d="M 59.543 31.365995 
L 59.543 17.415995 
L 80.603 17.415995 
" style="fill:none;stroke:#000000;stroke-linecap:round;stroke-width:1.5;"/>
   </g>
   <g id="line2d_4">
    <path clip-path="url(#pcb97349ba3)" d="M 48.203 38.340995 
L 59.543 38.340995 
" style="fill:none;stroke:#000000;stroke-linecap:round;stroke-width:1.5;"/>
   </g>
   <g id="line2d_5">
    <path clip-path="url(#pcb97349ba3)" d="M 48.203 24.390995 
L 59.543 24.390995 
" style="fill:none;stroke:#000000;stroke-linecap:round;stroke-width:1.5;"/>
   </g>
   <g id="line2d_6">
    <path clip-path="url(#pcb97349ba3)" d="M 48.203 38.340995 
L 48.203 43.572245 
L 48.203 48.803495 
" style="fill:none;stroke:#000000;stroke-linecap:round;stroke-width:1.5;"/>
   </g>
   <g id="line2d_7">
    <path clip-path="url(#pcb97349ba3)" d="M 48.203 48.803495 
L 84.448287 60.16345 
L 120.693574 71.523405 
" style="fill:none;stroke:#000000;stroke-linecap:round;stroke-width:1.5;"/>
   </g>
   <g id="line2d_8">
    <path clip-path="url(#pcb97349ba3)" d="M 120.693574 71.523405 
L 120.693574 76.754655 
L 120.693574 81.985905 
" style="fill:none;stroke:#000000;stroke-linecap:round;stroke-width:1.5;"/>
   </g>
   <g id="line2d_9">
    <path clip-path="url(#pcb97349ba3)" d="M 120.693574 81.985905 
L 114.618574 81.985905 
L 108.543574 81.985905 
" style="fill:none;stroke:#000000;stroke-linecap:round;stroke-width:1.5;"/>
   </g>
   <g id="line2d_10">
    <path clip-path="url(#pcb97349ba3)" d="M 48.603574 81.985905 
M 104.979574 81.985905 
L 108.543574 81.985905 
" style="fill:none;stroke:#000000;stroke-linecap:round;stroke-width:1.5;"/>
   </g>
   <g id="line2d_11">
    <path clip-path="url(#pcb97349ba3)" d="M 59.943574 81.985905 
L 59.943574 68.035905 
L 81.003574 68.035905 
" style="fill:none;stroke:#000000;stroke-linecap:round;stroke-width:1.5;"/>
   </g>
   <g id="line2d_12">
    <path clip-path="url(#pcb97349ba3)" d="M 59.943574 81.985905 
L 59.943574 95.935905 
L 81.003574 95.935905 
" style="fill:none;stroke:#000000;stroke-linecap:round;stroke-width:1.5;"/>
   </g>
   <g id="line2d_13">
    <path clip-path="url(#pcb97349ba3)" d="M 48.603574 75.010905 
L 59.943574 75.010905 
" style="fill:none;stroke:#000000;stroke-linecap:round;stroke-width:1.5;"/>
   </g>
   <g id="line2d_14">
    <path clip-path="url(#pcb97349ba3)" d="M 48.603574 88.960905 
L 59.943574 88.960905 
" style="fill:none;stroke:#000000;stroke-linecap:round;stroke-width:1.5;"/>
   </g>
   <g id="line2d_15">
    <path clip-path="url(#pcb97349ba3)" d="M 48.603574 75.010905 
L 48.603574 69.779655 
L 48.603574 64.548405 
" style="fill:none;stroke:#000000;stroke-linecap:round;stroke-width:1.5;"/>
   </g>
   <g id="line2d_16">
    <path clip-path="url(#pcb97349ba3)" d="M 48.603574 64.548405 
L 84.84886 53.18845 
L 121.094147 41.828495 
" style="fill:none;stroke:#000000;stroke-linecap:round;stroke-width:1.5;"/>
   </g>
   <g id="line2d_17">
    <path clip-path="url(#pcb97349ba3)" d="M 121.094147 41.828495 
L 121.094147 36.597245 
L 121.094147 31.365995 
" style="fill:none;stroke:#000000;stroke-linecap:round;stroke-width:1.5;"/>
   </g>
   <g id="line2d_18">
    <path clip-path="url(#pcb97349ba3)" d="M 121.094147 31.365995 
L 115.019147 31.365995 
L 108.944147 31.365995 
" style="fill:none;stroke:#000000;stroke-linecap:round;stroke-width:1.5;"/>
   </g>
   <g id="line2d_19">
    <path clip-path="url(#pcb97349ba3)" d="M 121.094147 31.365995 
L 115.019147 31.365995 
L 108.944147 31.365995 
" style="fill:none;stroke:#000000;stroke-linecap:round;stroke-width:1.5;"/>
   </g>
   <g id="line2d_20">
    <path clip-path="url(#pcb97349ba3)" d="M 108.143 31.365995 
L 120.293 31.365995 
L 132.443 31.365995 
" style="fill:none;stroke:#000000;stroke-linecap:round;stroke-width:1.5;"/>
   </g>
   <g id="line2d_21">
    <path clip-path="url(#pcb97349ba3)" d="M 108.543574 81.985905 
L 120.693574 81.985905 
L 132.843574 81.985905 
" style="fill:none;stroke:#000000;stroke-linecap:round;stroke-width:1.5;"/>
   </g>
   <g id="line2d_22">
    <path clip-path="url(#pcb97349ba3)" d="M 48.203 24.390995 
L 40.103 24.390995 
L 32.003 24.390995 
" style="fill:none;stroke:#000000;stroke-linecap:round;stroke-width:1.5;"/>
   </g>
   <g id="line2d_23">
    <path clip-path="url(#pcb97349ba3)" d="M 48.603574 88.960905 
L 40.503574 88.960905 
L 32.403574 88.960905 
" style="fill:none;stroke:#000000;stroke-linecap:round;stroke-width:1.5;"/>
   </g>
   <g id="line2d_24">
    <path clip-path="url(#pcb97349ba3)" d="M 121.094147 31.365995 
" style="fill:none;stroke:#000000;stroke-linecap:round;stroke-width:1.5;"/>
   </g>
   <g id="line2d_25">
    <path clip-path="url(#pcb97349ba3)" d="M 120.693574 81.985905 
" style="fill:none;stroke:#000000;stroke-linecap:round;stroke-width:1.5;"/>
   </g>
   <g id="line2d_26">
    <path clip-path="url(#pcb97349ba3)" d="M 307.403 31.365995 
M 365.399 31.365995 
L 368.963 31.365995 
" style="fill:none;stroke:#000000;stroke-linecap:round;stroke-width:1.5;"/>
   </g>
   <g id="line2d_27">
    <path clip-path="url(#pcb97349ba3)" d="M 318.743 45.036995 
L 334.943 45.036995 
L 335.405857 45.031302 
L 335.868714 45.01422 
L 336.331571 44.985751 
L 336.794429 44.945893 
L 337.257286 44.894649 
L 337.720143 44.832016 
L 338.183 44.757995 
L 338.645857 44.672587 
L 339.108714 44.575791 
L 339.571571 44.467608 
L 340.034429 44.348036 
L 340.497286 44.217077 
L 340.960143 44.07473 
L 341.423 43.920995 
L 341.885857 43.755873 
L 342.348714 43.579363 
L 342.811571 43.391465 
L 343.274429 43.192179 
L 343.737286 42.981506 
L 344.200143 42.759444 
L 344.663 42.525995 
L 345.125857 42.281159 
L 345.588714 42.024934 
L 346.051571 41.757322 
L 346.514429 41.478322 
L 346.977286 41.187934 
L 347.440143 40.886159 
L 347.903 40.572995 
L 348.365857 40.248444 
L 348.828714 39.912506 
L 349.291571 39.565179 
L 349.754429 39.206465 
L 350.217286 38.836363 
L 350.680143 38.454873 
L 351.143 38.061995 
L 351.605857 37.65773 
L 352.068714 37.242077 
L 352.531571 36.815036 
L 352.994429 36.376608 
L 353.457286 35.926791 
L 353.920143 35.465587 
L 354.383 34.992995 
L 354.845857 34.509016 
L 355.308714 34.013649 
L 355.771571 33.506893 
L 356.234429 32.988751 
L 356.697286 32.45922 
L 357.160143 31.918302 
L 357.623 31.365995 
" style="fill:none;stroke:#000000;stroke-linecap:round;stroke-width:1.5;"/>
   </g>
   <g id="line2d_28">
    <path clip-path="url(#pcb97349ba3)" d="M 318.743 17.694995 
L 334.943 17.694995 
L 335.405857 17.700689 
L 335.868714 17.717771 
L 336.331571 17.74624 
L 336.794429 17.786098 
L 337.257286 17.837342 
L 337.720143 17.899975 
L 338.183 17.973995 
L 338.645857 18.059404 
L 339.108714 18.1562 
L 339.571571 18.264383 
L 340.034429 18.383955 
L 340.497286 18.514914 
L 340.960143 18.657261 
L 341.423 18.810995 
L 341.885857 18.976118 
L 342.348714 19.152628 
L 342.811571 19.340526 
L 343.274429 19.539812 
L 343.737286 19.750485 
L 344.200143 19.972546 
L 344.663 20.205995 
L 345.125857 20.450832 
L 345.588714 20.707057 
L 346.051571 20.974669 
L 346.514429 21.253669 
L 346.977286 21.544057 
L 347.440143 21.845832 
L 347.903 22.158995 
L 348.365857 22.483546 
L 348.828714 22.819485 
L 349.291571 23.166812 
L 349.754429 23.525526 
L 350.217286 23.895628 
L 350.680143 24.277118 
L 351.143 24.669995 
L 351.605857 25.074261 
L 352.068714 25.489914 
L 352.531571 25.916955 
L 352.994429 26.355383 
L 353.457286 26.8052 
L 353.920143 27.266404 
L 354.383 27.738995 
L 354.845857 28.222975 
L 355.308714 28.718342 
L 355.771571 29.225098 
L 356.234429 29.74324 
L 356.697286 30.272771 
L 357.160143 30.813689 
L 357.623 31.365995 
" style="fill:none;stroke:#000000;stroke-linecap:round;stroke-width:1.5;"/>
   </g>
   <g id="line2d_29">
    <path clip-path="url(#pcb97349ba3)" d="M 318.743 45.036995 
L 319.36508 44.478995 
L 319.96124 43.920995 
L 320.53148 43.362995 
L 321.0758 42.804995 
L 321.5942 42.246995 
L 322.08668 41.688995 
L 322.55324 41.130995 
L 322.99388 40.572995 
L 323.4086 40.014995 
L 323.7974 39.456995 
L 324.16028 38.898995 
L 324.49724 38.340995 
L 324.80828 37.782995 
L 325.0934 37.224995 
L 325.3526 36.666995 
L 325.58588 36.108995 
L 325.79324 35.550995 
L 325.97468 34.992995 
L 326.1302 34.434995 
L 326.2598 33.876995 
L 326.36348 33.318995 
L 326.44124 32.760995 
L 326.49308 32.202995 
L 326.519 31.644995 
L 326.519 31.086995 
L 326.49308 30.528995 
L 326.44124 29.970995 
L 326.36348 29.412995 
L 326.2598 28.854995 
L 326.1302 28.296995 
L 325.97468 27.738995 
L 325.79324 27.180995 
L 325.58588 26.622995 
L 325.3526 26.064995 
L 325.0934 25.506995 
L 324.80828 24.948995 
L 324.49724 24.390995 
L 324.16028 23.832995 
L 323.7974 23.274995 
L 323.4086 22.716995 
L 322.99388 22.158995 
L 322.55324 21.600995 
L 322.08668 21.042995 
L 321.5942 20.484995 
L 321.0758 19.926995 
L 320.53148 19.368995 
L 319.96124 18.810995 
L 319.36508 18.252995 
L 318.743 17.694995 
" style="fill:none;stroke:#000000;stroke-linecap:round;stroke-width:1.5;"/>
   </g>
   <g id="line2d_30">
    <path clip-path="url(#pcb97349ba3)" d="M 307.403 38.340995 
L 324.49724 38.340995 
" style="fill:none;stroke:#000000;stroke-linecap:round;stroke-width:1.5;"/>
   </g>
   <g id="line2d_31">
    <path clip-path="url(#pcb97349ba3)" d="M 307.403 24.390995 
L 324.49724 24.390995 
" style="fill:none;stroke:#000000;stroke-linecap:round;stroke-width:1.5;"/>
   </g>
   <g id="line2d_32">
    <path clip-path="url(#pcb97349ba3)" d="M 307.403 38.340995 
L 307.403 43.572245 
L 307.403 48.803495 
" style="fill:none;stroke:#000000;stroke-linecap:round;stroke-width:1.5;"/>
   </g>
   <g id="line2d_33">
    <path clip-path="url(#pcb97349ba3)" d="M 307.403 48.803495 
L 343.648287 60.16345 
L 379.893574 71.523405 
" style="fill:none;stroke:#000000;stroke-linecap:round;stroke-width:1.5;"/>
   </g>
   <g id="line2d_34">
    <path clip-path="url(#pcb97349ba3)" d="M 379.893574 71.523405 
L 379.893574 76.754655 
L 379.893574 81.985905 
" style="fill:none;stroke:#000000;stroke-linecap:round;stroke-width:1.5;"/>
   </g>
   <g id="line2d_35">
    <path clip-path="url(#pcb97349ba3)" d="M 379.893574 81.985905 
L 373.818574 81.985905 
L 367.743574 81.985905 
" style="fill:none;stroke:#000000;stroke-linecap:round;stroke-width:1.5;"/>
   </g>
   <g id="line2d_36">
    <path clip-path="url(#pcb97349ba3)" d="M 306.183574 81.985905 
M 364.179574 81.985905 
L 367.743574 81.985905 
" style="fill:none;stroke:#000000;stroke-linecap:round;stroke-width:1.5;"/>
   </g>
   <g id="line2d_37">
    <path clip-path="url(#pcb97349ba3)" d="M 317.523574 68.314905 
L 333.723574 68.314905 
L 334.186431 68.320599 
L 334.649288 68.337681 
L 335.112145 68.36615 
L 335.575002 68.406007 
L 336.037859 68.457252 
L 336.500716 68.519885 
L 336.963574 68.593905 
L 337.426431 68.679313 
L 337.889288 68.776109 
L 338.352145 68.884293 
L 338.815002 69.003864 
L 339.277859 69.134823 
L 339.740716 69.27717 
L 340.203574 69.430905 
L 340.666431 69.596027 
L 341.129288 69.772538 
L 341.592145 69.960436 
L 342.055002 70.159721 
L 342.517859 70.370395 
L 342.980716 70.592456 
L 343.443574 70.825905 
L 343.906431 71.070742 
L 344.369288 71.326966 
L 344.832145 71.594578 
L 345.295002 71.873578 
L 345.757859 72.163966 
L 346.220716 72.465742 
L 346.683574 72.778905 
L 347.146431 73.103456 
L 347.609288 73.439395 
L 348.072145 73.786721 
L 348.535002 74.145436 
L 348.997859 74.515538 
L 349.460716 74.897027 
L 349.923574 75.289905 
L 350.386431 75.69417 
L 350.849288 76.109823 
L 351.312145 76.536864 
L 351.775002 76.975293 
L 352.237859 77.425109 
L 352.700716 77.886313 
L 353.163574 78.358905 
L 353.626431 78.842885 
L 354.089288 79.338252 
L 354.552145 79.845007 
L 355.015002 80.36315 
L 355.477859 80.892681 
L 355.940716 81.433599 
L 356.403574 81.985905 
" style="fill:none;stroke:#000000;stroke-linecap:round;stroke-width:1.5;"/>
   </g>
   <g id="line2d_38">
    <path clip-path="url(#pcb97349ba3)" d="M 317.523574 95.656905 
L 333.723574 95.656905 
L 334.186431 95.651211 
L 334.649288 95.634129 
L 335.112145 95.60566 
L 335.575002 95.565803 
L 336.037859 95.514558 
L 336.500716 95.451925 
L 336.963574 95.377905 
L 337.426431 95.292497 
L 337.889288 95.195701 
L 338.352145 95.087517 
L 338.815002 94.967946 
L 339.277859 94.836987 
L 339.740716 94.69464 
L 340.203574 94.540905 
L 340.666431 94.375783 
L 341.129288 94.199272 
L 341.592145 94.011374 
L 342.055002 93.812089 
L 342.517859 93.601415 
L 342.980716 93.379354 
L 343.443574 93.145905 
L 343.906431 92.901068 
L 344.369288 92.644844 
L 344.832145 92.377232 
L 345.295002 92.098232 
L 345.757859 91.807844 
L 346.220716 91.506068 
L 346.683574 91.192905 
L 347.146431 90.868354 
L 347.609288 90.532415 
L 348.072145 90.185089 
L 348.535002 89.826374 
L 348.997859 89.456272 
L 349.460716 89.074783 
L 349.923574 88.681905 
L 350.386431 88.27764 
L 350.849288 87.861987 
L 351.312145 87.434946 
L 351.775002 86.996517 
L 352.237859 86.546701 
L 352.700716 86.085497 
L 353.163574 85.612905 
L 353.626431 85.128925 
L 354.089288 84.633558 
L 354.552145 84.126803 
L 355.015002 83.60866 
L 355.477859 83.079129 
L 355.940716 82.538211 
L 356.403574 81.985905 
" style="fill:none;stroke:#000000;stroke-linecap:round;stroke-width:1.5;"/>
   </g>
   <g id="line2d_39">
    <path clip-path="url(#pcb97349ba3)" d="M 317.523574 68.314905 
L 318.145654 68.872905 
L 318.741814 69.430905 
L 319.312054 69.988905 
L 319.856374 70.546905 
L 320.374774 71.104905 
L 320.867254 71.662905 
L 321.333814 72.220905 
L 321.774454 72.778905 
L 322.189174 73.336905 
L 322.577974 73.894905 
L 322.940854 74.452905 
L 323.277814 75.010905 
L 323.588854 75.568905 
L 323.873974 76.126905 
L 324.133174 76.684905 
L 324.366454 77.242905 
L 324.573814 77.800905 
L 324.755254 78.358905 
L 324.910774 78.916905 
L 325.040374 79.474905 
L 325.144054 80.032905 
L 325.221814 80.590905 
L 325.273654 81.148905 
L 325.299574 81.706905 
L 325.299574 82.264905 
L 325.273654 82.822905 
L 325.221814 83.380905 
L 325.144054 83.938905 
L 325.040374 84.496905 
L 324.910774 85.054905 
L 324.755254 85.612905 
L 324.573814 86.170905 
L 324.366454 86.728905 
L 324.133174 87.286905 
L 323.873974 87.844905 
L 323.588854 88.402905 
L 323.277814 88.960905 
L 322.940854 89.518905 
L 322.577974 90.076905 
L 322.189174 90.634905 
L 321.774454 91.192905 
L 321.333814 91.750905 
L 320.867254 92.308905 
L 320.374774 92.866905 
L 319.856374 93.424905 
L 319.312054 93.982905 
L 318.741814 94.540905 
L 318.145654 95.098905 
L 317.523574 95.656905 
" style="fill:none;stroke:#000000;stroke-linecap:round;stroke-width:1.5;"/>
   </g>
   <g id="line2d_40">
    <path clip-path="url(#pcb97349ba3)" d="M 306.183574 75.010905 
L 323.277814 75.010905 
" style="fill:none;stroke:#000000;stroke-linecap:round;stroke-width:1.5;"/>
   </g>
   <g id="line2d_41">
    <path clip-path="url(#pcb97349ba3)" d="M 306.183574 88.960905 
L 323.277814 88.960905 
" style="fill:none;stroke:#000000;stroke-linecap:round;stroke-width:1.5;"/>
   </g>
   <g id="line2d_42">
    <path clip-path="url(#pcb97349ba3)" d="M 306.183574 75.010905 
L 306.183574 69.779655 
L 306.183574 64.548405 
" style="fill:none;stroke:#000000;stroke-linecap:round;stroke-width:1.5;"/>
   </g>
   <g id="line2d_43">
    <path clip-path="url(#pcb97349ba3)" d="M 306.183574 64.548405 
L 342.42886 53.18845 
L 378.674147 41.828495 
" style="fill:none;stroke:#000000;stroke-linecap:round;stroke-width:1.5;"/>
   </g>
   <g id="line2d_44">
    <path clip-path="url(#pcb97349ba3)" d="M 378.674147 41.828495 
L 378.674147 36.597245 
L 378.674147 31.365995 
" style="fill:none;stroke:#000000;stroke-linecap:round;stroke-width:1.5;"/>
   </g>
   <g id="line2d_45">
    <path clip-path="url(#pcb97349ba3)" d="M 378.674147 31.365995 
L 372.599147 31.365995 
L 366.524147 31.365995 
" style="fill:none;stroke:#000000;stroke-linecap:round;stroke-width:1.5;"/>
   </g>
   <g id="line2d_46">
    <path clip-path="url(#pcb97349ba3)" d="M 378.674147 31.365995 
L 372.599147 31.365995 
L 366.524147 31.365995 
" style="fill:none;stroke:#000000;stroke-linecap:round;stroke-width:1.5;"/>
   </g>
   <g id="line2d_47">
    <path clip-path="url(#pcb97349ba3)" d="M 368.963 31.365995 
L 381.113 31.365995 
L 393.263 31.365995 
" style="fill:none;stroke:#000000;stroke-linecap:round;stroke-width:1.5;"/>
   </g>
   <g id="line2d_48">
    <path clip-path="url(#pcb97349ba3)" d="M 367.743574 81.985905 
L 379.893574 81.985905 
L 392.043574 81.985905 
" style="fill:none;stroke:#000000;stroke-linecap:round;stroke-width:1.5;"/>
   </g>
   <g id="line2d_49">
    <path clip-path="url(#pcb97349ba3)" d="M 307.403 24.390995 
L 299.303 24.390995 
L 291.203 24.390995 
" style="fill:none;stroke:#000000;stroke-linecap:round;stroke-width:1.5;"/>
   </g>
   <g id="line2d_50">
    <path clip-path="url(#pcb97349ba3)" d="M 306.183574 88.960905 
L 298.083574 88.960905 
L 289.983574 88.960905 
" style="fill:none;stroke:#000000;stroke-linecap:round;stroke-width:1.5;"/>
   </g>
   <g id="line2d_51">
    <path clip-path="url(#pcb97349ba3)" d="M 378.674147 31.365995 
" style="fill:none;stroke:#000000;stroke-linecap:round;stroke-width:1.5;"/>
   </g>
   <g id="line2d_52">
    <path clip-path="url(#pcb97349ba3)" d="M 379.893574 81.985905 
" style="fill:none;stroke:#000000;stroke-linecap:round;stroke-width:1.5;"/>
   </g>
   <g id="patch_4">
    <path clip-path="url(#pcb97349ba3)" d="M 100.691 34.713995 
C 101.72211 34.713995 102.711127 34.361229 103.440231 33.733389 
C 104.169336 33.105549 104.579 32.253895 104.579 31.365995 
C 104.579 30.478095 104.169336 29.626442 103.440231 28.998602 
C 102.711127 28.370762 101.72211 28.017995 100.691 28.017995 
C 99.65989 28.017995 98.670873 28.370762 97.941769 28.998602 
C 97.212664 29.626442 96.803 30.478095 96.803 31.365995 
C 96.803 32.253895 97.212664 33.105549 97.941769 33.733389 
C 98.670873 34.361229 99.65989 34.713995 100.691 34.713995 
z
" style="fill:none;stroke:#000000;stroke-linejoin:miter;stroke-width:1.5;"/>
   </g>
   <g id="patch_5">
    <path clip-path="url(#pcb97349ba3)" d="M 101.091574 85.333905 
C 102.122683 85.333905 103.1117 84.981139 103.840805 84.353299 
C 104.569909 83.725458 104.979574 82.873805 104.979574 81.985905 
C 104.979574 81.098005 104.569909 80.246352 103.840805 79.618511 
C 103.1117 78.990671 102.122683 78.637905 101.091574 78.637905 
C 100.060464 78.637905 99.071447 78.990671 98.342342 79.618511 
C 97.613238 80.246352 97.203574 81.098005 97.203574 81.985905 
C 97.203574 82.873805 97.613238 83.725458 98.342342 84.353299 
C 99.071447 84.981139 100.060464 85.333905 101.091574 85.333905 
z
" style="fill:none;stroke:#000000;stroke-linejoin:miter;stroke-width:1.5;"/>
   </g>
   <g id="patch_6">
    <path clip-path="url(#pcb97349ba3)" d="M 121.094147 33.458495 
C 121.738591 33.458495 122.356726 33.238016 122.812417 32.845616 
C 123.268107 32.453216 123.524147 31.920933 123.524147 31.365995 
C 123.524147 30.811058 123.268107 30.278775 122.812417 29.886375 
C 122.356726 29.493974 121.738591 29.273495 121.094147 29.273495 
C 120.449704 29.273495 119.831568 29.493974 119.375878 29.886375 
C 118.920187 30.278775 118.664147 30.811058 118.664147 31.365995 
C 118.664147 31.920933 118.920187 32.453216 119.375878 32.845616 
C 119.831568 33.238016 120.449704 33.458495 121.094147 33.458495 
z
" style="stroke:#000000;stroke-linejoin:miter;stroke-width:1.5;"/>
   </g>
   <g id="patch_7">
    <path clip-path="url(#pcb97349ba3)" d="M 120.693574 84.078405 
C 121.338017 84.078405 121.956153 83.857926 122.411843 83.465526 
C 122.867533 83.073126 123.123574 82.540842 123.123574 81.985905 
C 123.123574 81.430968 122.867533 80.898684 122.411843 80.506284 
C 121.956153 80.113884 121.338017 79.893405 120.693574 79.893405 
C 120.04913 79.893405 119.430995 80.113884 118.975304 80.506284 
C 118.519614 80.898684 118.263574 81.430968 118.263574 81.985905 
C 118.263574 82.540842 118.519614 83.073126 118.975304 83.465526 
C 119.430995 83.857926 120.04913 84.078405 120.693574 84.078405 
z
" style="stroke:#000000;stroke-linejoin:miter;stroke-width:1.5;"/>
   </g>
   <g id="patch_8">
    <path clip-path="url(#pcb97349ba3)" d="M 361.511 34.713995 
C 362.54211 34.713995 363.531127 34.361229 364.260231 33.733389 
C 364.989336 33.105549 365.399 32.253895 365.399 31.365995 
C 365.399 30.478095 364.989336 29.626442 364.260231 28.998602 
C 363.531127 28.370762 362.54211 28.017995 361.511 28.017995 
C 360.47989 28.017995 359.490873 28.370762 358.761769 28.998602 
C 358.032664 29.626442 357.623 30.478095 357.623 31.365995 
C 357.623 32.253895 358.032664 33.105549 358.761769 33.733389 
C 359.490873 34.361229 360.47989 34.713995 361.511 34.713995 
z
" style="fill:none;stroke:#000000;stroke-linejoin:miter;stroke-width:1.5;"/>
   </g>
   <g id="patch_9">
    <path clip-path="url(#pcb97349ba3)" d="M 360.291574 85.333905 
C 361.322683 85.333905 362.3117 84.981139 363.040805 84.353299 
C 363.769909 83.725458 364.179574 82.873805 364.179574 81.985905 
C 364.179574 81.098005 363.769909 80.246352 363.040805 79.618511 
C 362.3117 78.990671 361.322683 78.637905 360.291574 78.637905 
C 359.260464 78.637905 358.271447 78.990671 357.542342 79.618511 
C 356.813238 80.246352 356.403574 81.098005 356.403574 81.985905 
C 356.403574 82.873805 356.813238 83.725458 357.542342 84.353299 
C 358.271447 84.981139 359.260464 85.333905 360.291574 85.333905 
z
" style="fill:none;stroke:#000000;stroke-linejoin:miter;stroke-width:1.5;"/>
   </g>
   <g id="patch_10">
    <path clip-path="url(#pcb97349ba3)" d="M 378.674147 33.458495 
C 379.318591 33.458495 379.936726 33.238016 380.392417 32.845616 
C 380.848107 32.453216 381.104147 31.920933 381.104147 31.365995 
C 381.104147 30.811058 380.848107 30.278775 380.392417 29.886375 
C 379.936726 29.493974 379.318591 29.273495 378.674147 29.273495 
C 378.029704 29.273495 377.411568 29.493974 376.955878 29.886375 
C 376.500187 30.278775 376.244147 30.811058 376.244147 31.365995 
C 376.244147 31.920933 376.500187 32.453216 376.955878 32.845616 
C 377.411568 33.238016 378.029704 33.458495 378.674147 33.458495 
z
" style="stroke:#000000;stroke-linejoin:miter;stroke-width:1.5;"/>
   </g>
   <g id="patch_11">
    <path clip-path="url(#pcb97349ba3)" d="M 379.893574 84.078405 
C 380.538017 84.078405 381.156153 83.857926 381.611843 83.465526 
C 382.067533 83.073126 382.323574 82.540842 382.323574 81.985905 
C 382.323574 81.430968 382.067533 80.898684 381.611843 80.506284 
C 381.156153 80.113884 380.538017 79.893405 379.893574 79.893405 
C 379.24913 79.893405 378.630995 80.113884 378.175304 80.506284 
C 377.719614 80.898684 377.463574 81.430968 377.463574 81.985905 
C 377.463574 82.540842 377.719614 83.073126 378.175304 83.465526 
C 378.630995 83.857926 379.24913 84.078405 379.893574 84.078405 
z
" style="stroke:#000000;stroke-linejoin:miter;stroke-width:1.5;"/>
   </g>
   <g id="text_1">
    <!-- $Q$ -->
    <defs>
     <path d="M 39.40625 66.21875 
Q 28.65625 66.21875 22.328125 58.203125 
Q 16.015625 50.203125 16.015625 36.375 
Q 16.015625 22.609375 22.328125 14.59375 
Q 28.65625 6.59375 39.40625 6.59375 
Q 50.140625 6.59375 56.421875 14.59375 
Q 62.703125 22.609375 62.703125 36.375 
Q 62.703125 50.203125 56.421875 58.203125 
Q 50.140625 66.21875 39.40625 66.21875 
z
M 53.21875 1.3125 
L 66.21875 -12.890625 
L 54.296875 -12.890625 
L 43.5 -1.21875 
Q 41.890625 -1.3125 41.03125 -1.359375 
Q 40.1875 -1.421875 39.40625 -1.421875 
Q 24.03125 -1.421875 14.8125 8.859375 
Q 5.609375 19.140625 5.609375 36.375 
Q 5.609375 53.65625 14.8125 63.9375 
Q 24.03125 74.21875 39.40625 74.21875 
Q 54.734375 74.21875 63.90625 63.9375 
Q 73.09375 53.65625 73.09375 36.375 
Q 73.09375 23.6875 67.984375 14.640625 
Q 62.890625 5.609375 53.21875 1.3125 
z
" id="DejaVuSans-51"/>
    </defs>
    <g transform="translate(135.683 35.780995)scale(0.16 -0.16)">
     <use transform="translate(0 0.78125)" xlink:href="#DejaVuSans-51"/>
    </g>
   </g>
   <g id="text_2">
    <!-- $\overline{Q}$ -->
    <g transform="translate(136.083574 87.618405)scale(0.16 -0.16)">
     <use transform="translate(0 0.53125)" xlink:href="#DejaVuSans-51"/>
     <path d="M 0 86.5 
L 0 92.75 
L 78.710938 92.75 
L 78.710938 86.5 
L 0 86.5 
z
"/>
    </g>
   </g>
   <g id="text_3">
    <!-- $\overline{S}$ -->
    <defs>
     <path d="M 53.515625 70.515625 
L 53.515625 60.890625 
Q 47.90625 63.578125 42.921875 64.890625 
Q 37.9375 66.21875 33.296875 66.21875 
Q 25.25 66.21875 20.875 63.09375 
Q 16.5 59.96875 16.5 54.203125 
Q 16.5 49.359375 19.40625 46.890625 
Q 22.3125 44.4375 30.421875 42.921875 
L 36.375 41.703125 
Q 47.40625 39.59375 52.65625 34.296875 
Q 57.90625 29 57.90625 20.125 
Q 57.90625 9.515625 50.796875 4.046875 
Q 43.703125 -1.421875 29.984375 -1.421875 
Q 24.8125 -1.421875 18.96875 -0.25 
Q 13.140625 0.921875 6.890625 3.21875 
L 6.890625 13.375 
Q 12.890625 10.015625 18.65625 8.296875 
Q 24.421875 6.59375 29.984375 6.59375 
Q 38.421875 6.59375 43.015625 9.90625 
Q 47.609375 13.234375 47.609375 19.390625 
Q 47.609375 24.75 44.3125 27.78125 
Q 41.015625 30.8125 33.5 32.328125 
L 27.484375 33.5 
Q 16.453125 35.6875 11.515625 40.375 
Q 6.59375 45.0625 6.59375 53.421875 
Q 6.59375 63.09375 13.40625 68.65625 
Q 20.21875 74.21875 32.171875 74.21875 
Q 37.3125 74.21875 42.625 73.28125 
Q 47.953125 72.359375 53.515625 70.515625 
z
" id="DejaVuSans-53"/>
    </defs>
    <g transform="translate(18.523 29.143495)scale(0.16 -0.16)">
     <use transform="translate(0 0.53125)" xlink:href="#DejaVuSans-53"/>
     <path d="M 0 86.5 
L 0 92.75 
L 63.476562 92.75 
L 63.476562 86.5 
L 0 86.5 
z
"/>
    </g>
   </g>
   <g id="text_4">
    <!-- $\overline{R}$ -->
    <defs>
     <path d="M 44.390625 34.1875 
Q 47.5625 33.109375 50.5625 29.59375 
Q 53.5625 26.078125 56.59375 19.921875 
L 66.609375 0 
L 56 0 
L 46.6875 18.703125 
Q 43.0625 26.03125 39.671875 28.421875 
Q 36.28125 30.8125 30.421875 30.8125 
L 19.671875 30.8125 
L 19.671875 0 
L 9.8125 0 
L 9.8125 72.90625 
L 32.078125 72.90625 
Q 44.578125 72.90625 50.734375 67.671875 
Q 56.890625 62.453125 56.890625 51.90625 
Q 56.890625 45.015625 53.6875 40.46875 
Q 50.484375 35.9375 44.390625 34.1875 
z
M 19.671875 64.796875 
L 19.671875 38.921875 
L 32.078125 38.921875 
Q 39.203125 38.921875 42.84375 42.21875 
Q 46.484375 45.515625 46.484375 51.90625 
Q 46.484375 58.296875 42.84375 61.546875 
Q 39.203125 64.796875 32.078125 64.796875 
z
" id="DejaVuSans-52"/>
    </defs>
    <g transform="translate(17.963574 93.473405)scale(0.16 -0.16)">
     <use transform="translate(0 0.84375)" xlink:href="#DejaVuSans-52"/>
     <path d="M 0 85.5 
L 0 91.75 
L 69.482422 91.75 
L 69.482422 85.5 
L 0 85.5 
z
"/>
    </g>
   </g>
   <g id="text_5">
    <!-- $Q$ -->
    <g transform="translate(396.503 35.780995)scale(0.16 -0.16)">
     <use transform="translate(0 0.78125)" xlink:href="#DejaVuSans-51"/>
    </g>
   </g>
   <g id="text_6">
    <!-- $\overline{Q}$ -->
    <g transform="translate(395.283574 87.618405)scale(0.16 -0.16)">
     <use transform="translate(0 0.53125)" xlink:href="#DejaVuSans-51"/>
     <path d="M 0 86.5 
L 0 92.75 
L 78.710938 92.75 
L 78.710938 86.5 
L 0 86.5 
z
"/>
    </g>
   </g>
   <g id="text_7">
    <!-- $S$ -->
    <g transform="translate(277.723 28.805995)scale(0.16 -0.16)">
     <use transform="translate(0 0.78125)" xlink:href="#DejaVuSans-53"/>
    </g>
   </g>
   <g id="text_8">
    <!-- $R$ -->
    <g transform="translate(275.543574 93.375905)scale(0.16 -0.16)">
     <use transform="translate(0 0.09375)" xlink:href="#DejaVuSans-52"/>
    </g>
   </g>
  </g>
 </g>
 <defs>
  <clipPath id="pcb97349ba3">
   <rect height="91.9519" width="403.866" x="10.7" y="10.7"/>
  </clipPath>
 </defs>
</svg>
