<?xml version="1.0" encoding="utf-8" standalone="no"?>
<!DOCTYPE svg PUBLIC "-//W3C//DTD SVG 1.1//EN"
  "http://www.w3.org/Graphics/SVG/1.1/DTD/svg11.dtd">
<!-- Created with matplotlib (http://matplotlib.org/) -->
<svg height="180.1231pt" version="1.1" viewBox="0 0 407.446 180.1231" width="407.446pt" xmlns="http://www.w3.org/2000/svg" xmlns:xlink="http://www.w3.org/1999/xlink">
 <defs>
  <style type="text/css">
*{stroke-linecap:butt;stroke-linejoin:round;}
  </style>
 </defs>
 <g id="figure_1">
  <g id="patch_1">
   <path d="M 0 180.1231 
L 407.446 180.1231 
L 407.446 0 
L 0 0 
z
" style="fill:none;"/>
  </g>
  <g id="axes_1">
   <g id="patch_2">
    <path clip-path="url(#pd1e53d12d2)" d="M 73.313 159.67205 
C 77.607859 159.67205 81.731206 158.201319 84.76813 155.58619 
C 87.805054 152.97106 89.513 149.420401 89.513 145.72205 
C 89.513 142.023699 87.805054 138.47304 84.76813 135.85791 
C 81.731206 133.242781 77.607859 131.77205 73.313 131.77205 
" style="fill:none;stroke:#000000;stroke-linejoin:miter;stroke-width:1.5;"/>
   </g>
   <g id="patch_3">
    <path clip-path="url(#pd1e53d12d2)" d="M 202.913 159.67205 
C 207.207859 159.67205 211.331206 158.201319 214.36813 155.58619 
C 217.405054 152.97106 219.113 149.420401 219.113 145.72205 
C 219.113 142.023699 217.405054 138.47304 214.36813 135.85791 
C 211.331206 133.242781 207.207859 131.77205 202.913 131.77205 
" style="fill:none;stroke:#000000;stroke-linejoin:miter;stroke-width:1.5;"/>
   </g>
   <g id="patch_4">
    <path clip-path="url(#pd1e53d12d2)" d="M 332.513 159.67205 
C 336.807859 159.67205 340.931206 158.201319 343.96813 155.58619 
C 347.005054 152.97106 348.713 149.420401 348.713 145.72205 
C 348.713 142.023699 347.005054 138.47304 343.96813 135.85791 
C 340.931206 133.242781 336.807859 131.77205 332.513 131.77205 
" style="fill:none;stroke:#000000;stroke-linejoin:miter;stroke-width:1.5;"/>
   </g>
   <g id="line2d_1">
    <path clip-path="url(#pd1e53d12d2)" d="M 40.913 145.72205 
M 89.513 145.72205 
L 100.853 145.72205 
" style="fill:none;stroke:#000000;stroke-linecap:round;stroke-width:1.5;"/>
   </g>
   <g id="line2d_2">
    <path clip-path="url(#pd1e53d12d2)" d="M 52.253 145.72205 
L 52.253 159.67205 
L 73.313 159.67205 
" style="fill:none;stroke:#000000;stroke-linecap:round;stroke-width:1.5;"/>
   </g>
   <g id="line2d_3">
    <path clip-path="url(#pd1e53d12d2)" d="M 52.253 145.72205 
L 52.253 131.77205 
L 73.313 131.77205 
" style="fill:none;stroke:#000000;stroke-linecap:round;stroke-width:1.5;"/>
   </g>
   <g id="line2d_4">
    <path clip-path="url(#pd1e53d12d2)" d="M 40.913 152.69705 
L 52.253 152.69705 
" style="fill:none;stroke:#000000;stroke-linecap:round;stroke-width:1.5;"/>
   </g>
   <g id="line2d_5">
    <path clip-path="url(#pd1e53d12d2)" d="M 40.913 138.74705 
L 52.253 138.74705 
" style="fill:none;stroke:#000000;stroke-linecap:round;stroke-width:1.5;"/>
   </g>
   <g id="line2d_6">
    <path clip-path="url(#pd1e53d12d2)" d="M 40.913 138.74705 
L 36.053 138.74705 
L 31.193 138.74705 
" style="fill:none;stroke:#000000;stroke-linecap:round;stroke-width:1.5;"/>
   </g>
   <g id="line2d_7">
    <path clip-path="url(#pd1e53d12d2)" d="M 40.913 152.69705 
L 36.053 152.69705 
L 31.193 152.69705 
" style="fill:none;stroke:#000000;stroke-linecap:round;stroke-width:1.5;"/>
   </g>
   <g id="line2d_8">
    <path clip-path="url(#pd1e53d12d2)" d="M 100.853 145.72205 
L 105.713 145.72205 
L 110.573 145.72205 
" style="fill:none;stroke:#000000;stroke-linecap:round;stroke-width:1.5;"/>
   </g>
   <g id="line2d_9">
    <path clip-path="url(#pd1e53d12d2)" d="M 170.513 145.72205 
M 219.113 145.72205 
L 230.453 145.72205 
" style="fill:none;stroke:#000000;stroke-linecap:round;stroke-width:1.5;"/>
   </g>
   <g id="line2d_10">
    <path clip-path="url(#pd1e53d12d2)" d="M 181.853 145.72205 
L 181.853 159.67205 
L 202.913 159.67205 
" style="fill:none;stroke:#000000;stroke-linecap:round;stroke-width:1.5;"/>
   </g>
   <g id="line2d_11">
    <path clip-path="url(#pd1e53d12d2)" d="M 181.853 145.72205 
L 181.853 131.77205 
L 202.913 131.77205 
" style="fill:none;stroke:#000000;stroke-linecap:round;stroke-width:1.5;"/>
   </g>
   <g id="line2d_12">
    <path clip-path="url(#pd1e53d12d2)" d="M 170.513 152.69705 
L 181.853 152.69705 
" style="fill:none;stroke:#000000;stroke-linecap:round;stroke-width:1.5;"/>
   </g>
   <g id="line2d_13">
    <path clip-path="url(#pd1e53d12d2)" d="M 170.513 138.74705 
L 181.853 138.74705 
" style="fill:none;stroke:#000000;stroke-linecap:round;stroke-width:1.5;"/>
   </g>
   <g id="line2d_14">
    <path clip-path="url(#pd1e53d12d2)" d="M 170.513 138.74705 
L 165.653 138.74705 
L 160.793 138.74705 
" style="fill:none;stroke:#000000;stroke-linecap:round;stroke-width:1.5;"/>
   </g>
   <g id="line2d_15">
    <path clip-path="url(#pd1e53d12d2)" d="M 170.513 152.69705 
L 165.653 152.69705 
L 160.793 152.69705 
" style="fill:none;stroke:#000000;stroke-linecap:round;stroke-width:1.5;"/>
   </g>
   <g id="line2d_16">
    <path clip-path="url(#pd1e53d12d2)" d="M 230.453 145.72205 
L 235.313 145.72205 
L 240.173 145.72205 
" style="fill:none;stroke:#000000;stroke-linecap:round;stroke-width:1.5;"/>
   </g>
   <g id="line2d_17">
    <path clip-path="url(#pd1e53d12d2)" d="M 300.113 145.72205 
M 348.713 145.72205 
L 360.053 145.72205 
" style="fill:none;stroke:#000000;stroke-linecap:round;stroke-width:1.5;"/>
   </g>
   <g id="line2d_18">
    <path clip-path="url(#pd1e53d12d2)" d="M 311.453 145.72205 
L 311.453 159.67205 
L 332.513 159.67205 
" style="fill:none;stroke:#000000;stroke-linecap:round;stroke-width:1.5;"/>
   </g>
   <g id="line2d_19">
    <path clip-path="url(#pd1e53d12d2)" d="M 311.453 145.72205 
L 311.453 131.77205 
L 332.513 131.77205 
" style="fill:none;stroke:#000000;stroke-linecap:round;stroke-width:1.5;"/>
   </g>
   <g id="line2d_20">
    <path clip-path="url(#pd1e53d12d2)" d="M 300.113 152.69705 
L 311.453 152.69705 
" style="fill:none;stroke:#000000;stroke-linecap:round;stroke-width:1.5;"/>
   </g>
   <g id="line2d_21">
    <path clip-path="url(#pd1e53d12d2)" d="M 300.113 138.74705 
L 311.453 138.74705 
" style="fill:none;stroke:#000000;stroke-linecap:round;stroke-width:1.5;"/>
   </g>
   <g id="line2d_22">
    <path clip-path="url(#pd1e53d12d2)" d="M 300.113 138.74705 
L 295.253 138.74705 
L 290.393 138.74705 
" style="fill:none;stroke:#000000;stroke-linecap:round;stroke-width:1.5;"/>
   </g>
   <g id="line2d_23">
    <path clip-path="url(#pd1e53d12d2)" d="M 300.113 152.69705 
L 295.253 152.69705 
L 290.393 152.69705 
" style="fill:none;stroke:#000000;stroke-linecap:round;stroke-width:1.5;"/>
   </g>
   <g id="line2d_24">
    <path clip-path="url(#pd1e53d12d2)" d="M 360.053 145.72205 
L 364.913 145.72205 
L 369.773 145.72205 
" style="fill:none;stroke:#000000;stroke-linecap:round;stroke-width:1.5;"/>
   </g>
   <g id="line2d_25">
    <path clip-path="url(#pd1e53d12d2)" d="M 40.913 89.92205 
M 91.133 89.92205 
L 102.473 89.92205 
" style="fill:none;stroke:#000000;stroke-linecap:round;stroke-width:1.5;"/>
   </g>
   <g id="line2d_26">
    <path clip-path="url(#pd1e53d12d2)" d="M 52.253 103.59305 
L 68.453 103.59305 
L 68.915857 103.587356 
L 69.378714 103.570274 
L 69.841571 103.541805 
L 70.304429 103.501948 
L 70.767286 103.450703 
L 71.230143 103.38807 
L 71.693 103.31405 
L 72.155857 103.228642 
L 72.618714 103.131846 
L 73.081571 103.023662 
L 73.544429 102.904091 
L 74.007286 102.773132 
L 74.470143 102.630785 
L 74.933 102.47705 
L 75.395857 102.311928 
L 75.858714 102.135417 
L 76.321571 101.947519 
L 76.784429 101.748234 
L 77.247286 101.53756 
L 77.710143 101.315499 
L 78.173 101.08205 
L 78.635857 100.837213 
L 79.098714 100.580989 
L 79.561571 100.313377 
L 80.024429 100.034377 
L 80.487286 99.743989 
L 80.950143 99.442213 
L 81.413 99.12905 
L 81.875857 98.804499 
L 82.338714 98.46856 
L 82.801571 98.121234 
L 83.264429 97.762519 
L 83.727286 97.392417 
L 84.190143 97.010928 
L 84.653 96.61805 
L 85.115857 96.213785 
L 85.578714 95.798132 
L 86.041571 95.371091 
L 86.504429 94.932662 
L 86.967286 94.482846 
L 87.430143 94.021642 
L 87.893 93.54905 
L 88.355857 93.06507 
L 88.818714 92.569703 
L 89.281571 92.062948 
L 89.744429 91.544805 
L 90.207286 91.015274 
L 90.670143 90.474356 
L 91.133 89.92205 
" style="fill:none;stroke:#000000;stroke-linecap:round;stroke-width:1.5;"/>
   </g>
   <g id="line2d_27">
    <path clip-path="url(#pd1e53d12d2)" d="M 52.253 76.25105 
L 68.453 76.25105 
L 68.915857 76.256744 
L 69.378714 76.273826 
L 69.841571 76.302295 
L 70.304429 76.342152 
L 70.767286 76.393397 
L 71.230143 76.45603 
L 71.693 76.53005 
L 72.155857 76.615458 
L 72.618714 76.712254 
L 73.081571 76.820438 
L 73.544429 76.940009 
L 74.007286 77.070968 
L 74.470143 77.213315 
L 74.933 77.36705 
L 75.395857 77.532172 
L 75.858714 77.708683 
L 76.321571 77.896581 
L 76.784429 78.095866 
L 77.247286 78.30654 
L 77.710143 78.528601 
L 78.173 78.76205 
L 78.635857 79.006887 
L 79.098714 79.263111 
L 79.561571 79.530723 
L 80.024429 79.809723 
L 80.487286 80.100111 
L 80.950143 80.401887 
L 81.413 80.71505 
L 81.875857 81.039601 
L 82.338714 81.37554 
L 82.801571 81.722866 
L 83.264429 82.081581 
L 83.727286 82.451683 
L 84.190143 82.833172 
L 84.653 83.22605 
L 85.115857 83.630315 
L 85.578714 84.045968 
L 86.041571 84.473009 
L 86.504429 84.911438 
L 86.967286 85.361254 
L 87.430143 85.822458 
L 87.893 86.29505 
L 88.355857 86.77903 
L 88.818714 87.274397 
L 89.281571 87.781152 
L 89.744429 88.299295 
L 90.207286 88.828826 
L 90.670143 89.369744 
L 91.133 89.92205 
" style="fill:none;stroke:#000000;stroke-linecap:round;stroke-width:1.5;"/>
   </g>
   <g id="line2d_28">
    <path clip-path="url(#pd1e53d12d2)" d="M 52.253 103.59305 
L 52.87508 103.03505 
L 53.47124 102.47705 
L 54.04148 101.91905 
L 54.5858 101.36105 
L 55.1042 100.80305 
L 55.59668 100.24505 
L 56.06324 99.68705 
L 56.50388 99.12905 
L 56.9186 98.57105 
L 57.3074 98.01305 
L 57.67028 97.45505 
L 58.00724 96.89705 
L 58.31828 96.33905 
L 58.6034 95.78105 
L 58.8626 95.22305 
L 59.09588 94.66505 
L 59.30324 94.10705 
L 59.48468 93.54905 
L 59.6402 92.99105 
L 59.7698 92.43305 
L 59.87348 91.87505 
L 59.95124 91.31705 
L 60.00308 90.75905 
L 60.029 90.20105 
L 60.029 89.64305 
L 60.00308 89.08505 
L 59.95124 88.52705 
L 59.87348 87.96905 
L 59.7698 87.41105 
L 59.6402 86.85305 
L 59.48468 86.29505 
L 59.30324 85.73705 
L 59.09588 85.17905 
L 58.8626 84.62105 
L 58.6034 84.06305 
L 58.31828 83.50505 
L 58.00724 82.94705 
L 57.67028 82.38905 
L 57.3074 81.83105 
L 56.9186 81.27305 
L 56.50388 80.71505 
L 56.06324 80.15705 
L 55.59668 79.59905 
L 55.1042 79.04105 
L 54.5858 78.48305 
L 54.04148 77.92505 
L 53.47124 77.36705 
L 52.87508 76.80905 
L 52.253 76.25105 
" style="fill:none;stroke:#000000;stroke-linecap:round;stroke-width:1.5;"/>
   </g>
   <g id="line2d_29">
    <path clip-path="url(#pd1e53d12d2)" d="M 40.913 96.89705 
L 58.00724 96.89705 
" style="fill:none;stroke:#000000;stroke-linecap:round;stroke-width:1.5;"/>
   </g>
   <g id="line2d_30">
    <path clip-path="url(#pd1e53d12d2)" d="M 40.913 82.94705 
L 58.00724 82.94705 
" style="fill:none;stroke:#000000;stroke-linecap:round;stroke-width:1.5;"/>
   </g>
   <g id="line2d_31">
    <path clip-path="url(#pd1e53d12d2)" d="M 40.913 82.94705 
L 36.053 82.94705 
L 31.193 82.94705 
" style="fill:none;stroke:#000000;stroke-linecap:round;stroke-width:1.5;"/>
   </g>
   <g id="line2d_32">
    <path clip-path="url(#pd1e53d12d2)" d="M 40.913 96.89705 
L 36.053 96.89705 
L 31.193 96.89705 
" style="fill:none;stroke:#000000;stroke-linecap:round;stroke-width:1.5;"/>
   </g>
   <g id="line2d_33">
    <path clip-path="url(#pd1e53d12d2)" d="M 102.473 89.92205 
L 107.333 89.92205 
L 112.193 89.92205 
" style="fill:none;stroke:#000000;stroke-linecap:round;stroke-width:1.5;"/>
   </g>
   <g id="line2d_34">
    <path clip-path="url(#pd1e53d12d2)" d="M 170.513 89.92205 
M 220.733 89.92205 
L 232.073 89.92205 
" style="fill:none;stroke:#000000;stroke-linecap:round;stroke-width:1.5;"/>
   </g>
   <g id="line2d_35">
    <path clip-path="url(#pd1e53d12d2)" d="M 181.853 103.59305 
L 198.053 103.59305 
L 198.515857 103.587356 
L 198.978714 103.570274 
L 199.441571 103.541805 
L 199.904429 103.501948 
L 200.367286 103.450703 
L 200.830143 103.38807 
L 201.293 103.31405 
L 201.755857 103.228642 
L 202.218714 103.131846 
L 202.681571 103.023662 
L 203.144429 102.904091 
L 203.607286 102.773132 
L 204.070143 102.630785 
L 204.533 102.47705 
L 204.995857 102.311928 
L 205.458714 102.135417 
L 205.921571 101.947519 
L 206.384429 101.748234 
L 206.847286 101.53756 
L 207.310143 101.315499 
L 207.773 101.08205 
L 208.235857 100.837213 
L 208.698714 100.580989 
L 209.161571 100.313377 
L 209.624429 100.034377 
L 210.087286 99.743989 
L 210.550143 99.442213 
L 211.013 99.12905 
L 211.475857 98.804499 
L 211.938714 98.46856 
L 212.401571 98.121234 
L 212.864429 97.762519 
L 213.327286 97.392417 
L 213.790143 97.010928 
L 214.253 96.61805 
L 214.715857 96.213785 
L 215.178714 95.798132 
L 215.641571 95.371091 
L 216.104429 94.932662 
L 216.567286 94.482846 
L 217.030143 94.021642 
L 217.493 93.54905 
L 217.955857 93.06507 
L 218.418714 92.569703 
L 218.881571 92.062948 
L 219.344429 91.544805 
L 219.807286 91.015274 
L 220.270143 90.474356 
L 220.733 89.92205 
" style="fill:none;stroke:#000000;stroke-linecap:round;stroke-width:1.5;"/>
   </g>
   <g id="line2d_36">
    <path clip-path="url(#pd1e53d12d2)" d="M 181.853 76.25105 
L 198.053 76.25105 
L 198.515857 76.256744 
L 198.978714 76.273826 
L 199.441571 76.302295 
L 199.904429 76.342152 
L 200.367286 76.393397 
L 200.830143 76.45603 
L 201.293 76.53005 
L 201.755857 76.615458 
L 202.218714 76.712254 
L 202.681571 76.820438 
L 203.144429 76.940009 
L 203.607286 77.070968 
L 204.070143 77.213315 
L 204.533 77.36705 
L 204.995857 77.532172 
L 205.458714 77.708683 
L 205.921571 77.896581 
L 206.384429 78.095866 
L 206.847286 78.30654 
L 207.310143 78.528601 
L 207.773 78.76205 
L 208.235857 79.006887 
L 208.698714 79.263111 
L 209.161571 79.530723 
L 209.624429 79.809723 
L 210.087286 80.100111 
L 210.550143 80.401887 
L 211.013 80.71505 
L 211.475857 81.039601 
L 211.938714 81.37554 
L 212.401571 81.722866 
L 212.864429 82.081581 
L 213.327286 82.451683 
L 213.790143 82.833172 
L 214.253 83.22605 
L 214.715857 83.630315 
L 215.178714 84.045968 
L 215.641571 84.473009 
L 216.104429 84.911438 
L 216.567286 85.361254 
L 217.030143 85.822458 
L 217.493 86.29505 
L 217.955857 86.77903 
L 218.418714 87.274397 
L 218.881571 87.781152 
L 219.344429 88.299295 
L 219.807286 88.828826 
L 220.270143 89.369744 
L 220.733 89.92205 
" style="fill:none;stroke:#000000;stroke-linecap:round;stroke-width:1.5;"/>
   </g>
   <g id="line2d_37">
    <path clip-path="url(#pd1e53d12d2)" d="M 181.853 103.59305 
L 182.47508 103.03505 
L 183.07124 102.47705 
L 183.64148 101.91905 
L 184.1858 101.36105 
L 184.7042 100.80305 
L 185.19668 100.24505 
L 185.66324 99.68705 
L 186.10388 99.12905 
L 186.5186 98.57105 
L 186.9074 98.01305 
L 187.27028 97.45505 
L 187.60724 96.89705 
L 187.91828 96.33905 
L 188.2034 95.78105 
L 188.4626 95.22305 
L 188.69588 94.66505 
L 188.90324 94.10705 
L 189.08468 93.54905 
L 189.2402 92.99105 
L 189.3698 92.43305 
L 189.47348 91.87505 
L 189.55124 91.31705 
L 189.60308 90.75905 
L 189.629 90.20105 
L 189.629 89.64305 
L 189.60308 89.08505 
L 189.55124 88.52705 
L 189.47348 87.96905 
L 189.3698 87.41105 
L 189.2402 86.85305 
L 189.08468 86.29505 
L 188.90324 85.73705 
L 188.69588 85.17905 
L 188.4626 84.62105 
L 188.2034 84.06305 
L 187.91828 83.50505 
L 187.60724 82.94705 
L 187.27028 82.38905 
L 186.9074 81.83105 
L 186.5186 81.27305 
L 186.10388 80.71505 
L 185.66324 80.15705 
L 185.19668 79.59905 
L 184.7042 79.04105 
L 184.1858 78.48305 
L 183.64148 77.92505 
L 183.07124 77.36705 
L 182.47508 76.80905 
L 181.853 76.25105 
" style="fill:none;stroke:#000000;stroke-linecap:round;stroke-width:1.5;"/>
   </g>
   <g id="line2d_38">
    <path clip-path="url(#pd1e53d12d2)" d="M 170.513 96.89705 
L 187.60724 96.89705 
" style="fill:none;stroke:#000000;stroke-linecap:round;stroke-width:1.5;"/>
   </g>
   <g id="line2d_39">
    <path clip-path="url(#pd1e53d12d2)" d="M 170.513 82.94705 
L 187.60724 82.94705 
" style="fill:none;stroke:#000000;stroke-linecap:round;stroke-width:1.5;"/>
   </g>
   <g id="line2d_40">
    <path clip-path="url(#pd1e53d12d2)" d="M 170.513 82.94705 
L 165.653 82.94705 
L 160.793 82.94705 
" style="fill:none;stroke:#000000;stroke-linecap:round;stroke-width:1.5;"/>
   </g>
   <g id="line2d_41">
    <path clip-path="url(#pd1e53d12d2)" d="M 170.513 96.89705 
L 165.653 96.89705 
L 160.793 96.89705 
" style="fill:none;stroke:#000000;stroke-linecap:round;stroke-width:1.5;"/>
   </g>
   <g id="line2d_42">
    <path clip-path="url(#pd1e53d12d2)" d="M 232.073 89.92205 
L 236.933 89.92205 
L 241.793 89.92205 
" style="fill:none;stroke:#000000;stroke-linecap:round;stroke-width:1.5;"/>
   </g>
   <g id="line2d_43">
    <path clip-path="url(#pd1e53d12d2)" d="M 300.113 89.92205 
M 350.333 89.92205 
L 361.673 89.92205 
" style="fill:none;stroke:#000000;stroke-linecap:round;stroke-width:1.5;"/>
   </g>
   <g id="line2d_44">
    <path clip-path="url(#pd1e53d12d2)" d="M 311.453 103.59305 
L 327.653 103.59305 
L 328.115857 103.587356 
L 328.578714 103.570274 
L 329.041571 103.541805 
L 329.504429 103.501948 
L 329.967286 103.450703 
L 330.430143 103.38807 
L 330.893 103.31405 
L 331.355857 103.228642 
L 331.818714 103.131846 
L 332.281571 103.023662 
L 332.744429 102.904091 
L 333.207286 102.773132 
L 333.670143 102.630785 
L 334.133 102.47705 
L 334.595857 102.311928 
L 335.058714 102.135417 
L 335.521571 101.947519 
L 335.984429 101.748234 
L 336.447286 101.53756 
L 336.910143 101.315499 
L 337.373 101.08205 
L 337.835857 100.837213 
L 338.298714 100.580989 
L 338.761571 100.313377 
L 339.224429 100.034377 
L 339.687286 99.743989 
L 340.150143 99.442213 
L 340.613 99.12905 
L 341.075857 98.804499 
L 341.538714 98.46856 
L 342.001571 98.121234 
L 342.464429 97.762519 
L 342.927286 97.392417 
L 343.390143 97.010928 
L 343.853 96.61805 
L 344.315857 96.213785 
L 344.778714 95.798132 
L 345.241571 95.371091 
L 345.704429 94.932662 
L 346.167286 94.482846 
L 346.630143 94.021642 
L 347.093 93.54905 
L 347.555857 93.06507 
L 348.018714 92.569703 
L 348.481571 92.062948 
L 348.944429 91.544805 
L 349.407286 91.015274 
L 349.870143 90.474356 
L 350.333 89.92205 
" style="fill:none;stroke:#000000;stroke-linecap:round;stroke-width:1.5;"/>
   </g>
   <g id="line2d_45">
    <path clip-path="url(#pd1e53d12d2)" d="M 311.453 76.25105 
L 327.653 76.25105 
L 328.115857 76.256744 
L 328.578714 76.273826 
L 329.041571 76.302295 
L 329.504429 76.342152 
L 329.967286 76.393397 
L 330.430143 76.45603 
L 330.893 76.53005 
L 331.355857 76.615458 
L 331.818714 76.712254 
L 332.281571 76.820438 
L 332.744429 76.940009 
L 333.207286 77.070968 
L 333.670143 77.213315 
L 334.133 77.36705 
L 334.595857 77.532172 
L 335.058714 77.708683 
L 335.521571 77.896581 
L 335.984429 78.095866 
L 336.447286 78.30654 
L 336.910143 78.528601 
L 337.373 78.76205 
L 337.835857 79.006887 
L 338.298714 79.263111 
L 338.761571 79.530723 
L 339.224429 79.809723 
L 339.687286 80.100111 
L 340.150143 80.401887 
L 340.613 80.71505 
L 341.075857 81.039601 
L 341.538714 81.37554 
L 342.001571 81.722866 
L 342.464429 82.081581 
L 342.927286 82.451683 
L 343.390143 82.833172 
L 343.853 83.22605 
L 344.315857 83.630315 
L 344.778714 84.045968 
L 345.241571 84.473009 
L 345.704429 84.911438 
L 346.167286 85.361254 
L 346.630143 85.822458 
L 347.093 86.29505 
L 347.555857 86.77903 
L 348.018714 87.274397 
L 348.481571 87.781152 
L 348.944429 88.299295 
L 349.407286 88.828826 
L 349.870143 89.369744 
L 350.333 89.92205 
" style="fill:none;stroke:#000000;stroke-linecap:round;stroke-width:1.5;"/>
   </g>
   <g id="line2d_46">
    <path clip-path="url(#pd1e53d12d2)" d="M 311.453 103.59305 
L 312.07508 103.03505 
L 312.67124 102.47705 
L 313.24148 101.91905 
L 313.7858 101.36105 
L 314.3042 100.80305 
L 314.79668 100.24505 
L 315.26324 99.68705 
L 315.70388 99.12905 
L 316.1186 98.57105 
L 316.5074 98.01305 
L 316.87028 97.45505 
L 317.20724 96.89705 
L 317.51828 96.33905 
L 317.8034 95.78105 
L 318.0626 95.22305 
L 318.29588 94.66505 
L 318.50324 94.10705 
L 318.68468 93.54905 
L 318.8402 92.99105 
L 318.9698 92.43305 
L 319.07348 91.87505 
L 319.15124 91.31705 
L 319.20308 90.75905 
L 319.229 90.20105 
L 319.229 89.64305 
L 319.20308 89.08505 
L 319.15124 88.52705 
L 319.07348 87.96905 
L 318.9698 87.41105 
L 318.8402 86.85305 
L 318.68468 86.29505 
L 318.50324 85.73705 
L 318.29588 85.17905 
L 318.0626 84.62105 
L 317.8034 84.06305 
L 317.51828 83.50505 
L 317.20724 82.94705 
L 316.87028 82.38905 
L 316.5074 81.83105 
L 316.1186 81.27305 
L 315.70388 80.71505 
L 315.26324 80.15705 
L 314.79668 79.59905 
L 314.3042 79.04105 
L 313.7858 78.48305 
L 313.24148 77.92505 
L 312.67124 77.36705 
L 312.07508 76.80905 
L 311.453 76.25105 
" style="fill:none;stroke:#000000;stroke-linecap:round;stroke-width:1.5;"/>
   </g>
   <g id="line2d_47">
    <path clip-path="url(#pd1e53d12d2)" d="M 300.113 96.89705 
L 317.20724 96.89705 
" style="fill:none;stroke:#000000;stroke-linecap:round;stroke-width:1.5;"/>
   </g>
   <g id="line2d_48">
    <path clip-path="url(#pd1e53d12d2)" d="M 300.113 82.94705 
L 317.20724 82.94705 
" style="fill:none;stroke:#000000;stroke-linecap:round;stroke-width:1.5;"/>
   </g>
   <g id="line2d_49">
    <path clip-path="url(#pd1e53d12d2)" d="M 300.113 82.94705 
L 295.253 82.94705 
L 290.393 82.94705 
" style="fill:none;stroke:#000000;stroke-linecap:round;stroke-width:1.5;"/>
   </g>
   <g id="line2d_50">
    <path clip-path="url(#pd1e53d12d2)" d="M 300.113 96.89705 
L 295.253 96.89705 
L 290.393 96.89705 
" style="fill:none;stroke:#000000;stroke-linecap:round;stroke-width:1.5;"/>
   </g>
   <g id="line2d_51">
    <path clip-path="url(#pd1e53d12d2)" d="M 361.673 89.92205 
L 366.533 89.92205 
L 371.393 89.92205 
" style="fill:none;stroke:#000000;stroke-linecap:round;stroke-width:1.5;"/>
   </g>
   <g id="line2d_52">
    <path clip-path="url(#pd1e53d12d2)" d="M 40.913 34.12205 
M 95.993 34.12205 
L 107.333 34.12205 
" style="fill:none;stroke:#000000;stroke-linecap:round;stroke-width:1.5;"/>
   </g>
   <g id="line2d_53">
    <path clip-path="url(#pd1e53d12d2)" d="M 57.113 47.79305 
L 73.313 47.79305 
L 73.775857 47.787356 
L 74.238714 47.770274 
L 74.701571 47.741805 
L 75.164429 47.701948 
L 75.627286 47.650703 
L 76.090143 47.58807 
L 76.553 47.51405 
L 77.015857 47.428642 
L 77.478714 47.331846 
L 77.941571 47.223662 
L 78.404429 47.104091 
L 78.867286 46.973132 
L 79.330143 46.830785 
L 79.793 46.67705 
L 80.255857 46.511928 
L 80.718714 46.335417 
L 81.181571 46.147519 
L 81.644429 45.948234 
L 82.107286 45.73756 
L 82.570143 45.515499 
L 83.033 45.28205 
L 83.495857 45.037213 
L 83.958714 44.780989 
L 84.421571 44.513377 
L 84.884429 44.234377 
L 85.347286 43.943989 
L 85.810143 43.642213 
L 86.273 43.32905 
L 86.735857 43.004499 
L 87.198714 42.66856 
L 87.661571 42.321234 
L 88.124429 41.962519 
L 88.587286 41.592417 
L 89.050143 41.210928 
L 89.513 40.81805 
L 89.975857 40.413785 
L 90.438714 39.998132 
L 90.901571 39.571091 
L 91.364429 39.132662 
L 91.827286 38.682846 
L 92.290143 38.221642 
L 92.753 37.74905 
L 93.215857 37.26507 
L 93.678714 36.769703 
L 94.141571 36.262948 
L 94.604429 35.744805 
L 95.067286 35.215274 
L 95.530143 34.674356 
L 95.993 34.12205 
" style="fill:none;stroke:#000000;stroke-linecap:round;stroke-width:1.5;"/>
   </g>
   <g id="line2d_54">
    <path clip-path="url(#pd1e53d12d2)" d="M 57.113 20.45105 
L 73.313 20.45105 
L 73.775857 20.456744 
L 74.238714 20.473826 
L 74.701571 20.502295 
L 75.164429 20.542152 
L 75.627286 20.593397 
L 76.090143 20.65603 
L 76.553 20.73005 
L 77.015857 20.815458 
L 77.478714 20.912254 
L 77.941571 21.020438 
L 78.404429 21.140009 
L 78.867286 21.270968 
L 79.330143 21.413315 
L 79.793 21.56705 
L 80.255857 21.732172 
L 80.718714 21.908683 
L 81.181571 22.096581 
L 81.644429 22.295866 
L 82.107286 22.50654 
L 82.570143 22.728601 
L 83.033 22.96205 
L 83.495857 23.206887 
L 83.958714 23.463111 
L 84.421571 23.730723 
L 84.884429 24.009723 
L 85.347286 24.300111 
L 85.810143 24.601887 
L 86.273 24.91505 
L 86.735857 25.239601 
L 87.198714 25.57554 
L 87.661571 25.922866 
L 88.124429 26.281581 
L 88.587286 26.651683 
L 89.050143 27.033172 
L 89.513 27.42605 
L 89.975857 27.830315 
L 90.438714 28.245968 
L 90.901571 28.673009 
L 91.364429 29.111438 
L 91.827286 29.561254 
L 92.290143 30.022458 
L 92.753 30.49505 
L 93.215857 30.97903 
L 93.678714 31.474397 
L 94.141571 31.981152 
L 94.604429 32.499295 
L 95.067286 33.028826 
L 95.530143 33.569744 
L 95.993 34.12205 
" style="fill:none;stroke:#000000;stroke-linecap:round;stroke-width:1.5;"/>
   </g>
   <g id="line2d_55">
    <path clip-path="url(#pd1e53d12d2)" d="M 52.253 47.79305 
L 52.87508 47.23505 
L 53.47124 46.67705 
L 54.04148 46.11905 
L 54.5858 45.56105 
L 55.1042 45.00305 
L 55.59668 44.44505 
L 56.06324 43.88705 
L 56.50388 43.32905 
L 56.9186 42.77105 
L 57.3074 42.21305 
L 57.67028 41.65505 
L 58.00724 41.09705 
L 58.31828 40.53905 
L 58.6034 39.98105 
L 58.8626 39.42305 
L 59.09588 38.86505 
L 59.30324 38.30705 
L 59.48468 37.74905 
L 59.6402 37.19105 
L 59.7698 36.63305 
L 59.87348 36.07505 
L 59.95124 35.51705 
L 60.00308 34.95905 
L 60.029 34.40105 
L 60.029 33.84305 
L 60.00308 33.28505 
L 59.95124 32.72705 
L 59.87348 32.16905 
L 59.7698 31.61105 
L 59.6402 31.05305 
L 59.48468 30.49505 
L 59.30324 29.93705 
L 59.09588 29.37905 
L 58.8626 28.82105 
L 58.6034 28.26305 
L 58.31828 27.70505 
L 58.00724 27.14705 
L 57.67028 26.58905 
L 57.3074 26.03105 
L 56.9186 25.47305 
L 56.50388 24.91505 
L 56.06324 24.35705 
L 55.59668 23.79905 
L 55.1042 23.24105 
L 54.5858 22.68305 
L 54.04148 22.12505 
L 53.47124 21.56705 
L 52.87508 21.00905 
L 52.253 20.45105 
" style="fill:none;stroke:#000000;stroke-linecap:round;stroke-width:1.5;"/>
   </g>
   <g id="line2d_56">
    <path clip-path="url(#pd1e53d12d2)" d="M 57.113 47.79305 
L 57.73508 47.23505 
L 58.33124 46.67705 
L 58.90148 46.11905 
L 59.4458 45.56105 
L 59.9642 45.00305 
L 60.45668 44.44505 
L 60.92324 43.88705 
L 61.36388 43.32905 
L 61.7786 42.77105 
L 62.1674 42.21305 
L 62.53028 41.65505 
L 62.86724 41.09705 
L 63.17828 40.53905 
L 63.4634 39.98105 
L 63.7226 39.42305 
L 63.95588 38.86505 
L 64.16324 38.30705 
L 64.34468 37.74905 
L 64.5002 37.19105 
L 64.6298 36.63305 
L 64.73348 36.07505 
L 64.81124 35.51705 
L 64.86308 34.95905 
L 64.889 34.40105 
L 64.889 33.84305 
L 64.86308 33.28505 
L 64.81124 32.72705 
L 64.73348 32.16905 
L 64.6298 31.61105 
L 64.5002 31.05305 
L 64.34468 30.49505 
L 64.16324 29.93705 
L 63.95588 29.37905 
L 63.7226 28.82105 
L 63.4634 28.26305 
L 63.17828 27.70505 
L 62.86724 27.14705 
L 62.53028 26.58905 
L 62.1674 26.03105 
L 61.7786 25.47305 
L 61.36388 24.91505 
L 60.92324 24.35705 
L 60.45668 23.79905 
L 59.9642 23.24105 
L 59.4458 22.68305 
L 58.90148 22.12505 
L 58.33124 21.56705 
L 57.73508 21.00905 
L 57.113 20.45105 
" style="fill:none;stroke:#000000;stroke-linecap:round;stroke-width:1.5;"/>
   </g>
   <g id="line2d_57">
    <path clip-path="url(#pd1e53d12d2)" d="M 40.913 41.09705 
L 58.00724 41.09705 
" style="fill:none;stroke:#000000;stroke-linecap:round;stroke-width:1.5;"/>
   </g>
   <g id="line2d_58">
    <path clip-path="url(#pd1e53d12d2)" d="M 40.913 27.14705 
L 58.00724 27.14705 
" style="fill:none;stroke:#000000;stroke-linecap:round;stroke-width:1.5;"/>
   </g>
   <g id="line2d_59">
    <path clip-path="url(#pd1e53d12d2)" d="M 40.913 27.14705 
L 36.053 27.14705 
L 31.193 27.14705 
" style="fill:none;stroke:#000000;stroke-linecap:round;stroke-width:1.5;"/>
   </g>
   <g id="line2d_60">
    <path clip-path="url(#pd1e53d12d2)" d="M 40.913 41.09705 
L 36.053 41.09705 
L 31.193 41.09705 
" style="fill:none;stroke:#000000;stroke-linecap:round;stroke-width:1.5;"/>
   </g>
   <g id="line2d_61">
    <path clip-path="url(#pd1e53d12d2)" d="M 107.333 34.12205 
L 112.193 34.12205 
L 117.053 34.12205 
" style="fill:none;stroke:#000000;stroke-linecap:round;stroke-width:1.5;"/>
   </g>
   <g id="line2d_62">
    <path clip-path="url(#pd1e53d12d2)" d="M 170.513 34.12205 
M 225.593 34.12205 
L 236.933 34.12205 
" style="fill:none;stroke:#000000;stroke-linecap:round;stroke-width:1.5;"/>
   </g>
   <g id="line2d_63">
    <path clip-path="url(#pd1e53d12d2)" d="M 186.713 47.79305 
L 202.913 47.79305 
L 203.375857 47.787356 
L 203.838714 47.770274 
L 204.301571 47.741805 
L 204.764429 47.701948 
L 205.227286 47.650703 
L 205.690143 47.58807 
L 206.153 47.51405 
L 206.615857 47.428642 
L 207.078714 47.331846 
L 207.541571 47.223662 
L 208.004429 47.104091 
L 208.467286 46.973132 
L 208.930143 46.830785 
L 209.393 46.67705 
L 209.855857 46.511928 
L 210.318714 46.335417 
L 210.781571 46.147519 
L 211.244429 45.948234 
L 211.707286 45.73756 
L 212.170143 45.515499 
L 212.633 45.28205 
L 213.095857 45.037213 
L 213.558714 44.780989 
L 214.021571 44.513377 
L 214.484429 44.234377 
L 214.947286 43.943989 
L 215.410143 43.642213 
L 215.873 43.32905 
L 216.335857 43.004499 
L 216.798714 42.66856 
L 217.261571 42.321234 
L 217.724429 41.962519 
L 218.187286 41.592417 
L 218.650143 41.210928 
L 219.113 40.81805 
L 219.575857 40.413785 
L 220.038714 39.998132 
L 220.501571 39.571091 
L 220.964429 39.132662 
L 221.427286 38.682846 
L 221.890143 38.221642 
L 222.353 37.74905 
L 222.815857 37.26507 
L 223.278714 36.769703 
L 223.741571 36.262948 
L 224.204429 35.744805 
L 224.667286 35.215274 
L 225.130143 34.674356 
L 225.593 34.12205 
" style="fill:none;stroke:#000000;stroke-linecap:round;stroke-width:1.5;"/>
   </g>
   <g id="line2d_64">
    <path clip-path="url(#pd1e53d12d2)" d="M 186.713 20.45105 
L 202.913 20.45105 
L 203.375857 20.456744 
L 203.838714 20.473826 
L 204.301571 20.502295 
L 204.764429 20.542152 
L 205.227286 20.593397 
L 205.690143 20.65603 
L 206.153 20.73005 
L 206.615857 20.815458 
L 207.078714 20.912254 
L 207.541571 21.020438 
L 208.004429 21.140009 
L 208.467286 21.270968 
L 208.930143 21.413315 
L 209.393 21.56705 
L 209.855857 21.732172 
L 210.318714 21.908683 
L 210.781571 22.096581 
L 211.244429 22.295866 
L 211.707286 22.50654 
L 212.170143 22.728601 
L 212.633 22.96205 
L 213.095857 23.206887 
L 213.558714 23.463111 
L 214.021571 23.730723 
L 214.484429 24.009723 
L 214.947286 24.300111 
L 215.410143 24.601887 
L 215.873 24.91505 
L 216.335857 25.239601 
L 216.798714 25.57554 
L 217.261571 25.922866 
L 217.724429 26.281581 
L 218.187286 26.651683 
L 218.650143 27.033172 
L 219.113 27.42605 
L 219.575857 27.830315 
L 220.038714 28.245968 
L 220.501571 28.673009 
L 220.964429 29.111438 
L 221.427286 29.561254 
L 221.890143 30.022458 
L 222.353 30.49505 
L 222.815857 30.97903 
L 223.278714 31.474397 
L 223.741571 31.981152 
L 224.204429 32.499295 
L 224.667286 33.028826 
L 225.130143 33.569744 
L 225.593 34.12205 
" style="fill:none;stroke:#000000;stroke-linecap:round;stroke-width:1.5;"/>
   </g>
   <g id="line2d_65">
    <path clip-path="url(#pd1e53d12d2)" d="M 181.853 47.79305 
L 182.47508 47.23505 
L 183.07124 46.67705 
L 183.64148 46.11905 
L 184.1858 45.56105 
L 184.7042 45.00305 
L 185.19668 44.44505 
L 185.66324 43.88705 
L 186.10388 43.32905 
L 186.5186 42.77105 
L 186.9074 42.21305 
L 187.27028 41.65505 
L 187.60724 41.09705 
L 187.91828 40.53905 
L 188.2034 39.98105 
L 188.4626 39.42305 
L 188.69588 38.86505 
L 188.90324 38.30705 
L 189.08468 37.74905 
L 189.2402 37.19105 
L 189.3698 36.63305 
L 189.47348 36.07505 
L 189.55124 35.51705 
L 189.60308 34.95905 
L 189.629 34.40105 
L 189.629 33.84305 
L 189.60308 33.28505 
L 189.55124 32.72705 
L 189.47348 32.16905 
L 189.3698 31.61105 
L 189.2402 31.05305 
L 189.08468 30.49505 
L 188.90324 29.93705 
L 188.69588 29.37905 
L 188.4626 28.82105 
L 188.2034 28.26305 
L 187.91828 27.70505 
L 187.60724 27.14705 
L 187.27028 26.58905 
L 186.9074 26.03105 
L 186.5186 25.47305 
L 186.10388 24.91505 
L 185.66324 24.35705 
L 185.19668 23.79905 
L 184.7042 23.24105 
L 184.1858 22.68305 
L 183.64148 22.12505 
L 183.07124 21.56705 
L 182.47508 21.00905 
L 181.853 20.45105 
" style="fill:none;stroke:#000000;stroke-linecap:round;stroke-width:1.5;"/>
   </g>
   <g id="line2d_66">
    <path clip-path="url(#pd1e53d12d2)" d="M 186.713 47.79305 
L 187.33508 47.23505 
L 187.93124 46.67705 
L 188.50148 46.11905 
L 189.0458 45.56105 
L 189.5642 45.00305 
L 190.05668 44.44505 
L 190.52324 43.88705 
L 190.96388 43.32905 
L 191.3786 42.77105 
L 191.7674 42.21305 
L 192.13028 41.65505 
L 192.46724 41.09705 
L 192.77828 40.53905 
L 193.0634 39.98105 
L 193.3226 39.42305 
L 193.55588 38.86505 
L 193.76324 38.30705 
L 193.94468 37.74905 
L 194.1002 37.19105 
L 194.2298 36.63305 
L 194.33348 36.07505 
L 194.41124 35.51705 
L 194.46308 34.95905 
L 194.489 34.40105 
L 194.489 33.84305 
L 194.46308 33.28505 
L 194.41124 32.72705 
L 194.33348 32.16905 
L 194.2298 31.61105 
L 194.1002 31.05305 
L 193.94468 30.49505 
L 193.76324 29.93705 
L 193.55588 29.37905 
L 193.3226 28.82105 
L 193.0634 28.26305 
L 192.77828 27.70505 
L 192.46724 27.14705 
L 192.13028 26.58905 
L 191.7674 26.03105 
L 191.3786 25.47305 
L 190.96388 24.91505 
L 190.52324 24.35705 
L 190.05668 23.79905 
L 189.5642 23.24105 
L 189.0458 22.68305 
L 188.50148 22.12505 
L 187.93124 21.56705 
L 187.33508 21.00905 
L 186.713 20.45105 
" style="fill:none;stroke:#000000;stroke-linecap:round;stroke-width:1.5;"/>
   </g>
   <g id="line2d_67">
    <path clip-path="url(#pd1e53d12d2)" d="M 170.513 41.09705 
L 187.60724 41.09705 
" style="fill:none;stroke:#000000;stroke-linecap:round;stroke-width:1.5;"/>
   </g>
   <g id="line2d_68">
    <path clip-path="url(#pd1e53d12d2)" d="M 170.513 27.14705 
L 187.60724 27.14705 
" style="fill:none;stroke:#000000;stroke-linecap:round;stroke-width:1.5;"/>
   </g>
   <g id="line2d_69">
    <path clip-path="url(#pd1e53d12d2)" d="M 170.513 27.14705 
L 165.653 27.14705 
L 160.793 27.14705 
" style="fill:none;stroke:#000000;stroke-linecap:round;stroke-width:1.5;"/>
   </g>
   <g id="line2d_70">
    <path clip-path="url(#pd1e53d12d2)" d="M 170.513 41.09705 
L 165.653 41.09705 
L 160.793 41.09705 
" style="fill:none;stroke:#000000;stroke-linecap:round;stroke-width:1.5;"/>
   </g>
   <g id="line2d_71">
    <path clip-path="url(#pd1e53d12d2)" d="M 236.933 34.12205 
L 241.793 34.12205 
L 246.653 34.12205 
" style="fill:none;stroke:#000000;stroke-linecap:round;stroke-width:1.5;"/>
   </g>
   <g id="line2d_72">
    <path clip-path="url(#pd1e53d12d2)" d="M 300.113 34.12205 
M 355.193 34.12205 
L 366.533 34.12205 
" style="fill:none;stroke:#000000;stroke-linecap:round;stroke-width:1.5;"/>
   </g>
   <g id="line2d_73">
    <path clip-path="url(#pd1e53d12d2)" d="M 316.313 47.79305 
L 332.513 47.79305 
L 332.975857 47.787356 
L 333.438714 47.770274 
L 333.901571 47.741805 
L 334.364429 47.701948 
L 334.827286 47.650703 
L 335.290143 47.58807 
L 335.753 47.51405 
L 336.215857 47.428642 
L 336.678714 47.331846 
L 337.141571 47.223662 
L 337.604429 47.104091 
L 338.067286 46.973132 
L 338.530143 46.830785 
L 338.993 46.67705 
L 339.455857 46.511928 
L 339.918714 46.335417 
L 340.381571 46.147519 
L 340.844429 45.948234 
L 341.307286 45.73756 
L 341.770143 45.515499 
L 342.233 45.28205 
L 342.695857 45.037213 
L 343.158714 44.780989 
L 343.621571 44.513377 
L 344.084429 44.234377 
L 344.547286 43.943989 
L 345.010143 43.642213 
L 345.473 43.32905 
L 345.935857 43.004499 
L 346.398714 42.66856 
L 346.861571 42.321234 
L 347.324429 41.962519 
L 347.787286 41.592417 
L 348.250143 41.210928 
L 348.713 40.81805 
L 349.175857 40.413785 
L 349.638714 39.998132 
L 350.101571 39.571091 
L 350.564429 39.132662 
L 351.027286 38.682846 
L 351.490143 38.221642 
L 351.953 37.74905 
L 352.415857 37.26507 
L 352.878714 36.769703 
L 353.341571 36.262948 
L 353.804429 35.744805 
L 354.267286 35.215274 
L 354.730143 34.674356 
L 355.193 34.12205 
" style="fill:none;stroke:#000000;stroke-linecap:round;stroke-width:1.5;"/>
   </g>
   <g id="line2d_74">
    <path clip-path="url(#pd1e53d12d2)" d="M 316.313 20.45105 
L 332.513 20.45105 
L 332.975857 20.456744 
L 333.438714 20.473826 
L 333.901571 20.502295 
L 334.364429 20.542152 
L 334.827286 20.593397 
L 335.290143 20.65603 
L 335.753 20.73005 
L 336.215857 20.815458 
L 336.678714 20.912254 
L 337.141571 21.020438 
L 337.604429 21.140009 
L 338.067286 21.270968 
L 338.530143 21.413315 
L 338.993 21.56705 
L 339.455857 21.732172 
L 339.918714 21.908683 
L 340.381571 22.096581 
L 340.844429 22.295866 
L 341.307286 22.50654 
L 341.770143 22.728601 
L 342.233 22.96205 
L 342.695857 23.206887 
L 343.158714 23.463111 
L 343.621571 23.730723 
L 344.084429 24.009723 
L 344.547286 24.300111 
L 345.010143 24.601887 
L 345.473 24.91505 
L 345.935857 25.239601 
L 346.398714 25.57554 
L 346.861571 25.922866 
L 347.324429 26.281581 
L 347.787286 26.651683 
L 348.250143 27.033172 
L 348.713 27.42605 
L 349.175857 27.830315 
L 349.638714 28.245968 
L 350.101571 28.673009 
L 350.564429 29.111438 
L 351.027286 29.561254 
L 351.490143 30.022458 
L 351.953 30.49505 
L 352.415857 30.97903 
L 352.878714 31.474397 
L 353.341571 31.981152 
L 353.804429 32.499295 
L 354.267286 33.028826 
L 354.730143 33.569744 
L 355.193 34.12205 
" style="fill:none;stroke:#000000;stroke-linecap:round;stroke-width:1.5;"/>
   </g>
   <g id="line2d_75">
    <path clip-path="url(#pd1e53d12d2)" d="M 311.453 47.79305 
L 312.07508 47.23505 
L 312.67124 46.67705 
L 313.24148 46.11905 
L 313.7858 45.56105 
L 314.3042 45.00305 
L 314.79668 44.44505 
L 315.26324 43.88705 
L 315.70388 43.32905 
L 316.1186 42.77105 
L 316.5074 42.21305 
L 316.87028 41.65505 
L 317.20724 41.09705 
L 317.51828 40.53905 
L 317.8034 39.98105 
L 318.0626 39.42305 
L 318.29588 38.86505 
L 318.50324 38.30705 
L 318.68468 37.74905 
L 318.8402 37.19105 
L 318.9698 36.63305 
L 319.07348 36.07505 
L 319.15124 35.51705 
L 319.20308 34.95905 
L 319.229 34.40105 
L 319.229 33.84305 
L 319.20308 33.28505 
L 319.15124 32.72705 
L 319.07348 32.16905 
L 318.9698 31.61105 
L 318.8402 31.05305 
L 318.68468 30.49505 
L 318.50324 29.93705 
L 318.29588 29.37905 
L 318.0626 28.82105 
L 317.8034 28.26305 
L 317.51828 27.70505 
L 317.20724 27.14705 
L 316.87028 26.58905 
L 316.5074 26.03105 
L 316.1186 25.47305 
L 315.70388 24.91505 
L 315.26324 24.35705 
L 314.79668 23.79905 
L 314.3042 23.24105 
L 313.7858 22.68305 
L 313.24148 22.12505 
L 312.67124 21.56705 
L 312.07508 21.00905 
L 311.453 20.45105 
" style="fill:none;stroke:#000000;stroke-linecap:round;stroke-width:1.5;"/>
   </g>
   <g id="line2d_76">
    <path clip-path="url(#pd1e53d12d2)" d="M 316.313 47.79305 
L 316.93508 47.23505 
L 317.53124 46.67705 
L 318.10148 46.11905 
L 318.6458 45.56105 
L 319.1642 45.00305 
L 319.65668 44.44505 
L 320.12324 43.88705 
L 320.56388 43.32905 
L 320.9786 42.77105 
L 321.3674 42.21305 
L 321.73028 41.65505 
L 322.06724 41.09705 
L 322.37828 40.53905 
L 322.6634 39.98105 
L 322.9226 39.42305 
L 323.15588 38.86505 
L 323.36324 38.30705 
L 323.54468 37.74905 
L 323.7002 37.19105 
L 323.8298 36.63305 
L 323.93348 36.07505 
L 324.01124 35.51705 
L 324.06308 34.95905 
L 324.089 34.40105 
L 324.089 33.84305 
L 324.06308 33.28505 
L 324.01124 32.72705 
L 323.93348 32.16905 
L 323.8298 31.61105 
L 323.7002 31.05305 
L 323.54468 30.49505 
L 323.36324 29.93705 
L 323.15588 29.37905 
L 322.9226 28.82105 
L 322.6634 28.26305 
L 322.37828 27.70505 
L 322.06724 27.14705 
L 321.73028 26.58905 
L 321.3674 26.03105 
L 320.9786 25.47305 
L 320.56388 24.91505 
L 320.12324 24.35705 
L 319.65668 23.79905 
L 319.1642 23.24105 
L 318.6458 22.68305 
L 318.10148 22.12505 
L 317.53124 21.56705 
L 316.93508 21.00905 
L 316.313 20.45105 
" style="fill:none;stroke:#000000;stroke-linecap:round;stroke-width:1.5;"/>
   </g>
   <g id="line2d_77">
    <path clip-path="url(#pd1e53d12d2)" d="M 300.113 41.09705 
L 317.20724 41.09705 
" style="fill:none;stroke:#000000;stroke-linecap:round;stroke-width:1.5;"/>
   </g>
   <g id="line2d_78">
    <path clip-path="url(#pd1e53d12d2)" d="M 300.113 27.14705 
L 317.20724 27.14705 
" style="fill:none;stroke:#000000;stroke-linecap:round;stroke-width:1.5;"/>
   </g>
   <g id="line2d_79">
    <path clip-path="url(#pd1e53d12d2)" d="M 300.113 27.14705 
L 295.253 27.14705 
L 290.393 27.14705 
" style="fill:none;stroke:#000000;stroke-linecap:round;stroke-width:1.5;"/>
   </g>
   <g id="line2d_80">
    <path clip-path="url(#pd1e53d12d2)" d="M 300.113 41.09705 
L 295.253 41.09705 
L 290.393 41.09705 
" style="fill:none;stroke:#000000;stroke-linecap:round;stroke-width:1.5;"/>
   </g>
   <g id="line2d_81">
    <path clip-path="url(#pd1e53d12d2)" d="M 366.533 34.12205 
L 371.393 34.12205 
L 376.253 34.12205 
" style="fill:none;stroke:#000000;stroke-linecap:round;stroke-width:1.5;"/>
   </g>
   <g id="text_1">
    <!-- A -->
    <defs>
     <path d="M 34.1875 63.1875 
L 20.796875 26.90625 
L 47.609375 26.90625 
z
M 28.609375 72.90625 
L 39.796875 72.90625 
L 67.578125 0 
L 57.328125 0 
L 50.6875 18.703125 
L 17.828125 18.703125 
L 11.1875 0 
L 0.78125 0 
z
" id="DejaVuSans-41"/>
    </defs>
    <g transform="translate(17.008 143.16205)scale(0.16 -0.16)">
     <use xlink:href="#DejaVuSans-41"/>
    </g>
   </g>
   <g id="text_2">
    <!-- B -->
    <defs>
     <path d="M 19.671875 34.8125 
L 19.671875 8.109375 
L 35.5 8.109375 
Q 43.453125 8.109375 47.28125 11.40625 
Q 51.125 14.703125 51.125 21.484375 
Q 51.125 28.328125 47.28125 31.5625 
Q 43.453125 34.8125 35.5 34.8125 
z
M 19.671875 64.796875 
L 19.671875 42.828125 
L 34.28125 42.828125 
Q 41.5 42.828125 45.03125 45.53125 
Q 48.578125 48.25 48.578125 53.8125 
Q 48.578125 59.328125 45.03125 62.0625 
Q 41.5 64.796875 34.28125 64.796875 
z
M 9.8125 72.90625 
L 35.015625 72.90625 
Q 46.296875 72.90625 52.390625 68.21875 
Q 58.5 63.53125 58.5 54.890625 
Q 58.5 48.1875 55.375 44.234375 
Q 52.25 40.28125 46.1875 39.3125 
Q 53.46875 37.75 57.5 32.78125 
Q 61.53125 27.828125 61.53125 20.40625 
Q 61.53125 10.640625 54.890625 5.3125 
Q 48.25 0 35.984375 0 
L 9.8125 0 
z
" id="DejaVuSans-42"/>
    </defs>
    <g transform="translate(16.9755 157.11205)scale(0.16 -0.16)">
     <use xlink:href="#DejaVuSans-42"/>
    </g>
   </g>
   <g id="text_3">
    <!-- Q -->
    <defs>
     <path d="M 39.40625 66.21875 
Q 28.65625 66.21875 22.328125 58.203125 
Q 16.015625 50.203125 16.015625 36.375 
Q 16.015625 22.609375 22.328125 14.59375 
Q 28.65625 6.59375 39.40625 6.59375 
Q 50.140625 6.59375 56.421875 14.59375 
Q 62.703125 22.609375 62.703125 36.375 
Q 62.703125 50.203125 56.421875 58.203125 
Q 50.140625 66.21875 39.40625 66.21875 
z
M 53.21875 1.3125 
L 66.21875 -12.890625 
L 54.296875 -12.890625 
L 43.5 -1.21875 
Q 41.890625 -1.3125 41.03125 -1.359375 
Q 40.1875 -1.421875 39.40625 -1.421875 
Q 24.03125 -1.421875 14.8125 8.859375 
Q 5.609375 19.140625 5.609375 36.375 
Q 5.609375 53.65625 14.8125 63.9375 
Q 24.03125 74.21875 39.40625 74.21875 
Q 54.734375 74.21875 63.90625 63.9375 
Q 73.09375 53.65625 73.09375 36.375 
Q 73.09375 23.6875 67.984375 14.640625 
Q 62.890625 5.609375 53.21875 1.3125 
z
" id="DejaVuSans-51"/>
    </defs>
    <g transform="translate(113.813 150.13705)scale(0.16 -0.16)">
     <use xlink:href="#DejaVuSans-51"/>
    </g>
   </g>
   <g id="text_4">
    <!-- A -->
    <g transform="translate(146.608 143.16205)scale(0.16 -0.16)">
     <use xlink:href="#DejaVuSans-41"/>
    </g>
   </g>
   <g id="text_5">
    <!-- 0 -->
    <defs>
     <path d="M 31.78125 66.40625 
Q 24.171875 66.40625 20.328125 58.90625 
Q 16.5 51.421875 16.5 36.375 
Q 16.5 21.390625 20.328125 13.890625 
Q 24.171875 6.390625 31.78125 6.390625 
Q 39.453125 6.390625 43.28125 13.890625 
Q 47.125 21.390625 47.125 36.375 
Q 47.125 51.421875 43.28125 58.90625 
Q 39.453125 66.40625 31.78125 66.40625 
z
M 31.78125 74.21875 
Q 44.046875 74.21875 50.515625 64.515625 
Q 56.984375 54.828125 56.984375 36.375 
Q 56.984375 17.96875 50.515625 8.265625 
Q 44.046875 -1.421875 31.78125 -1.421875 
Q 19.53125 -1.421875 13.0625 8.265625 
Q 6.59375 17.96875 6.59375 36.375 
Q 6.59375 54.828125 13.0625 64.515625 
Q 19.53125 74.21875 31.78125 74.21875 
z
" id="DejaVuSans-30"/>
    </defs>
    <g transform="translate(147.373 157.11205)scale(0.16 -0.16)">
     <use xlink:href="#DejaVuSans-30"/>
    </g>
   </g>
   <g id="text_6">
    <!-- 0 -->
    <g transform="translate(243.413 150.13705)scale(0.16 -0.16)">
     <use xlink:href="#DejaVuSans-30"/>
    </g>
   </g>
   <g id="text_7">
    <!-- A -->
    <g transform="translate(276.208 143.16205)scale(0.16 -0.16)">
     <use xlink:href="#DejaVuSans-41"/>
    </g>
   </g>
   <g id="text_8">
    <!-- 1 -->
    <defs>
     <path d="M 12.40625 8.296875 
L 28.515625 8.296875 
L 28.515625 63.921875 
L 10.984375 60.40625 
L 10.984375 69.390625 
L 28.421875 72.90625 
L 38.28125 72.90625 
L 38.28125 8.296875 
L 54.390625 8.296875 
L 54.390625 0 
L 12.40625 0 
z
" id="DejaVuSans-31"/>
    </defs>
    <g transform="translate(276.973 157.11205)scale(0.16 -0.16)">
     <use xlink:href="#DejaVuSans-31"/>
    </g>
   </g>
   <g id="text_9">
    <!-- A -->
    <g transform="translate(373.013 150.13705)scale(0.16 -0.16)">
     <use xlink:href="#DejaVuSans-41"/>
    </g>
   </g>
   <g id="text_10">
    <!-- A -->
    <g transform="translate(17.008 87.36205)scale(0.16 -0.16)">
     <use xlink:href="#DejaVuSans-41"/>
    </g>
   </g>
   <g id="text_11">
    <!-- B -->
    <g transform="translate(16.9755 101.31205)scale(0.16 -0.16)">
     <use xlink:href="#DejaVuSans-42"/>
    </g>
   </g>
   <g id="text_12">
    <!-- Q -->
    <g transform="translate(115.433 94.33705)scale(0.16 -0.16)">
     <use xlink:href="#DejaVuSans-51"/>
    </g>
   </g>
   <g id="text_13">
    <!-- A -->
    <g transform="translate(146.608 87.36205)scale(0.16 -0.16)">
     <use xlink:href="#DejaVuSans-41"/>
    </g>
   </g>
   <g id="text_14">
    <!-- 0 -->
    <g transform="translate(147.373 101.31205)scale(0.16 -0.16)">
     <use xlink:href="#DejaVuSans-30"/>
    </g>
   </g>
   <g id="text_15">
    <!-- A -->
    <g transform="translate(245.033 94.33705)scale(0.16 -0.16)">
     <use xlink:href="#DejaVuSans-41"/>
    </g>
   </g>
   <g id="text_16">
    <!-- A -->
    <g transform="translate(276.208 87.36205)scale(0.16 -0.16)">
     <use xlink:href="#DejaVuSans-41"/>
    </g>
   </g>
   <g id="text_17">
    <!-- 1 -->
    <g transform="translate(276.973 101.31205)scale(0.16 -0.16)">
     <use xlink:href="#DejaVuSans-31"/>
    </g>
   </g>
   <g id="text_18">
    <!-- 1 -->
    <g transform="translate(374.633 94.33705)scale(0.16 -0.16)">
     <use xlink:href="#DejaVuSans-31"/>
    </g>
   </g>
   <g id="text_19">
    <!-- A -->
    <g transform="translate(17.008 31.56205)scale(0.16 -0.16)">
     <use xlink:href="#DejaVuSans-41"/>
    </g>
   </g>
   <g id="text_20">
    <!-- B -->
    <g transform="translate(16.9755 45.51205)scale(0.16 -0.16)">
     <use xlink:href="#DejaVuSans-42"/>
    </g>
   </g>
   <g id="text_21">
    <!-- Q -->
    <g transform="translate(120.293 38.53705)scale(0.16 -0.16)">
     <use xlink:href="#DejaVuSans-51"/>
    </g>
   </g>
   <g id="text_22">
    <!-- A -->
    <g transform="translate(146.608 31.56205)scale(0.16 -0.16)">
     <use xlink:href="#DejaVuSans-41"/>
    </g>
   </g>
   <g id="text_23">
    <!-- 0 -->
    <g transform="translate(147.373 45.51205)scale(0.16 -0.16)">
     <use xlink:href="#DejaVuSans-30"/>
    </g>
   </g>
   <g id="text_24">
    <!-- A -->
    <g transform="translate(249.893 38.53705)scale(0.16 -0.16)">
     <use xlink:href="#DejaVuSans-41"/>
    </g>
   </g>
   <g id="text_25">
    <!-- A -->
    <g transform="translate(276.208 31.56205)scale(0.16 -0.16)">
     <use xlink:href="#DejaVuSans-41"/>
    </g>
   </g>
   <g id="text_26">
    <!-- 1 -->
    <g transform="translate(276.973 45.51205)scale(0.16 -0.16)">
     <use xlink:href="#DejaVuSans-31"/>
    </g>
   </g>
   <g id="text_27">
    <!-- $\overline{A}$ -->
    <g transform="translate(379.493 38.63455)scale(0.16 -0.16)">
     <use transform="translate(0 0.84375)" xlink:href="#DejaVuSans-41"/>
     <path d="M 0 85.5 
L 0 91.75 
L 68.408203 91.75 
L 68.408203 85.5 
L 0 85.5 
z
"/>
    </g>
   </g>
  </g>
 </g>
 <defs>
  <clipPath id="pd1e53d12d2">
   <rect height="158.7231" width="386.046" x="10.7" y="10.7"/>
  </clipPath>
 </defs>
</svg>
